<svg xmlns="http://www.w3.org/2000/svg" viewBox="0 0 124.42 124.39"><defs><style>.cls-1{fill:#faaf59;}</style></defs><g id="Layer_2" data-name="Layer 2"><g id="Layer_2-2" data-name="Layer 2"><path class="cls-1" d="M88.7,124.39A2.78,2.78,0,0,1,87,121.45c0-10.52,0-21,0-31.57,0-2.14.77-2.89,3-2.89,10.48,0,21,0,31.45,0a3.06,3.06,0,0,1,3,1.45v36Zm2.68-33.14v28.87H120.2V91.25Z"/><path class="cls-1" d="M16.54,124.39a45,45,0,0,1-6.14-2A18.41,18.41,0,0,1,.14,103.51a18.67,18.67,0,1,1,24.37,19.9c-1.25.42-2.56.65-3.84,1Zm16.59-18.64a14.48,14.48,0,1,0-29-.06,14.48,14.48,0,0,0,29,.06Z"/><path class="cls-1" d="M62.22,35.21H44.85c-2.37,0-3.3-1.55-2.12-3.6q8.66-15,17.34-30c1.2-2.08,3.09-2.08,4.3,0q8.67,15,17.33,30c1.19,2.06.28,3.6-2.11,3.61ZM76.54,31C71.72,22.68,67,14.55,62.22,6.21L47.9,31Z"/><path d="M17.29,82.2l-3.87,1.36C4.45,59,16,30.25,40.66,19.24L42.37,23A47.81,47.81,0,0,0,17.29,82.2Z"/><path d="M84.17,23.68l1.76-3.38c22.57,11.21,33.2,38.25,25.77,61.09l-3.63-1.1C113.51,55.73,105.59,37,84.17,23.68Z"/><path d="M80.1,110.5l1.59,3.9a52.53,52.53,0,0,1-40.25-.55L43.11,110A48.15,48.15,0,0,0,80.1,110.5Z"/></g></g></svg>