<svg xmlns="http://www.w3.org/2000/svg" viewBox="0 0 53.58 53.58"><defs><style>.cls-1{fill:#fbaf58;}.cls-2{fill:#010101;}</style></defs><g id="Layer_2" data-name="Layer 2"><g id="Layer_2-2" data-name="Layer 2"><path class="cls-1" d="M25.65,36.63l-1.95-3.9a7,7,0,0,0-7-7H9.27a6.18,6.18,0,0,0-6.18,6.18v7.4A10.81,10.81,0,0,0,5,45.4L1.17,52a1,1,0,0,0,0,1,1,1,0,0,0,.89.51H20.61a1,1,0,0,0,.88-.5,1,1,0,0,0,0-1l-2.23-4.21a4,4,0,0,0,3.34-2.21l1-1.91a1.07,1.07,0,0,0,.11-.46v-3.7l1.76-1.76A1,1,0,0,0,25.65,36.63Zm-3.71,1.8a1,1,0,0,0-.3.73V43l-.85,1.7a1.93,1.93,0,0,1-2.27,1l-.84-.24A1,1,0,0,0,16.48,47l2.42,4.56H3.84l3.24-5.67A1.07,1.07,0,0,0,7,44.7a8.75,8.75,0,0,1-1.85-5.36V33H10.3a1,1,0,0,0,0-2.06h-5a4.14,4.14,0,0,1,4-3.09h7.42a5,5,0,0,1,4.95,5V33a1,1,0,0,0,.11.46l1.73,3.46Z"/><path class="cls-2" d="M28.55,15.76l-3.82-3.82V2.42A2.43,2.43,0,0,0,22.31,0H2.42A2.43,2.43,0,0,0,0,2.42V22.31a2.43,2.43,0,0,0,2.42,2.42H22.31a2.43,2.43,0,0,0,2.42-2.42V21l3.82-3.82A1,1,0,0,0,28.55,15.76ZM23,19.88a1,1,0,0,0-.3.73v1.7a.36.36,0,0,1-.36.36H2.42a.36.36,0,0,1-.36-.36V2.42a.36.36,0,0,1,.36-.36H22.31a.36.36,0,0,1,.36.36v9.94a1,1,0,0,0,.3.73l3.39,3.4Z"/><path class="cls-1" d="M14.4,31.74a1.33,1.33,0,0,0-.05-.19,1.62,1.62,0,0,0-.1-.18,1,1,0,0,0-.13-.16L14,31.09l-.18-.1-.19-.06a1.41,1.41,0,0,0-.41,0L13,31l-.18.1-.15.12a1,1,0,0,0-.13.16,1.62,1.62,0,0,0-.1.18,1.33,1.33,0,0,0,0,.19.75.75,0,0,0,0,.2.64.64,0,0,0,0,.2,1.46,1.46,0,0,0,0,.2,1,1,0,0,0,.1.17,1,1,0,0,0,.13.16.93.93,0,0,0,.15.13.76.76,0,0,0,.18.09.7.7,0,0,0,.19.06.75.75,0,0,0,.21,0,.71.71,0,0,0,.2,0,.7.7,0,0,0,.19-.06A.76.76,0,0,0,14,32.8a.93.93,0,0,0,.15-.13,1,1,0,0,0,.13-.16,1,1,0,0,0,.1-.17,1.46,1.46,0,0,0,.05-.2.64.64,0,0,0,0-.2A.75.75,0,0,0,14.4,31.74Z"/><path class="cls-1" d="M41.2,6l-.06-.19a1.62,1.62,0,0,0-.1-.18,1,1,0,0,0-.13-.16.88.88,0,0,0-.15-.12l-.18-.1-.19-.06a1.41,1.41,0,0,0-.41,0l-.19.06-.18.1-.15.12a1,1,0,0,0-.13.16,1.62,1.62,0,0,0-.1.18,1.33,1.33,0,0,0,0,.19.75.75,0,0,0,0,.2.64.64,0,0,0,0,.2,1.46,1.46,0,0,0,0,.2,1,1,0,0,0,.1.17,1,1,0,0,0,.13.16.93.93,0,0,0,.15.13.76.76,0,0,0,.18.09.7.7,0,0,0,.19.06.75.75,0,0,0,.21,0,.71.71,0,0,0,.2,0,.7.7,0,0,0,.19-.06A.76.76,0,0,0,40.76,7a.93.93,0,0,0,.15-.13A1,1,0,0,0,41,6.75a1,1,0,0,0,.1-.17l.06-.2a1.23,1.23,0,0,0,0-.2A1.5,1.5,0,0,0,41.2,6Z"/><path class="cls-2" d="M19.58,4.12H5.15a1,1,0,0,0,0,2.06H19.58a1,1,0,1,0,0-2.06Z"/><path class="cls-2" d="M19.58,9.27H5.15a1,1,0,0,0,0,2.06H19.58a1,1,0,0,0,0-2.06Z"/><path class="cls-2" d="M12.36,14.43H5.15a1,1,0,1,0,0,2.06h7.21a1,1,0,1,0,0-2.06Z"/><path class="cls-2" d="M48.43,29.88H34a1,1,0,0,0,0,2.06H48.43a1,1,0,0,0,0-2.06Z"/><path class="cls-2" d="M48.43,35H34a1,1,0,0,0,0,2.06H48.43a1,1,0,1,0,0-2.06Z"/><path class="cls-2" d="M41.22,40.19H34a1,1,0,0,0,0,2.06h7.22a1,1,0,0,0,0-2.06Z"/><path class="cls-1" d="M34.68,25.76,37.1,21.2a1,1,0,0,0-1.19-1.47l-.85.24a1.93,1.93,0,0,1-2.27-1l-.85-1.7V13.4a1,1,0,0,0-.3-.73L30.1,11.13l1.73-3.46a1,1,0,0,0,.11-.46V7a5,5,0,0,1,4.95-4.95h7.42a4.14,4.14,0,0,1,4,3.09h-5a1,1,0,0,0,0,2.06h5.15v6.37a8.8,8.8,0,0,1-1.84,5.36,1,1,0,0,0-.09,1.15l3.24,5.67h2.38l-3.5-6.12a10.81,10.81,0,0,0,1.87-6.06V6.18A6.18,6.18,0,0,0,44.31,0H36.89a7,7,0,0,0-7,7l-1.95,3.9a1,1,0,0,0,.19,1.19l1.76,1.76v3.7A1.07,1.07,0,0,0,30,18l1,1.91a4,4,0,0,0,3.34,2.21l-1.94,3.66Z"/><path class="cls-2" d="M49.74,25.76H31.27a2.43,2.43,0,0,0-2.42,2.42V37.7L25,41.52A1,1,0,0,0,25,43l3.82,3.82v1.28a2.43,2.43,0,0,0,2.42,2.42H51.16a2.43,2.43,0,0,0,2.42-2.42V28.18A2.43,2.43,0,0,0,52.27,26l-.15-.27m-.6,22.31a.36.36,0,0,1-.36.36H31.27a.36.36,0,0,1-.36-.36v-1.7a1,1,0,0,0-.3-.73l-3.39-3.39,3.39-3.4a1,1,0,0,0,.3-.72v-10a.36.36,0,0,1,.36-.36H51.16a.36.36,0,0,1,.36.36Z"/></g></g></svg>