<?xml version="1.0" encoding="utf-8"?>
<!-- Generator: Adobe Illustrator 25.0.1, SVG Export Plug-In . SVG Version: 6.00 Build 0)  -->
<svg version="1.1" id="Layer_1" xmlns="http://www.w3.org/2000/svg" xmlns:xlink="http://www.w3.org/1999/xlink" x="0px" y="0px"
	 viewBox="0 0 51.4 51.4" style="enable-background:new 0 0 51.4 51.4;" xml:space="preserve">
<style type="text/css">
	.st0{fill:#010101;}
	.st1{fill:#FAAF59;}
</style>
<path class="st0" d="M4,36.4c0-0.6,0.5-1,1-1l11.1-2v-7.6c2.5-1.5,4-4.2,4-7.1v-2.5h5.6c1.5,2.5,4.2,4,7.1,4h2.5v5.6
	c-2.5,1.5-4,4.2-4,7.1v4.5h2v9c0,0.3,0.1,0.7,0.2,1c0.4,0.9,1,1.6,1.8,2h1c0.4,0,0.8-0.1,1.1-0.2c0.4,1.6,2,2.6,3.6,2.2
	c1.1-0.3,1.9-1.1,2.2-2.2c0.4,0.1,0.7,0.2,1.1,0.2c1.4,0,2.6-0.9,2.9-2.2c0.4,0.1,0.7,0.2,1.1,0.2c1.7,0,3-1.3,3-3v-12
	c0-0.1,0-0.3-0.1-0.4c-0.2-1.7-0.7-3.4-1.4-4.9l-0.5-0.9v-11c0-0.4-0.1-0.7-0.2-1.1c1.6-0.4,2.6-2,2.2-3.6c-0.3-1.1-1.1-1.9-2.2-2.2
	c0.2-0.4,0.2-0.8,0.2-1.2c0-1.4-0.9-2.5-2.2-2.9c0.1-0.4,0.2-0.7,0.2-1.1c0-1.7-1.3-3-3-3H33.6C31.3,0,29,0.5,27,1.5L26.1,2h-11
	c-0.4,0-0.7,0.1-1.1,0.2c-0.4-1.6-2-2.6-3.6-2.2C9.3,0.3,8.4,1.1,8.2,2.2C7.8,2.1,7.4,2,7,2C5.6,2,4.5,2.9,4.1,4.2
	C3.7,4.1,3.4,4,3,4C1.3,4,0,5.3,0,7v10.9c0,2.6,0.7,5.2,2,7.5v11L4,36.4z M14.1,33.4H5c-0.3,0-0.7,0.1-1,0.2v-8.4
	c0-0.2,0-0.3-0.1-0.5C2.7,22.6,2,20.3,2,17.9V7c0-0.6,0.4-1,1-1s1,0.4,1,1v2c0,0.6,0.4,1,1,1s1-0.4,1-1V5c0-0.6,0.4-1,1-1s1,0.4,1,1
	v4c0,0.6,0.4,1,1,1s1-0.4,1-1V3c0-0.6,0.4-1,1-1s1,0.4,1,1v6c0,0.6,0.4,1,1,1s1-0.4,1-1V5c0-0.6,0.4-1,1-1s1,0.4,1,1v10.1
	c0,0.6,0.4,1,1,1h1v2.5c0,2.4-1.3,4.5-3.5,5.6c-0.3,0.2-0.6,0.5-0.6,0.9L14.1,33.4z M49.4,44.4c0,0.6-0.4,1-1,1s-1-0.4-1-1v-2
	c0-0.6-0.4-1-1-1s-1,0.4-1,1v4c0,0.6-0.4,1-1,1s-1-0.4-1-1v-4c0-0.6-0.4-1-1-1s-1,0.4-1,1v6c0,0.6-0.4,1-1,1s-1-0.4-1-1v-6
	c0-0.6-0.4-1-1-1s-1,0.4-1,1v4c0,0.6-0.4,1-1,1s-1-0.4-1-1v-10c0-0.6-0.4-1-1-1h-1v-2.5c0-2.4,1.3-4.6,3.5-5.6
	c0.3-0.2,0.6-0.5,0.6-0.9v-8.2h9c0.3,0,0.7-0.1,1-0.2v8.4c0,0.2,0,0.3,0.1,0.5l0.6,1.1c0.9,1.8,1.3,3.7,1.3,5.7L49.4,44.4z M48.4,12
	h-6c-0.6,0-1,0.4-1,1s0.4,1,1,1h4c0.6,0,1,0.4,1,1s-0.4,1-1,1h-10c-0.6,0-1,0.4-1,1v1h-2.5c-2.4,0-4.5-1.3-5.6-3.5
	C27,14.2,26.7,14,26.3,14h-8.2V5c0-0.3-0.1-0.7-0.2-1h8.4c0.2,0,0.3,0,0.5-0.1C28.8,2.7,31.2,2,33.6,2h10.8c0.6,0,1,0.4,1,1
	s-0.4,1-1,1h-2c-0.6,0-1,0.4-1,1s0.4,1,1,1h4c0.6,0,1,0.4,1,1s-0.4,1-1,1h-4c-0.6,0-1,0.4-1,1s0.4,1,1,1h6c0.6,0,1,0.4,1,1
	S49,12,48.4,12L48.4,12z"/>
<circle class="st1" cx="14.1" cy="50.1" r="1"/>
<path class="st1" d="M33.5,47.4h-6.4c-0.2,0-0.3,0-0.5,0.1L25.5,48c-1.8,0.9-3.7,1.3-5.7,1.3h-1.4c-0.6,0-1,0.4-1,1s0.4,1,1,1h1.4
	c2.3,0,4.5-0.5,6.6-1.5l0.9-0.5h8C34.5,48.9,33.9,48.2,33.5,47.4z M31.3,35.3l-5.6,0c-1.5-2.5-4.2-4-7.1-4l-4.6,0l0,2H5
	c-0.3,0-0.7,0.1-1,0.2c-1.2,0.4-2.1,1.5-2,2.8c0,0.4,0.1,0.8,0.2,1.1c-1.6,0.4-2.6,2-2.2,3.6c0.3,1.1,1.1,1.9,2.2,2.2
	C2.1,43.6,2,44,2,44.4c0,1.4,0.9,2.6,2.2,2.9C4.1,47.6,4,48,4,48.4c0,1.7,1.3,3,3,3h2.4c0.6,0,1-0.4,1-1s-0.4-1-1-1H7
	c-0.6,0-1-0.4-1-1s0.4-1,1-1h2c0.6,0,1-0.4,1-1s-0.4-1-1-1H5c-0.6,0-1-0.4-1-1s0.4-1,1-1h4c0.6,0,1-0.4,1-1s-0.4-1-1-1H3
	c-0.6,0-1-0.4-1-1s0.4-1,1-1h6c0.6,0,1-0.4,1-1s-0.4-1-1-1H5c-0.6,0-1-0.4-1-1s0.4-1,1-1H15c0.6,0,1-0.4,1-1v-1h2.5
	c2.4,0,4.6,1.3,5.6,3.5c0.2,0.3,0.5,0.6,0.9,0.6l6.2,0V35.3z"/>
</svg>
