<?xml version="1.0" encoding="utf-8"?>
<!-- Generator: Adobe Illustrator 25.0.1, SVG Export Plug-In . SVG Version: 6.00 Build 0)  -->
<svg version="1.1" id="Capa_1" xmlns="http://www.w3.org/2000/svg" xmlns:xlink="http://www.w3.org/1999/xlink" x="0px" y="0px"
	 viewBox="0 0 512 512" style="enable-background:new 0 0 512 512;" xml:space="preserve">
<style type="text/css">
	.st0{fill:#FBAF58;}
</style>
<g>
	<g>
		<path d="M446.2,54.8l-185-54.1l-0.4-0.1c-3.1-0.8-6.4-0.8-9.6,0L251,0.7L65.8,54.8c-13.7,3.7-23.2,16.1-23.2,30.3v263.8
			c0,34.6,19.1,65.9,49.9,81.6l121.1,71.2l0.8,0.5c13,6.5,27.2,9.8,41.4,9.8c14.2,0,28.5-3.3,41.4-9.8l0.4-0.2l121.6-71.4
			c30.8-15.8,49.9-47,49.9-81.6V85.1C469.4,70.9,459.8,58.5,446.2,54.8z M439.3,348.9L439.3,348.9c0,23.4-13,44.5-33.9,55.1
			l-0.4,0.2l-121.5,71.4c-17.3,8.6-37.8,8.6-55,0l-121.1-71.2l-0.8-0.5c-20.9-10.5-33.9-31.6-33.9-55.1V85.1c0-0.6,0.4-1.2,1.1-1.4
			L256,30.5l181.9,53.2l0.4,0.1c0.6,0.2,1.1,0.7,1.1,1.4L439.3,348.9L439.3,348.9z"/>
	</g>
</g>
<g>
	<g>
		<path d="M256,117.1c-70.9,0-128.5,57.6-128.5,128.5S185.1,374.1,256,374.1s128.5-57.6,128.5-128.5S326.9,117.1,256,117.1z
			 M256,344.1c-54.3,0-98.5-44.2-98.5-98.5s44.2-98.5,98.5-98.5s98.5,44.2,98.5,98.5S310.3,344.1,256,344.1z"/>
	</g>
</g>
<g>
	<g>
		<path class="st0" d="M311,207.1c-5.6-6.1-15.1-6.4-21.2-0.8l-50.7,46.9l-16.6-16.6c-5.9-5.9-15.4-5.9-21.2,0
			c-5.9,5.9-5.9,15.4,0,21.2l26.8,26.8c0.1,0.1,0.3,0.2,0.4,0.4c0.2,0.2,0.4,0.3,0.6,0.5c0.2,0.2,0.4,0.3,0.6,0.5
			c0.2,0.1,0.4,0.3,0.6,0.4c0.2,0.2,0.5,0.3,0.7,0.4c0.2,0.1,0.4,0.2,0.6,0.4c0.2,0.1,0.5,0.3,0.8,0.4c0.2,0.1,0.4,0.2,0.6,0.3
			c0.3,0.1,0.6,0.2,0.8,0.3c0.2,0.1,0.4,0.1,0.6,0.2c0.3,0.1,0.6,0.2,0.9,0.2c0.2,0,0.3,0.1,0.5,0.1c0.3,0.1,0.7,0.1,1,0.2
			c0.1,0,0.3,0,0.4,0.1c0.5,0,1,0.1,1.5,0.1c0,0,0,0,0,0c0,0,0,0,0,0c0.5,0,0.9,0,1.4-0.1c0.1,0,0.3,0,0.4-0.1c0.3,0,0.7-0.1,1-0.1
			c0.2,0,0.3-0.1,0.5-0.1c0.3-0.1,0.6-0.1,0.9-0.2c0.2-0.1,0.4-0.1,0.6-0.2c0.3-0.1,0.5-0.2,0.8-0.3c0.2-0.1,0.4-0.2,0.6-0.3
			c0.2-0.1,0.5-0.2,0.7-0.3c0.2-0.1,0.4-0.2,0.6-0.3c0.2-0.1,0.4-0.2,0.7-0.4c0.2-0.1,0.4-0.3,0.6-0.4c0.2-0.1,0.4-0.3,0.6-0.4
			c0.2-0.1,0.4-0.3,0.5-0.5c0.1-0.1,0.3-0.2,0.4-0.3l61.3-56.7C316.3,222.6,316.6,213.2,311,207.1z"/>
	</g>
</g>
</svg>
