<?xml version="1.0" encoding="utf-8"?>
<!-- Generator: Adobe Illustrator 25.0.1, SVG Export Plug-In . SVG Version: 6.00 Build 0)  -->
<svg version="1.1" id="Layer_1" xmlns="http://www.w3.org/2000/svg" xmlns:xlink="http://www.w3.org/1999/xlink" x="0px" y="0px"
	 viewBox="0 0 45.5 53.6" style="enable-background:new 0 0 45.5 53.6;" xml:space="preserve">
<style type="text/css">
	.st0{fill:#010101;}
	.st1{fill:#FBAF58;}
</style>
<g id="Layer_2_1_">
	<g id="Layer_2-2">
		<path class="st0" d="M30.3,18.2c0-0.4-0.4-0.8-0.8-0.8h0h-9.8c-0.4,0-0.8,0.4-0.8,0.8v0c0,0.4,0.3,0.8,0.8,0.8c0,0,0,0,0,0h9.8
			C30,18.9,30.3,18.6,30.3,18.2C30.3,18.2,30.3,18.2,30.3,18.2z"/>
		<path class="st0" d="M7.4,31.8c0,1.1,0.9,2.1,2.1,2.1h4.7c1.1,0,2.1-0.9,2.1-2.1v-4.6l0.7-0.7c0.3-0.3,0.3-0.8,0-1.1
			c-0.3-0.3-0.8-0.3-1.1,0c0,0,0,0,0,0l-0.3,0.3c-0.4-0.4-0.9-0.5-1.4-0.5H9.4c-1.1,0-2.1,0.9-2.1,2.1V31.8z M8.9,27.1
			c0-0.3,0.2-0.5,0.5-0.5c0,0,0,0,0,0h4.7c0.1,0,0.2,0,0.3,0.1L12,29.1l-0.6-0.6c-0.3-0.3-0.8-0.3-1.1,0c0,0,0,0,0,0
			c-0.3,0.3-0.3,0.8,0,1.1l1.1,1.1c0.2,0.1,0.4,0.2,0.6,0.2c0.2,0,0.4-0.1,0.6-0.2l2.1-2.1v3.1c0,0.3-0.2,0.5-0.5,0.5H9.4
			c-0.3,0-0.5-0.2-0.5-0.5l0,0V27.1z"/>
		<path class="st0" d="M19.7,28.7c-0.4,0-0.8,0.3-0.9,0.7c0,0.4,0.3,0.8,0.7,0.9c0.1,0,0.1,0,0.2,0h3.6c0.4,0,0.7-0.4,0.7-0.9
			c0-0.4-0.3-0.7-0.7-0.7H19.7z"/>
		<path class="st0" d="M7.4,43.1c0,1.1,0.9,2.1,2.1,2.1c0,0,0,0,0,0h4.7c1.1,0,2.1-0.9,2.1-2.1l0,0v-4.7c0-1.1-0.9-2.1-2.1-2.1H9.4
			c-1.1,0-2.1,0.9-2.1,2.1V43.1z M8.9,38.4c0-0.3,0.2-0.5,0.5-0.5h4.7c0.3,0,0.5,0.2,0.5,0.5v4.7c0,0.3-0.2,0.5-0.5,0.5H9.4
			c-0.3,0-0.5-0.2-0.5-0.5V38.4z"/>
		<path class="st0" d="M45.5,18.4c0-0.9-0.4-1.7-1-2.4c-1.3-1.3-3.5-1.3-4.8,0c-0.1,0.1-0.1,0.1-0.2,0.2V6.6c0-1.8-1.5-3.2-3.2-3.2
			h-7.4V1.9C28.9,0.8,28,0,27,0H12.6c-1,0-1.9,0.8-1.9,1.9v1.5H3.2C1.4,3.4,0,4.9,0,6.6v43.7c0,1.8,1.4,3.2,3.2,3.2h33.1
			c1.8,0,3.2-1.4,3.2-3.2V29.5c0-0.4-0.4-0.8-0.8-0.8l0,0c-0.4,0-0.8,0.3-0.8,0.8c0,0,0,0,0,0v20.9c0,0.9-0.8,1.7-1.7,1.7
			c0,0,0,0,0,0H3.2c-0.9,0-1.7-0.7-1.7-1.7V6.6C1.6,5.7,2.3,5,3.2,5h4.6v1.6c0,1.9,1.6,3.3,3.4,3.3c0.2,0,0.3,0,0.5,0L19,8.6
			c0.5-0.1,1.1-0.1,1.6,0l7.2,1.3c1.8,0.3,3.5-1,3.8-2.8c0-0.1,0-0.3,0-0.4V5h3.2v15.9L21.7,34c-0.8,0.7-1.4,1.7-1.7,2.7l-1,3.8
			c0,0.3,0,1.1,1,1l3.8-1c1.1-0.3,2-0.9,2.7-1.7l8.4-8.4v18.2c0,0.1-0.1,0.2-0.2,0.2H4.9c-0.1,0-0.2-0.1-0.2-0.2V7.9
			C4.7,7.5,4.4,7.1,4,7S3.2,7.3,3.1,7.7c0,0.1,0,0.1,0,0.2v40.8c0,1,0.8,1.8,1.8,1.8c0,0,0,0,0,0h29.8c1,0,1.8-0.8,1.8-1.7
			c0,0,0,0,0,0V28.8l8.1-8.1l0,0C45.1,20.1,45.5,19.3,45.5,18.4L45.5,18.4z M12.3,1.9c0-0.2,0.1-0.3,0.3-0.3c0,0,0,0,0,0H27
			c0.2,0,0.3,0.1,0.3,0.3v1.5h-15L12.3,1.9z M30.1,6.6c0,1-0.8,1.7-1.8,1.7c-0.1,0-0.1,0-0.2,0l-7.3-1.3c-0.7-0.1-1.4-0.1-2.1,0
			l-7.2,1.3c-1,0.1-1.9-0.5-2-1.5c0-0.1,0-0.1,0-0.2V5h20.7V6.6z M43.4,19.6L41.1,22l-2.5-2.5l2.3-2.3c0.7-0.7,1.8-0.8,2.5-0.2
			c0.7,0.7,0.8,1.8,0.2,2.5C43.5,19.6,43.5,19.6,43.4,19.6L43.4,19.6z M26,37.1l-2.5-2.5l14-14l2.5,2.5L26,37.1z M36.4,5
			C37.3,5,38,5.8,38,6.6v11.1l-1.6,1.5L36.4,5z M21.5,37.2c0.1-0.5,0.4-1,0.8-1.5l2.5,2.5c-0.6,0.7-3.1,1.2-4,1.5L21.5,37.2z"/>
		<path class="st0" d="M15.8,14C15.8,14,15.8,14,15.8,14l-0.3,0.3c-0.4-0.3-0.9-0.5-1.4-0.5H9.4c-1.1,0-2.1,0.9-2.1,2.1v4.7
			c0,1.1,0.9,2.1,2.1,2.1h4.7c1.1,0,2.1-0.9,2.1-2.1v-4.7 M14.6,17.4l0,3.2c0,0.3-0.2,0.5-0.5,0.5c0,0,0,0,0,0H9.4
			c-0.3,0-0.5-0.2-0.5-0.5l0,0v-4.7c0-0.3,0.2-0.5,0.5-0.5c0,0,0,0,0,0h4.7c0.1,0,0.2,0,0.2,0.1"/>
		<path class="st1" d="M16.2,15.8l0.7-0.7c0.3-0.3,0.3-0.8,0-1.1l0,0c-0.3-0.3-0.8-0.3-1.1,0c0,0,0,0,0,0l-0.3,0.3l-1.1,1.1L12,17.8
			l-0.6-0.6c-0.3-0.3-0.8-0.3-1.1,0c0,0,0,0,0,0c-0.3,0.3-0.3,0.8,0,1.1l1.1,1.1c0.1,0.1,0.3,0.2,0.6,0.2c0.2,0,0.4-0.1,0.6-0.2
			l2.1-2.1L16.2,15.8z"/>
		<path class="st1" d="M16.2,27.2l0.7-0.7c0.3-0.3,0.3-0.8,0-1.1l0,0c-0.3-0.3-0.8-0.3-1.1,0c0,0,0,0,0,0l-0.3,0.3l-1.1,1.1L12,29.1
			l-0.6-0.6c-0.3-0.3-0.8-0.3-1.1,0c0,0,0,0,0,0c-0.3,0.3-0.3,0.8,0,1.1l1.1,1.1c0.2,0.1,0.4,0.2,0.6,0.2c0.2,0,0.4-0.1,0.6-0.2
			l2.1-2.1L16.2,27.2z"/>
	</g>
</g>
</svg>
