<svg xmlns="http://www.w3.org/2000/svg" viewBox="0 0 77.71 79.4"><defs><style>.cls-1{fill:#231f20;}.cls-2{fill:#597e5d;}</style></defs><g id="Layer_2" data-name="Layer 2"><g id="Layer_1-2" data-name="Layer 1"><path class="cls-1" d="M27,57.33H8.11A8.15,8.15,0,0,1,0,49.17Q0,33.78,0,18.4a8.21,8.21,0,0,1,8.15-8.2h27a2,2,0,0,1,1.47.49A1.4,1.4,0,0,1,37,11.73c0,1.2-1,1.45-1.84,1.45H9c-3.88,0-6,2.15-6,6v1.87Q3,34.8,3,48.51a5.22,5.22,0,0,0,3.55,5.4l.28.11v-.31a11.88,11.88,0,0,1,1.64-7.28,11.39,11.39,0,0,1,10-5.66c1.53,0,3.07,0,4.6,0l5.67,0h.12A11.69,11.69,0,0,1,40.35,52.33c0,1.92.11,2,2,2h6.37c1.15,0,1.78.54,1.78,1.5s-.64,1.49-1.79,1.49Zm5.12-8.08a1.44,1.44,0,0,1,1.48,1.37,4.68,4.68,0,0,1,0,.65v.28c0,2.19,0,2.86,1.59,2.86.36,0,.81,0,1.38-.07h.19c.57,0,.63-.49.65-.73A8.71,8.71,0,0,0,30,44a51.49,51.49,0,0,0-6.29-.37,59.93,59.93,0,0,0-6.34.34A8.43,8.43,0,0,0,9.8,52.2c-.05,1-.07,1.54.22,1.84s.78.3,1.78.3h.82a.9.9,0,0,0,.22,0,.77.77,0,0,0,.56-.2,1.12,1.12,0,0,0,.2-.81c0-.83,0-1.72,0-2.64a1.49,1.49,0,0,1,3,0c0,.76.05,1.64,0,2.53a1.15,1.15,0,0,0,.2.86,1.05,1.05,0,0,0,.8.25l2.61,0H27l2.54,0h0a1.12,1.12,0,0,0,.86-.25,1.15,1.15,0,0,0,.2-.86,23.16,23.16,0,0,1,0-2.63,1.41,1.41,0,0,1,1.47-1.37Z"/><path class="cls-2" d="M45.64,28.47A1.42,1.42,0,0,1,45,28.3a1.53,1.53,0,0,1-.82-1.67c0-.18,0-.37,0-.55v-.2c0-.2,0-.41,0-.62a3.2,3.2,0,0,0-.1-1.45c-.22-.53-.75-.57-1.22-.61a2.52,2.52,0,0,1-.64-.11,5,5,0,0,1-3.15-4.58q0-6.84,0-13.68A4.82,4.82,0,0,1,43.94,0H64.19a4.8,4.8,0,0,1,5,5q0,6.69,0,13.37a4.81,4.81,0,0,1-5,5H53.91a2.54,2.54,0,0,0-1.67.56c-1.08.83-2.18,1.65-3.28,2.47L46.82,28A2,2,0,0,1,45.64,28.47ZM54,3H44.23a2,2,0,0,0-2.17,2.17q0,6.53,0,13.05a2,2,0,0,0,2.07,2.16c2.79.16,2.79.16,3.11,3.11l0,.35,1.4-1c.83-.61,1.61-1.19,2.37-1.79a2.82,2.82,0,0,1,1.89-.64l5.43,0H63.9c1.56,0,2.32-.74,2.32-2.25q0-6.46,0-12.94A2,2,0,0,0,64.07,3Z"/><path class="cls-1" d="M45.6,79.4a1.43,1.43,0,0,1-1-.42,1.78,1.78,0,0,1-.4-1.31c0-.81,0-1.62,0-2.43a19.18,19.18,0,0,1,.41-5.54,11.74,11.74,0,0,1,11-8.56h5.86c.34,0,.71,0,1.09,0l1.31,0,1.44,0a16.78,16.78,0,0,1,2.87.21A11.6,11.6,0,0,1,77.7,72.44c0,1.73,0,3.46,0,5.19,0,1.13-.54,1.77-1.48,1.77s-1.49-.65-1.5-1.8V75.8c0-1,0-2,0-3a8.44,8.44,0,0,0-7.45-8.51,57.33,57.33,0,0,0-12.74,0,8.35,8.35,0,0,0-7.36,8.36c0,1,0,2,0,3.07,0,.64,0,1.28,0,1.92,0,1.1-.55,1.73-1.48,1.73Z"/><path class="cls-1" d="M23.5,37A9.93,9.93,0,0,1,13.59,27a9.94,9.94,0,0,1,10-10,10,10,0,1,1-.09,20Zm.06-17a7.1,7.1,0,0,0-7,6.92,7.07,7.07,0,0,0,7,7.06,7.1,7.1,0,0,0,7-6.92,7.07,7.07,0,0,0-7-7.06Z"/><path class="cls-1" d="M60.85,57.33a10,10,0,1,1,10.06-10,9.94,9.94,0,0,1-10.06,10Zm.09-17a7,7,0,1,0,7,7,7.11,7.11,0,0,0-7-7Z"/><path class="cls-1" d="M60.92,35.25a1.47,1.47,0,0,1-1.48-1.65c0-2.16,0-4.31,0-6.47,0-1,.56-1.65,1.48-1.65s1.49.63,1.5,1.7c0,.76,0,1.52,0,2.28v2c0,.71,0,1.41,0,2.12,0,1.07-.55,1.7-1.46,1.71Z"/><path class="cls-1" d="M52.44,79.4A1.42,1.42,0,0,1,51,78c0-1.77,0-3.51,0-5.19a1.42,1.42,0,0,1,1.48-1.44,1.46,1.46,0,0,1,1.49,1.51c0,.59,0,1.18,0,1.77v1.55c0,.58,0,1.17,0,1.76a1.46,1.46,0,0,1-1.47,1.49Z"/><path class="cls-1" d="M69.42,79.4a1.44,1.44,0,0,1-1.49-1.53c0-.59,0-1.18,0-1.77V74.52c0-.58,0-1.16,0-1.73a1.48,1.48,0,0,1,3,0c0,1.62,0,3.28,0,5.08a1.45,1.45,0,0,1-1.45,1.52Z"/><path class="cls-2" d="M47.33,13.18a1.46,1.46,0,0,1-1.47-1.58,1.45,1.45,0,0,1,1.49-1.41,1.5,1.5,0,0,1,0,3Z"/><path class="cls-2" d="M54.09,13.18A1.47,1.47,0,0,1,53,12.7a1.53,1.53,0,0,1-.37-1.14,1.46,1.46,0,0,1,1.49-1.37,1.5,1.5,0,0,1,0,3Z"/><path class="cls-2" d="M60.92,13.18a1.49,1.49,0,0,1-1.08-.46,1.47,1.47,0,0,1-.4-1.11,1.45,1.45,0,0,1,1.49-1.42,1.48,1.48,0,0,1,1.49,1.53,1.46,1.46,0,0,1-1.49,1.46Z"/></g></g></svg>