<?xml version="1.0" encoding="utf-8"?>
<!-- Generator: Adobe Illustrator 25.0.1, SVG Export Plug-In . SVG Version: 6.00 Build 0)  -->
<svg version="1.1" id="Layer_1" xmlns="http://www.w3.org/2000/svg" xmlns:xlink="http://www.w3.org/1999/xlink" x="0px" y="0px"
	 viewBox="0 0 64.5 85.9" style="enable-background:new 0 0 64.5 85.9;" xml:space="preserve">
<style type="text/css">
	.st0{fill:#597E5C;}
</style>
<g id="Layer_2_1_">
	<g id="Layer_1-2">
		<path d="M33.6,0c1.8,0.4,3.4,1.6,4.4,3.2C38.4,3.7,39,4.1,39.6,4c1.6,0,3.1,0,4.7,0c1.5-0.1,2.9,0.7,3.6,2
			c0.2,0.4,0.6,0.7,1.1,0.7h10.1c2.9-0.1,5.3,2.2,5.4,5.1c0,0.1,0,0.1,0,0.2c0,22.8,0,45.7,0,68.5c0.1,2.9-2.2,5.3-5.1,5.4
			c-0.1,0-0.2,0-0.3,0c-17.9,0-35.8,0-53.7,0C2.5,86,0.1,83.7,0,80.8c0-0.1,0-0.2,0-0.2V12c0-2.9,2.3-5.3,5.2-5.3c0.1,0,0.2,0,0.2,0
			c3.3,0,6.6,0,9.9,0c0.6,0.1,1.2-0.2,1.4-0.8C17.4,4.7,18.6,4,20,4c1.6,0,3.1,0,4.7,0c0.8,0.1,1.5-0.3,1.9-1c1-1.5,2.5-2.6,4.3-3
			H33.6z M61.8,46.4v-34c0-2.2-0.9-3.1-3-3.1c-3,0-6,0-9.1,0c-1.2,0-1.2,0-1.3,1.2c0,2.1-1.5,3.8-3.6,4.1c-2.3,0.2-4.7,0.2-7,0.1
			c-5.7,0-11.4,0-17,0c-2.5,0-4.1-1.1-4.5-3.3c-0.1-0.5-0.1-0.9-0.1-1.4c0-0.4-0.1-0.7-0.6-0.7c-3.5,0-7,0-10.6,0.1
			c-1.2,0.1-2.1,1-2.2,2.2c0,0.4,0,0.8,0,1.2v67c0,0.4,0,0.7,0,1.1c0.1,1.1,0.8,2,1.9,2.2c0.6,0.1,1.2,0.2,1.7,0.2h51.7
			c0.6,0,1.1,0,1.7-0.2c1.1-0.3,1.8-1.2,1.9-2.3c0-0.4,0-0.8,0-1.3L61.8,46.4z M32.2,12h11.7c1.3,0,1.7-0.4,1.8-1.8
			c0-0.6,0-1.3,0-1.9c0-1.2-0.4-1.6-1.6-1.6s-2.6,0-3.8,0c-1.9,0.2-3.8-0.7-4.7-2.4c-0.2-0.4-0.5-0.7-0.9-0.9
			c-1.7-1.3-4.1-1-5.4,0.7C29.1,4.2,29,4.3,29,4.3c-0.8,1.4-2.3,2.3-4,2.3c-1.6,0-3.1,0-4.7,0c-1.1,0-1.5,0.4-1.5,1.5
			c0,0.6,0,1.3,0,1.9c0,1.5,0.4,1.9,1.9,1.9L32.2,12z"/>
		<path d="M56.4,68.9V16.2c0-1.4,0-1.4-1.4-1.4c-0.8,0-1.6,0-2.3,0c-1-0.1-1.6-0.6-1.5-1.4s0.6-1.3,1.6-1.3h4.7
			c1.3,0,1.7,0.4,1.7,1.8v64.8c0,1.6-0.3,2-2,2H7.4c-1.7,0-2-0.3-2-2V46.3c0-1.4,0.5-2.1,1.4-2.1s1.4,0.8,1.4,2.1v30.1
			c0,1.3,0,1.3,1.3,1.3h45.6c1.3,0,1.2,0,1.4-1.3c0.4-2.3-0.6-4.6-2.4-5.9c-1.3-1.1-2.6-2.4-3.8-3.7c-0.5-0.6-0.9-0.6-1.5-0.1
			c-1,0.8-2.1,1.6-3.2,2.4s-1.7,0.8-2.7-0.3C36.8,62,30.6,55,24.5,48c-0.2-0.4-0.8-0.6-1.2-0.3c-0.1,0-0.1,0.1-0.2,0.1
			c-1.5,1-3,1.9-4.6,2.8c-1,0.6-1.5,0.6-2.3-0.3c-3.5-3.8-6.9-7.7-10.3-11.6c-0.3-0.4-0.5-0.9-0.5-1.4V13.6C5.4,12.5,5.9,12,7,12
			h4.9c1,0,1.5,0.5,1.6,1.2s-0.5,1.4-1.5,1.5s-1.8,0-2.7,0c-1.1,0-1.1,0-1.1,1.1v16.6c0,1.3,0,2.7,0,4c0,0.4,0.1,0.8,0.4,1.1
			c2.9,3.3,5.9,6.6,8.8,9.9c0.3,0.4,0.6,0.3,1,0.1c1.6-1,3.2-1.9,4.8-2.8c1.1-0.7,1.6-0.6,2.5,0.4c6.1,7,12.2,14,18.4,20.9
			c0.5,0.5,0.8,0.6,1.3,0.2c1.1-0.9,2.2-1.7,3.3-2.5c0.5-0.6,1.5-0.7,2.1-0.1c0.1,0.1,0.2,0.2,0.2,0.3c1.5,1.5,3,3,4.6,4.6
			C55.8,68.6,56.1,68.8,56.4,68.9z"/>
		<path class="st0" d="M24.1,27.8c0.6,0,1.2,0,1.8,0.1c0.6,0.1,1.1,0.6,1.1,1.3c0.1,2.6-1.1,5.6-4.5,6.4c-3.5,0.7-6.9-1.6-7.6-5.1
			c-0.7-3.4,1.5-6.8,4.9-7.6c1.6-0.4,3.3-0.1,4.8,0.8c0.7,0.3,1,1.1,0.7,1.8c0,0.1-0.1,0.1-0.1,0.2c-0.4,0.6-1.2,0.9-1.8,0.5
			c-0.1,0-0.1-0.1-0.2-0.1c-1.8-1.1-4.1-0.6-5.2,1.2c-1.1,1.8-0.6,4.1,1.2,5.2c0.7,0.5,1.6,0.7,2.5,0.6c1-0.1,1.9-0.8,2.3-1.8
			c0.2-0.4,0.1-0.6-0.4-0.6c-0.3,0-0.7,0-1,0c-0.7,0-1.2-0.5-1.2-1.2c-0.1-0.7,0.3-1.3,1-1.5c0,0,0,0,0,0
			C22.9,27.9,23.5,27.8,24.1,27.8z"/>
		<path class="st0" d="M39,34.3c0,0.6-0.4,1.2-1,1.3c-0.5,0.2-1.1,0-1.4-0.5c-0.1-0.1-0.2-0.3-0.2-0.4c-0.2-1.4-1.1-1.7-2.4-1.5
			c-0.3,0-0.6,0-0.8,0c-0.9-0.3-1.9,0.2-2.2,1.1c0,0.1-0.1,0.2-0.1,0.3c-0.1,0.7-0.8,1.1-1.5,1c-0.1,0-0.2-0.1-0.3-0.1
			c-0.7-0.3-1-1-0.8-1.7c0-0.1,0-0.1,0.1-0.1c1.2-3.3,2.5-6.5,3.7-9.8c0.2-0.7,0.8-1.2,1.6-1.2c0.7,0,1.3,0.5,1.5,1.1
			c1.2,3.3,2.5,6.6,3.7,9.9C38.9,34,39,34.2,39,34.3z M33.7,27.8c-0.3,0.4-0.6,0.8-0.7,1.3c-0.6,1.5-0.5,1.6,1.1,1.4
			c0.4,0,0.5-0.2,0.4-0.5C34.3,29.3,34,28.6,33.7,27.8z"/>
		<path class="st0" d="M41.3,29.2c0-1.6,0-3.2,0-4.9c0-1.1,0.5-1.6,1.6-1.6c0.9,0,1.8,0,2.8,0c2.3,0,4.2,1.9,4.2,4.2
			c0,2.3-1.9,4.2-4.2,4.2C44,31.3,44,31.3,44,32.9c0,0.4,0,0.9,0,1.3c-0.1,1-0.7,1.5-1.4,1.5s-1.3-0.6-1.3-1.6
			C41.3,32.5,41.3,30.9,41.3,29.2z M44,27c0,1.5,0,1.5,1,1.5c1.3,0,2-0.5,2-1.5s-0.7-1.5-2-1.5C44,25.5,44,25.5,44,27z"/>
		<path d="M25.6,68.5c-3,0-6,0-9,0c-0.5,0.1-1-0.1-1.3-0.4c-0.5-0.5-0.5-1.3,0-1.9c0.1-0.1,0.3-0.3,0.5-0.3c0.4-0.1,0.8-0.2,1.2-0.2
			h17.3c0.3,0,0.7,0,1,0.1c0.7,0.1,1.2,0.7,1.2,1.4c-0.1,0.7-0.7,1.2-1.4,1.2c-1.2,0-2.4,0-3.6,0L25.6,68.5z"/>
		<path d="M40.3,41.6h7.5c0.3,0,0.7,0,1,0.1c0.7,0.3,1.1,1,0.8,1.7c-0.1,0.4-0.4,0.7-0.8,0.8c-0.3,0.1-0.7,0.2-1.1,0.1H32.5
			c-1,0-1.6-0.6-1.6-1.4s0.7-1.3,1.7-1.3L40.3,41.6z"/>
		<path d="M22.9,63.1h-6.4c-1.1,0-1.7-0.5-1.7-1.4s0.6-1.4,1.7-1.4c4.3,0,8.5,0,12.8,0c0.8-0.1,1.6,0.5,1.7,1.3c0,0,0,0.1,0,0.1
			c0,0.8-0.7,1.3-1.7,1.3L22.9,63.1z"/>
		<path d="M42.3,49.7h-5.7c-1,0-1.7-0.5-1.7-1.3s0.7-1.4,1.7-1.4c3.8,0,7.6,0,11.4,0c1.1,0,1.7,0.6,1.7,1.4s-0.6,1.3-1.7,1.3
			L42.3,49.7z"/>
		<path d="M44.3,55.1c-1.2,0-2.5,0-3.8,0c-1,0-1.6-0.5-1.6-1.3c0-0.8,0.7-1.4,1.5-1.4c0,0,0.1,0,0.1,0c2.5,0,5.1,0,7.6,0
			c1,0,1.6,0.6,1.6,1.4s-0.6,1.4-1.7,1.4C46.8,55.1,45.6,55.1,44.3,55.1z"/>
		<path d="M20.1,57.8c-1.3,0-2.5,0-3.8,0c-1,0-1.6-0.5-1.6-1.3c0-0.8,0.6-1.4,1.4-1.4c0.1,0,0.1,0,0.2,0c2.6,0,5.1,0,7.7,0
			c0.8,0,1.5,0.6,1.5,1.4c0,0.8-0.7,1.4-1.4,1.4c0,0-0.1,0-0.1,0C22.7,57.8,21.4,57.8,20.1,57.8z"/>
		<path d="M33.7,7.4c0,1.3-0.5,1.9-1.4,1.9s-1.4-0.6-1.3-2.2c0-1.2,0.5-1.8,1.4-1.8S33.7,6,33.7,7.4z"/>
	</g>
</g>
</svg>
