<svg xmlns="http://www.w3.org/2000/svg" viewBox="0 0 287.79 271.55"><g id="Layer_2" data-name="Layer 2"><g id="Layer_1-2" data-name="Layer 1"><path d="M28.84,127.67h3.65c24.95,0,49.89-.07,74.84.08,3.49,0,4.6-.72,4.59-4.45-.15-37.55-.09-75.09-.1-112.63a13.67,13.67,0,0,1,.66-5.53C113.89,1.84,116.33,0,120,0s6.07,1.87,7.46,5.19c.8,1.91.64,3.91.64,5.9V260.31c0,7.25-2.84,11.19-8.07,11.24s-8.18-3.95-8.18-11.13c0-37.3-.06-74.59.08-111.88,0-3.71-.67-5-4.75-5-25,.21-49.89.1-74.84.1h-4c.41,1.67,1.62,2.4,2.52,3.29q22.86,22.92,45.77,45.78c2.74,2.74,4.45,5.69,2.89,9.68a7.93,7.93,0,0,1-12.07,3.64,22.66,22.66,0,0,1-2.77-2.51Q34.49,173.41,4.34,143.23c-5.81-5.81-5.79-9.31.07-15.17Q34.71,97.76,65,67.47c2.58-2.58,5.32-4.55,9.26-3.29a7.86,7.86,0,0,1,4.26,12.3,25.5,25.5,0,0,1-3,3.32Q53.43,101.9,31.31,124A25.23,25.23,0,0,1,28,126.36Z"/><path d="M259.24,143.68H239.85c-20.09,0-40.17.07-60.25-.07-3,0-3.68.86-3.68,3.74q.15,56.51.07,113c0,7.21-2.9,11.19-8.13,11.19s-8.13-4-8.13-11.19q0-124.61,0-249.22a22.86,22.86,0,0,1,.3-4.83A7.8,7.8,0,0,1,167.79,0a7.72,7.72,0,0,1,7.83,6.19A20.88,20.88,0,0,1,176,11q0,56.31,0,112.63c0,2.44-.11,4.13,3.38,4.11,25.94-.16,51.89-.09,77.83-.09.6,0,1.2-.08,2.1-.14-.38-1.63-1.61-2.35-2.49-3.24q-22.72-22.78-45.5-45.52c-2.59-2.59-4.46-5.38-3.12-9.3a7.87,7.87,0,0,1,12.08-4.22A21.42,21.42,0,0,1,223.31,68q30,30,60.07,60.06c5.84,5.85,5.88,9.44.13,15.2-20.28,20.29-40.68,40.46-60.78,60.92-5.4,5.49-13.16,3.66-14.77-2.75-.9-3.62.82-6.21,3.23-8.61Q234,170.07,256.73,147.3a27.56,27.56,0,0,1,3.28-2.43Z"/></g></g></svg>