<svg xmlns="http://www.w3.org/2000/svg" viewBox="0 0 359.92 312.13"><g id="Layer_2" data-name="Layer 2"><g id="Layer_1-2" data-name="Layer 1"><path d="M311.5,222c-24.25,47.61-61.77,76.6-114.38,82.88S101.41,291.89,67,252c-1,1.14-.51,2.44-.52,3.6,0,11,0,22,0,32.94-.08,13-10.85,23.34-24.2,23.34s-24.16-10.33-24.18-23.34c-.05-37.8,0-75.59-.06-113.39,0-3.34.9-6,4.12-7.21,1.63-.64,1.91-1.7,1.91-3.18q0-26.76,0-53.52c0-2.1-.75-3.22-2.8-3.69A28.21,28.21,0,0,1,.08,78.31C1.2,63,2,47.74,3,32.45c.54-8.45,1-16.9,1.61-25.35.31-4.77,2.81-7.28,6.9-7,3.91.23,6.14,3.4,5.85,8-.91,14.3-1.75,28.59-2.61,42.89-.25,4.1-.44,8.21-.79,12.31-.2,2.38.78,3.64,3,4.48A66.69,66.69,0,0,0,32.2,71.15c3,.41,3.9-.78,3.88-3.74C36,47.33,36,27.25,36.05,7.16,36.05,3,37.91.55,41.2.09c4.29-.61,7.28,2.09,7.3,6.8.06,11.22,0,22.45,0,33.68,0,9,.12,18-.06,26.94-.06,3.12,1.17,4,4,3.63a63.56,63.56,0,0,0,15.26-3.45c2-.79,3-1.89,2.89-4.16-.72-10.93-1.36-21.87-2-32.81-.49-8-1.08-15.91-1.44-23.87a6.2,6.2,0,0,1,6-6.79C77-.11,79.63,2.28,79.91,6.45c1,15.4,2,30.81,3,46.22,0,.59.11,1.18.23,2.32C113.36,28.85,148,16.05,187.53,18.09s72.42,18.36,100,47.6c0-4.8,0-8.86,0-12.92C287.64,24.26,311.83.11,340.39,0c4.24,0,8.48,0,12.72,0,4.51.07,6.64,2.19,6.79,6.62,0,.5,0,1,0,1.49q0,139.77,0,279.55a23.89,23.89,0,0,1-18.15,23.62c-15,4-30.2-7.46-30.25-23-.06-20.7,0-41.41,0-62.12Zm-24-90.6c0-13.47-.05-26.94,0-40.41a11.36,11.36,0,0,0-2.46-7.57C255,44.94,215.41,27.55,167,31.45c-30.05,2.42-56,15.23-78.06,35.81-3.38,3.16-5,6.38-4.55,11.06,1.35,14.25-8.72,26.31-21.09,29.26-2,.49-2.82,1.58-2.82,3.69.06,17.83,0,35.67,0,53.5,0,1.26,0,2.47,1.53,3,3.82,1.39,4.51,4.42,4.49,8.12-.1,16,0,31.93-.09,47.89a13.45,13.45,0,0,0,2.22,7.71,130.64,130.64,0,0,0,25,29.17C125.8,288.14,163,298.15,204.4,290.81c30.51-5.4,55.93-20.6,76-44.32a128.52,128.52,0,0,0,29.1-63c.42-2.59-.16-3.38-2.71-3.3-3.86.13-7.73,0-11.59,0-5.67,0-7.64-2-7.65-7.65Q287.52,151.94,287.54,131.37Zm59.88-40.89c0-24.57-.07-49.15.09-73.72,0-3.62-1.26-4.69-4.56-4.25s-6.74.5-10,1.24c-20.15,4.58-32.81,21-32.88,42.91-.12,35.67,0,71.35-.09,107,0,3.08.91,4.11,4,4.07,13-.14,25.95-.19,38.92,0,3.69.06,4.59-1.17,4.57-4.7C347.36,138.88,347.43,114.68,347.42,90.48ZM30.56,234.94q0,25.08,0,50.14c0,3.15.32,6.25,2.18,8.93a11.43,11.43,0,0,0,13.14,4.6c4.69-1.45,8-6.22,8.06-12.27.07-34.3,0-68.6.08-102.9,0-2.41-.83-3.34-3.27-3.29-5.36.11-10.73.22-16.08,0-3.39-.16-4.21,1.12-4.18,4.32C30.63,201.27,30.56,218.11,30.56,234.94Zm316.86,0c0-17-.05-33.92.05-50.88,0-2.87-.75-4.05-3.8-3.93-5.1.22-10.23.26-15.33,0-3.5-.18-4.43,1-4.42,4.46.11,33.43.07,66.85.05,100.28a22.8,22.8,0,0,0,.82,6.28,11.43,11.43,0,0,0,12.83,7.81c6.3-1.23,9.76-5.88,9.79-13.49C347.46,268.61,347.42,251.77,347.42,234.93ZM36.55,137.6c0,7.71,0,15.43,0,23.15s-1,6.69,7,7c3.73.15,4.57-1.23,4.53-4.71-.16-15.68,0-31.37-.09-47,0-8.71,1.37-7.48-7.73-7.75-3.07-.08-3.81,1.12-3.76,3.95C36.64,120.67,36.55,129.13,36.55,137.6ZM12.9,80.14C14,89.32,18.06,94.41,26.41,95.27a135.52,135.52,0,0,0,33.13-.21C66.78,94,71.31,88,71.35,80.24c-9.48,3.19-19.16,4.19-29,4.2S22.72,83.45,12.9,80.14Z"/><path d="M276.08,161.94c.72,52.47-43.17,96.14-95.86,96.24-52.91.11-96.61-43.73-96.44-96.57.16-52.55,43.88-96,96.38-95.89S276.82,109.52,276.08,161.94Zm-179.64.15c1.14,46.79,36.78,83.13,83.6,83.18,46.08.06,83.39-35.94,83.28-83.65-.11-45.89-35.77-82.92-83.17-83C133.07,78.6,97.56,115,96.44,162.09Z"/></g></g></svg>