<svg xmlns="http://www.w3.org/2000/svg" viewBox="0 0 271.38 350.06"><g id="Layer_2" data-name="Layer 2"><g id="Layer_1-2" data-name="Layer 1"><path d="M30.41,142.71c-.88-4.71-2.5-8.08-3.66-11.6C18.48,106.14,10.11,81.2,2,56.18-5.53,33,9,10.79,33.29,8.82c13.66-1.1,29.86,6.71,35.94,25Q80.6,68.07,92.08,102.3c1.47,4.39,1.4,4.3,4.74,1.4,10.59-9.21,22.77-12.64,36.5-9.33,3.23.77,4.26.11,5-3.07,2.29-9.54,8-16.22,17.59-19.12,2.17-.66,2.47-1.8,2.28-3.88-.73-8-.4-16,2-23.69,4-12.68,13-17.75,25.74-14.19,3.3.93,4.54.28,5.65-2.89,2.72-7.86,6.74-15,13.09-20.62,12.82-11.35,30.69-8.4,39.18,6.52a39.66,39.66,0,0,1,4.26,29.62c-.68,2.88-.29,4.07,3,4.79,12.34,2.72,18.54,13,15.87,25.8-1.58,7.54-5.44,13.87-10.48,19.55-1,1.14-2.25,2.12-.32,3.6,11,8.47,11.25,19.77,8.13,31.82-.65,2.53-1.28,4,2.44,3.95,2.56,0,4,2.28,4.36,4.89a35.15,35.15,0,0,1,.1,4.11c0,61.74-.2,123.48.17,185.22.08,12.33-8.21,23.32-23.35,23.28Q140.27,349.8,32.51,350c-9.22,0-16.51-3.31-20.93-11.77a18.92,18.92,0,0,1-2.05-9q0-94.86,0-189.71c0-2.79.41-5.23,3.18-6.63s4.82-.13,6.87,1.44C22.91,136.89,26.24,139.48,30.41,142.71Zm40.22,6.69V333.5c0,5.05,0,5.06,5.22,5.06H248c1.13,0,2.26,0,3.37-.07a9,9,0,0,0,8.39-8.52c.11-1.37.09-2.74.09-4.12q0-85.14,0-170.27c0-.88,0-1.75,0-2.62,0-2.24-.86-2.71-2.69-1.27-3.91,3.09-7.82,6.19-11.82,9.18s-5.76,2.88-9.69-.18c-5.91-4.59-11.86-9.13-17.65-13.87-1.82-1.5-3-1.43-4.81,0q-8.9,7.16-18,14c-3.94,3-5.74,2.91-9.68-.15-5.92-4.59-11.86-9.14-17.66-13.87-1.81-1.49-3-1.46-4.78,0-5.6,4.58-11.35,9-17,13.43-4.76,3.73-6.51,3.73-11.21.06-5.69-4.46-11.46-8.83-17.06-13.4-1.77-1.45-2.92-1.61-4.77-.09-5.59,4.58-11.36,8.95-17.07,13.4-4.88,3.82-6.56,3.78-11.5-.1C80.12,156.76,75.8,153.43,70.63,149.4ZM194.71,147c5.89-4.57,10.88-8.49,15.91-12.34,4.18-3.19,5.78-3.18,9.95,0,5.93,4.57,11.84,9.16,17.68,13.83,1.75,1.4,3,1.45,4.3-.47,5.32-8,10.16-16.31,11.94-26,2.06-11.18-1.37-16.46-12.35-19a11.08,11.08,0,0,1-1.79-.51c-3.67-1.56-4.67-5.66-2-8.58a23.18,23.18,0,0,1,3.54-2.71c7.26-5.33,12.81-11.82,14.43-21,1-6-1.36-9.87-7.27-11.57-2.7-.77-5.45-.5-8.18-.54-5.63-.09-7.82-3.21-6.12-8.64,1-3.09,2.23-6.14,2.73-9.31,1.29-8.08.88-16-4.27-22.88C227.81,10,219.32,9,212.33,14.76a27.57,27.57,0,0,0-5.75,6.84c-3.47,5.58-5.45,11.72-7.19,18C198,44.72,194.84,46,190,43.78A52.2,52.2,0,0,0,183,41c-6.79-1.92-10.07-.13-12.19,6.61-2.45,7.79-2,15.82-1.16,23.75.85,8.35.14,9.68-8,10.79a15.68,15.68,0,0,0-13.4,17,4.29,4.29,0,0,0,1.63,3.21c8.56,6.95,13.18,16.08,14.82,26.85.15,1,.05,2.14,1.09,2.65,5.88,2.91,10.43,7.66,15.7,11.41,1.38,1,2.16,1,2.63-.83a72.28,72.28,0,0,1,2.22-7.53c1-2.62.24-4.41-1.63-6.31-5.14-5.26-10.16-10.64-15.14-16.06-2.8-3.07-2.88-6.34-.44-8.63s5.37-2.16,8.47,1c3.56,3.67,6.95,7.5,10.49,11.18,2.53,2.63,2.95,2.51,4-1,2.59-8.86,5.06-17.75,7.74-26.58a4.71,4.71,0,0,0-1.36-5.32q-5.52-5.58-10.77-11.43c-2.71-3-2.81-6-.56-8.28,2.51-2.48,5.28-2.17,8.49.88,2.83,2.69,5.71,5.34,8.76,8.19,1.26-4.3,2.42-8.62,3.79-12.87,1.2-3.71,4.06-5.38,7.06-4.42s4.41,4,3.43,7.62q-1.35,5.06-2.89,10.06c-.76,2.45,0,2.92,2.31,2.17,2.72-.91,5.48-1.72,8.25-2.44,3.28-.85,5.93.48,7,3.34s-.33,5.66-3.43,6.93a25.6,25.6,0,0,1-6.42,2c-9.57,1.12-14.41,6.32-15.92,15.9-1.09,6.91-3.76,13.58-5.93,21.07l16.08-4.47c.84-.23,1.67-.52,2.52-.71,3.41-.78,6.22.68,7.15,3.69s-.7,5.86-4.13,6.89c-7.28,2.18-14.63,4.16-21.94,6.24-1.43.4-3,.64-3.62,2.3A58.23,58.23,0,0,0,194.71,147Zm-135,97.12V193.58q0-20.19,0-40.4c0-.93.52-2.23-.58-2.72s-1.72.73-2.48,1.32c-3.74,2.91-7.44,5.86-11.19,8.76-4.26,3.29-6.1,3.32-10.29.11S27,154.36,23,151.22c-.57-.44-1.14-1.17-1.94-.83s-.52,1.3-.57,2,0,1.5,0,2.25q0,84.92,0,169.85c0,1.37-.05,2.75.06,4.11.58,6.59,4.1,9.9,10.71,9.95,7.6.05,15.21,0,22.82,0,5.59,0,5.59,0,5.59-5.43Zm24-99c-.35-5.78-1.79-11.14-.1-16.12,2.75-8.13,1.37-15.55-1.83-23.07-1.31-3.08-2.16-6.37-3.23-9.56-6.66-20-13.22-40-20-59.92a24.16,24.16,0,0,0-29-15.78c-12,3-19.88,14.58-18.32,26.38.42,3.2,1.59,3.37,4.09,2.25s4.88-1.9,7.33-2.81c9.81-3.65,19.54.37,23.27,9.59,3.66,9-.44,18.49-10,22.71-3.41,1.51-6.94,2.79-10.48,4-2,.68-2.45,1.74-1.77,3.66,1.29,3.64,2.58,7.29,3.65,11,.71,2.48,1.9,3.2,4.34,2.17,3.21-1.35,6.5-2.52,9.77-3.73,9.41-3.51,19.18.39,22.88,9.1,3.94,9.28,0,18.87-9.58,23.16-3.75,1.67-7.65,3-11.53,4.39-2.56.9-3.75,2.15-2.52,5a53.19,53.19,0,0,1,2.26,6.73c.65,2.28,1.53,2.85,3.57,1.17,4.14-3.39,8.44-6.6,12.64-9.93,5.42-4.3,6.56-4.34,12-.13Q77.35,140.16,83.62,145.06Zm40.52-40.62c-19.67,0-33.91,18.18-28.9,36.92,1,3.63,1.42,3.81,4.3,1.59q5.17-4,10.32-8.07c4.48-3.51,6.1-3.59,10.56-.17,5.94,4.56,11.85,9.15,17.69,13.83,1.67,1.35,2.91,1.36,4.54,0,2.65-2.28,5.43-4.4,8.25-6.46a6.56,6.56,0,0,0,2.71-4.64C156.43,120.52,142.11,104.46,124.14,104.44Zm-76.72.94c-2.06.75-4.63,1.65-7.16,2.64-9.2,3.57-9.27,3.78-5,12.91.11.22.17.47.28.69a1.79,1.79,0,0,0,2.45,1c4.62-1.81,9.34-3.42,13.79-5.6,2.73-1.34,3.43-4.24,2.5-7.13S51,105.67,47.42,105.38ZM35.85,63.65c.11-5-3.5-8.23-7.35-7.51a27,27,0,0,0-4.57,1.55c-9.35,3.57-9.31,3.56-5.58,12.8.74,1.84,1.6,2.61,3.6,1.78,3.33-1.36,6.74-2.52,10.05-3.92C34.51,67.29,35.8,65.27,35.85,63.65Z"/></g></g></svg>