<svg xmlns="http://www.w3.org/2000/svg" viewBox="0 0 125.31 139.18"><defs><style>.cls-1{fill:#597e5d;}.cls-2{fill:#231f20;}</style></defs><g id="Layer_2" data-name="Layer 2"><g id="Layer_1-2" data-name="Layer 1"><path class="cls-1" d="M84.76,139.18c-2.51-.56-5.05-.89-7.52-1.63-14.14-4.25-24.66-17.44-26-32.14a37.41,37.41,0,0,1,27.23-39.2c20.66-5.72,42.61,8,46.23,29,3.44,19.91-8.38,38.13-27.88,43-1.65.41-3.34.66-5,1ZM55.83,102a32.42,32.42,0,1,0,32.5-32.42A32.47,32.47,0,0,0,55.83,102Z"/><path class="cls-2" d="M.06,73.25q0-19.71,0-39.42A6,6,0,0,1,1.34,30c4-5.26,7.94-10.57,11.93-15.84A3.54,3.54,0,0,0,14,11.76C14,9.5,14,7.23,14,5c0-3.16,1.86-5,5-5H50.7c3.19,0,5,1.81,5.11,5,0,2.26,0,4.53,0,6.79a3.51,3.51,0,0,0,.76,2.37c4,5.34,8,10.73,12.09,16.07a5,5,0,0,1,1.11,3.24c0,9.56,0,19.12,0,28.68,0,.31,0,.63,0,1a2.35,2.35,0,0,1-2.39,2.42A2.27,2.27,0,0,1,65,63.21a32.37,32.37,0,0,1,0-3.94c.07-1.06-.34-1.3-1.32-1.28-2.63.06-5.26,0-7.89,0Q31.08,58,6.34,58c-1.23,0-1.58.31-1.58,1.56q.09,14.69,0,29.36c0,1.21.26,1.6,1.55,1.59,12.59,0,25.19,0,37.78,0,2.36,0,3.42.73,3.4,2.34s-1.1,2.32-3.45,2.32c-12.59,0-25.19,0-37.78,0-1.17,0-1.53.24-1.51,1.47.08,5.44,0,10.88,0,16.31,0,2.39.68,3.08,3.08,3.08q19,0,38.06,0a14.53,14.53,0,0,1,1.62.06,2.22,2.22,0,0,1,2.07,2.16,2.33,2.33,0,0,1-1.94,2.43,8.26,8.26,0,0,1-1.49.06c-12.55,0-25.1-.12-37.65.06-4.87.07-8.62-2.62-8.54-8.61C.18,99.16.06,86.2.06,73.25ZM34.8,53.31c9.64,0,19.29,0,28.93,0,1,0,1.3-.25,1.29-1.28q-.08-8,0-16c0-1.05-.33-1.25-1.3-1.25q-28.87,0-57.74,0C5,34.77,4.76,35,4.77,36c.05,5.34.06,10.69,0,16,0,1.1.32,1.33,1.36,1.33C15.69,53.29,25.24,53.31,34.8,53.31Zm0-48.68c-5,0-10.05,0-15.07,0-.79,0-1.15.15-1.11,1,.07,1.62.07,3.26,0,4.89,0,.87.32,1.06,1.11,1.05,1.85-.05,3.71,0,5.57,0a3.51,3.51,0,0,0,1.55-.41,17.66,17.66,0,0,1,16.06,0,3.09,3.09,0,0,0,1.41.4c1.9,0,3.81,0,5.71,0,.89,0,1-.35,1-1.13-.05-1.5-.07-3,0-4.48.06-1-.21-1.39-1.32-1.38C44.8,4.66,39.82,4.63,34.84,4.63ZM62.57,30.08c-.36-.53-.62-.93-.9-1.32a107.46,107.46,0,0,1-6.61-9,6.69,6.69,0,0,0-7.44-3.57c-.89.12-1.15.33-1.13,1.19,0,2.49,0,5,0,7.47a5.77,5.77,0,0,1-1.95,4.59c-.17.16-.52.26-.34.59Zm-55.41,0H26c-2.32-1.67-2.78-3.82-2.67-6.26.09-2.17,0-4.35,0-6.52,0-.73-.15-1.07-1-1-1.36.06-2.72,0-4.08,0A1.45,1.45,0,0,0,17,17c-1.44,2-2.93,3.91-4.39,5.87C10.8,25.2,9.05,27.55,7.16,30.08Zm20.77-8.15c0,1.05,0,1.94,0,2.83a1.64,1.64,0,0,0,.84,1.57c2.86,2,9.59,1.93,12.35-.06a1.33,1.33,0,0,0,.72-1.2c0-1,0-2,0-3.11A19.72,19.72,0,0,1,27.93,21.93Zm6.74-3.41a11.93,11.93,0,0,0,6.17-1.37c1.21-.71,1.25-1.12.06-1.74a12.23,12.23,0,0,0-12.15.07c-1,.53-.83,1,0,1.55A11.39,11.39,0,0,0,34.67,18.52Z"/><path class="cls-2" d="M34.87,65H46c1.79,0,2.88.92,2.85,2.35s-1.09,2.27-2.79,2.27q-11.19,0-22.38,0c-1.65,0-2.76-1-2.73-2.35A2.4,2.4,0,0,1,23.61,65Z"/><path class="cls-2" d="M9.4,105.53c0-1.18-.05-2.36,0-3.53a2.18,2.18,0,0,1,2.24-2.23A2.29,2.29,0,0,1,14,102c.05.91,0,1.82,0,2.72,0,1.91,0,1.91,2,1.91.77,0,1.54,0,2.31,0,1.61.07,2.62,1,2.63,2.33s-1,2.38-2.7,2.4c-2.08,0-4.16,0-6.25,0a2.38,2.38,0,0,1-2.63-2.6c0-1.08,0-2.17,0-3.26Z"/><path class="cls-2" d="M34.89,78.86c-2.17,0-4.34,0-6.52,0-1.7,0-2.77-.91-2.79-2.29s1.09-2.34,2.75-2.35q6.57,0,13.16,0c1.65,0,2.75,1,2.72,2.37a2.38,2.38,0,0,1-2.67,2.26C39.32,78.88,37.11,78.86,34.89,78.86Z"/><path class="cls-1" d="M90.62,89.74c0,3.35,0,6.7,0,10.05a2.85,2.85,0,0,0,.92,2.26q7.19,7.11,14.31,14.29c1.38,1.38,1.23,3.2-.29,4a2.17,2.17,0,0,1-2.73-.43q-8.13-8.1-16.23-16.22a2.68,2.68,0,0,1-.7-2c0-7.47,0-14.94,0-22.41,0-1.68.94-2.73,2.36-2.73s2.34,1,2.35,2.74C90.64,82.77,90.61,86.26,90.62,89.74Z"/></g></g></svg>