<svg xmlns="http://www.w3.org/2000/svg" viewBox="0 0 145.53 145.5"><defs><style>.cls-1{fill:#231f20;}.cls-2{fill:#597e5d;}</style></defs><g id="Layer_2" data-name="Layer 2"><g id="Layer_1-2" data-name="Layer 1"><path class="cls-1" d="M133.33,145.5a13.38,13.38,0,0,1-5.25-3.7c-7.53-7.59-15.12-15.12-22.66-22.71a1.3,1.3,0,0,0-2.07-.18c-11.76,8.31-24.9,12.67-39.26,12C36.68,129.61,17,116.25,5.37,91.38c-4.7-10-6-20.79-5.08-31.71A64.94,64.94,0,0,1,49.8,1.94,65.19,65.19,0,0,1,129.34,51c4.2,18.86.61,36.29-10.32,52.2-.68,1-.64,1.46.2,2.29,7.56,7.49,15.06,15.05,22.61,22.56a13.15,13.15,0,0,1,3.7,5.24v3.13a18.61,18.61,0,0,1-9.08,9.08Zm-7.19-79.9A60.52,60.52,0,0,0,66.35,5C33.05,4.44,5.46,31.43,5,64.78a60.56,60.56,0,1,0,121.12.82Zm14.53,69.2a3,3,0,0,0-.93-1.89q-12-12-24-24c-.63-.63-.93-.44-1.41.12a44.47,44.47,0,0,1-5.32,5.31c-.75.62-.58,1,0,1.51,1.41,1.34,2.75,2.73,4.12,4.1l19.56,19.56c1.52,1.51,2.62,1.5,4.13,0,1-1,1.94-1.94,2.92-2.9A2.87,2.87,0,0,0,140.67,134.8Z"/><path class="cls-1" d="M73,101.83a18.36,18.36,0,0,1-4.76-9.21,17,17,0,0,1,13.42-19.5,16.55,16.55,0,0,1,12.58,2.5c.69.46,1.12.46,1.67-.18a17,17,0,0,1,1.9-1.9,2.39,2.39,0,0,1,3.44,0,2.46,2.46,0,0,1,0,3.34c-.81.92-2.23,1.71-2.37,2.7s1.07,2.09,1.54,3.21c2.73,6.52,1.83,12.54-2.62,18-.19.25-.54.4-.52.87,2.17.23,4,.24,5.76-1.75,7.27-8.27,11.84-17.71,13-28.67,2.76-25.59-12.88-48.31-37.78-55-1.68-.45-2.55-1.36-2.42-2.66a2.42,2.42,0,0,1,2-2.27,3.1,3.1,0,0,1,1.66.19c22.68,6.71,36.79,21.58,41,44.87,5.3,29.67-14.66,58-44.19,63.73A55.7,55.7,0,0,1,52.66,11.34,54.71,54.71,0,0,1,65,9.82c1.89,0,3,.91,3,2.44s-1,2.38-2.87,2.42c-13.31.32-25,4.81-34.6,14.07C19.3,39.58,14,52.94,14.89,68.57a49.84,49.84,0,0,0,13.93,32.07,3.52,3.52,0,0,0,2.82,1.23c13.15-.05,26.3,0,39.45,0Zm18.48-22A2.25,2.25,0,0,0,90.3,79,12.09,12.09,0,0,0,72.86,89.48a12.23,12.23,0,0,0,7.39,11.45A12.07,12.07,0,0,0,96,84.87c-.73-1.63-.73-1.63-2.14-.51a2.4,2.4,0,0,1-3.34-.09,2.43,2.43,0,0,1-.07-3.34C90.75,80.53,91.12,80.16,91.46,79.79Zm-55,27.11c16.28,12.53,41.89,12.66,58.38,0Z"/><path class="cls-2" d="M45.45,94.67c-7.93-.42-14.56-4-18.53-11.66s-3.37-15.12,1.34-22.27c2-3,5.31-3.36,7.85-.84Q47.68,71.4,59.16,83c2.45,2.47,2.08,5.75-.79,7.78A22.32,22.32,0,0,1,45.45,94.67ZM42.81,76.93c0-1.17-.79-.69-1.28-.62-3.4.51-6.8,1.11-10.21,1.59-1,.14-1.15.46-.78,1.35a16.42,16.42,0,0,0,9.13,9.19c1,.44,1.44.27,1.47-.9A19.59,19.59,0,0,1,41.55,85Q42.18,81,42.81,76.93Zm-2.1-5.47C38,68.72,35.46,66.2,33,63.66c-.5-.51-.72-.16-1,.22a16,16,0,0,0-2.63,8.37c0,.78.25,1,1,.88,1.3-.22,2.61-.39,3.91-.6C36.33,72.2,38.39,71.85,40.71,71.46ZM55.49,86.79l-8-8c-.52,3.21-1.06,6.6-1.61,10-.13.77.29.84.89.83A15.46,15.46,0,0,0,55.49,86.79Z"/><path class="cls-2" d="M101.86,46.39A21.58,21.58,0,0,1,78.8,67.93,21,21,0,0,1,67.88,64c-2.78-2-3.14-5.22-.77-7.67,2.17-2.24,4.4-4.42,6.6-6.62L89.85,33.59c3-3,6.18-2.64,8.49.9A20.88,20.88,0,0,1,101.86,46.39ZM84.3,49.57c-.64-.09-.91,0-.79.65q.93,5.58,1.78,11.18c.1.68.36.78.91.56a16.1,16.1,0,0,0,9.7-9.71c.18-.49.2-.81-.41-.9Zm1.11-4.77c4,.62,7.4,1.14,10.84,1.69.56.1.77,0,.75-.62a16.7,16.7,0,0,0-2.78-8.79c-.27-.41-.49-.5-.87-.12C90.81,39.48,88.25,42,85.41,44.8ZM70.71,60a15.52,15.52,0,0,0,8.87,3c.91,0,1-.32.84-1.1C80.21,61,80.11,60,80,59c-.38-2.37-.78-4.75-1.15-7C76.05,54.7,73.38,57.35,70.71,60Z"/><path class="cls-1" d="M43.69,42.61c-.18-2.15,1.93-5.83,5.7-7.61,1.49-.7,1.62-1.42.46-2.63a2.9,2.9,0,0,0-1.49-.75,2.5,2.5,0,0,1-2.12-2.73,2.46,2.46,0,0,1,2.9-2.05A2.94,2.94,0,0,1,50,27c.63.24,1,.29,1.12-.6a2.4,2.4,0,0,1,4.74.06c.09.62.31.8.94.62a5.27,5.27,0,0,1,1.53-.2A2.28,2.28,0,0,1,60.71,29a2.33,2.33,0,0,1-1.85,2.63,3.16,3.16,0,0,0-1.77.79c-1.12,1.22-1,2,.44,2.62a9.52,9.52,0,0,1,5.63,9.22,43.7,43.7,0,0,1-5.68,19c-1.9,3.34-6.28,3.21-8.16-.2C46.18,57.27,44.32,51.18,43.69,42.61Zm9.79,17.7c.43-.86.74-1.44,1-2a40.2,40.2,0,0,0,3.73-13.85A4.79,4.79,0,0,0,53.9,39a4.62,4.62,0,0,0-5.18,4.85A38.47,38.47,0,0,0,53.48,60.31Z"/></g></g></svg>