<?xml version="1.0" encoding="utf-8"?>
<!-- Generator: Adobe Illustrator 25.0.1, SVG Export Plug-In . SVG Version: 6.00 Build 0)  -->
<svg version="1.1" id="Layer_1" xmlns="http://www.w3.org/2000/svg" xmlns:xlink="http://www.w3.org/1999/xlink" x="0px" y="0px"
	 viewBox="0 0 100.9 131.2" style="enable-background:new 0 0 100.9 131.2;" xml:space="preserve">
<style type="text/css">
	.st0{fill:#597E5C;}
</style>
<g id="Layer_2_1_">
	<g id="Layer_1-2">
		<path d="M75.1,48.1H34.3c-0.7,0-1.3,0-2-0.2c-1-0.2-1.7-1.2-1.5-2.2c0.1-1,0.9-1.7,1.8-1.7c0.5,0,0.9,0,1.4,0h41.1 M87.3,76.7
			c0-1.8,1.3-2.8,2.7-2.2c0.7,0.2,1.2,0.9,1.2,1.6c0,0.3,0,0.7,0,1c0,28.7,0,9.5,0,38.2c0.1,3.6-2.4,6.8-5.9,7.6l-0.4,0.1
			c-2.2,0.3-2.3,0.4-2.2,2.6c0.3,2.7-1.5,5.1-4.2,5.4c-0.4,0.1-0.8,0.1-1.2,0c-1.6-0.1-3.2,0-4.9,0c-2.4,0-4.4-1.9-4.5-4.3
			c0-0.8,0-1.6,0-2.4c0.1-0.9-0.3-1.2-1.2-1.2c-14.2,0-28.3,0-42.5,0c-0.9,0-1.3,0.3-1.2,1.2c0.1,0.8,0.1,1.6,0,2.4
			c-0.1,2.4-2.1,4.3-4.5,4.3c-1.9,0-3.8,0-5.8,0c-2.4,0-4.4-1.9-4.5-4.4c-0.1-1.1,0.2-2.3-0.2-3.2s-1.9-0.3-2.8-0.6
			c-3.3-0.8-5.5-3.8-5.4-7.2C0,79.7,0,43.5,0,7.3C0,3.5,2,1.2,5.5,0h80.4c2.5,0.7,4.5,2.7,5.2,5.2c0.2,0.5,0.2,1.1,0.2,1.6
			c0,4.1,0,8.2,0,12.3c0,1.5-0.8,2.5-2,2.5s-2-1-2-2.5c0-3.6,0-7.2,0-10.9c0-3-1.2-4.3-4.3-4.3c-24.9,0-49.8,0-74.7,0
			C5.3,3.9,4,5.2,4,8.1C4,19.6,4,31,4,42.4C4,43.7,4.4,44,5.6,44c5.8,0,11.7,0,17.5,0c0.8-0.1,1.5,0.2,2.1,0.7
			c0.8,0.8,0.7,2.1,0,2.8c-0.2,0.2-0.5,0.4-0.7,0.5c-0.6,0.2-1.3,0.3-2,0.2c-5.6,0-11.2,0-16.8,0c-1.2,0-1.7,0.3-1.7,1.6
			c0,21.7,0,43.4,0,65.1c0,3,1.1,4.1,4.1,4.1h75.1c2.9,0,4-1.1,4-4.1L87.3,76.7z M15.9,123.2c-3.5,0-3.5,0-3.2,2.8
			c0.1,0.7,0.4,1.1,1.1,1.1h4.1c0.7,0,1.1-0.3,1.1-1.1c0.3-2.8,0.2-2.8-2.6-2.8H15.9z M75.5,123.2c-3.4,0-3.4,0-3.2,2.8
			c0,0,0,0.1,0,0.1c0,0.5,0.3,1,0.8,1c0.1,0,0.1,0,0.2,0h4.2c0.5,0,0.9-0.3,1-0.7c0.6-2.3,0-3.2-2.4-3.2L75.5,123.2z M75.1,43.9
			c1.2-0.1,2.2,0.8,2.2,2c0.1,1.2-0.8,2.2-2,2.2c-0.1,0-0.2,0-0.3,0"/>
		<path d="M19.9,66.8c0,3,0.1,6,0,8.9c0.1,3.1-2.3,5.7-5.4,5.8c-2.7,0.1-5-1.7-5.6-4.3c-0.1-0.5-0.2-1.1-0.2-1.6
			c0-5.9,0-11.8,0-17.6c-0.1-3,2.2-5.6,5.2-5.8c0,0,0.1,0,0.1,0c3.1,0,5.7,2.5,5.7,5.6c0,0,0,0,0,0C19.9,60.9,19.9,63.8,19.9,66.8z
			 M15.6,66.8c0-2.8,0-5.6,0-8.4c0-1-0.2-1.8-1.3-2c-0.9-0.1-1.6,0.7-1.6,1.9c0,5.6,0,11.2,0,16.9c0,1.2,0.7,2,1.6,1.9
			c1.1-0.2,1.3-1,1.3-2C15.6,72.4,15.6,69.6,15.6,66.8L15.6,66.8z"/>
		<path d="M8.7,23.9c0-2.9,0-5.9,0-8.8c0-3.1,2.5-5.6,5.6-5.5c2.9,0,5.4,2.3,5.5,5.2c0.1,6.1,0.1,12.2,0,18.3
			c-0.1,3.1-2.7,5.5-5.7,5.4c-3.1-0.1-5.5-2.7-5.4-5.7C8.7,29.8,8.7,26.9,8.7,23.9z M15.6,24L15.6,24c0-2.9,0-5.9,0-8.8
			c0.1-0.7-0.4-1.4-1.1-1.5c0,0-0.1,0-0.1,0c-0.7-0.1-1.4,0.4-1.5,1.2c0,0,0,0,0,0c-0.1,0.2-0.1,0.5-0.1,0.8c0,5.5,0,11.1,0,16.6
			c0,1,0.2,2,1.5,2s1.4-0.9,1.4-2C15.6,29.5,15.6,26.7,15.6,24L15.6,24z"/>
		<path class="st0" d="M88.9,59.7c-1.1,0-2.1-0.9-2.1-2c0-0.1,0-0.2,0-0.3c0-1.2,0-2.4,0-3.6v-3c0-1.2,0-2.3,0-3.5
			c0-1.1,0.9-2.1,2-2.1c0.1,0,0.1,0,0.2,0c4.3-0.2,7.7-3.9,7.5-8.2c-0.2-4.1-3.5-7.4-7.6-7.5c-4.1,0.1-7.5,3.3-7.8,7.5
			c0,1.5-0.9,2.5-2,2.5c-0.3,0-0.5-0.1-0.8-0.2c-0.9-0.3-1.4-1.2-1.3-2.1c0-3.1,1.3-6.1,3.5-8.3c2.2-2.2,5.2-3.5,8.3-3.5h0.8
			c6.6,0.4,11.6,6.1,11.2,12.7c-0.3,5-3.8,9.3-8.6,10.8c-0.8,0.1-1.3,0.8-1.2,1.6c0,2.2,0,4.4,0,6.5v0.4c0.1,1.1-0.7,2.2-1.9,2.3
			C89.1,59.6,89,59.6,88.9,59.7L88.9,59.7z"/>
		<path class="st0" d="M88.9,70.6c-0.5,0-1.1-0.2-1.5-0.6c-0.4-0.4-0.6-1-0.6-1.5c0.1-1.1,1.1-2,2.2-1.9c1,0.1,1.8,0.9,1.9,1.9
			C91,69.6,90.1,70.6,88.9,70.6C88.9,70.6,88.9,70.6,88.9,70.6L88.9,70.6z"/>
	</g>
</g>
</svg>
