<?xml version="1.0" encoding="utf-8"?>
<!-- Generator: Adobe Illustrator 25.0.1, SVG Export Plug-In . SVG Version: 6.00 Build 0)  -->
<svg version="1.1" id="Capa_1" xmlns="http://www.w3.org/2000/svg" xmlns:xlink="http://www.w3.org/1999/xlink" x="0px" y="0px"
	 viewBox="0 0 512 512" style="enable-background:new 0 0 512 512;" xml:space="preserve">
<style type="text/css">
	.st0{fill:#91B3FA;}
</style>
<g>
	<path class="st0" d="M256,101.9c5.5,0,10-4.5,10-10V41c0-5.5-4.5-10-10-10s-10,4.5-10,10v50.9C246,97.5,250.5,101.9,256,101.9z"/>
	<path class="st0" d="M180.8,118.4c1.9,3,5.1,4.7,8.5,4.7c1.8,0,3.7-0.5,5.3-1.5c4.7-2.9,6.1-9.1,3.1-13.8l-26.6-42.3
		c-2.9-4.7-9.1-6.1-13.8-3.1c-4.7,2.9-6.1,9.1-3.1,13.8L180.8,118.4z"/>
	<path class="st0" d="M317.4,121.5c1.7,1,3.5,1.5,5.3,1.5c3.3,0,6.6-1.7,8.5-4.7l26.6-42.3c2.9-4.7,1.5-10.8-3.1-13.8
		c-4.7-2.9-10.8-1.5-13.8,3.1l-26.6,42.3C311.3,112.4,312.7,118.6,317.4,121.5z"/>
	<path d="M508.8,266.4l-17.4-30.7c-2.7-4.8-8.8-6.5-13.6-3.8c-4.8,2.7-6.5,8.8-3.8,13.6l17.4,30.7c0.9,1.5,0.6,3,0.4,3.8
		c-0.2,0.7-0.8,2.1-2.2,2.9l-26.8,14.8c-2.4,1.3-5.5,0.5-6.8-1.8l-6.8-12c0-0.1-0.1-0.1-0.1-0.2l-70.3-124.4c-0.9-1.5-0.6-3-0.4-3.7
		c0.2-0.7,0.8-2,2.2-2.8l26.8-14.8c2.4-1.3,5.4-0.5,6.8,1.8l15.7,27.7c2.7,4.8,8.8,6.5,13.6,3.8c4.8-2.7,6.5-8.8,3.8-13.6
		l-15.7-27.7c-6.7-11.8-21.9-16.1-33.8-9.5l-26.8,14.8c-5.8,3.2-10,8.5-11.8,14.9c-1.7,6.1-1.1,12.4,1.7,17.9l-14.8,4.3
		c-6.3,1.8-10.1,2.8-12.2,2.8c0,0,0,0,0,0c-1.5,0-3-0.6-7.6-2.3c-2.1-0.8-4.6-1.8-7.8-2.9l-26.2-9.1c-14.5-5.1-21-4.8-30.5-3.9
		l-44.6,4c-20.3,1.8-33.3,6.4-40.5,14.3l-25.4-7.4c2.7-5.5,3.3-11.8,1.6-17.8c-1.8-6.4-6-11.7-11.8-14.9l-26.8-14.8
		c-12-6.6-27.2-2.4-33.9,9.5L3.3,266.4c-3.3,5.8-4.1,12.6-2.3,19.1c1.8,6.4,6,11.7,11.8,14.9l26.8,14.8c3.8,2.1,8,3.1,12.1,3.1
		c8.7,0,17.2-4.5,21.8-12.6l2.8-5c7.7,3.4,14.2,8.3,18.6,14.2c-4.3,5-7,11.3-7.8,18c-1,9,1.5,17.7,7.1,24.8
		c5.6,6.9,13.5,11.3,22.4,12.4c-0.9,8.9,1.6,17.6,7.2,24.5c5.7,7.2,13.9,11.4,22.4,12.4c-0.9,8.9,1.6,17.6,7.1,24.5
		c5.6,7,13.5,11.4,22.4,12.4c-0.9,8.9,1.6,17.6,7.2,24.5c6.6,8.3,16.4,12.6,26.3,12.6c7.4,0,14.8-2.4,21-7.4l20.9-16.8
		c1.7-1.3,3.2-2.8,4.5-4.4l12,9.6c6.2,4.9,13.6,7.3,21,7.3c9.9,0,19.7-4.3,26.3-12.6c3.5-4.4,5.7-9.4,6.7-14.5
		c3.5,1.2,7.2,1.8,11,1.8c1.3,0,2.5-0.1,3.8-0.2c9-1,17-5.4,22.5-12.4c5.6-6.9,8.1-15.6,7.2-24.5c8.5-1,16.6-5.2,22.4-12.4
		c5.7-7.2,8-16,7.1-24.5c8.9-1,16.8-5.4,22.4-12.3c5.6-7,8.1-15.8,7.2-24.7c-0.8-6.8-3.5-13-7.8-18.1c4.4-5.8,10.9-10.8,18.6-14.2
		l2.8,5c4.6,8,13,12.6,21.8,12.6c4.1,0,8.3-1,12.1-3.1l26.8-14.8c5.8-3.2,10-8.5,11.8-14.9C512.9,279,512.1,272.3,508.8,266.4
		L508.8,266.4z M56,295.9c-1.3,2.3-4.4,3.1-6.8,1.8l-26.8-14.8c-1.5-0.8-2-2.1-2.2-2.9c-0.2-0.7-0.4-2.2,0.5-3.8l77.2-136.6
		c0.9-1.6,2.6-2.4,4.3-2.4c0.8,0,1.7,0.2,2.5,0.6l26.8,14.8c0,0,0,0,0,0c1.5,0.8,2,2.1,2.2,2.8c0.2,0.7,0.4,2.2-0.5,3.8L56,295.9z
		 M129,347.4c-2.8,2.3-6.4,3.3-10,2.9c-3.6-0.4-6.9-2.2-9.1-5c-2.3-2.8-3.3-6.4-2.9-10c0.4-3.6,2.2-6.9,5-9.1l37.4-29.9
		c5.9-4.7,14.5-3.7,19.2,2.1c2.3,2.8,3.3,6.4,2.9,10c-0.4,3.6-2.2,6.8-5,9.1c-0.1,0-0.1,0.1-0.2,0.2L129,347.4
		C129,347.4,129,347.4,129,347.4z M139.3,382.1c-2.3-2.8-3.3-6.4-2.9-10c0.4-3.6,2.2-6.9,5-9.1l0,0c0,0,0,0,0,0c0,0,0,0,0,0
		l53.9-43.1c5.9-4.7,14.5-3.7,19.2,2.1c2.3,2.8,3.3,6.4,2.9,10c-0.4,3.6-2.2,6.9-5,9.1l-53.9,43.1C152.6,389,144,388,139.3,382.1
		L139.3,382.1z M178,424c-3.6-0.4-6.9-2.2-9.1-5c-2.3-2.8-3.3-6.4-2.9-10c0.4-3.6,2.2-6.9,5-9.1c0,0,0,0,0,0l37.3-29.8
		c0,0,0.1-0.1,0.1-0.1c5.9-4.7,14.5-3.7,19.2,2.1c2.3,2.8,3.3,6.4,2.9,10c-0.4,3.6-2.2,6.9-5,9.1L188,421.1
		C185.2,423.4,181.6,424.4,178,424L178,424z M243.5,432.1c-0.4,3.6-2.2,6.9-5,9.1L217.6,458c-5.9,4.7-14.5,3.8-19.2-2.1
		c-2.3-2.8-3.3-6.4-2.9-10s2.2-6.9,5-9.1c0,0,0,0,0,0l20.9-16.7c0,0,0,0,0,0c5.9-4.7,14.5-3.7,19.2,2.1
		C242.9,425,243.9,428.5,243.5,432.1z M402.2,345.3c-2.3,2.8-5.5,4.6-9.1,5c-3.6,0.4-7.2-0.6-10-2.9c0,0,0,0,0,0c0,0,0,0,0,0
		L356.3,326c-4.3-3.4-10.6-2.7-14.1,1.6c-3.4,4.3-2.7,10.6,1.6,14.1l26.7,21.4c5.9,4.7,6.8,13.3,2.2,19.1
		c-4.7,5.9-13.3,6.8-19.2,2.1l-29-23.2c-4.3-3.4-10.6-2.7-14.1,1.6c-3.4,4.3-2.7,10.6,1.6,14.1l29,23.2c2.8,2.3,4.6,5.5,5,9.1
		c0.4,3.6-0.6,7.2-2.9,10c-2.2,2.8-5.5,4.6-9.1,5c-3.6,0.4-7.2-0.6-10-2.9l-14.4-11.5c0,0,0,0-0.1-0.1l-12.2-9.8L295,398
		c-4.3-3.5-10.6-2.7-14.1,1.6c-0.4,0.5-0.8,1.1-1.1,1.7c-1.4,2.8-1.4,6.1-0.1,8.9c0.6,1.3,1.5,2.5,2.7,3.4l14.5,11.6
		c5.8,4.7,6.8,13.3,2.1,19.1c-4.7,5.9-13.3,6.8-19.2,2.1l-16.5-13.2c0.7-8.6-1.9-16.9-7.2-23.6c-3.3-4.2-7.5-7.3-12-9.4
		c3.3-4.6,5.4-10,6.1-15.9c1-9-1.5-17.7-7.1-24.8c-3.3-4.2-7.5-7.3-12-9.4c3.3-4.6,5.4-10.1,6.1-15.9c1-8.9-1.5-17.7-7.1-24.7
		c-9.6-12-25.9-15.7-39.4-9.9c-1.1-5-3.3-9.7-6.6-13.8c-11.6-14.5-32.8-16.8-47.3-5.3L110.1,302c-6.1-7.7-14.3-14.1-24-18.7
		l55.1-97.4l29.3,8.5c0.1,1.6,0.4,3.2,0.8,5c7.1,29.2,34,42.8,70.1,35.5c30.5-6.1,43,3,68,21.2c2.6,1.9,5.3,3.8,8.1,5.9
		c18,12.9,37.2,28,50,38.3l32.5,25.9c2.8,2.2,4.6,5.5,5,9.1C405.5,338.9,404.5,342.5,402.2,345.3L402.2,345.3z M401.9,302
		l-21.8-17.4c-13.1-10.4-32.5-25.8-50.9-38.9c-2.8-2-5.4-3.9-8-5.8c-25.9-18.9-44.6-32.5-83.7-24.6c-12,2.4-40.5,5.2-46.8-20.6
		c-0.9-3.6,0-4.9,0.4-5.4c1.3-1.9,6.7-6.4,27.8-8.3l44.7-4c7.3-0.7,10.9-1,22,2.9l26.2,9.1c2.9,1,5.2,1.9,7.3,2.7
		c12.6,4.8,15.9,4.8,32.5,0l19.3-5.6l55,97.3C416.1,287.9,407.9,294.3,401.9,302z"/>
	<path d="M460.6,211.6c5.5,0,10-4.5,10-10s-4.5-10-10-10s-10,4.5-10,10v0C450.6,207.1,455,211.6,460.6,211.6z"/>
</g>
</svg>
