<?xml version="1.0" encoding="utf-8"?>
<!-- Generator: Adobe Illustrator 25.0.1, SVG Export Plug-In . SVG Version: 6.00 Build 0)  -->
<svg version="1.1" id="Layer_1" xmlns="http://www.w3.org/2000/svg" xmlns:xlink="http://www.w3.org/1999/xlink" x="0px" y="0px"
	 viewBox="0 0 512 512" style="enable-background:new 0 0 512 512;" xml:space="preserve">
<style type="text/css">
	.st0{fill:#91B3FA;}
</style>
<g>
	<g>
		<path d="M475.8,414.4c3.5-6.6,5.4-14.2,5.4-22.2v-19.1c0-20.8-13.2-38.5-31.7-45.2c-3.7-20.5-15.5-38.4-32.8-49.9
			c3.5-6.6,5.4-14.2,5.4-22.2v-19.1c0-26.5-21.6-48.1-48.1-48.1c-26.5,0-48.1,21.6-48.1,48.1v19.1c0,8,2,15.5,5.4,22.2
			c-6.2,4.2-11.8,9.2-16.4,14.8c-4.7-5.7-10.2-10.7-16.4-14.8c3.5-6.6,5.4-14.2,5.4-22.2v-19.1c0-26.5-21.6-48.1-48.1-48.1
			s-48.1,21.6-48.1,48.1v19.1c0,8,2,15.5,5.4,22.2c-6.2,4.2-11.7,9.2-16.5,14.9c-4.7-5.7-10.2-10.7-16.4-14.9
			c3.5-6.6,5.5-14.2,5.5-22.2v-19.1c0-26.5-21.6-48.1-48.1-48.1c-26.5,0-48.1,21.6-48.1,48.1v19.1c0,8,2,15.5,5.4,22.2
			c-17.3,11.6-29.1,29.5-32.8,49.9c-18.5,6.7-31.7,24.4-31.7,45.2v19.1c0,8,2,15.5,5.4,22.2C15,428.6,2.1,452.2,2.1,478.1v24
			c0,5.5,4.4,9.9,9.9,9.9h118.1h118.1h133.6H500c5.5,0,9.9-4.4,9.9-9.9v-24C509.9,452.2,497,428.6,475.8,414.4L475.8,414.4z
			 M461.4,373.1v19.1c0,15.6-12.7,28.2-28.2,28.2c-15.6,0-28.2-12.7-28.2-28.2v-19.1c0-15.6,12.7-28.2,28.2-28.2
			C448.7,344.9,461.4,357.5,461.4,373.1z M428.5,325.3c-24.3,2.3-43.4,22.9-43.4,47.9v19.1c0,8,2,15.5,5.4,22.2
			c-6.1,4.1-11.7,9.1-16.4,14.8c-4.7-5.6-10.2-10.6-16.5-14.8c3.5-6.6,5.4-14.2,5.4-22.2v-19.1c0-24.9-19.1-45.5-43.4-47.9
			c4-13.1,12.8-24.5,24.5-31.9c8.2,6.6,18.6,10.5,29.9,10.5c11.3,0,21.7-3.9,29.9-10.5C415.8,300.7,424.5,312.2,428.5,325.3z
			 M286.8,392.2v-19.1c0-15.6,12.7-28.2,28.2-28.2c15.6,0,28.2,12.7,28.2,28.2v19.1c0,15.6-12.7,28.2-28.2,28.2
			C299.5,420.5,286.8,407.8,286.8,392.2z M345.9,236.7c0-15.6,12.7-28.2,28.2-28.2c15.6,0,28.2,12.7,28.2,28.2v19.1
			c0,15.6-12.7,28.2-28.2,28.2c-15.6,0-28.2-12.7-28.2-28.2V236.7z M227.8,236.7c0-15.6,12.7-28.2,28.2-28.2
			c15.6,0,28.2,12.7,28.2,28.2v19.1c0,15.6-12.7,28.2-28.2,28.2c-15.6,0-28.2-12.7-28.2-28.2L227.8,236.7L227.8,236.7z M226.1,293.4
			c8.2,6.6,18.6,10.5,29.9,10.5c11.3,0,21.7-3.9,29.9-10.5c7.2,4.5,13.3,10.5,17.9,17.6c-2.3,5.4-4.1,11-5.1,16.9
			c-18.5,6.7-31.7,24.4-31.7,45.2v19.1c0,8,2,15.5,5.4,22.2c-6.3,4.2-11.8,9.2-16.5,14.8c-4.7-5.7-10.2-10.7-16.4-14.8
			c3.5-6.6,5.4-14.2,5.4-22.2v-19.1c0-20.8-13.2-38.5-31.7-45.2c-1.1-5.8-2.8-11.5-5.2-16.8C212.7,303.9,218.9,297.9,226.1,293.4
			L226.1,293.4z M168.7,392.2v-19.1c0-15.6,12.7-28.2,28.2-28.2s28.2,12.7,28.2,28.2v19.1c0,15.6-12.7,28.2-28.2,28.2
			S168.7,407.8,168.7,392.2z M109.6,236.7c0-15.6,12.7-28.2,28.2-28.2c15.6,0,28.2,12.7,28.2,28.2v19.1c0,15.6-12.7,28.2-28.2,28.2
			c-15.6,0-28.2-12.7-28.2-28.2V236.7z M108,293.4c8.2,6.6,18.6,10.5,29.9,10.5c11.3,0,21.7-3.9,29.9-10.5
			c11.7,7.3,20.5,18.8,24.5,31.9c-24.3,2.3-43.4,22.9-43.4,47.9v19.1c0,8,2,15.5,5.4,22.2c-6.3,4.2-11.8,9.2-16.5,14.8
			c-4.7-5.7-10.2-10.7-16.4-14.8c3.5-6.6,5.4-14.2,5.4-22.2v-19.1c0-24.9-19.1-45.5-43.4-47.9C87.5,312.2,96.2,300.7,108,293.4z
			 M50.6,373.1c0-15.6,12.7-28.2,28.2-28.2c15.6,0,28.2,12.7,28.2,28.2v19.1c0,15.6-12.7,28.2-28.2,28.2
			c-15.6,0-28.2-12.7-28.2-28.2L50.6,373.1z M22,478.1c0-19.9,10.2-37.9,26.9-48.3c8.2,6.6,18.6,10.5,29.9,10.5
			c11.3,0,21.7-3.9,29.9-10.5c7.2,4.5,13.3,10.4,17.9,17.6c-4.1,9.5-6.4,19.9-6.4,30.7v14.1H22L22,478.1z M140.1,478.1
			c0-19.9,10.2-37.9,26.9-48.3c8.2,6.6,18.6,10.5,29.9,10.5c11.3,0,21.7-3.9,29.9-10.5c7.2,4.5,13.3,10.4,17.9,17.6
			c-4.1,9.5-6.4,19.9-6.4,30.7v14.1h-98.3L140.1,478.1L140.1,478.1z M258.2,478.1c0-19.9,10.2-37.9,26.9-48.3
			c8.2,6.6,18.6,10.5,29.9,10.5s21.7-3.9,29.9-10.5c16.7,10.4,26.9,28.4,26.9,48.3v14.1H258.2L258.2,478.1z M490,492.2h-98.3v-14.1
			c0-10.8-2.2-21.2-6.4-30.7c4.6-7.1,10.7-13.1,17.9-17.6c8.2,6.6,18.6,10.5,29.9,10.5c11.3,0,21.7-3.9,29.9-10.5
			c16.7,10.4,26.9,28.4,26.9,48.3L490,492.2L490,492.2z"/>
		<path class="st0" d="M175.9,84.3c5.2-1.9,7.8-7.5,6-12.7c-6.2-17.3-4-30.9,6.9-41.8c13.4-13.4,35.2-13.4,48.6,0
			c10.4,10.4,26.8,10.4,37.2,0c13.4-13.4,35.2-13.4,48.6,0c9.7,9.7,12.5,21.6,8.6,36.4c-9.9,37.1-56,75.1-75.8,82.6
			c-5.7-2.2-13.6-6.9-21.8-13.1c-4.4-3.3-10.6-2.4-13.9,2c-3.3,4.4-2.4,10.6,2,13.9c11.8,8.9,22.9,15,31.1,17.2
			c0.8,0.2,1.7,0.3,2.6,0.3c0.9,0,1.7-0.1,2.6-0.3c13.2-3.5,33.3-17,51.2-34.4c12.3-11.9,34-36,41.2-63c5.8-21.7,1-40.9-13.7-55.6
			c-21.1-21.1-55.5-21.1-76.6,0c-3,3-6.9,2.3-9.2,0c-21.1-21.1-55.5-21.1-76.6,0c-16.4,16.4-20.4,38-11.5,62.5
			C165.1,83.5,170.8,86.2,175.9,84.3L175.9,84.3z"/>
		<path class="st0" d="M195.8,103.1c-5.5,0-9.9,4.4-9.9,9.9s4.4,9.9,9.9,9.9s9.9-4.4,9.9-9.9S201.3,103.1,195.8,103.1L195.8,103.1z"
			/>
	</g>
</g>
</svg>
