<?xml version="1.0" encoding="utf-8"?>
<!-- Generator: Adobe Illustrator 25.0.1, SVG Export Plug-In . SVG Version: 6.00 Build 0)  -->
<svg version="1.1" id="Capa_1" xmlns="http://www.w3.org/2000/svg" xmlns:xlink="http://www.w3.org/1999/xlink" x="0px" y="0px"
	 viewBox="0 0 512 512" style="enable-background:new 0 0 512 512;" xml:space="preserve">
<style type="text/css">
	.st0{fill:#91B3FA;}
</style>
<g>
	<path d="M508.3,305.2L476,267.9c23.3-29.2,36-65.2,36-102.9C512,74,438,0,347,0S182,74,182,165c0,6.1,0.3,12.1,1,18
		c-6-0.6-12-1-18-1C74,182,0,256,0,347c0,37.7,12.7,73.7,36,102.9L3.7,487.2c-3.8,4.4-4.8,10.7-2.3,16.1c2.4,5.3,7.8,8.8,13.6,8.8
		h150c91,0,165-74,165-165c0-6-0.3-12-1-18c5.9,0.6,11.9,1,18,1h150c5.9,0,11.2-3.4,13.6-8.8C513.1,315.9,512.2,309.6,508.3,305.2
		L508.3,305.2z M165,482H47.9l19.3-22.3c5-5.8,4.9-14.5-0.4-20.1C43.1,414.5,30,381.6,30,347c0-74.4,60.6-135,135-135
		c8.2,0,16.4,0.8,24.5,2.2c16.1,51.5,56.8,92.2,108.3,108.3c1.5,8.1,2.2,16.3,2.2,24.5C300,421.4,239.4,482,165,482z M347,300
		c-74.4,0-135-60.6-135-135S272.6,30,347,30s135,60.6,135,135c0,34.6-13.1,67.5-36.8,92.6c-5.3,5.6-5.5,14.3-0.4,20.1l19.3,22.3H347
		z"/>
	<circle class="st0" cx="347" cy="252" r="15"/>
	<path class="st0" d="M348.2,62c-29.1-0.6-54.1,20.7-58.2,49.5c-0.4,2.6-0.6,5.3-0.6,8c0,8.3,6.7,15,15,15s15-6.7,15-15
		c0-1.3,0.1-2.6,0.3-3.9C321.6,102.1,333.3,92,347,92c0.2,0,0.4,0,0.6,0c14.4,0.3,26.2,11.7,26.9,26.1c0.4,7.6-2.3,14.9-7.5,20.4
		c-5.3,5.5-12.4,8.6-20,8.6c-8.3,0-15,6.7-15,15v44.5c0,8.3,6.7,15,15,15s15-6.7,15-15v-31.5c10.1-2.7,19.4-8.2,26.7-15.9
		c11-11.6,16.6-26.7,15.7-42.7C402.9,86.6,378.2,62.6,348.2,62z"/>
	<path class="st0" d="M215,302H115c-8.3,0-15,6.7-15,15s6.7,15,15,15h100c8.3,0,15-6.7,15-15S223.3,302,215,302z"/>
	<path class="st0" d="M215,362H115c-8.3,0-15,6.7-15,15s6.7,15,15,15h100c8.3,0,15-6.7,15-15S223.3,362,215,362z"/>
</g>
</svg>
