<?xml version="1.0" encoding="utf-8"?>
<!-- Generator: Adobe Illustrator 25.0.1, SVG Export Plug-In . SVG Version: 6.00 Build 0)  -->
<svg version="1.1" id="Capa_1" xmlns="http://www.w3.org/2000/svg" xmlns:xlink="http://www.w3.org/1999/xlink" x="0px" y="0px"
	 viewBox="0 0 512 512" style="enable-background:new 0 0 512 512;" xml:space="preserve">
<style type="text/css">
	.st0{fill:#91B3FA;}
</style>
<path d="M102.1,512c-10.9,0-21.1-5.9-26.6-15.3L4.1,373c-4.1-7.1-5.2-15.3-3-23.2c2.1-7.9,7.2-14.5,14.2-18.6l28.3-16.3
	c4.6-2.7,9.9-4.1,15.2-4.1c8,0,15.9,3.2,21.5,8.8l3.3,3.3l58.8-49.9c11.8-10,26.8-15.5,42.2-15.5h44.7c14.4,0,27.8,6.5,36.8,17.8
	l6.4,8.1c1.6,2,3.9,3.1,6.4,3.1h60.9c12.6,0,24.4,5.5,32.5,15.2l3.6,4.3l61.3-61.3c8.3-8.3,19.3-12.8,31-12.8c0.9,0,1.9,0,2.8,0.1
	c12.6,0.8,24.2,7,31.9,17c13.4,17.4,11.8,42.2-3.7,57.7L371.5,435c-12.2,12.2-29,19.2-46.3,19.2H159.5l1,5.9
	c2,12.5-3.9,25.1-14.9,31.5l-28.3,16.3C112.7,510.6,107.4,512,102.1,512z M58.9,331.2c-1.8,0-3.5,0.5-5.1,1.4l-28.3,16.3
	c-2.4,1.4-4,3.6-4.8,6.2c-0.7,2.6-0.3,5.4,1,7.7l71.4,123.7c1.8,3.1,5.2,5.1,8.8,5.1c1.8,0,3.5-0.5,5.1-1.4l28.3-16.3
	c4.9-2.8,6.5-9.1,3.7-13.9L67.7,336.3C65.9,333.2,62.5,331.2,58.9,331.2z M184.7,277.9c-10.6,0-20.9,3.8-29,10.7l-61.7,52.3
	l53.6,92.9h177.7c11.9,0,23.4-4.8,31.8-13.2l127.8-128.3c8.3-8.3,9.1-21.6,2-30.9c-4.2-5.4-10.2-8.7-17.1-9.1
	c-0.5,0-1.1-0.1-1.6-0.1c-6.2,0-12.1,2.4-16.5,6.9l-69.4,69.4l-0.1,2c-0.9,22.8-19.5,40.6-42.3,40.6H224.1
	c-5.6,0-10.2-4.6-10.2-10.2c0-0.3,0-0.7,0.1-1.1c0.5-5.2,4.9-9.1,10.1-9.1h115.7c12.1,0,21.9-9.8,21.9-21.9s-9.8-21.9-21.9-21.9
	h-60.9c-8.8,0-16.9-3.9-22.4-10.8l-6.4-8.1c-5.1-6.4-12.6-10-20.8-10H184.7z"/>
<path class="st0" d="M175.4,216.2c-7.2,0-13.8-3.2-18.2-8.9c-4.4-5.7-6-12.9-4.2-19.9l12-48.3c5.3-21.1,20.8-37.6,41.4-44.1l6.5-2
	l-3.8-5.6c-6.1-9.2-9.4-20-9.4-31.1C199.7,25.3,225,0,256,0s56.3,25.2,56.3,56.3c0,11.1-3.2,21.8-9.4,31.1l-3.8,5.6l6.5,2
	c20.7,6.5,36.2,23,41.4,44.1l12,48.3c1.7,7,0.2,14.2-4.2,19.9c-4.4,5.7-11.1,8.9-18.2,8.9H175.4z M225.2,112.6
	c-19.2,0-35.8,13-40.4,31.6l-12.9,51.7h168.3l-12.9-51.7c-4.6-18.6-21.2-31.6-40.4-31.6H225.2z M256,20.4
	c-19.8,0-35.9,16.1-35.9,35.9s16.1,35.9,35.9,35.9c19.8,0,35.9-16.1,35.9-35.9S275.8,20.4,256,20.4z"/>
</svg>
