<?xml version="1.0" encoding="utf-8"?>
<!-- Generator: Adobe Illustrator 25.0.1, SVG Export Plug-In . SVG Version: 6.00 Build 0)  -->
<svg version="1.1" id="Capa_1" xmlns="http://www.w3.org/2000/svg" xmlns:xlink="http://www.w3.org/1999/xlink" x="0px" y="0px"
	 viewBox="0 0 247.7 247.7" style="enable-background:new 0 0 247.7 247.7;" xml:space="preserve">
<style type="text/css">
	.st0{fill:#000002;}
	.st1{fill:#91B3FA;}
</style>
<g>
	<path class="st0" d="M206.9,0H74.8c-9.6,0-17.5,7.9-17.5,17.5v21H40.9c-9.6,0-17.5,7.8-17.5,17.5v174.2c0,9.6,7.9,17.5,17.5,17.5
		h132.1c9.6,0,17.5-7.9,17.5-17.5v-21h16.5c9.6,0,17.5-7.9,17.5-17.5V17.5C224.4,7.9,216.5,0,206.9,0z M175.4,230.2
		c0,1.4-1.1,2.5-2.5,2.5H40.9c-1.4,0-2.5-1.1-2.5-2.5V56c0-1.4,1.1-2.5,2.5-2.5h132.1c1.4,0,2.5,1.1,2.5,2.5V230.2z M209.4,191.7
		c0,1.4-1.1,2.5-2.5,2.5h-16.5V56c0-9.6-7.9-17.5-17.5-17.5H72.3v-21c0-1.4,1.1-2.5,2.5-2.5h132.1c1.4,0,2.5,1.1,2.5,2.5V191.7z"/>
	<path class="st1" d="M149.6,77.1H64.2c-4.1,0-7.5,3.4-7.5,7.5s3.4,7.5,7.5,7.5h85.3c4.1,0,7.5-3.4,7.5-7.5
		C157.1,80.5,153.7,77.1,149.6,77.1z"/>
	<path class="st1" d="M149.6,110.9H64.2c-4.1,0-7.5,3.4-7.5,7.5s3.4,7.5,7.5,7.5h85.3c4.1,0,7.5-3.4,7.5-7.5
		S153.7,110.9,149.6,110.9z"/>
	<path class="st1" d="M149.6,144.7H64.2c-4.1,0-7.5,3.4-7.5,7.5s3.4,7.5,7.5,7.5h85.3c4.1,0,7.5-3.4,7.5-7.5
		C157.1,148,153.7,144.7,149.6,144.7z"/>
	<path class="st1" d="M149.6,178.5H64.2c-4.1,0-7.5,3.4-7.5,7.5s3.4,7.5,7.5,7.5h85.3c4.1,0,7.5-3.4,7.5-7.5
		C157.1,181.8,153.7,178.5,149.6,178.5z"/>
</g>
</svg>
