<svg xmlns="http://www.w3.org/2000/svg" viewBox="0 0 78.9 123.61"><defs><style>.cls-1{fill:#e0e0e0;}.cls-2{fill:#263238;}.cls-3{fill:#455a64;}.cls-4{fill:#37474f;}.cls-5{fill:#fafafa;}.cls-6{fill:#ebebeb;}.cls-7{fill:#27debf;}.cls-8,.cls-9{opacity:0.4;}.cls-9{fill:#151718;}</style></defs><g id="Layer_2" data-name="Layer 2"><g id="Message"><path class="cls-1" d="M44.88,109.74c5.49-3.18,14.41-3.18,19.9,0s5.5,8.32,0,11.49-14.41,3.17-19.9,0S39.38,112.91,44.88,109.74Z"/><path class="cls-2" d="M66.24,112.27v-1.79H65.8a7.07,7.07,0,0,0-2.9-2.84,17.8,17.8,0,0,0-16.14,0,7.07,7.07,0,0,0-2.9,2.84h-.44v1.74c0,1.71,1.08,3.43,3.34,4.73,4.46,2.58,11.68,2.58,16.14,0C65.14,115.66,66.25,114,66.24,112.27Z"/><path class="cls-3" d="M46.76,105.82a17.86,17.86,0,0,1,16.14,0c4.46,2.58,4.46,6.75,0,9.32a17.8,17.8,0,0,1-16.14,0C42.3,112.57,42.3,108.4,46.76,105.82Z"/><path class="cls-4" d="M51.89,41.92V109.7a1.46,1.46,0,0,0,.86,1.2,4.62,4.62,0,0,0,4.16,0,1.46,1.46,0,0,0,.86-1.2V41.92Z"/><polygon class="cls-2" points="57.77 49.33 57.77 51.45 51.89 54.84 51.89 52.73 57.77 49.33"/><path class="cls-3" d="M20.26,24h0l.5,1,5.38,10.79,2.55,5.12,8.64,17.33,1,1.91h.16a1.89,1.89,0,0,0,1-.24L77.93,37.67a2.16,2.16,0,0,0,1-1.68V21.14C78.9,13.72,74,4.88,68,1.4,65.12-.25,62.53-.39,60.58.71v0Z"/><path class="cls-4" d="M27.54,24.78C30,25.69,38.82,33,38.82,44.51c0,9.68,0,14.71,0,15.61a2.2,2.2,0,0,1-.36,0h-.16l-1-1.91L28.69,40.91l-2.55-5.12-.58-1.17Z"/><path class="cls-4" d="M17.09,48h0a1.24,1.24,0,0,0,.4.39l.1.06L37.48,59.92a1.91,1.91,0,0,0,.81.23h.16V44.51a22.39,22.39,0,0,0-1.73-8.24l-1,.57-7,4.07L17.75,47.23l-.56.33C17,47.65,17,47.81,17.09,48Z"/><path class="cls-3" d="M16.63,31.91V46.76A2.11,2.11,0,0,0,17.09,48h0a1.84,1.84,0,0,0,.4.39l.1.06L37.48,59.92a1.91,1.91,0,0,0,.81.23h.16V44.51a22.39,22.39,0,0,0-1.73-8.24,26.64,26.64,0,0,0-1.23-2.66,22.23,22.23,0,0,0-8-8.83c-2.8-1.61-5.35-1.79-7.28-.78C18,25.17,16.63,27.94,16.63,31.91Zm1.12,15v-15c0-3.43,1.11-5.89,3-6.91a4.58,4.58,0,0,1,2.15-.51A8.23,8.23,0,0,1,27,25.75a20.75,20.75,0,0,1,7.38,8.12,27,27,0,0,1,1.33,2.82.88.88,0,0,1,.05.15,21.32,21.32,0,0,1,1.59,7.67v13.7a.18.18,0,0,1-.29.17l-19-11A.64.64,0,0,1,17.75,46.9Z"/><path class="cls-2" d="M17.75,31.91V47.23l18-10.39a.88.88,0,0,0-.05-.15C33.76,31.87,30.5,27.78,27,25.75a8.23,8.23,0,0,0-4.07-1.26C19.72,24.49,17.75,27.33,17.75,31.91Z"/><path class="cls-1" d="M50.69,39.54l-1.58-.91h0a2.12,2.12,0,0,0-2.11.22A6.65,6.65,0,0,0,44,44,2.13,2.13,0,0,0,44.86,46h0l1.47.84.27-.44a2.84,2.84,0,0,0,.86-.34,6.61,6.61,0,0,0,3-5.19,3.54,3.54,0,0,0-.09-.77Z"/><path class="cls-5" d="M48.51,39.71a6.65,6.65,0,0,0-3,5.2c0,1.92,1.35,2.69,3,1.73a6.63,6.63,0,0,0,3-5.19C51.51,39.53,50.16,38.76,48.51,39.71Z"/><path class="cls-6" d="M48.51,44a.87.87,0,0,0,.87-.87V18.53a.88.88,0,0,0-1.75,0v24.6A.87.87,0,0,0,48.51,44Z"/><polygon class="cls-7" points="49.38 20.96 58.09 15.93 55.36 21.18 58.09 23.28 49.38 28.31 49.38 20.96"/><path class="cls-4" d="M4.48,56.23l13-7.5a.66.66,0,0,1,.58,0L36.18,59.21l1-.67v1.33h0A.19.19,0,0,1,37,60L25.18,66.89a21.32,21.32,0,0,1-7.44,2.46l-.16,0a24.93,24.93,0,0,1-3.1.26A20.61,20.61,0,0,1,3.76,67.3,8.29,8.29,0,0,1,.63,64.4,4.48,4.48,0,0,1,0,62.29v-.12C0,60.06,1.56,57.91,4.48,56.23Z"/><polygon class="cls-4" points="0.05 61.48 0 62.17 0 60.84 0.05 61.48"/><path class="cls-3" d="M18,47.4l19,11a.19.19,0,0,1,.12.16h0a.19.19,0,0,1-.12.16L25.18,65.56A21.32,21.32,0,0,1,17.74,68l-.16,0a24.93,24.93,0,0,1-3.1.26A20.71,20.71,0,0,1,3.76,66a8.29,8.29,0,0,1-3.13-2.9A4.55,4.55,0,0,1,0,61v-.12c0-2.12,1.56-4.26,4.48-6l13-7.49A.66.66,0,0,1,18,47.4Z"/><polygon class="cls-7" points="9.56 47.44 30.28 35.65 15.77 51.25 9.56 47.44"/><polygon class="cls-7" points="30.28 35.65 7.2 44.85 0.98 41.04 30.28 35.65"/><polygon class="cls-3" points="7.2 44.85 8.49 50.78 9.56 47.44 30.28 35.65 7.2 44.85"/><polygon class="cls-7" points="8.49 50.78 11.63 48.71 9.56 47.44 8.49 50.78"/><polygon class="cls-3" points="9.56 47.44 11.63 48.71 11.13 49.04 9.56 47.44"/><g class="cls-8"><polygon class="cls-9" points="25.58 53.57 5.66 58 10.37 60.71 10.37 60.71 10.59 60.84 13.22 60.65 14.49 63.09 17.92 65.07 25.58 53.57"/></g></g></g></svg>