<svg xmlns="http://www.w3.org/2000/svg" viewBox="0 0 74.66 124.78"><defs><style>.cls-1{fill:#e0e0e0;}.cls-2{fill:#27debf;}.cls-3{fill:#455a64;}.cls-4{fill:#263238;}.cls-5{fill:#37474f;}.cls-6{fill:#fafafa;}.cls-7{fill:#ebebeb;}.cls-8{fill:#a95959;}</style></defs><g id="Layer_2" data-name="Layer 2"><g id="Message"><polygon class="cls-1" points="29.55 114.95 10.63 124.78 3.94 121.88 0 119.83 29.55 114.95"/><polygon class="cls-2" points="6.06 119.09 29.55 114.95 10.63 124.78 6.06 119.09"/><polygon class="cls-2" points="29.55 114.95 4.71 115.86 0.14 110.18 29.55 114.95"/><polygon class="cls-3" points="4.71 115.86 3.94 121.88 6.06 119.09 29.55 114.95 4.71 115.86"/><polygon class="cls-2" points="3.94 121.88 7.59 120.99 6.06 119.09 3.94 121.88"/><polygon class="cls-3" points="6.06 119.09 7.59 120.99 7 121.13 6.06 119.09"/><g id="MailBox"><path class="cls-1" d="M40.63,109.74c5.5-3.18,14.42-3.18,19.91,0s5.5,8.32,0,11.49-14.41,3.17-19.91,0S35.14,112.91,40.63,109.74Z"/><path class="cls-4" d="M62,112.27v-1.79h-.44a7.07,7.07,0,0,0-2.9-2.84,17.8,17.8,0,0,0-16.14,0,7,7,0,0,0-2.9,2.84h-.44v1.74c0,1.71,1.08,3.43,3.34,4.73,4.46,2.58,11.68,2.58,16.14,0C60.9,115.66,62,114,62,112.27Z"/><path class="cls-3" d="M42.52,105.82a17.86,17.86,0,0,1,16.14,0c4.46,2.58,4.46,6.75,0,9.32a17.8,17.8,0,0,1-16.14,0C38.06,112.57,38.06,108.4,42.52,105.82Z"/><path class="cls-5" d="M47.65,41.92V109.7a1.46,1.46,0,0,0,.86,1.2,4.62,4.62,0,0,0,4.16,0,1.46,1.46,0,0,0,.86-1.2V41.92Z"/><polygon class="cls-4" points="53.53 49.33 53.53 51.45 47.65 54.84 47.65 52.73 53.53 49.33"/><path class="cls-3" d="M16,24h0l.5,1L21.9,35.79l2.55,5.12,8.64,17.33L34,60.15h.17a1.91,1.91,0,0,0,1-.24L73.69,37.67a2.16,2.16,0,0,0,1-1.68V21.14c0-7.42-4.89-16.26-10.92-19.74C60.88-.25,58.29-.39,56.34.71v0Z"/><path class="cls-5" d="M23.3,24.78c2.43.91,11.28,8.22,11.28,19.73,0,9.68,0,14.71,0,15.61a2.2,2.2,0,0,1-.36,0H34l-.95-1.91L24.45,40.91,21.9,35.79l-.58-1.17Z"/><path class="cls-5" d="M12.85,48h0a1.15,1.15,0,0,0,.4.39l.1.06L33.24,59.92a1.91,1.91,0,0,0,.8.23h.17V44.51a22.39,22.39,0,0,0-1.73-8.24l-1,.57-7,4.07L13.51,47.23l-.56.33C12.78,47.65,12.76,47.81,12.85,48Z"/><path class="cls-3" d="M12.39,31.91V46.76A2.11,2.11,0,0,0,12.85,48h0a1.84,1.84,0,0,0,.4.39l.1.06L33.24,59.92a1.91,1.91,0,0,0,.8.23h.17V44.51a22.39,22.39,0,0,0-1.73-8.24,26.64,26.64,0,0,0-1.23-2.66,22.23,22.23,0,0,0-7.95-8.83C20.5,23.17,18,23,16,24,13.79,25.17,12.39,27.94,12.39,31.91Zm1.12,15v-15c0-3.43,1.11-5.89,3-6.91a4.57,4.57,0,0,1,2.14-.51,8.24,8.24,0,0,1,4.08,1.26,20.75,20.75,0,0,1,7.38,8.12,27,27,0,0,1,1.33,2.82.88.88,0,0,1,.05.15,21.32,21.32,0,0,1,1.59,7.67v13.7a.18.18,0,0,1-.29.17l-19-11A.64.64,0,0,1,13.51,46.9Z"/><path class="cls-4" d="M13.51,31.91V47.23l18-10.39a.88.88,0,0,0-.05-.15c-1.93-4.82-5.19-8.91-8.71-10.94a8.24,8.24,0,0,0-4.08-1.26C15.48,24.49,13.51,27.33,13.51,31.91Z"/><path class="cls-1" d="M46.45,39.54l-1.58-.91h0a2.12,2.12,0,0,0-2.11.22,6.62,6.62,0,0,0-3,5.2A2.13,2.13,0,0,0,40.62,46h0l1.47.84.27-.44a2.84,2.84,0,0,0,.86-.34,6.61,6.61,0,0,0,3-5.19,3.54,3.54,0,0,0-.09-.77Z"/><path class="cls-6" d="M44.26,39.71a6.67,6.67,0,0,0-3,5.2c0,1.92,1.35,2.69,3,1.73a6.62,6.62,0,0,0,3-5.19C47.27,39.53,45.92,38.76,44.26,39.71Z"/></g><path class="cls-3" d="M.38,34.46,2.47,36.2a22.41,22.41,0,0,0,1.79,2.3l6,6.93,2.12,2.45L26,55.76l6.52,5.41h.06a.92.92,0,0,0,.57-.09l.61-.35a0,0,0,0,0,0,0,.4.4,0,0,0,.1-.61h0l-4.76-5.5h0l-3-3.49a88.63,88.63,0,0,0-19-15.69c-2.82-1.62-4.58-2.18-5.21-1.79h0L.4,34.45Z"/><path class="cls-5" d="M2.79,39.36l4,4.57.08.1,3.76,4.33a3.54,3.54,0,0,0,.76.63l21,12.1a.63.63,0,0,0,.23.08h.06L25,52.45h0L24.61,52a88.88,88.88,0,0,0-19-15.68C2.83,34.69,1.07,34.12.4,34.45h0C-.38,34.88.37,36.57,2.79,39.36Z"/><path class="cls-7" d="M45.23,42.73A.87.87,0,0,0,44,42.4l-21.48,12a.86.86,0,0,0-.33,1.18.87.87,0,0,0,1.18.34l21.48-12A.87.87,0,0,0,45.23,42.73Z"/><polygon class="cls-8" points="30.82 49.78 30.97 39.71 27.71 44.66 24.55 43.3 24.4 53.36 30.82 49.78"/></g></g></svg>