<svg xmlns="http://www.w3.org/2000/svg" viewBox="0 0 345.3 432.67"><defs><style>.cls-1{fill:#27debf;}.cls-13,.cls-2{opacity:0.1;}.cls-10,.cls-14,.cls-17,.cls-3{fill:#fff;}.cls-4{fill:#e0e0e0;}.cls-5{opacity:0.15;}.cls-6{fill:#455a64;}.cls-7{fill:#37474f;}.cls-8{fill:#263238;}.cls-20,.cls-21,.cls-9{fill:none;stroke-miterlimit:10;}.cls-9{stroke:#e6e6e6;}.cls-10{opacity:0.85;}.cls-11{fill:#fafafa;}.cls-12{opacity:0.05;}.cls-14{opacity:0.35;}.cls-15{opacity:0.2;}.cls-16{fill:#f0f0f0;}.cls-17{opacity:0.4;}.cls-18{fill:#f28f8f;}.cls-19{fill:#ffa8a7;}.cls-20,.cls-21{stroke:#e0e0e0;stroke-linecap:round;stroke-width:1.5px;}.cls-21{stroke-dasharray:6.08 5.07;}</style></defs><g id="Layer_2" data-name="Layer 2"><g id="Message"><g id="Plants"><path class="cls-1" d="M309,349.67l-7.57-4.33s-3.63-20-.92-37.2c3.82-24.18,20.28-32.52,26.26-30.12s7.38,9.57-3.41,23.54C316.94,309.8,308.74,327.23,309,349.67Z"/><g class="cls-2"><path d="M309,349.67l-7.57-4.33s-3.63-20-.92-37.2c3.82-24.18,20.28-32.52,26.26-30.12s7.38,9.57-3.41,23.54C316.94,309.8,308.74,327.23,309,349.67Z"/></g><path class="cls-3" d="M306.2,340.06h.08a.54.54,0,0,0,.46-.61c-3.13-22.64,6-47.44,16.2-57.43a.54.54,0,0,0-.75-.77c-10.42,10.18-19.7,35.38-16.52,58.35A.54.54,0,0,0,306.2,340.06Z"/><path class="cls-1" d="M330,361.8c1.19.69,3.66-.82,4.6-1.45a11.35,11.35,0,0,0,3.8-4.36,10.74,10.74,0,0,0,.95-6.42,25.39,25.39,0,0,0-.82-3.42c-.31-1.1-.63-2.21-1-3.31a8.56,8.56,0,0,1-.49-3.35c.29-2.26,2.31-3.85,4.14-5.22,2-1.52,4.13-3.52,4.12-6.25a9.58,9.58,0,0,0-2.41-5.71c-1.3-1.66-2.85-3.12-4-4.86a6.76,6.76,0,0,1-1.38-4.24,7,7,0,0,1,.93-2.65,38.68,38.68,0,0,0,2.9-5.32c.66-1.91.57-4.28-.92-5.65a6.27,6.27,0,0,0-4.7-1.17,10.71,10.71,0,0,0-4.37,1.54c-4.33,2.41-6.81,7.54-11.41,9.4a47,47,0,0,1-5.56,1.36c-1.85.49-3.74,1.43-4.59,3.14-1.69,3.37,1.44,7.53.26,11.11-1,3.16-4.13,4.38-5.86,7.23a6.76,6.76,0,0,0-.81,4.15,19.93,19.93,0,0,0,1.75,7,49.87,49.87,0,0,0,3.85,6.32C309,349.74,329.76,361.69,330,361.8Z"/><path class="cls-3" d="M317.66,355.25h0a.54.54,0,0,0,.53-.56c-.89-21.42,9.2-45.08,16.54-51.95a.54.54,0,0,0,0-.76.55.55,0,0,0-.77,0c-7.48,7-17.78,31.06-16.88,52.78A.53.53,0,0,0,317.66,355.25Z"/><path class="cls-3" d="M320.87,329.94l.16,0a72.15,72.15,0,0,1,15.55-2.51.54.54,0,0,0,.51-.56.52.52,0,0,0-.56-.52,73.26,73.26,0,0,0-15.82,2.55.54.54,0,0,0-.36.68A.55.55,0,0,0,320.87,329.94Z"/></g><path id="Shadow" class="cls-4" d="M226.44,431.65l108-62.35c2.37-1.36,2.37-3.58,0-4.94L130,246.32a9.45,9.45,0,0,0-8.57,0l-108,62.34c-2.37,1.37-2.37,3.59,0,4.95l204.44,118A9.51,9.51,0,0,0,226.44,431.65Z"/><g id="Plants-2" data-name="Plants"><path class="cls-1" d="M34.08,311l8.46-4.89s2.08-18.13.7-32.17c-1.94-19.72-14.68-43.46-29.88-37.89s7,25.67,11.9,42.4S34.08,311,34.08,311Z"/><path class="cls-5" d="M34.08,311l8.46-4.89s2.08-18.13.7-32.17c-1.94-19.72-14.68-43.46-29.88-37.89s7,25.67,11.9,42.4S34.08,311,34.08,311Z"/><path class="cls-3" d="M38.53,309h0a.51.51,0,0,1-.49-.53c1.49-43.83-20.33-65.88-20.55-66.1a.51.51,0,0,1,.71-.73c.23.22,22.36,22.59,20.86,66.86A.51.51,0,0,1,38.53,309Z"/><path class="cls-1" d="M29.56,314.51l6-3.47s1-12.44-5.07-27.55C25.2,270.33,12,259.42,5.4,261.71s-6.46,7-3.23,11.92S25.05,290.31,29.56,314.51Z"/><path class="cls-3" d="M32.74,313.19h0a.51.51,0,0,1-.51-.51C32.35,285,6.32,266.23,6.06,266a.51.51,0,0,1,.59-.83c.27.19,26.72,19.23,26.6,47.47A.51.51,0,0,1,32.74,313.19Z"/></g><g id="Device"><g id="Device-2" data-name="Device"><path class="cls-6" d="M327.88,348.11c1.53,1.19,1.37,2.88-.49,3.94L225.46,410.91a8.23,8.23,0,0,1-7.41,0L23.26,298.44c-1.89-1.09-2-2.8-.44-4a8.28,8.28,0,0,0-3.27,6.14v4.9a8.15,8.15,0,0,0,3.7,6.42L218,424.37a8.22,8.22,0,0,0,7.42,0l101.93-58.84a8.19,8.19,0,0,0,3.71-6.43v-4.9A8.29,8.29,0,0,0,327.88,348.11Z"/><path class="cls-7" d="M327.39,347.78,132.6,235.32a8.25,8.25,0,0,0-7.42,0L23.26,294.17c-2.05,1.17-2.05,3.09,0,4.27L218.05,410.9a8.23,8.23,0,0,0,7.41,0l101.93-58.86C329.43,350.88,329.43,349,327.39,347.78ZM301,338.68c1.75,1,1.76,2.66,0,3.67l-92.66,53.51a7.07,7.07,0,0,1-6.37,0L50.27,308.3c-1.76-1-1.76-2.66,0-3.67l92.68-53.51c1.76-1,3.58-1.6,5.33-.59Z"/><path class="cls-8" d="M22.82,294.45a8.28,8.28,0,0,0-3.27,6.14v4.9a8.18,8.18,0,0,0,3.7,6.42L218,424.37a7.66,7.66,0,0,0,3.72.89V411.79a7.68,7.68,0,0,1-3.71-.89L23.26,298.44C21.37,297.35,21.22,295.64,22.82,294.45Z"/><path d="M84,270.52c1.37-.79,1.37-2.08,0-2.87a5.51,5.51,0,0,0-5,0c-1.38.79-1.38,2.08,0,2.87A5.51,5.51,0,0,0,84,270.52Z"/><path class="cls-9" d="M272.65,378.14c3.23-1.87,3.23-4.89,0-6.76a13,13,0,0,0-11.71,0c-3.23,1.87-3.23,4.89,0,6.76A12.92,12.92,0,0,0,272.65,378.14Z"/><path d="M81.54,280,100.73,269c1.14-.66,1.2-1.7.13-2.32a4.42,4.42,0,0,0-4,.08L77.65,277.79c-1.14.66-1.2,1.7-.12,2.32A4.43,4.43,0,0,0,81.54,280Z"/><path class="cls-1" d="M148.27,250.53c-1.75-1-3.57-.43-5.33.59L50.26,304.63c-1.75,1-1.75,2.65,0,3.67l151.65,87.56a7.07,7.07,0,0,0,6.37,0L301,342.35c1.77-1,1.76-2.66,0-3.67Z"/><path class="cls-10" d="M148.27,250.53c-1.75-1-3.57-.43-5.33.59L50.26,304.63c-1.75,1-1.75,2.65,0,3.67l151.65,87.56a7.07,7.07,0,0,0,6.37,0L301,342.35c1.77-1,1.76-2.66,0-3.67Z"/></g><path class="cls-6" d="M60.94,309.44l-1-.57c-.21-.13-.21-.33,0-.45l.11-.06a.87.87,0,0,1,.77,0l1,.57c.21.12.21.32,0,.45l-.11.06A.87.87,0,0,1,60.94,309.44Z"/><path class="cls-6" d="M62.7,308.42l-1.71-1c-.21-.13-.21-.33,0-.45l.11-.06a.81.81,0,0,1,.77,0l1.71,1c.21.13.21.33,0,.45l-.11.06A.87.87,0,0,1,62.7,308.42Z"/><path class="cls-6" d="M64.46,307.4,62,306c-.22-.12-.22-.32,0-.44l.1-.06a.83.83,0,0,1,.78,0l2.42,1.4a.23.23,0,0,1,0,.44l-.11.06A.81.81,0,0,1,64.46,307.4Z"/><path class="cls-6" d="M66.22,306.39,62,304a.23.23,0,0,1,0-.44l.11-.07a.89.89,0,0,1,.78,0l4.18,2.42c.21.12.21.32,0,.45l-.11.06A.87.87,0,0,1,66.22,306.39Z"/><path class="cls-6" d="M71.27,303.8a.27.27,0,0,1-.19-.05l-.62-.35-2,1.14a.26.26,0,0,1-.29,0l-.22-.12a.31.31,0,0,1-.1-.08.62.62,0,0,1,0-.1l-.1-2.48a.15.15,0,0,1,0-.1s0-.06.11-.09l.28-.16a.42.42,0,0,1,.22-.08.42.42,0,0,1,.21.06l2.15,1.24.43-.26a.61.61,0,0,1,.22-.07.39.39,0,0,1,.2.06l.15.08c.06,0,.09.07.09.11s0,.08-.13.13l-.44.25.61.35c.07,0,.1.08.09.11s0,.08-.14.13l-.33.19A.42.42,0,0,1,71.27,303.8Zm-1.2-.78-1.53-.88.1,1.71Z"/><path class="cls-6" d="M73.24,302.23a3.45,3.45,0,0,1-2-.48c-.62-.35-.89-.74-.84-1.15s.44-.83,1.14-1.23a6.2,6.2,0,0,1,.86-.42,3.67,3.67,0,0,1,.83-.22h.13a.09.09,0,0,1,0,0l.09.26a.07.07,0,0,1,0,.08l-.11,0a4,4,0,0,0-1.21.46c-.48.27-.73.56-.77.85s.18.57.65.84a2.67,2.67,0,0,0,1.45.38,3.11,3.11,0,0,0,1.42-.42,4.39,4.39,0,0,0,.45-.3,2,2,0,0,0,.29-.28l-1-.58-.82.48a.61.61,0,0,1-.22.07.39.39,0,0,1-.2-.06l-.14-.08c-.07,0-.1-.07-.09-.11s0-.07.13-.12l1.31-.76a.56.56,0,0,1,.26-.08.43.43,0,0,1,.23.07l1.42.82a.38.38,0,0,1,.11.08.1.1,0,0,1,0,.09,3.09,3.09,0,0,1-1.25,1.08A4.66,4.66,0,0,1,73.24,302.23Z"/><path class="cls-6" d="M100.62,283l2.33,1.34a.66.66,0,0,0,.64,0l2.33-1.34a.2.2,0,0,0,0-.37l-2.34-1.34a.7.7,0,0,0-.63,0l-2.34,1.34C100.45,282.75,100.45,282.91,100.62,283Z"/><path class="cls-6" d="M102.24,281.19a2.31,2.31,0,0,0-2,0c-.44.26-.44.66,0,.92l.81.47.59-.12-.8-.46a.37.37,0,0,1,0-.7.8.8,0,0,1,.81,0l.81.46.59-.11Z"/><path class="cls-6" d="M144.69,256.64a2.32,2.32,0,0,0-1.12.25l-5.92,3.41c-.51.3-.51.76,0,1.05l2.15,1.24a2.28,2.28,0,0,0,1.13.26,3.31,3.31,0,0,0,.55-.05,1.83,1.83,0,0,0,.57-.21l5.92-3.41c.51-.29.51-.75,0-1.05l-2.16-1.24A2.32,2.32,0,0,0,144.69,256.64Zm-3.76,6a1,1,0,0,1-.48-.13l-2.15-1.24a.43.43,0,0,1,0-.8l5.91-3.41a.84.84,0,0,1,.31-.12h.17a.94.94,0,0,1,.48.13l2.15,1.24a.43.43,0,0,1,0,.8l-5.91,3.41A1,1,0,0,1,140.93,262.6Z"/><path class="cls-6" d="M141.11,262.18l-.09-.05L139.08,261a.32.32,0,0,1,0-.59l5.32-3.07.11,0,.09,0,1.94,1.12a.32.32,0,0,1,0,.59l-5.32,3.07Z"/><path class="cls-6" d="M146.12,256.73a1.5,1.5,0,0,1,1.19.23l.4.23c.45.26.63.57.42.71l-.38.24-2-1.18Z"/><path class="cls-6" d="M112.31,314.87a9.77,9.77,0,0,0,4.16-1.14c2.41-1.4,3-3.3-.8-5.68a4.69,4.69,0,0,1-2.51,3.38c-3.29,1.9-7,2.39-10,.65s-2-4.3,1.33-6.2a14,14,0,0,1,13.94.05c5.59,3.22,4.33,6.64.38,8.92a15.73,15.73,0,0,1-6.75,2Zm1.4-7.86c-2.9-1.25-5.37-1.08-7.24,0-1.57.91-1.89,2.22-.15,3.22a5.44,5.44,0,0,0,5.62-.27A3.07,3.07,0,0,0,113.71,307Z"/><path class="cls-6" d="M120.6,300.79a4.33,4.33,0,0,1,4-.27c1,.59.8,1.58-.46,2.31a4.41,4.41,0,0,1-4,.28C119.08,302.53,119.33,301.52,120.6,300.79Zm7.73,4.47a4.32,4.32,0,0,1,4-.27c1,.58.8,1.57-.47,2.3a4.4,4.4,0,0,1-4,.29C126.82,307,127.07,306,128.33,305.26Z"/><path class="cls-6" d="M129.67,299.86c-4.87-2.81-4.87-5.73-.89-8s9.07-2.28,13.91.51,5,5.81,1,8.11S134.53,302.67,129.67,299.86Zm9.7-5.6c-4.07-2.35-6.68-2.33-8.55-1.25S128.91,295.6,133,298s6.86,2.39,8.7,1.33S143.45,296.61,139.37,294.26Z"/><path class="cls-6" d="M145.14,290.93c-4.87-2.81-4.87-5.73-.89-8s9.07-2.28,13.91.51,5,5.81,1,8.11S150,293.74,145.14,290.93Zm9.71-5.6c-4.08-2.36-6.69-2.33-8.56-1.25s-1.91,2.59,2.16,4.94,6.86,2.39,8.7,1.32S158.92,287.68,154.85,285.33Z"/><path class="cls-1" d="M120.2,336.59,198,291.65a6.59,6.59,0,0,1,6,0l19.9,11.48c1.64.95,1.64,2.49,0,3.44l-77.84,44.94a6.59,6.59,0,0,1-6,0L120.2,340C118.55,339.08,118.55,337.54,120.2,336.59Z"/><path class="cls-11" d="M128.53,338.11l13.92,8a2.86,2.86,0,0,0,2.58,0l20.52-11.85a.78.78,0,0,0,0-1.48l-13.93-8a2.84,2.84,0,0,0-2.57,0l-20.52,11.85A.78.78,0,0,0,128.53,338.11Z"/><polygon class="cls-1" points="149.56 334.25 166.08 333.59 149.62 333.35 150.28 324.47 147.59 335.42 128 337.36 143.99 336.61 143.6 346.45 144.83 336.57 149.4 336.35 149.56 334.25"/><path class="cls-11" d="M158.24,320.55,178.36,309a3.57,3.57,0,0,1,3.23-.05c.88.51.85,1.35-.07,1.87l-20.11,11.57a3.56,3.56,0,0,1-3.24,0C157.29,321.92,157.33,321.08,158.24,320.55Z"/><path class="cls-11" d="M164.43,324.12l40.77-23.55a3.56,3.56,0,0,1,3.24,0c.87.5.84,1.34-.08,1.87L167.59,326a3.54,3.54,0,0,1-3.23,0C163.48,325.49,163.51,324.65,164.43,324.12Z"/><path class="cls-11" d="M170.62,327.7l40.77-23.56a3.56,3.56,0,0,1,3.24,0c.87.5.84,1.34-.08,1.87l-40.77,23.56a3.62,3.62,0,0,1-3.24,0C169.67,329.06,169.7,328.23,170.62,327.7Z"/></g><g id="Envelope"><path class="cls-1" d="M111.28,174.24l132-76.2,5.28,3a5.52,5.52,0,0,1,2.48,4.3v97.35a5.52,5.52,0,0,1-2.48,4.3l-127,73.33a5.49,5.49,0,0,1-5,0l-2.8-1.62a5.5,5.5,0,0,1-2.48-4.3Z"/><path class="cls-12" d="M111.28,174.24l132-76.2,5.28,3a5.52,5.52,0,0,1,2.48,4.3v97.35a5.52,5.52,0,0,1-2.48,4.3l-127,73.33a5.49,5.49,0,0,1-5,0l-2.8-1.62a5.5,5.5,0,0,1-2.48-4.3Z"/><path class="cls-1" d="M242.52,89.48l.54-.29L241,88h0a4.43,4.43,0,0,0-.54-.26L182.38,66.22a4,4,0,0,0-4.46,1.42l-65,94.88a11.26,11.26,0,0,0-1.67,5.41v6.3l2,1.17L243.25,98v-6.3A4.26,4.26,0,0,0,242.52,89.48Z"/><path class="cls-13" d="M180.61,68.1a3.24,3.24,0,0,0-.67.71l-65,94.87a10.2,10.2,0,0,0-1.21,2.72l-2-1.17a12.93,12.93,0,0,1,.53-1.44.08.08,0,0,0,0,0c.09-.19.18-.38.28-.57l0-.09a4.3,4.3,0,0,1,.35-.57l65-94.88a2.52,2.52,0,0,1,.33-.39l.35-.32Z"/><path class="cls-14" d="M243,89.18a3.2,3.2,0,0,0-.56-.27L184.39,67.38a4,4,0,0,0-3.78.72l-2-1.17a4,4,0,0,1,3.79-.71l58.07,21.52A3.06,3.06,0,0,1,241,88Z"/><path class="cls-1" d="M112.61,163.09c.11-.21.23-.4.34-.57C112.84,162.69,112.72,162.88,112.61,163.09Z"/><path class="cls-1" d="M178.25,67.24c.11-.11.23-.21.35-.31C178.48,67,178.36,67.13,178.25,67.24Z"/><path class="cls-1" d="M111.74,165.23a12.24,12.24,0,0,1,.53-1.44A10.68,10.68,0,0,0,111.74,165.23Z"/><path class="cls-1" d="M112.28,163.75c.09-.2.18-.39.28-.57C112.46,163.36,112.37,163.55,112.28,163.75Z"/><path class="cls-15" d="M112.27,163.79v0Z"/><polygon class="cls-15" points="111.74 165.23 111.74 165.23 111.74 165.23 111.74 165.23"/><polygon class="cls-15" points="178.6 66.93 178.6 66.93 178.6 66.93 178.6 66.93"/><path class="cls-15" d="M112.56,163.18l0-.09Z"/><path class="cls-15" d="M177.92,67.64a4.12,4.12,0,0,1,.33-.4A4.12,4.12,0,0,0,177.92,67.64Z"/><path class="cls-1" d="M179.94,68.81l-65,94.88a11.16,11.16,0,0,0-1.68,5.41v6.3l132-76.2V92.91a4.57,4.57,0,0,0-2.78-4L184.4,67.39A4,4,0,0,0,179.94,68.81Z"/><path class="cls-4" d="M127.65,267.11l-4.23-2.44h0l0,0h0a2.55,2.55,0,0,1-1-2.31V130.42a7.64,7.64,0,0,1,1.19-3.78l4.3,2.48a7.55,7.55,0,0,0-1.19,3.79V264.8A2.61,2.61,0,0,0,127.65,267.11Z"/><path class="cls-16" d="M130.3,126.61l106-61.2c2-1.15,3.64-.21,3.64,2.1v131.9a8,8,0,0,1-3.64,6.3l-106,61.19c-2,1.16-3.63.22-3.63-2.1V132.91A8,8,0,0,1,130.3,126.61Z"/><path class="cls-11" d="M234.57,62.68l4.16,2.41a2.57,2.57,0,0,0-2.43.35l-106,61.17a7.11,7.11,0,0,0-2.45,2.51l-4.3-2.48a7.14,7.14,0,0,1,2.45-2.52L232,62.93a2.49,2.49,0,0,1,2.58-.24Z"/><path class="cls-4" d="M138.57,133.51l88.15-50.89c1.18-.69,2.14-.2,2.14,1.08a4.62,4.62,0,0,1-2.14,3.56l-88.15,50.89c-1.19.69-2.15.2-2.15-1.08A4.6,4.6,0,0,1,138.57,133.51Z"/><path class="cls-4" d="M138.57,142.76l88.15-50.89c1.18-.69,2.14-.2,2.14,1.08a4.62,4.62,0,0,1-2.14,3.56L138.57,147.4c-1.19.69-2.15.2-2.15-1.08A4.6,4.6,0,0,1,138.57,142.76Z"/><path class="cls-4" d="M138.57,152l88.15-50.89c1.18-.69,2.14-.2,2.14,1.08a4.62,4.62,0,0,1-2.14,3.56l-88.15,50.89c-1.19.69-2.15.2-2.15-1.08A4.6,4.6,0,0,1,138.57,152Z"/><path class="cls-4" d="M138.57,161.26l88.15-50.89c1.18-.69,2.14-.2,2.14,1.08a4.6,4.6,0,0,1-2.14,3.56L138.57,165.9c-1.19.69-2.15.2-2.15-1.08A4.6,4.6,0,0,1,138.57,161.26Z"/><path class="cls-4" d="M138.57,170.51l88.15-50.89c1.18-.69,2.14-.2,2.14,1.08a4.6,4.6,0,0,1-2.14,3.56l-88.15,50.89c-1.19.69-2.15.2-2.15-1.08A4.6,4.6,0,0,1,138.57,170.51Z"/><path class="cls-4" d="M138.57,179.76l88.15-50.89c1.18-.69,2.14-.2,2.14,1.08a4.6,4.6,0,0,1-2.14,3.56L138.57,184.4c-1.19.69-2.15.2-2.15-1.08A4.6,4.6,0,0,1,138.57,179.76Z"/><path class="cls-4" d="M138.57,189l88.15-50.89c1.18-.69,2.14-.2,2.14,1.08a4.6,4.6,0,0,1-2.14,3.56l-88.15,50.89c-1.19.69-2.15.2-2.15-1.08A4.6,4.6,0,0,1,138.57,189Z"/><path class="cls-4" d="M138.57,198.26l88.15-50.89c1.18-.68,2.14-.2,2.14,1.08a4.6,4.6,0,0,1-2.14,3.56L138.57,202.9c-1.19.69-2.15.2-2.15-1.08A4.6,4.6,0,0,1,138.57,198.26Z"/><path class="cls-1" d="M247.66,204l-.13.2-55-24.4a9.48,9.48,0,0,0-11.88,3.66l-58.8,94.34-2.17,1.26h0a1.77,1.77,0,0,1-1.68.18l60.46-97a9.5,9.5,0,0,1,11.9-3.67Z"/><path class="cls-17" d="M175.23,192.08l.14-.12-53.52,85.88-2.17,1.26h0a1.8,1.8,0,0,1-1.69.19l55.14-88.49Z"/><path class="cls-17" d="M247.67,204a1.21,1.21,0,0,1-.14.2l-55-24.4a9.49,9.49,0,0,0-11.89,3.66l-2.17-1.26a9.49,9.49,0,0,1,11.87-3.65Z"/><path class="cls-1" d="M251,104.77h0c-.12-.71-.5-.91-1-.58a2.89,2.89,0,0,0-.64.66l-.27.38L194.8,180.79l-8.11,11.28a4.63,4.63,0,0,1-4.46,1.68l-7-1.67-53.4-12.7a2.71,2.71,0,0,0-1.09,0,2,2,0,0,0-.41.13l1.48-.85,51.48,12.24,7,1.66a4.6,4.6,0,0,0,4.46-1.67l8.11-11.28,54.53-75.94a2,2,0,0,1,.62-.56l-4.72-2.72,2-1.14,3.26,1.88A5.65,5.65,0,0,1,251,104.77Z"/><path class="cls-17" d="M194.79,180.78l-8.1,11.29a4.6,4.6,0,0,1-4.46,1.67l-7-1.66.14-.12.34-.53,4.58,1.09a4.61,4.61,0,0,0,4.46-1.68l8-11.16Z"/><path class="cls-13" d="M248.53,101.08l-3.27-1.88-2,1.14,4.72,2.72h0a2.21,2.21,0,0,0-.62.56l-54.54,75.93-.08.11h0l2,1.1,54.27-75.55.28-.39a3,3,0,0,1,.63-.65c.49-.34.86-.14,1,.57h0A5.68,5.68,0,0,0,248.53,101.08Z"/><path class="cls-1" d="M122.92,181l-11.64-6.72V274.45a5.5,5.5,0,0,0,2.48,4.3l2.8,1.62a5.49,5.49,0,0,0,5,0l1.4-.81Z"/><path class="cls-5" d="M122.92,181l-11.64-6.72V274.45a5.5,5.5,0,0,0,2.48,4.3l2.8,1.62a5.49,5.49,0,0,0,5,0l1.4-.81Z"/><path class="cls-6" d="M249.07,105.23v96.29a5,5,0,0,1-.78,2.52,5.18,5.18,0,0,1-1.45,1.62l-.09.06-.17.11-127,73.31h0a2.59,2.59,0,0,1-.48.23,3.15,3.15,0,0,1,0-.44V181.58a2.15,2.15,0,0,1,2.79-2.2l53.4,12.7,7,1.67a4.63,4.63,0,0,0,4.46-1.68l8.11-11.28Z"/><path class="cls-1" d="M251,105.39v97.35a5,5,0,0,1-.78,2.51,5.38,5.38,0,0,1-1.45,1.64l-.1.05a.7.7,0,0,1-.16.1l-127,73.32h0a1.75,1.75,0,0,1-1.69.2,1.47,1.47,0,0,1-.74-1.19,3.15,3.15,0,0,1,0-.44V181.58a2.15,2.15,0,0,1,2.79-2.2l53.4,12.7,7,1.67a4.63,4.63,0,0,0,4.46-1.68l8.11-11.28,54.27-75.56.27-.38C250.26,103.57,251,103.81,251,105.39Z"/><path class="cls-1" d="M248.53,207.05a.91.91,0,0,0,.16-.11l.1-.06a5.3,5.3,0,0,0,1.45-1.62,5.09,5.09,0,0,0,.77-2.47l-56.21-22,37.64,35.54Z"/><path class="cls-15" d="M248.53,207.05a.91.91,0,0,0,.16-.11l.1-.06a5.3,5.3,0,0,0,1.45-1.62,5.09,5.09,0,0,0,.77-2.47l-56.21-22,37.64,35.54Z"/><path class="cls-1" d="M119,278.93a1.73,1.73,0,0,0,.78,1.64,1.75,1.75,0,0,0,1.69-.2h0l43.72-25.25,10-63L119,277.31Z"/><path class="cls-5" d="M180.62,183.49l-60.81,97.07a1.71,1.71,0,0,1-.77-1.63v-1.61l53.66-85.84.41-.67,5.34-8.54s0,0,0,0Z"/><path class="cls-1" d="M250.24,205.26a5.3,5.3,0,0,1-1.45,1.62l-.1.06L121.53,280.37h0a1.75,1.75,0,0,1-1.69.2l60.81-97.09a9.55,9.55,0,0,1,12-3.67Z"/><path class="cls-1" d="M250.24,205.26a5.19,5.19,0,0,1-1.45,1.62l-.09.06L121.53,280.37h0a1.81,1.81,0,0,1-1.7.18l1.7-2.69,125-72.17.1,0a5.34,5.34,0,0,0,1.32-1.43Z"/><path class="cls-5" d="M111.74,165.23l2,1.17a9.66,9.66,0,0,0-.47,2.71v6.29l-2-1.17v-6.3A9.73,9.73,0,0,1,111.74,165.23Z"/><polygon class="cls-1" points="123.68 179.06 121.82 178.62 120.34 179.47 118.3 178.29 113.29 175.4 115.24 174.25 123.68 179.06"/><path class="cls-13" d="M123.68,179.06h0l-8.43-4.81-1.95,1.15,5,2.89,2,1.18h0a1.39,1.39,0,0,1,.38-.12,2.7,2.7,0,0,1,1.09,0l4.11,1,46.76,11.12.41-.67Z"/></g><g id="Notification"><path class="cls-18" d="M274.48,183l-9.39-5.45h0l-.08-.05h0c-4.1-2.31-9.73-2-16,1.63-12.53,7.23-22.68,24.83-22.68,39.3,0,7.22,2.53,12.29,6.62,14.67h0l8.56,4.92,2-3.36a23.38,23.38,0,0,0,6.51-2.53c12.52-7.24,22.68-24.83,22.69-39.3a23.88,23.88,0,0,0-.72-5.79Z"/><path class="cls-5" d="M227.21,210.76a36.85,36.85,0,0,0-.85,7.63c0,7.22,2.53,12.29,6.62,14.67h0l8.56,4.92,2-3.36a23.38,23.38,0,0,0,6.51-2.53,36.88,36.88,0,0,0,6.18-4.57Z"/><path class="cls-19" d="M258,184.24c-12.53,7.23-22.68,24.83-22.68,39.29s10.15,20.34,22.68,13.1,22.69-24.83,22.69-39.29S270.51,177,258,184.24Z"/><path class="cls-3" d="M266.94,204.38v-5.56c0-6.34-3.86-9.25-8.62-6.51h0c-4.75,2.75-8.61,10.12-8.61,16.46v5a19.62,19.62,0,0,1-2.9,9.7v0a5.45,5.45,0,0,0-.7,2.54h0c0,1.6,1,2.33,2.17,1.64L268.38,216a5.21,5.21,0,0,0,2.17-4.15h0a2.05,2.05,0,0,0-.63-1.68l0,0C268.11,209.38,266.94,207.38,266.94,204.38Z"/><path class="cls-3" d="M262.46,221.16c0,3.05-1.85,6.59-4.14,7.9s-4.13-.08-4.13-3.12Z"/></g><polygon class="cls-1" points="139 23.34 204.7 2.92 154.16 37.93 139 23.34"/><polygon class="cls-1" points="204.7 2.92 133.95 14.59 118.79 0 204.7 2.92"/><polygon class="cls-6" points="133.95 14.59 133.95 32.09 139 23.34 204.7 2.92 133.95 14.59"/><polygon class="cls-1" points="133.95 32.09 144.06 28.2 139 23.34 133.95 32.09"/><polygon class="cls-6" points="139 23.34 144.06 28.2 142.44 28.82 139 23.34"/><path class="cls-20" d="M126.37,26.81c-.87.42-1.77.87-2.67,1.36"/><path class="cls-21" d="M119.33,30.74c-12.46,8-26,22.17-29.06,43.17-3,21.19,3.87,45.14,24.94,57.41"/><path class="cls-20" d="M117.43,132.55c.88.45,1.78.89,2.71,1.31"/></g></g></svg>