<?xml version="1.0" encoding="utf-8"?>
<!-- Generator: Adobe Illustrator 25.0.1, SVG Export Plug-In . SVG Version: 6.00 Build 0)  -->
<svg version="1.1" id="Layer_1" xmlns="http://www.w3.org/2000/svg" xmlns:xlink="http://www.w3.org/1999/xlink" x="0px" y="0px"
	 viewBox="0 0 225.9 311.5" style="enable-background:new 0 0 225.9 311.5;" xml:space="preserve">
<style type="text/css">
	.st0{fill:#27DEBF;}
	.st1{opacity:0.2;enable-background:new    ;}
	.st2{fill:none;stroke:#FFFFFF;stroke-linecap:round;stroke-miterlimit:10;}
	.st3{fill:#455A64;}
	.st4{fill:none;stroke:#E0E0E0;stroke-width:1.5;stroke-linecap:round;stroke-miterlimit:10;}
	.st5{fill:none;stroke:#E0E0E0;stroke-width:1.5;stroke-linecap:round;stroke-miterlimit:10;stroke-dasharray:5.86,4.88;}
	.st6{opacity:0.3;enable-background:new    ;}
	.st7{opacity:0.5;enable-background:new    ;}
	.st8{opacity:0.6;enable-background:new    ;}
	.st9{opacity:5.000000e-02;enable-background:new    ;}
	.st10{opacity:0.1;enable-background:new    ;}
	.st11{opacity:0.35;fill:#FFFFFF;enable-background:new    ;}
	.st12{fill:#E0E0E0;}
	.st13{fill:#F0F0F0;}
	.st14{fill:#FAFAFA;}
	.st15{opacity:0.4;fill:#FFFFFF;enable-background:new    ;}
	.st16{opacity:0.15;enable-background:new    ;}
	.st17{fill:#F28F8F;}
	.st18{fill:#FFA8A7;}
	.st19{fill:#FFFFFF;}
	.st20{fill:#EBEBEB;}
	.st21{fill:#263238;}
	.st22{fill:#37474F;}
</style>
<g id="Plants">
	<path class="st0" d="M193,179.3c3.9,0.5,10.6-1.8,11.1-8.3s3.2-8.3,8.2-9.4s6.4-2.8,7-5.9s-3.2-6.9-2.1-11.6s4.6-4.7,8.1-10
		c2.2-3.4-2.3-8.6-9.9-6.4c-7.6,2.2-7,7.2-14.6,7.8s-12.4,5.2-12.5,11S193,179.3,193,179.3z"/>
	<path class="st1" d="M193,179.3c3.9,0.5,10.6-1.8,11.1-8.3s3.2-8.3,8.2-9.4s6.4-2.8,7-5.9s-3.2-6.9-2.1-11.6s4.6-4.7,8.1-10
		c2.2-3.4-2.3-8.6-9.9-6.4c-7.6,2.2-7,7.2-14.6,7.8s-12.4,5.2-12.5,11S193,179.3,193,179.3z"/>
	<path class="st2" d="M219.9,130.1c-5.2,1.8-24.8,18.5-28.3,36.2"/>
</g>
<g id="Envelopes">
	<polygon class="st0" points="72,22.3 122.6,0 85.4,32.6 	"/>
	<polygon class="st0" points="122.6,0 67.1,15.8 53.7,5.5 	"/>
	<polygon class="st3" points="67.1,15.8 68.7,29.8 72,22.3 122.6,0 	"/>
	<polygon class="st0" points="68.7,29.8 76.5,25.7 72,22.3 	"/>
	<polygon class="st3" points="72,22.3 76.5,25.7 75.2,26.4 	"/>
	<path class="st4" d="M62.2,26.2c-0.8,0.5-1.7,1.1-2.5,1.7"/>
	<path class="st5" d="M55.9,30.9C47,38.5,38.2,50.8,37.7,67.2c-0.5,16.9,7,35.1,24.3,43.2"/>
	<path class="st4" d="M64.2,111.3c0.9,0.4,1.9,0.7,2.8,1"/>
	<path class="st0" d="M36,242.2c-0.5,0.3-9.7,2.9-13.1-1.6s2.2-11.5-1-14.1s-12.1,0-14.3-5.4s4.2-7.8,0.6-13.2
		c-2.3-3.5-8.6-5.4-8.3-8.6c0.4-4.7,9.1-6,16.6-0.9s11.1,0.9,13.4,0.6s7.5,0.4,7.4,8.8S36,242.2,36,242.2z"/>
	<path class="st2" d="M5.4,197.7c9.5,2.7,28.5,15.9,31.1,32.1"/>
	<path class="st2" d="M14.7,216.4c0,0,7.2-4.3,14.1-2.3"/>
	<path class="st0" d="M35.3,140.1c0.1-1.8,1.1-3.5,2.6-4.5l132.9-76.7c1.6-0.8,3.6-0.8,5.2,0l2.9,1.7c1.5,1,2.5,2.7,2.6,4.5V167
		c-0.1,1.8-1.1,3.5-2.6,4.5L46,248.2c-1.6,0.8-3.6,0.8-5.2,0l-2.9-1.7c-1.5-1-2.5-2.7-2.6-4.5V140.1z"/>
	<path class="st6" d="M35.3,140.1c0.1-1.8,1.1-3.5,2.6-4.5l132.9-76.7c1.6-0.8,3.6-0.8,5.2,0l2.9,1.7c1.5,1,2.5,2.7,2.6,4.5V167
		c-0.1,1.8-1.1,3.5-2.6,4.5L46,248.2c-1.6,0.8-3.6,0.8-5.2,0l-2.9-1.7c-1.5-1-2.5-2.7-2.6-4.5V140.1z"/>
	<path class="st0" d="M47.5,144.2l-11.4-6.6c-0.5,0.8-0.7,1.7-0.8,2.6V242c0.1,1.8,1.1,3.5,2.6,4.5l2.9,1.7c1.6,0.8,3.6,0.8,5.2,0
		l1.5-0.8V144.2z"/>
	<path class="st7" d="M47.5,144.2l-11.4-6.6c-0.5,0.8-0.7,1.7-0.8,2.6V242c0.1,1.8,1.1,3.5,2.6,4.5l2.9,1.7c1.6,0.8,3.6,0.8,5.2,0
		l1.5-0.8V144.2z"/>
	<path class="st0" d="M181.6,65.1V167c0,0.9-0.3,1.8-0.8,2.6c-0.4,0.7-0.9,1.2-1.5,1.7l-0.1,0.1l-0.2,0.1L46.1,248.2l0,0
		c-0.5,0.4-1.2,0.4-1.8,0.2c-0.6-0.4-0.9-1-0.8-1.7V144.8c-0.1-1.2,0.9-2.3,2.1-2.4c0.3,0,0.5,0,0.8,0.1l55.9,13.3l7.3,1.7
		c1.8,0.3,3.6-0.3,4.7-1.8l8.5-11.8l57.1-79.5C180.7,63.2,181.6,63.5,181.6,65.1z"/>
	<path class="st1" d="M181.6,65.1V167c0,0.9-0.3,1.8-0.8,2.6c-0.4,0.7-0.9,1.2-1.5,1.7l-0.1,0.1l-0.2,0.1L46.1,248.2l0,0
		c-0.5,0.4-1.2,0.4-1.8,0.2c-0.6-0.4-0.9-1-0.8-1.7V144.8c-0.1-1.2,0.9-2.3,2.1-2.4c0.3,0,0.5,0,0.8,0.1l55.9,13.3l7.3,1.7
		c1.8,0.3,3.6-0.3,4.7-1.8l8.5-11.8l57.1-79.5C180.7,63.2,181.6,63.5,181.6,65.1z"/>
	<path class="st0" d="M179,171.5l0.2-0.1l0.1-0.1c0.6-0.5,1.1-1,1.5-1.7c0.5-0.8,0.8-1.7,0.8-2.6l-58.8-23l39.4,37.2L179,171.5z"/>
	<path class="st8" d="M179,171.5l0.2-0.1l0.1-0.1c0.6-0.5,1.1-1,1.5-1.7c0.5-0.8,0.8-1.7,0.8-2.6l-58.8-23l39.4,37.2L179,171.5z"/>
	<path class="st0" d="M43.5,246.7c-0.1,0.7,0.2,1.3,0.8,1.7c0.6,0.2,1.3,0.2,1.8-0.2l0,0l45.8-26.4l10.4-66L43.5,245V246.7z"/>
	<path class="st8" d="M43.5,246.7c-0.1,0.7,0.2,1.3,0.8,1.7c0.6,0.2,1.3,0.2,1.8-0.2l0,0l45.8-26.4l10.4-66L43.5,245V246.7z"/>
	<path class="st0" d="M180.7,169.6c-0.4,0.7-0.9,1.2-1.5,1.7l-0.1,0.1l-133,76.8l0,0c-0.5,0.4-1.2,0.4-1.8,0.2l63.6-101.6
		c2.6-4.2,8-5.8,12.5-3.8L180.7,169.6z"/>
	<path class="st1" d="M180.7,169.6c-0.4,0.7-0.9,1.2-1.5,1.7l-0.1,0.1l-133,76.8l0,0c-0.5,0.4-1.2,0.4-1.8,0.2l63.6-101.6
		c2.6-4.2,8-5.8,12.5-3.8L180.7,169.6z"/>
	<path class="st0" d="M43.5,141.8l61.1,27c4.5,2,9.9,0.4,12.5-3.8l64.2-102.7L43.5,141.8z"/>
	<path class="st8" d="M43.5,141.8l61.1,27c4.5,2,9.9,0.4,12.5-3.8l64.2-102.7L43.5,141.8z"/>
	<path class="st0" d="M43.5,141.8l61.5,23c4.4,1.6,9.3,0,11.9-3.9l64.4-98.7L43.5,141.8z"/>
	<path class="st1" d="M43.5,141.8l61.5,23c4.4,1.6,9.3,0,11.9-3.9l64.4-98.7L43.5,141.8z"/>
	<g id="Envelope">
		<path class="st0" d="M53.3,155.2l132-76.2l5.3,3c1.5,1,2.4,2.6,2.5,4.3v97.3c-0.1,1.7-1,3.3-2.5,4.3l-127,73.3
			c-1.6,0.8-3.4,0.8-5,0l-2.8-1.6c-1.5-1-2.4-2.6-2.5-4.3L53.3,155.2z"/>
		<path class="st9" d="M53.3,155.2l132-76.2l5.3,3c1.5,1,2.4,2.6,2.5,4.3v97.3c-0.1,1.7-1,3.3-2.5,4.3l-127,73.3
			c-1.6,0.8-3.4,0.8-5,0l-2.8-1.6c-1.5-1-2.4-2.6-2.5-4.3L53.3,155.2z"/>
		<path class="st0" d="M184.6,70.4l0.5-0.3l-2.1-1.2l0,0c-0.2-0.1-0.4-0.2-0.5-0.3l-58.1-21.5c-1.6-0.5-3.4,0-4.5,1.4l-65,94.9
			c-1,1.6-1.6,3.5-1.7,5.4v6.3l2,1.2l130-77.4v-6.3C185.3,71.8,185,71.1,184.6,70.4z"/>
		<path class="st10" d="M122.6,49c-0.3,0.2-0.5,0.4-0.7,0.7l-65,94.9c-0.5,0.8-0.9,1.8-1.2,2.7l-2-1.2c0.1-0.5,0.3-1,0.5-1.4l0,0
			c0.1-0.2,0.2-0.4,0.3-0.6V144c0.1-0.2,0.2-0.4,0.3-0.6l65-94.9c0.1-0.1,0.2-0.3,0.3-0.4l0.4-0.3L122.6,49z"/>
		<path class="st11" d="M185,70.1c-0.2-0.1-0.4-0.2-0.6-0.3l-58.1-21.5c-1.3-0.4-2.7-0.2-3.8,0.7l-2-1.2c1.1-0.9,2.5-1.1,3.8-0.7
			l58.1,21.5c0.2,0.1,0.4,0.2,0.5,0.3L185,70.1z"/>
		<path class="st0" d="M54.6,144c0.1-0.2,0.2-0.4,0.3-0.6C54.9,143.6,54.8,143.8,54.6,144z"/>
		<path class="st0" d="M120.3,48.2c0.1-0.1,0.2-0.2,0.4-0.3C120.5,47.9,120.4,48.1,120.3,48.2z"/>
		<path class="st0" d="M53.8,146.2c0.1-0.5,0.3-1,0.5-1.4C54.1,145.2,53.9,145.7,53.8,146.2z"/>
		<path class="st0" d="M54.3,144.7c0.1-0.2,0.2-0.4,0.3-0.6C54.5,144.3,54.4,144.5,54.3,144.7z"/>
		<path class="st1" d="M54.3,144.7L54.3,144.7z"/>
		<path class="st1" d="M53.8,146.2L53.8,146.2L53.8,146.2z"/>
		<path class="st1" d="M120.6,47.9L120.6,47.9L120.6,47.9z"/>
		<path class="st1" d="M54.6,144.1L54.6,144.1L54.6,144.1z"/>
		<path class="st1" d="M120,48.6c0.1-0.1,0.2-0.3,0.3-0.4C120.2,48.3,120.1,48.4,120,48.6z"/>
		<path class="st0" d="M122,49.7l-65,94.9c-1,1.6-1.6,3.5-1.7,5.4v6.3l132-76.2v-6.3c-0.1-1.8-1.2-3.3-2.8-4l-58.1-21.5
			C124.8,47.8,123,48.4,122,49.7z"/>
		<path class="st12" d="M69.7,248l-4.2-2.4l0,0l0,0l0,0c-0.7-0.5-1.1-1.4-1-2.3V111.4c0.1-1.3,0.5-2.6,1.2-3.8l4.3,2.5
			c-0.7,1.1-1.1,2.4-1.2,3.8v131.9C68.7,246.6,69,247.5,69.7,248z"/>
		<path class="st13" d="M72.3,107.5l106-61.2c2-1.2,3.6-0.2,3.6,2.1v131.9c-0.1,2.6-1.5,4.9-3.6,6.3l-106,61.2
			c-2,1.2-3.6,0.2-3.6-2.1V113.8C68.8,111.3,70.2,108.9,72.3,107.5z"/>
		<path class="st14" d="M176.6,43.6l4.2,2.4c-0.8-0.3-1.7-0.2-2.4,0.3l-106,61.2c-1,0.6-1.9,1.5-2.4,2.5l-4.3-2.5
			c0.6-1,1.4-1.9,2.4-2.5l106-61.2C174.8,43.3,175.8,43.2,176.6,43.6L176.6,43.6z"/>
		<path class="st12" d="M80.6,114.4l88.1-50.9c1.2-0.7,2.1-0.2,2.1,1.1c-0.1,1.5-0.9,2.8-2.1,3.6l-88.1,50.9
			c-1.2,0.7-2.1,0.2-2.1-1.1C78.6,116.5,79.4,115.2,80.6,114.4z"/>
		<path class="st12" d="M80.6,123.7l88.1-50.9c1.2-0.7,2.1-0.2,2.1,1.1c-0.1,1.5-0.9,2.8-2.1,3.6l-88.1,50.9
			c-1.2,0.7-2.1,0.2-2.1-1.1C78.6,125.8,79.4,124.5,80.6,123.7z"/>
		<path class="st12" d="M80.6,132.9L168.8,82c1.2-0.7,2.1-0.2,2.1,1.1c-0.1,1.5-0.9,2.8-2.1,3.6l-88.1,50.9
			c-1.2,0.7-2.1,0.2-2.1-1.1C78.6,135,79.4,133.7,80.6,132.9z"/>
		<path class="st12" d="M80.6,142.2l88.1-50.9c1.2-0.7,2.1-0.2,2.1,1.1c-0.1,1.5-0.9,2.8-2.1,3.6l-88.1,50.9
			c-1.2,0.7-2.1,0.2-2.1-1.1C78.6,144.3,79.4,143,80.6,142.2z"/>
		<path class="st12" d="M80.6,151.4l88.1-50.9c1.2-0.7,2.1-0.2,2.1,1.1c-0.1,1.5-0.9,2.8-2.1,3.6l-88.1,50.9
			c-1.2,0.7-2.1,0.2-2.1-1.1C78.6,153.5,79.4,152.2,80.6,151.4z"/>
		<path class="st12" d="M80.6,160.7l88.1-50.9c1.2-0.7,2.1-0.2,2.1,1.1c-0.1,1.5-0.9,2.8-2.1,3.6l-88.1,50.9
			c-1.2,0.7-2.1,0.2-2.1-1.1C78.6,162.8,79.4,161.5,80.6,160.7z"/>
		<path class="st12" d="M80.6,169.9l88.1-50.9c1.2-0.7,2.1-0.2,2.1,1.1c-0.1,1.5-0.9,2.8-2.1,3.6l-88.1,50.9
			c-1.2,0.7-2.1,0.2-2.1-1.1C78.6,172,79.4,170.7,80.6,169.9z"/>
		<path class="st12" d="M80.6,179.2l88.1-50.9c1.2-0.7,2.1-0.2,2.1,1.1c-0.1,1.5-0.9,2.8-2.1,3.6l-88.1,50.9
			c-1.2,0.7-2.1,0.2-2.1-1.1C78.6,181.3,79.4,180,80.6,179.2z"/>
		<path class="st0" d="M189.7,184.9l-0.1,0.2l-55-24.4c-4.3-1.9-9.4-0.3-11.9,3.7l-58.8,94.3l-2.2,1.3l0,0c-0.5,0.3-1.1,0.4-1.7,0.2
			l60.5-97c2.5-4,7.6-5.6,11.9-3.7L189.7,184.9z"/>
		<path class="st15" d="M117.3,173l0.1-0.1l-53.5,85.9l-2.2,1.3l0,0c-0.5,0.3-1.1,0.4-1.7,0.2l55.1-88.5L117.3,173z"/>
		<path class="st15" d="M189.7,184.9c0,0.1-0.1,0.1-0.1,0.2l-55-24.4c-4.3-1.9-9.4-0.3-11.9,3.7l-2.2-1.3c2.5-4,7.6-5.6,11.9-3.6
			L189.7,184.9z"/>
		<path class="st0" d="M193,85.7L193,85.7c-0.1-0.7-0.5-0.9-1-0.6c-0.2,0.2-0.5,0.4-0.6,0.7l-0.3,0.4l-54.3,75.6l-8.1,11.3
			c-1.1,1.3-2.8,2-4.5,1.7l-7-1.7l-53.4-12.7c-0.4-0.1-0.7-0.1-1.1,0c-0.1,0-0.3,0.1-0.4,0.1l1.5-0.9l51.5,12.2l7,1.7
			c1.7,0.3,3.4-0.3,4.5-1.7l8.1-11.3l54.5-75.9c0.2-0.2,0.4-0.4,0.6-0.6l-4.7-2.7l2-1.1l3.3,1.9C191.9,82.9,192.7,84.2,193,85.7z"/>
		<path class="st15" d="M136.8,161.7l-8.1,11.3c-1.1,1.3-2.8,2-4.5,1.7l-7-1.7l0.1-0.1l0.3-0.5l4.6,1.1c1.7,0.3,3.4-0.3,4.5-1.7
			l8-11.2L136.8,161.7z"/>
		<path class="st10" d="M190.6,82l-3.3-1.9l-2,1.1L190,84l0,0c-0.2,0.1-0.5,0.3-0.6,0.6l-54.5,75.9l-0.1,0.1l0,0l2,1.1L191,86.1
			l0.3-0.4c0.2-0.2,0.4-0.5,0.6-0.7c0.5-0.3,0.9-0.1,1,0.6l0,0C192.7,84.2,191.8,82.9,190.6,82z"/>
		<path class="st0" d="M65,161.9l-11.6-6.7v100.2c0.1,1.7,1,3.3,2.5,4.3l2.8,1.6c1.6,0.8,3.4,0.8,5,0l1.4-0.8L65,161.9z"/>
		<path class="st16" d="M65,161.9l-11.6-6.7v100.2c0.1,1.7,1,3.3,2.5,4.3l2.8,1.6c1.6,0.8,3.4,0.8,5,0l1.4-0.8L65,161.9z"/>
		<path class="st3" d="M191.1,86.2v96.3c0,0.9-0.3,1.8-0.8,2.5c-0.4,0.6-0.9,1.2-1.4,1.6l-0.1,0.1l-0.2,0.1l-127,73.3l0,0
			c-0.2,0.1-0.3,0.2-0.5,0.2c0-0.1,0-0.3,0-0.4v-97.4c-0.1-1.2,0.8-2.2,2-2.3c0.3,0,0.5,0,0.8,0.1l53.4,12.7l7,1.7
			c1.7,0.3,3.4-0.3,4.5-1.7l8.1-11.3L191.1,86.2z"/>
		<path class="st0" d="M193,86.3v97.3c0,0.9-0.3,1.8-0.8,2.5c-0.4,0.6-0.9,1.2-1.4,1.6l-0.1,0.1c0,0-0.1,0.1-0.2,0.1l-127,73.3l0,0
			c-0.5,0.4-1.1,0.4-1.7,0.2c-0.4-0.2-0.7-0.7-0.7-1.2c0-0.1,0-0.3,0-0.4v-97.3c-0.1-1.2,0.8-2.2,2-2.3c0.3,0,0.5,0,0.8,0.1
			l53.4,12.7l7,1.7c1.7,0.3,3.4-0.3,4.5-1.7l8.1-11.3l54.3-75.6l0.3-0.4C192.3,84.5,193,84.7,193,86.3z"/>
		<path class="st0" d="M190.6,188c0.1,0,0.1-0.1,0.2-0.1l0.1-0.1c0.6-0.4,1.1-1,1.4-1.6c0.5-0.7,0.7-1.6,0.8-2.5l-56.2-22l37.6,35.5
			L190.6,188z"/>
		<path class="st1" d="M190.6,188c0.1,0,0.1-0.1,0.2-0.1l0.1-0.1c0.6-0.4,1.1-1,1.4-1.6c0.5-0.7,0.7-1.6,0.8-2.5l-56.2-22l37.6,35.5
			L190.6,188z"/>
		<path class="st0" d="M61,259.9c-0.1,0.7,0.2,1.3,0.8,1.6c0.6,0.2,1.2,0.2,1.7-0.2l0,0l43.7-25.2l10-63L61,258.2V259.9z"/>
		<path class="st16" d="M122.7,164.4l-60.8,97.1c-0.5-0.4-0.8-1-0.8-1.6v-1.6l53.7-85.8l0.4-0.7l5.3-8.5l0,0L122.7,164.4z"/>
		<path class="st0" d="M192.3,186.2c-0.4,0.6-0.9,1.2-1.4,1.6l-0.1,0.1L63.6,261.3l0,0c-0.5,0.4-1.1,0.4-1.7,0.2l60.8-97.1
			c2.5-4,7.6-5.6,12-3.7L192.3,186.2z"/>
		<path class="st0" d="M192.3,186.2c-0.4,0.6-0.9,1.2-1.4,1.6l-0.1,0.1L63.6,261.3l0,0c-0.5,0.3-1.1,0.4-1.7,0.2l1.7-2.7l125-72.2
			h0.1c0.5-0.4,1-0.9,1.3-1.4L192.3,186.2z"/>
		<path class="st16" d="M53.8,146.2l2,1.2c-0.3,0.9-0.4,1.8-0.5,2.7v6.3l-2-1.2v-6.3C53.3,147.9,53.5,147,53.8,146.2z"/>
		<polygon class="st0" points="65.7,160 63.9,159.6 62.4,160.4 60.3,159.2 55.3,156.3 57.3,155.2 		"/>
		<path class="st10" d="M65.7,160L65.7,160l-8.4-4.8l-1.9,1.1l5,2.9l2,1.2l0,0c0.1-0.1,0.2-0.1,0.4-0.1c0.4-0.1,0.7-0.1,1.1,0l4.1,1
			l46.8,11.1l0.4-0.7L65.7,160z"/>
	</g>
	<g id="Notification">
		<path class="st17" d="M209.1,157.8l-9.4-5.4l0,0l-0.1-0.1l0,0c-4.1-2.3-9.7-2-16,1.6c-12.5,7.2-22.7,24.8-22.7,39.3
			c0,7.2,2.5,12.3,6.6,14.7l0,0l8.6,4.9l2-3.4c2.3-0.5,4.5-1.4,6.5-2.5c12.5-7.2,22.7-24.8,22.7-39.3c0-2-0.2-3.9-0.7-5.8
			L209.1,157.8z"/>
		<path class="st16" d="M161.8,185.5c-0.5,2.5-0.8,5.1-0.9,7.6c0,7.2,2.5,12.3,6.6,14.7l0,0l8.6,4.9l2-3.4c2.3-0.5,4.5-1.4,6.5-2.5
			c2.2-1.3,4.3-2.8,6.2-4.6L161.8,185.5z"/>
		<path class="st18" d="M192.6,159c-12.5,7.2-22.7,24.8-22.7,39.3s10.1,20.3,22.7,13.1s22.7-24.8,22.7-39.3S205.1,151.8,192.6,159z"
			/>
		<path class="st19" d="M201.6,179.2v-5.6c0-6.3-3.9-9.2-8.6-6.5l0,0c-4.8,2.8-8.6,10.1-8.6,16.5v5c-0.1,3.4-1.1,6.8-2.9,9.7l0,0
			c-0.4,0.8-0.7,1.6-0.7,2.5l0,0c0,1.6,1,2.3,2.2,1.6l20.1-11.7c1.3-1,2.1-2.5,2.2-4.1l0,0c0.1-0.6-0.2-1.2-0.6-1.7l0,0
			C202.7,184.2,201.6,182.2,201.6,179.2z"/>
		<path class="st19" d="M197.1,195.9c0,3.1-1.9,6.6-4.1,7.9s-4.1-0.1-4.1-3.1L197.1,195.9z"/>
	</g>
</g>
<g id="Character">
	<path class="st20" d="M126.7,247.9c-19.7,11.4-19.7,29.8,0,41.2s51.7,11.4,71.4,0s19.7-29.8,0-41.2S146.4,236.5,126.7,247.9z"/>
	<path class="st18" d="M160.7,286.9L160.7,286.9l0.2-0.2c0.1-0.1,0.3-0.2,0.4-0.4l0.4-0.4l0.4-0.4c0.3-0.3,0.6-0.5,0.8-0.8l3.6,2.7
		l2.4,1.8l0,0c-0.9,0.9-1.6,2-2.1,3.2c0,0-0.7,1.2-3.1,0.6C160.7,292.1,160.3,287.7,160.7,286.9z"/>
	<path class="st0" d="M125.9,285.6c-2.7-3.2-0.3-8.4,2.3-15.2c2.9-7.5,7.4-20.2,7.4-20.2l31.8-6.6c0,0,33.9-0.6,37.1,5.8
		c2.5,5.2-19.8,13-23,13.3l-19.6,1.1l-2.1,1L146,282.2L125.9,285.6z"/>
	<path class="st0" d="M184.5,254.7c-2.5,2.5-4.8,5.2-6.9,8c-5.7,8-14.8,22.5-14.8,22.5s1.4,4.6,5.8,4.4c0,0,29.8-27.8,32.2-30.4
		c3.7-3.9,6.6-10.3,0.3-10.9S187,252.1,184.5,254.7z"/>
	<path class="st0" d="M177.5,262.9c0,0,5.3-7.8,10.8-11c0,0-5.5,1.1-13.8,11.2L177.5,262.9z"/>
	<path class="st10" d="M177.5,262.9c0,0,5.3-7.8,10.8-11c0,0-5.5,1.1-13.8,11.2L177.5,262.9z"/>
	<path class="st18" d="M181.1,272.8l-2.1,0.4l1.9,7.2c0,0,1.9-0.2,2.5-0.1c1-0.2,1.9-0.6,2.7-1.1l-0.5-4.4l-2.3-2.4L181.1,272.8z"/>
	<path class="st21" d="M197.6,274.5c2,0.8,3.6,2.4,4.4,4.5c0.4,1.1,0.8,2.1,1.1,3.2c0.3,1.2,0.2,3.1-1.3,3.5c-0.5,0.1-1,0-1.4-0.2
		c-3-1.1-5.8-2.5-8.9-3.4c-2.6-1-5.3-1.6-8.1-1.8c1.3-2,1.2-4.5-0.2-6.4c-0.6-0.5-1.3-0.9-2.1-1c0.8-0.3,1.5-0.8,2.2-1.2
		c1.4-1,3-1.4,4.7-1.2c1.3,0.3,2.2,1.3,3.3,2C193.3,273.8,195.2,273.7,197.6,274.5z"/>
	<path class="st0" d="M130.2,278.8c2.6-0.8,6.8-1.5,19.3-2.2s29.5-3.5,29.5-3.5c2.9,2.8,1.9,7.2,1.9,7.2s-22.1,7-29.4,7.9
		c-11.5,1.5-15.4,1.4-20.6,0.3C125.1,287.3,121.5,281.4,130.2,278.8z"/>
	<polygon class="st17" points="175.7,219.4 185.1,241.8 178.4,245.9 165.5,224.1 	"/>
	<path class="st12" d="M156.4,198.3c5.1,0,10.8,1.9,12.7,5.9s8,16.5,8,16.5s-4.5,6.6-11.7,6.1L156.4,198.3z"/>
	<path class="st18" d="M122.3,233.1c0.1-0.9,1.3-5.1,2.7-9.7l9.7,3.3l-2.6,8.2l-8.2,7.8C122.1,239.9,121.5,236.4,122.3,233.1z"/>
	<path class="st14" d="M145.9,198.6c-6.1,1.5-14.4,3.4-16.8,10c-2.4,6.6-5.9,18.4-5.9,18.4c1.3,2.3,8.7,4.2,11.2,2.9l1.2-4v24.3
		c4.8,5.2,28.3,3.9,31.8-6.6v-33.2c0-5.3-2.9-11.7-11.1-12.1L145.9,198.6z"/>
	<polygon class="st12" points="135.6,225.9 138.7,216.2 135.6,230.2 	"/>
	<path class="st21" d="M143.6,171.5c-1.1-0.1-2.2,0.3-3,1.1c-1.3,1.3-1,3.8,0,9.4l4,0.4L143.6,171.5z"/>
	<path class="st21" d="M166.7,169.9c0.9,0,1.7-0.2,2.5-0.5c1.2-0.7,1.5,0.7,0.9,1.9c-0.9,1.8-2.6,2.9-4.6,3.1c0-0.2-1.1-3.1-1.1-3.1
		L166.7,169.9z"/>
	<path class="st18" d="M145.4,182.4c-0.6,0.4-1.4-0.8-2.2-1.6c-0.9-1.1-2.5-1.2-3.6-0.2c-0.3,0.3-0.5,0.6-0.7,0.9
		c-1.2,2.6,1.5,5.9,3.1,7.1c0.9,0.8,2.3,0.9,3.3,0.3l0.4,9.8c1.5,3.2,4.4,5.4,7.9,6c5.7,0.8,4.5-3.9,2.7-6.3v-3.5
		c1.4,0.3,2.9,0.4,4.3,0.2c0.8-0.2,2.5-2.4,3.7-4.8c1.3-2.7,3.4-7.5,1.5-15.6c-2.1-8.7-11.4-9-17-5.5S145.4,182.4,145.4,182.4z"/>
	<path class="st21" d="M145.4,183.4c-0.3,0-1.4-1.9-2.2-2.5c-1-0.9,0.3-9.3,0.3-9.3s-1-3.2,1-5.3s5.9-1.8,8.8-1.9
		c3.5,0,7-0.6,10.2-2c4.1-1.8,4.4-2,4.9-0.2s0.7,5.9-1.7,8.6l-1.3,2.1c0,0-1.2,1-5,1.5s-10.2-1.6-11-1.7c-1.1-0.1-1.3,0.9-1.9,3.8
		C146.9,179.1,146.4,183.4,145.4,183.4z"/>
	<path class="st21" d="M143.6,172.2l-3.6-1.9c0.5-1,1.7-1.4,2.7-0.9l0,0C143.7,169.9,144.1,171.2,143.6,172.2z"/>
	<path class="st17" d="M156.4,194.8c0,0-5.3-1.1-7.1-2.1c-1.1-0.6-2-1.4-2.6-2.5c0.3,1.1,0.8,2.1,1.4,3c1.4,1.7,8.3,3,8.3,3
		L156.4,194.8L156.4,194.8z"/>
	<path class="st21" d="M156.5,182.2c0,0.6-0.5,1.1-1.1,1.1s-1.1-0.5-1.1-1.1l0,0c0-0.6,0.4-1.1,1-1.1l0,0
		C156.1,181.1,156.5,181.6,156.5,182.2L156.5,182.2z"/>
	<path class="st21" d="M155.4,178.2l-2.3,1.3c-0.3-0.6-0.1-1.4,0.5-1.8C154.3,177.3,155,177.5,155.4,178.2L155.4,178.2z"/>
	<path class="st17" d="M155.9,189.3l2.4,0.9c-0.2,0.7-0.9,1-1.6,0.8l0,0C156,190.8,155.6,190,155.9,189.3z"/>
	<path class="st21" d="M166,179.1l-2.1-1.6c0.4-0.6,1.2-0.7,1.8-0.3l0,0C166.3,177.7,166.4,178.5,166,179.1z"/>
	<path class="st21" d="M165.4,181.9c0,0.6-0.5,1-1.1,1s-1-0.5-1-1.1s0.5-1,1.1-1C164.9,180.8,165.4,181.3,165.4,181.9z"/>
	<polygon class="st17" points="160.4,181.8 159.4,188.1 162.9,187.7 	"/>
	<path class="st22" d="M196.8,253.6l-21.6-12.4c-0.4-0.2-0.9-0.2-1.2,0L136.2,263l22.2,12.8L196.8,253.6z"/>
	<polygon class="st21" points="158.2,273.9 146.6,267.2 180.6,247.6 192.3,254.2 	"/>
	<polygon class="st21" points="152.5,255.2 152.7,255.4 158.4,258.7 168.5,252.8 168.8,252.7 162.8,249.3 	"/>
	<polygon class="st21" points="152.7,255.4 158.4,258.7 168.5,252.8 162.8,249.5 	"/>
	<path class="st21" d="M136.3,262.9v0.5c0,0.7,0.4,1.4,1,1.8l20.1,11.6c0.6,0.4,1.4,0.4,2.1,0l36.3-21c0.6-0.4,1-1.1,1-1.8v-0.5
		l-38.4,22.2L136.3,262.9z"/>
	<path class="st21" d="M158.4,275.7v1.4c0.4,0,0.7-0.1,1-0.3l36.3-21c0.6-0.4,1-1.1,1-1.8v-0.5L158.4,275.7z"/>
	<path class="st21" d="M159,276c0.7,0.3,1.5,0.2,2.1-0.2l36.2-20.8c0.6-0.4,1.1-1,1.2-1.7l4-23.6c0-0.1,0-0.3,0-0.4
		c0-0.7-0.3-1.3-0.7-1.8l-37.6,21.7c-0.5,0.3-0.8,0.7-0.9,1.3L159,276z"/>
	<path class="st3" d="M158.4,275.7l0.2,0.1c0.1,0.1,0.2,0.1,0.3,0.2l4.3-25.6c0.1-0.5,0.4-1,0.9-1.3l37.6-21.7
		c-0.2-0.1-0.3-0.3-0.5-0.4l-37.7,21.8c-0.5,0.3-0.8,0.7-0.9,1.3L158.4,275.7z"/>
	<path class="st22" d="M179.4,254.2c0.6-2,1.9-3.7,3.6-4.7c1.8-1,2.9-0.6,2.7,1c-0.6,2-1.9,3.7-3.6,4.7
		C180.3,256.3,179.1,255.8,179.4,254.2z"/>
	<path class="st18" d="M132.1,235c0,0,6.5,25,9.2,26.8s7.8,3.1,10.3,4s3.6,2.1,3.1,2.5s-3.9,0.7-5.2,1.1s0.4,2.4,3.1,4.5
		s5,1.9,4.7,3.3s-6.3,2.8-11.4-0.2s-6.6-7-9.6-10.4s-10-17.6-12.4-23.8c0,0,0.2-11.5,4-10.8C131.7,232.7,132.1,235,132.1,235z"/>
	<path class="st0" d="M163,285.6c0.5,1.1,2,4.2,5.6,4l8.7-8.1L163,285.6z"/>
	<path class="st10" d="M163,285.6c0.5,1.1,2,4.2,5.6,4l8.7-8.1L163,285.6z"/>
	<path class="st21" d="M168.2,290.6v0.1V290.6z"/>
	<path class="st21" d="M165.6,300c-0.1-2.6,0.3-5.2,1.3-7.7l0,0c-0.8,0.6-1.9,0.7-2.9,0.4c-2.9-0.9-3.6-4.9-3.2-5.8l0,0
		c-0.4,0.4-0.9,0.7-1.3,1.1c-1.4,0.9-2.4,2.3-2.8,3.9c-0.2,1.3,0.4,2.5,0.7,3.8c0.6,2.4,0,4.9-0.1,7.4c0,2.2,1,4.2,2.6,5.7
		c0.8,0.8,1.7,1.5,2.6,2.2c0.9,1,2.5,1.1,3.5,0.2c0.6-0.5,0.9-1.2,0.8-2C166.5,306,165.7,303.2,165.6,300z"/>
	<path class="st22" d="M168.9,289.1c-0.3,0.5-0.5,1-0.7,1.5C168.4,290.1,168.7,289.6,168.9,289.1z"/>
	<path class="st22" d="M160.7,286.9L160.7,286.9l0.2-0.2L160.7,286.9z"/>
</g>
</svg>
