<svg xmlns="http://www.w3.org/2000/svg" viewBox="0 0 262.86 383.36"><g id="Layer_2" data-name="Layer 2"><g id="Layer_1-2" data-name="Layer 1"><path d="M83.59,383.36c-6.75-1.58-13.68-2.64-20.22-4.82C25.37,365.86.5,331.2.15,290.07c-.3-36.42,0-72.84-.07-109.27,0-8.07,3.35-14.05,10.4-18.14,1.28-.74,2.17-2.8,2.5-4.4q4.59-22,26.28-27.42a40.81,40.81,0,0,1,9.65-.87c12.1-.1,24.2,0,36.3,0H90c-1-1.8-1.7-3.06-2.44-4.29C76.67,107.47,65.61,89.41,55,71.11a33.81,33.81,0,0,1,58-34.7c11.13,18,22,36.21,32.94,54.32.68,1.12,1.44,2.19,2.8,4.26V90.32q0-28.06,0-56.13c0-17.66,12.67-31.95,30-34A33.74,33.74,0,0,1,215.67,27a55.33,55.33,0,0,1,.81,10.79c.11,8.44,0,16.89,0,25.88a34.16,34.16,0,0,1,19.29-3.74c17.51,1.9,30.63,19.74,26.19,36.73-11.25,43.08-22.84,86.06-34.31,129.08-1.57,5.89-3.24,11.75-4.76,17.65a16.19,16.19,0,0,0-.58,4.78,148,148,0,0,1-7.09,52.28c-.15.48-.33.94-.51,1.41-1.43,3.53-4.51,5.19-7.68,4.11s-4.56-4.15-3.75-7.88c2.22-10.19,5.07-20.32,6.32-30.63a122.12,122.12,0,0,0-4.54-50.28,23.41,23.41,0,0,0-5.6-9.1Q176.83,185,153.76,162.25c-13.47-13.33-29.71-20.12-48.75-20.07-19.71,0-39.42-.05-59.13.06a21.31,21.31,0,0,0-20.2,15c-.91,2.74-.91,4.06,2.63,4.77a47.22,47.22,0,0,1,31.34,21.13,5.23,5.23,0,0,0,5.11,2.68q22.44-.17,44.9,0c1.66,0,3.71.19,4.92,1.13,10.43,8.14,19,17.71,21.8,31.17a43.51,43.51,0,0,1,1,8.5c.12,10.6.25,21.21,0,31.81-.31,13.08-6.66,22.68-18.5,27.94s-23.6,3.83-33.48-4.93C66,264.21,56,242.48,56,216.47c0-10.2-1.16-19.86-7.45-28.33C41.7,179,32.36,174.29,21.24,173c-6.33-.72-8.89,1.9-8.89,8.36,0,36.05.35,72.1-.11,108.14-.49,38.81,27.4,74.94,68.74,80.74a181.32,181.32,0,0,0,55.17-.6c17.5-2.94,30.51-13.41,41.68-26.54.81-.95,1.54-2,2.42-2.85a6.06,6.06,0,0,1,8.41-.52,5.93,5.93,0,0,1,.66,8.41c-12.7,16.06-28.13,28.14-48.46,33-3.12.75-6.24,1.46-9.36,2.19ZM203.45,189.15l.8-.26V36c0-1.5,0-3-.1-4.49-.88-11.71-13-21.16-24.56-19.12S160.73,23,160.7,34.81q-.1,38.89,0,77.79a11.15,11.15,0,0,0,1.52,5.21q18.38,32.07,36.93,64.05C200.59,184.3,202,186.72,203.45,189.15Zm-28.36-22.62.78-.8c-4.33-7.52-8.56-15.11-13-22.57q-29.67-49.69-59.47-99.3c-7-11.55-19.92-14.94-30.54-8.43S59.39,55,66.23,66.46c12.06,20.2,24.2,40.35,36.2,60.58a5.75,5.75,0,0,0,5.33,3.14,97.2,97.2,0,0,1,13,1.39c16.42,3,30.36,10.76,42.09,22.58Zm-108,31.18c.27,6.84.52,13.41.78,20,.84,21.6,9,39.84,25.13,54.34,6.16,5.53,13.31,6.69,20.83,3.36s11.47-9.45,11.63-17.67c.19-9.6.1-19.2,0-28.8-.09-12.79-6.05-22.59-15.85-30.31a4.73,4.73,0,0,0-2.71-.87C93.62,197.69,80.29,197.71,67.11,197.71ZM216.9,214.55l.93.11c.37-1,.82-2,1.1-3.07q15.51-58,31-115.94c3.59-13.58-6.56-25.08-20.56-23.72-6.69.66-12.81,5.77-12.81,10.85q0,62.61,0,125.24C216.57,210.2,216.78,212.38,216.9,214.55Z"/><path d="M205.5,322.36c-.13,4-4.22,8.5-7.58,8.4a6.12,6.12,0,0,1-5.78-6.47c.19-4.29,4.05-8.42,7.63-8.17A6.37,6.37,0,0,1,205.5,322.36Z"/></g></g></svg>