<svg xmlns="http://www.w3.org/2000/svg" viewBox="0 0 383.23 382.92"><g id="Layer_2" data-name="Layer 2"><g id="Layer_1-2" data-name="Layer 1"><path d="M345.82,382.92c-10.61-1.8-18.32-8.16-25.64-15.58-23.59-23.87-47.44-47.48-71.09-71.29-2-2.05-3.42-2.39-5.92-.82a158,158,0,0,1-104.54,22.33c-24.56-3.33-47.29-11.66-67.8-25.68-35-23.89-57.48-56.41-67-97.74-1.53-6.64-2.07-13.52-3.1-20.28A25.48,25.48,0,0,0,0,171.08V149.37c1-6.62,1.79-13.29,3-19.87,6.38-34,22.19-63,47.45-86.61,23.74-22.22,51.67-36.61,83.93-41C194-6.32,243.83,12.5,283.2,58.28c.73.85,1.41,1.75,2.13,2.61.24.28.54.51,1.45,1.34,3.11-3.34,6.3-6.62,9.27-10.09a3.66,3.66,0,0,0,.28-3.15c-5.79-14-.3-28.65,13-34.43s28,.59,33.88,14.85c.91,2.21,2.22,2.26,4,2.25q15.72,0,31.43,0H383V44.53H366.6c-6.61,0-13.22-.1-19.83.09-1.14,0-2.92,1-3.26,1.92-5.44,15.18-23.27,21.35-36.23,13.91a1.47,1.47,0,0,0-.65-.06L294.32,72.85C328,130.43,328,188.08,293.6,247.16a14.43,14.43,0,0,1,3.34,2q37.5,37.38,74.93,74.84c8.24,8.23,12.56,17.91,11.08,29.66a33.56,33.56,0,0,1-26.46,28.49c-.82.19-1.62.5-2.43.76ZM306.47,159.14A146.73,146.73,0,0,0,156.54,12.3c-79,1.39-145.23,66-143.85,149.85C14,241.1,78.73,307.4,162.54,306,241.84,304.62,306.29,240.07,306.47,159.14ZM284.4,313c.7.74,1.6,1.74,2.54,2.68q17.71,17.74,35.46,35.45c4.76,4.76,9.36,9.72,14.44,14.12a20.16,20.16,0,0,0,28.76-2.43c7.34-8.59,6.61-20.11-2.11-28.92-16.25-16.39-32.62-32.64-48.94-48.95-.43-.42-.91-.79-1.14-1ZM259.69,287c4.25,4.29,9.92,10,14.94,15l28.14-28.1-15-15Zm59.58-236.3a12.59,12.59,0,0,0,12.78-12.37A12.62,12.62,0,1,0,306.81,38,12.43,12.43,0,0,0,319.27,50.65Z"/><path d="M154.52,293.18C79,290.33,24,227.09,25.74,157c2-79.67,67.69-134,137.59-131.63C241.8,28.08,295,92.26,293.83,160.83,292.49,241.63,224.84,296.68,154.52,293.18ZM265.65,100.65c-4.44,4.55-8.5,8.59-12.36,12.81a3.69,3.69,0,0,0-.19,3.17c4.37,10.48,2.47,21.56-5.11,29s-18.43,9.29-28.73,5a4.18,4.18,0,0,0-3.7.55q-19.34,19-38.38,38.37c-.73.74-.82,2.56-.59,3.76.54,2.66,1.86,5.2,2.16,7.87a25.44,25.44,0,0,1-14.51,26c-9.28,4.53-21.15,2.53-28.74-4.84a25.34,25.34,0,0,1-5.32-28.61c.82-1.86.84-3-.71-4.51q-12.69-12.44-25.15-25.12c-1.32-1.33-2.28-1.6-4.15-.78-14,6.18-28.75.1-34.33-14.1-.77-1.94-1.73-2.64-3.81-2.6-6.48.13-13,.18-19.45,0-2.81-.08-3.56.9-3.71,3.61-1.06,18.67,1.27,36.82,8.37,54.18C58.57,232.11,77.47,253.12,104,267a118.1,118.1,0,0,0,75.39,12c31.41-5.16,57-20.57,76.38-45.64,16.68-21.53,25-46.22,25.08-73.57C281,139,275.93,119.61,265.65,100.65ZM41.71,133.59H64.78c.2-.47.36-.81.49-1.15,5.75-14.73,20.31-21.55,34.1-15.8,13.28,5.53,19.78,21.58,13.19,34.64-.44.86.15,2.84.93,3.64,8.19,8.39,16.57,16.59,24.77,25,1.71,1.75,3,1.79,5.16.81a22.89,22.89,0,0,1,19.87,0c2.35,1.09,3.66.77,5.43-1,12.26-12.42,24.66-24.72,37-37.07.77-.78,1.47-1.63,2.14-2.38-6.54-12.32-2.79-23.71,3.91-30.62,6.13-6.3,17.16-11.14,30.29-4.74L258,88.9c-24.71-36-73.74-60.15-127.14-47.18C82.28,53.52,49.41,93.35,41.71,133.59ZM166.12,204.1a12.71,12.71,0,0,0-25.42-.24,12.71,12.71,0,1,0,25.42.24ZM77,140A12.6,12.6,0,1,0,89.69,127.6,12.44,12.44,0,0,0,77,140Zm153.25-25.11a12.64,12.64,0,1,0,12.39,12.7A12.43,12.43,0,0,0,230.22,114.86Z"/></g></g></svg>