<svg xmlns="http://www.w3.org/2000/svg" viewBox="0 0 317.23 383.3"><g id="Layer_2" data-name="Layer 2"><g id="Layer_1-2" data-name="Layer 1"><path d="M52.29,383.3V351.86c-8.37,0-16.44.08-24.51,0A27.54,27.54,0,0,1,1.15,331.19a32.3,32.3,0,0,1-1.1-8.12Q0,243.72,0,164.36c0-1,.1-2,.17-3.13H11.33V281.38c9.28-6.9,19.39-5.57,29.5-5.72V10.83c-6,.45-12.36.12-18.24,1.57C16.24,14,12.54,19,11.69,25.74a43.58,43.58,0,0,0-.28,5.6q0,56.52,0,113v5.12H0v-4Q0,87.7,0,29.87C0,11.91,11.87,0,29.7,0H203.22V11H52.7v264.5h131v11.67h-4.6q-74,0-147.88,0a31.06,31.06,0,0,0-7.79.67c-7.06,1.85-11.68,7.94-12,15.81-.24,6.73-.26,13.49,0,20.21.37,10.23,7.35,16.75,17.65,16.8,7.58,0,15.17,0,23.12,0V304H248v10.9H119.86v25.78H287c12,0,18.74-6.65,18.79-18.73s0-24.21,0-36.31c0-1.07-.15-2.14-.29-3.89-8.1,6-17,5.44-25.85,5.43q-39.5-.06-79,0h-4.6V275.68h4.35c28.82,0,57.66-.26,86.48.14,10.8.15,19-7,19-19-.18-75.48-.08-151-.1-226.46,0-12.57-6.61-19.12-19.16-19.12h-72V0h3.74q34.81,0,69.63,0c16.92,0,29.12,12,29.13,28.9q.09,146.91,0,293.84c0,17.14-12.06,29.1-29.3,29.12q-81.61.08-163.23,0h-5V383.3h-2.25a4.28,4.28,0,0,0-1.15-.75q-14.2-3.82-28.44-7.56a5.92,5.92,0,0,0-2.87-.24c-10.41,2.8-20.79,5.69-31.18,8.55ZM108,368.52V315.33H63.68V368.6c6.46-1.69,12.65-3.46,18.93-4.85a16.19,16.19,0,0,1,6.86,0C95.61,365.15,101.67,366.88,108,368.52Z"/><path d="M63.73,202.8V77.33H293.8V202.8Zm11.18-11.31H282.45V88.54H74.91Z"/><path d="M259.32,314.77V304h11v10.78Z"/><path d="M180.12,102.14h11.1v72.57a88.8,88.8,0,0,1-10.09-.14c-1.12-.13-2.3-1.67-3-2.84q-13.93-22.11-27.75-44.32c-.62-1-1.32-1.93-2.55-3.73v51.23H136.57V102.08a89.89,89.89,0,0,1,10,.13c1.12.13,2.33,1.64,3.06,2.79q13.85,22,27.56,44a10.38,10.38,0,0,0,2.93,3.28Z"/><path d="M260.46,144.1H241.13V133H272c2.36,15-3,29-13,36-11.38,8-27.46,7.87-39.69-.46s-18-23.14-15-38.06c2.69-13.41,14.68-25.06,28.67-27.87,10.28-2.06,20.43,0,27.56,5.75l-6.11,9q-12.63-7.92-25.68-1.37A25.05,25.05,0,0,0,216.2,146.7c4,11.47,16.54,18.78,28.56,16.57C253.26,161.71,260.07,153.68,260.46,144.1Z"/><path d="M89.5,102.15H121c0,3.21.14,6.4-.13,9.56,0,.63-1.71,1.56-2.65,1.6-4.36.17-8.73.08-13.09.08h-4.21v19.1h17.71V144H101v19.27h19.62v11.29H89.5Z"/></g></g></svg>