<svg xmlns="http://www.w3.org/2000/svg" viewBox="0 0 425.46 425.57"><defs><style>.cls-1{fill:#fff;}</style></defs><g id="Layer_2" data-name="Layer 2"><g id="Layer_1-2" data-name="Layer 1"><path class="cls-1" d="M213.17,0Q132.94,0,52.7,0A53.15,53.15,0,0,0,3.52,34C-1.08,45.64.1,57.66.24,69.62a6.44,6.44,0,0,0,3.17,4.84c2.22.93,5.56,1.48,7.42.42A9.82,9.82,0,0,0,15,68.25c.89-8.13,0-16.59,1.71-24.49C20.64,26.13,36.1,15.18,55.38,15.18q157.16,0,314.3,0c24.49,0,40.57,16.21,40.58,40.84q0,67.17,0,134.33c0,1.43-.48,3.15.15,4.21,1.35,2.3,2.9,5.21,5.08,6.09a8.19,8.19,0,0,0,7.23-1.5c1.72-1.7,2.59-5,2.59-7.6q.23-68.36.1-136.71c0-32-22.95-54.81-55.1-54.82Q291.75,0,213.17,0ZM272,425.33q49.38,0,98.75,0a51.64,51.64,0,0,0,9-.49c28.27-5.07,45.67-26,45.68-54.78q0-67.64,0-135.28a31.94,31.94,0,0,0-.09-4.27,7.58,7.58,0,0,0-15,.21,35.73,35.73,0,0,0-.07,4.27q0,66.93,0,133.86c0,25.47-15.95,41.34-41.53,41.34h-198a37.56,37.56,0,0,0-4.75.08,7.35,7.35,0,0,0-6.43,7.56c0,4.74,3.25,7.5,8.93,7.5Q220.28,425.35,272,425.33ZM0,241.57c0,44-.11,88,0,132C.17,400,21.89,424,48.21,425c27,1.06,54.12.29,81.18.3,3.63,0,6.56-2,6.79-5.36a13.62,13.62,0,0,0-2.76-8.3c-1-1.3-4-1.41-6.16-1.42-23.9-.09-47.8,0-71.69-.12a48.42,48.42,0,0,1-12.18-1.48C25.87,403.9,15.2,389.2,15.2,370.06q0-130.06,0-260.13a37.44,37.44,0,0,0-.08-4.74,7.3,7.3,0,0,0-7.59-6.38,7.17,7.17,0,0,0-7.42,6.53A38,38,0,0,0,0,109.61Q0,175.58,0,241.57ZM343.6,205.48v-6q0-67.38,0-134.77a22.79,22.79,0,0,0-.57-6.08c-1.08-3.82-3.84-5.74-7.83-5.43a6.93,6.93,0,0,0-6.77,6.17,34.92,34.92,0,0,0-.35,6.14q0,67.62.07,135.25c0,3.48-.88,5-4.32,6.4a48.16,48.16,0,0,0-14.06,8.42c-9.79,8.91-13.41,20.42-11.47,33.51.86,5.83,4.51,8.83,9.14,8.06,4.47-.73,6.4-4.24,6.07-10.09a32.43,32.43,0,0,1,.52-9.85c2.82-10.85,13.44-18.17,23.82-16.84,12.33,1.58,20.21,10.21,20.3,22.23.11,12.5-7.36,21.1-19.95,23-8.93,1.36-10.13,2.75-10.13,11.93q0,41.52,0,83.05c0,2-.38,4.57.64,6,1.56,2.21,3.94,4.49,6.43,5.25,3.24,1,6.3-.88,7.54-4.23a19.11,19.11,0,0,0,.88-6.5q.09-37.73,0-75.45v-5c20.88-8.23,30.88-21,30.37-38.52C373.48,225.17,362.73,212.06,343.6,205.48ZM81.86,159.18V360.63c0,7.95,2.55,11.6,8,11.48,5.26-.11,7.53-3.52,7.53-11.42q0-102.49,0-205c0-8.78-1.38-10.33-10-11.55a31.33,31.33,0,0,1-4.18-.87c-10.72-3-17-13.14-15.88-25.38,1-10.2,9.47-17.79,21.11-18.86a21.15,21.15,0,0,1,22.68,16.09c1,4.21.6,8.75.79,13.14.22,5.15,4.56,8.66,9.3,7.26,4-1.19,5.37-4.58,6-8.32,3.09-17.67-7.88-35.85-25.47-41.63-3.5-1.14-4.66-2.63-4.47-6.24.31-6,.24-12,0-18-.23-5.57-4-8.81-8.88-8.1-3.91.58-6.48,3.76-6.55,8.6-.11,7.41,0,14.82,0,22.08-20.34,7.31-29.63,19-29.86,37.18S60.49,150.63,81.86,159.18Z"/><path d="M213.17,0q78.59,0,157.15,0c32.15,0,55.09,22.81,55.1,54.82q0,68.35-.1,136.71c0,2.6-.87,5.9-2.59,7.6a8.19,8.19,0,0,1-7.23,1.5c-2.18-.88-3.73-3.79-5.08-6.09-.63-1.06-.15-2.78-.15-4.21q0-67.15,0-134.33c0-24.63-16.09-40.84-40.58-40.84q-157.14,0-314.3,0c-19.28,0-34.74,11-38.66,28.58C15,51.66,15.9,60.12,15,68.25a9.82,9.82,0,0,1-4.18,6.63c-1.86,1.06-5.2.51-7.42-.42A6.44,6.44,0,0,1,.24,69.62c-.14-12-1.32-24,3.28-35.6A53.15,53.15,0,0,1,52.7,0Q132.94-.06,213.17,0Z"/><path d="M179.42,235.88c20,6.86,30.55,20.17,30.36,38-.15,14.07-8.63,31.3-30.36,37v23.06q0,13.76,0,27.52c0,7.32-2.49,10.71-7.77,10.66s-7.53-3.32-7.53-10.81q0-22.55,0-45.09v-5c-21-8.24-30.44-20.09-30.34-38,.09-17.71,9.63-29.61,30.34-37.5V64.6c0-8,2.18-11.32,7.45-11.41,5.47-.09,7.86,3.41,7.86,11.56V235.88Zm-30.37,37.56c0,12.77,9.62,22.35,22.53,22.46a22.2,22.2,0,0,0,22.84-22.24c.23-12.76-9.89-22.81-22.85-22.7S149.05,260.67,149.05,273.44Z"/><path d="M261.35,189.53V195q0,82.81,0,165.62c0,8.1-2.08,11.33-7.34,11.47-5.51.15-8-3.36-8-11.42V189.54c-20.66-7.56-30.83-20.7-30.36-38.9.43-16.93,11.55-30.34,30.36-36.17v-9.68q0-21.12,0-42.24c0-6,2.82-9.34,7.66-9.36s7.6,3.22,7.62,9.33c.05,15.5,0,31,0,46.51v5c22,9.31,30.89,20.89,30.29,39.38C291.09,170.51,281.13,182.48,261.35,189.53Zm15.06-37.63c0-12.77-9.62-22.36-22.54-22.47a22.47,22.47,0,1,0,0,44.94C266.8,174.25,276.41,164.67,276.41,151.9Z"/><path d="M272,425.33q-51.75,0-103.51,0c-5.68,0-8.89-2.76-8.93-7.5a7.35,7.35,0,0,1,6.43-7.56,37.56,37.56,0,0,1,4.75-.08h198c25.58,0,41.52-15.87,41.53-41.34q0-66.93,0-133.86a35.73,35.73,0,0,1,.07-4.27,7.58,7.58,0,0,1,15-.21,31.94,31.94,0,0,1,.09,4.27q0,67.64,0,135.28c0,28.8-17.41,49.71-45.68,54.78a51.64,51.64,0,0,1-9,.49Q321.39,425.35,272,425.33Z"/><path d="M0,241.57v-132a38,38,0,0,1,.06-4.27,7.17,7.17,0,0,1,7.42-6.53,7.3,7.3,0,0,1,7.59,6.38,37.44,37.44,0,0,1,.08,4.74q0,130.06,0,260.13c0,19.14,10.67,33.84,28.19,38.57a48.42,48.42,0,0,0,12.18,1.48c23.89.13,47.79,0,71.69.12,2.12,0,5.19.12,6.16,1.42a13.62,13.62,0,0,1,2.76,8.3c-.23,3.37-3.16,5.36-6.79,5.36-27.06,0-54.16.76-81.18-.3-26.32-1-48-25-48.13-51.48C-.07,329.54,0,285.56,0,241.57Z"/><path d="M343.6,205.48c19.13,6.58,29.88,19.69,30.37,36.69.51,17.51-9.49,30.29-30.37,38.52v5q0,37.73,0,75.45a19.11,19.11,0,0,1-.88,6.5c-1.24,3.35-4.3,5.22-7.54,4.23-2.49-.76-4.87-3-6.43-5.25-1-1.44-.64-4-.64-6q0-41.52,0-83.05c0-9.18,1.2-10.57,10.13-11.93,12.59-1.91,20.06-10.51,19.95-23-.09-12-8-20.65-20.3-22.23-10.38-1.33-21,6-23.82,16.84a32.43,32.43,0,0,0-.52,9.85c.33,5.85-1.6,9.36-6.07,10.09-4.63.77-8.28-2.23-9.14-8.06-1.94-13.09,1.68-24.6,11.47-33.51a48.16,48.16,0,0,1,14.06-8.42c3.44-1.41,4.32-2.92,4.32-6.4q-.18-67.62-.07-135.25a34.92,34.92,0,0,1,.35-6.14,6.93,6.93,0,0,1,6.77-6.17c4-.31,6.75,1.61,7.83,5.43a22.79,22.79,0,0,1,.57,6.08q0,67.38,0,134.77Z"/><path d="M81.86,159.18C60.49,150.63,51.77,139.42,52,121.1s9.52-29.87,29.86-37.18c0-7.26-.08-14.67,0-22.08.07-4.84,2.64-8,6.55-8.6,4.87-.71,8.65,2.53,8.88,8.1.24,6,.31,12,0,18-.19,3.61,1,5.1,4.47,6.24,17.59,5.78,28.56,24,25.47,41.63-.66,3.74-2,7.13-6,8.32-4.74,1.4-9.08-2.11-9.3-7.26-.19-4.39.22-8.93-.79-13.14A21.15,21.15,0,0,0,88.46,99.06c-11.64,1.07-20.13,8.66-21.11,18.86-1.17,12.24,5.16,22.38,15.88,25.38a31.33,31.33,0,0,0,4.18.87c8.61,1.22,10,2.77,10,11.55q0,102.48,0,205c0,7.9-2.27,11.31-7.53,11.42-5.46.12-8-3.53-8-11.48V159.18Z"/></g></g></svg>