<svg xmlns="http://www.w3.org/2000/svg" viewBox="0 0 374.29 383.36"><defs><style>.cls-1{fill:none;}.cls-2{fill:#93c47d;}</style></defs><g id="Layer_2" data-name="Layer 2"><g id="Layer_1-2" data-name="Layer 1"><path class="cls-1" d="M313.9,49.23c-1.9-7-1.69-14.31-2.76-21.43-.45-3,.15-6.17-1.37-9.11a5.93,5.93,0,0,0-1.1.66q-30.3,30.24-60.55,60.52a16.25,16.25,0,0,0-4.7,11.5c-.16,10.2,0,20.42,0,31.16a8.32,8.32,0,0,0,1.42-.8q34-35,68-70C313.46,51.08,314.24,50.5,313.9,49.23Z"/><path class="cls-1" d="M351.74,63.61c-7.81-.79-15.71-1.09-23.39-2.53-3.67-.69-5.56.25-7.87,2.65q-30.8,31.89-61.74,63.63c-.85.87-1.64,1.8-3.13,3.45,9.25,0,17.46,0,25.66,0a19.31,19.31,0,0,0,14.4-5.94Q324.3,96.11,353,67.43c.88-.88,2.75-1.58,2.15-3.06C354.71,63.22,352.94,63.74,351.74,63.61Z"/><path class="cls-1" d="M128.72,205.65c-1.53,27.56,21.16,48,48.46,43.76,29.39-4.62,43.93-40.53,26.74-63.36l-1.15-1.1-20.61,21.29c-2.72,2.56-5.12,5.46-7.91,7.93-2.51,2.23-5.52,2.24-8.3.43s-3.44-4.76-2.62-7.91c.45-1.73,1.83-2.93,3-4.18l26.42-27.1-2.15-2C165.14,157.84,130.37,175.94,128.72,205.65Z"/><path d="M324.13,142.41c-.89-2-1.51-2.56-3.18-.69a39.87,39.87,0,0,1-5.85,5.77c-2.45,1.84-2.58,3.53-1.44,6.26,12.72,30.46,15.37,61.87,8.25,94.07-19.13,86.41-108.26,139.83-193.49,116C64.74,346.06,18.8,290.4,14.34,224.83c-2.79-41,8.58-78.06,34.88-109.81C80,77.9,119.87,58.87,168.1,57.67a151,151,0,0,1,49.66,7.49c1.29.41,2.81,1.75,4-.09,2.41-3.65,5.64-6.6,8.68-10-1.6-.64-2.94-1.23-4.31-1.71C198,43.63,169.29,41.09,140,46.43,98.71,54,64.54,73.89,38.24,106.41c-32,39.54-43.81,85-35.83,135.15C8.16,277.74,24.34,309,50.75,334.38c42.36,40.64,93,56.44,150.77,45.72,53.23-9.89,92.76-40,118.45-87.46,17.79-32.9,23.29-68.28,17.64-105.34A170.63,170.63,0,0,0,324.13,142.41Z"/><path d="M210.51,101.6A114.9,114.9,0,0,0,55.11,209a111.94,111.94,0,0,0,2,21.93,114.8,114.8,0,0,0,132.26,91c69.68-11.86,112.36-84.33,88.83-150.81-3.75-10.61-3.75-10.61-14.83-10.59a12.5,12.5,0,0,1-1.5,0c-3.22-.35-3.15.92-1.92,3.34,9.8,19.42,12.73,40,9.42,61.38-8.47,54.83-62.09,92.86-117,83.08-73.6-13.12-108.13-98.7-63.85-158.94,18.34-25,43.4-38.64,74.44-41a96.59,96.59,0,0,1,47.33,8.26c2.88,1.29,3.42.48,3.27-2.26a66.31,66.31,0,0,1,0-8.22C213.81,103.7,213,102.51,210.51,101.6Z"/><path d="M224.67,202.11a54.75,54.75,0,0,0-32.73-43.81,51.74,51.74,0,0,0-20.75-4.6h0c-.79,0-1.58,0-2.38,0h-.19c-.67,0-1.33.07-2,.11l-1.1.07-1,.11c-.74.07-1.46.17-2.19.28-29.61,4.14-50.52,30.7-47,61.27A54.77,54.77,0,0,0,148,259.36a51.82,51.82,0,0,0,20.76,4.6h0c.79,0,1.58,0,2.38,0h.19c.67,0,1.33-.06,2-.1l1.11-.07,1.05-.11c.73-.07,1.46-.17,2.19-.28C207.27,259.24,228.18,232.68,224.67,202.11Zm-13.52,10c0,.1,0,.21,0,.32A42.78,42.78,0,0,1,197,239.92,43.45,43.45,0,0,1,180,248.76c-.89.21-1.8.38-2.71.52a42.78,42.78,0,0,1-27.4-4.51l-.67-.4a40.28,40.28,0,0,1-16-16.93,43.37,43.37,0,0,1-4.39-21.89c0-.1,0-.21,0-.32a42.82,42.82,0,0,1,14.09-27.49A43.32,43.32,0,0,1,160,168.9c.89-.21,1.8-.38,2.71-.53a42.84,42.84,0,0,1,27.4,4.52l.67.4a40.28,40.28,0,0,1,16,16.93A43.26,43.26,0,0,1,211.15,212.11Z"/><path class="cls-2" d="M363.72,50.93q-15-1.55-30.11-3c-5.3-.51-6.72-1.64-7.18-6.26Q325.15,28.83,324,16c-.58-6.46-1.22-12.84-8.21-16l-6.75.62a40.11,40.11,0,0,0-6,4.48q-31.93,32.07-64,64c-3.77,3.76-6.91,8.08-8.07,13.12a12.11,12.11,0,0,0-.31,2.68l-.28,48.46c0,.5.16,3.18-.89,4.23q-12.36,12.51-24.5,25.23l-2.45,2.51,9.9,9.56,2.25-2.33c8.69-8.76,17.27-17.64,25.83-26.54a5.18,5.18,0,0,1,3.77-1.58c12.14.1,24.29-.06,36.42.16,10.09.18,18.36-3.43,25.42-10.55,18.44-18.59,37-37.05,55.52-55.58,3.09-3.08,6.24-6.11,9.17-9.34s4.42-7,2.7-11.34S368.26,51.4,363.72,50.93Zm-118.93,70.8a8.32,8.32,0,0,1-1.42.8c0-10.74-.11-21,0-31.16a16.25,16.25,0,0,1,4.7-11.5q30.21-30.3,60.55-60.52a5.93,5.93,0,0,1,1.1-.66c1.52,2.94.92,6.13,1.37,9.11,1.07,7.12.86,14.42,2.76,21.43.34,1.27-.44,1.85-1.11,2.54Q278.81,86.76,244.79,121.73ZM353,67.43q-28.65,28.75-57.36,57.45a19.31,19.31,0,0,1-14.4,5.94c-8.2,0-16.41,0-25.66,0,1.49-1.65,2.28-2.58,3.13-3.45q30.88-31.8,61.74-63.63c2.31-2.4,4.2-3.34,7.87-2.65,7.68,1.44,15.58,1.74,23.39,2.53,1.2.13,3-.39,3.44.76C355.78,65.85,353.91,66.55,353,67.43Z"/><path class="cls-2" d="M163.33,206.69c-.82,3.15-.27,6,2.62,7.91s5.79,1.8,8.3-.43c2.79-2.47,5.19-5.37,7.91-7.93L202.77,185l-10-9.54-26.42,27.1C165.16,203.76,163.78,205,163.33,206.69Z"/><polygon class="cls-2" points="192.79 175.41 202.77 184.95 212.47 174.92 202.59 165.36 192.79 175.41"/></g></g></svg>