<?xml version="1.0" encoding="utf-8"?>
<!-- Generator: Adobe Illustrator 25.0.1, SVG Export Plug-In . SVG Version: 6.00 Build 0)  -->
<svg version="1.1" id="Layer_1" xmlns="http://www.w3.org/2000/svg" xmlns:xlink="http://www.w3.org/1999/xlink" x="0px" y="0px"
	 viewBox="0 0 383.3 383.2" style="enable-background:new 0 0 383.3 383.2;" xml:space="preserve">
<style type="text/css">
	.st0{fill:#94C47D;}
</style>
<g id="Layer_2_1_">
	<g id="Layer_1-2">
		<path d="M158.8,66.6L158.8,66.6C88.2,70.7,20.2,132.1,22.6,217.7c2.2,81.2,69.8,145.1,151,142.9c3.8-0.1,7.6-0.4,11.4-0.8
			c83.4-8.5,129.9-79.8,131.4-135.4h23.2c-0.2,2.8-0.3,5.2-0.6,7.5c-3.9,32.4-15.5,61.7-36.1,87.1c-26.4,32.6-60.1,53.3-101.5,61.1
			c-6.4,1.2-13,2-19.5,3H158c-4.3-0.6-8.6-1-12.9-1.7c-33.2-5.2-62.6-18.5-87.7-40.9c-29-25.9-47.4-57.9-54.5-96.2
			C1.7,238.1,1,231.6,0,225.3v-23.9c0.2-1.1,0.5-2.1,0.7-3.2c1-6.9,1.7-13.9,3.1-20.6c14.3-67.9,70-120.8,138.6-131.8
			c5.4-0.9,10.8-1.5,16.4-2.2L158.8,66.6z M355.7,202.1L355.7,202.1 M354.7,166.6"/>
		<g id="Layer_2-2">
			<g id="Layer_1-2-2">
				<path class="st0" d="M158.8,66.6v144.7c0,9.1,4.1,13.2,13.2,13.2h198.8c8.2,0,12.7-4.4,12.5-12.8c-1-60.3-23.2-111.4-66.7-153.3
					C286,29,249.4,10.7,207.6,3.3c-11.8-2.1-24-2.5-36.1-3.3c-8.3-0.4-12.7,4.2-12.7,12.5V66.6z M304.8,78.4
					c23.9,23.8,49,68.6,49.9,88.3L216.8,28.8C231.9,27.3,281.3,54.9,304.8,78.4L304.8,78.4z M181.5,201.9v-31.5l31.5,31.5H181.5z
					 M247.4,202c-1.2-0.2-2.2-0.9-3-1.8c-20.5-20.4-40.9-40.9-61.4-61.4c-1-0.9-1.6-2.1-1.7-3.4c-0.1-12.1-0.1-24.2,0-36.3
					c0-0.2,0.2-0.4,0.2-0.3L284.6,202C272.3,202,259.8,202.1,247.4,202L247.4,202z M319.1,202c-1.2-0.2-2.3-0.8-3.1-1.7
					c-44.4-44.3-88.8-88.7-133.1-133c-0.8-0.7-1.4-1.7-1.6-2.8c-0.1-12.4-0.1-24.8-0.1-37L355.8,202
					C343.7,202,331.4,202.1,319.1,202L319.1,202z"/>
			</g>
		</g>
	</g>
</g>
</svg>
