<svg xmlns="http://www.w3.org/2000/svg" viewBox="0 0 260.91 281.63"><defs><style>.cls-1{fill:#93c47d;}</style></defs><g id="Layer_2" data-name="Layer 2"><g id="Layer_1-2" data-name="Layer 1"><path d="M254.1,271.31c-10.24,0-20.49-.09-30.73,0-2.55,0-3.43-.61-3.42-3.29q.13-47.77,0-95.56c0-2.83.83-3.62,3.61-3.59,5.16.06,6.66-1.6,6.66-6.76,0-21,.12-42-.06-63a32.8,32.8,0,0,0-27.36-32c-2.26-.4-4.56-.59-7.21-.92,7.21-10.09,7-20.47,2.52-31.17-.86-2.07-1.47-4.24-2.23-6.35-5.18-14.31-19.27-21.39-33-16.56-13.52,4.78-20.14,19-15.34,33.24,3.15,9.34,6.44,18.62,9.67,27.93,3,8.62,3,8.61,11.57,7.55.1,0,.22.1.53.26-2.83,4.86-5.14,10-5.4,15.67-.21,4.61-.19,9.23-.28,13.85,0,1.23.22,2.46-1.9,2.23-10.33-1.16-20.7-.3-31.05-.51-9.07-.19-7.93,1.22-7.83-8,.1-8.7-1.14-16.94-6.57-24.06-1.5-2-3.28-3.54.09-5.57,1.55-.92,1.29-3.1,1.29-4.87,0-13.74,0-27.48-.06-41.22a6.28,6.28,0,0,1,2.23-5.15,24.17,24.17,0,0,0,7.85-16.1C128.18,2.09,126.43.05,121,0,108.89,0,96.77,0,84.65,0c-11,.06-18,7.05-18.09,18.05-.07,8.49.2,17-.07,25.48-.32,9.79.65,19,8.66,26.11-.77.53-1.15.82-1.56,1.06-11.67,6.88-17.39,17.1-17.36,30.63,0,20.24,0,40.48,0,60.71,0,5.13,1.57,6.92,6.62,6.83,3-.06,3.75.94,3.74,3.84q-.13,47.4,0,94.81c0,3.3-1.11,3.83-4.06,3.8-16.86-.13-33.73-.07-50.59-.05-4.57,0-6.79,1.72-6.8,5.13s2.27,5.18,6.78,5.18H254.06c4.47,0,6.83-1.84,6.85-5.15S258.57,271.32,254.1,271.31ZM169.34,69.62c-1.88.74-2.55.25-3.17-1.62-3-9-6.35-17.85-9.27-26.86A15.29,15.29,0,0,1,185.73,31c2.23,5.92,4.89,11.76,5.4,17.06,0,8.41-4.36,15-11.24,17.81C176.43,67.22,172.81,68.25,169.34,69.62Zm-41.87,53.23c9.85-.37,19.72-.13,29.58-.1,4.44,0,6.64,1.85,6.55,5.32-.08,3.29-2.28,5.08-6.46,5.11-6.37,0-12.73,0-19.1,0s-12.48-.05-18.71,0a7.8,7.8,0,0,1-6-2.34c-7.94-7.95-15.93-15.83-23.91-23.74l-.26-.27c-2.6-2.81-2.83-5.67-.63-7.93s5.06-2.14,7.85.59c6.06,5.93,12.31,11.71,18,18C118,121.58,122.06,123.05,127.47,122.85ZM82.59,10.5c11.19-.24,22.38-.08,34.15-.08-2.5,5.63-6.23,9.07-11.83,9.76-8.69,1.07-17.45.26-26.18.44-1.1,0-1.82-.27-2.08-1.59C75.89,15.12,78.64,10.58,82.59,10.5Zm-6,22.67c0-2.07.89-2.49,2.71-2.48,8.49.06,17,.08,25.46,0,2,0,2.63.65,2.59,2.58-.09,5.24,0,10.49,0,15.73,0,4.74-.18,9.49.07,14.22.16,2.93-.9,3.62-3.6,3.44-3.48-.22-7,0-10.48-.06-9.25-.13-16.14-6.55-16.61-15.84C76.45,44.91,76.73,39,76.63,33.17ZM66.53,156.3c.07-19.6-.22-39.21.26-58.81C67.1,85.32,78.52,76.28,91.33,77a21.51,21.51,0,0,1,20.17,23.58c-2.73-2.86-5.37-5.82-8.21-8.57-6.68-6.48-16-6.58-22.09-.37s-6,15.71.41,22.18c8.26,8.33,16.66,16.54,25,24.79a10.59,10.59,0,0,1,1.09,1c1.28,1.68,4.51,1.48,4.68,3.82.34,4.72.11,9.48,0,14.22,0,1.26-1.18,1.07-2,1.07-13.86,0-27.72,0-41.59,0C66.91,158.8,66.53,158,66.53,156.3ZM88.06,268.23c-.34,2.59-1.29,3.16-3.74,3.13-7.66-.09-7.66,0-7.66-7.61V220.3c0-15.85.07-31.71-.07-47.56,0-2.94.8-3.92,3.77-3.81,5.86.21,11.74.21,17.6,0,3-.11,3.6.87,3.2,3.65-2.1,14.7-4,29.41-6.06,44.12C92.74,233.87,90.3,251,88.06,268.23Zm96.59,3.15c-13.87-.2-27.74-.08-41.61-.08s-27.74-.06-41.61.05c-2.51,0-3.55-.39-3.15-3.24q6.69-47.85,13.12-95.72c.36-2.69,1.19-3.52,3.91-3.47,6.07.1,7.51-1.5,7.53-7.49,0-5,.14-10,0-15-.1-2.55.83-3.18,3.21-3.16q16.13.15,32.24,0c5.43,0,5.43-.14,5.43,5.4,0,4.5,0,9,0,13.49.06,5.09,1.69,6.94,6.78,6.7,3.41-.16,4.39,1.12,4.81,4.25q6.3,47.13,12.85,94.24C188.56,270.44,188,271.43,184.65,271.38Zm4.68-84.79q0-35.57,0-71.14a24.89,24.89,0,0,1,.09-3c.35-3,2-4.84,5.16-4.75s4.82,2,4.88,5c.1,5.37,0,10.73,0,16.1v22.09c0,12.48,0,25,0,37.44,0,2.59-.67,4.68-3.23,5.75a4.84,4.84,0,0,1-6.68-3.44A18.56,18.56,0,0,1,189.33,186.59ZM205.9,271.4c-7.17-.3-7.05-.09-8-7.27q-3.72-28.35-7.71-56.66c-.33-2.35-.4-3.24,2.53-2.94,7.69.77,12-2.09,17.13-10.16v3.23c0,23.2-.06,46.39.06,69.59C209.93,270.31,209.4,271.54,205.9,271.4Zm10.29-112.62a5.59,5.59,0,0,0-1.87,0c-3.53.6-4.64-.64-4.57-4.37.24-13.73.15-27.46.07-41.19,0-6.56-2.95-11.57-9-14.4-5.57-2.63-11-1.92-15.85,1.81A14.77,14.77,0,0,0,179.12,113q0,21.36,0,42.7c0,1.39.52,3-2,3.12-2.33.08-3.28-.43-3.24-3,.16-9.49.06-19,.06-28.46h0c0-9.24-.11-18.48,0-27.72.18-11.45,8.81-21.19,19.71-22.48,12-1.43,22.53,5.59,25.58,17.08a29,29,0,0,1,.72,7.43c0,17.73-.06,35.45.07,53.18C220.09,157.82,219.42,159.32,216.19,158.78Z"/><path class="cls-1" d="M10.45,46.09c3.87-.2,5.18,1,4.93,4.92-.19,3.08,1.68,5.18,5.06,5.24,3.11,0,5.26-2,5-5.66s1-4.65,4.53-4.46,5.76-2.1,5.81-5-2.3-5.35-6-5.12c-3.41.22-4.52-.8-4.29-4.26.26-3.75-2-6.06-5.1-6s-5.19,2.21-5,5.81-.94,4.71-4.54,4.47-5.7,2-5.63,5C5.25,44.42,7.4,46.26,10.45,46.09Z"/><path class="cls-1" d="M10.12,92.51A5.15,5.15,0,0,0,5.17,87.1a5.11,5.11,0,0,0-.23,10.21A5.13,5.13,0,0,0,10.12,92.51Z"/></g></g></svg>