<svg xmlns="http://www.w3.org/2000/svg" viewBox="0 0 383.68 383.63"><defs><style>.cls-1{fill:#94c47d;}</style></defs><g id="Layer_2" data-name="Layer 2"><g id="Layer_1-2" data-name="Layer 1"><path class="cls-1" d="M184,52.64c-4.38-4.77-9-9.33-13.73-13.75a4.14,4.14,0,0,1-1.66-2.76,4.57,4.57,0,0,1,1.41-2c4.69-4.47,9.3-9,13.72-13.78,5-5.39,5-12.46.22-17.07S172.29-1.07,167,4.17c-4.62,4.54-9.25,9.09-13.71,13.79-1.73,1.82-2.79,1.74-4.48,0-4.56-4.77-9.29-9.39-14-14-3-3-6.57-4.55-10.85-3.58C114.5,2.46,111.32,12.85,118,20.12c4.38,4.77,9,9.33,13.74,13.75a4.16,4.16,0,0,1,1.65,2.76,4.7,4.7,0,0,1-1.4,2c-4.7,4.46-9.3,9-13.72,13.77-5,5.39-5,12.46-.23,17.07s11.71,4.36,17.05-.88c4.63-4.54,9.25-9.08,13.71-13.79,1.73-1.82,2.79-1.73,4.48,0,4.56,4.78,9.29,9.39,14,14,3,3,6.57,4.55,10.85,3.58C187.53,70.3,190.71,59.91,184,52.64Z"/><path d="M137.57,151.41c-3.06,3.26-6.07,6.57-9.19,9.78-5.32,5.47-12.33,6-17.29,1.32s-4.88-11.91.27-17.39q14.6-15.56,29.35-31c6-6.25,12.44-6.41,18.64-.33q15.77,15.45,31.26,31.19c5.35,5.42,5.5,12.06.72,17s-11.74,4.84-17.32-.54c-3.75-3.61-7.26-7.47-10.88-11.22-1.54,1.37-1.09,2.57-1.09,3.61,0,10-.26,20,.05,29.94,1,32.78,15,58.91,41.11,78.63a100.42,100.42,0,0,0,20,11.62c28,12.36,45.26,34.34,56.4,62A143.68,143.68,0,0,1,288.41,370c.87,6.22-3.07,12.16-8.82,13.37-6.55,1.37-12.59-2-13.93-8.66-1.87-9.16-3.39-18.37-6.67-27.17-6.43-17.27-15.6-32.66-30.72-43.75-8-5.86-17.37-9.27-25.9-14.19q-52.8-30.4-62.55-90.52c-2-12.28-1.19-24.63-1.36-37-.05-3.46,0-6.92,0-10.38Z"/><path d="M383.68,152.8c0,37.55-28.13,65.95-65.29,65.95-37,0-65.42-28.69-65.42-66,0-35.56,29.68-64.7,65.85-64.64C354.44,88.15,383.7,117.33,383.68,152.8Zm-65.13,42.61c20.47.52,41.87-15.93,41.84-41.38,0-26-18.74-42.3-42.27-42.28-23.73,0-41.63,18.2-41.58,42.15A41.51,41.51,0,0,0,318.55,195.41Z"/><path d="M130.72,317.5c0,37.55-28.13,65.95-65.3,65.95-37,0-65.41-28.69-65.42-66,0-35.55,29.69-64.7,65.86-64.64C101.48,252.85,130.73,282,130.72,317.5ZM65.58,360.12c20.47.51,41.87-15.94,41.84-41.39,0-26-18.73-42.3-42.26-42.28-23.73,0-41.64,18.2-41.59,42.15A41.53,41.53,0,0,0,65.58,360.12Z"/></g></g></svg>