<svg xmlns="http://www.w3.org/2000/svg" viewBox="0 0 384.39 333.04"><defs><style>.cls-1{fill:none;}.cls-2{fill:#93c47d;}</style></defs><g id="Layer_2" data-name="Layer 2"><g id="Layer_1-2" data-name="Layer 1"><rect class="cls-1" x="1.03" width="383.36" height="333.04"/><path d="M383.36,253.79c-2.51,5.13-6.88,6.82-12.29,6.8-15.83,0-31.66,0-47.49,0-5.8,0-9-2.29-9-6.2s3-6,9-6c14.71,0,29.42-.09,44.12.06,3.24,0,4.39-.86,4.31-4.21a122.38,122.38,0,0,0-.86-13.41c-.9-6.57-4.38-11.55-9.86-15.19-4-2.65-8.48-4.13-13-5.67-1.79-.61-3.12.19-4.53,1-8.81,5.17-17.69,10.23-26.43,15.52-6.42,3.88-12.58,3.88-19,0-8.75-5.28-17.65-10.31-26.42-15.54-1.87-1.11-3.59-1.59-5.61-.62-.55.26-1.18.37-1.77.58-14.81,5-20.21,11.8-20.63,27.37-.34,12.44-1.72,9.92,9.38,10.06,13.21.16,26.42,0,39.63,0a21,21,0,0,1,3.73.14,5.68,5.68,0,0,1,5.07,5.63,5.48,5.48,0,0,1-4.25,5.87,17.47,17.47,0,0,1-4.79.59q-23.93.06-47.86,0c-9.27,0-12.9-3.65-12.77-12.95.08-6.34-.53-12.69.55-19,2-11.54,8.37-19.72,18.55-25.21,7.21-3.88,15-5.94,22.84-8.09a13.64,13.64,0,0,0,3.82-1.4c2.83-1.82,2.81-4,.17-6-12.3-9.64-21.54-21.4-25.26-36.89-2.09-8.72-1.33-17.63-1-26.44.48-14,3.9-27.17,12.81-38.32,13-16.26,30.08-23.76,50.7-20.89,21.05,2.93,35.64,15,43.83,34.69a70.17,70.17,0,0,1,5,26.63c.06,6.47.43,13-.36,19.41-2.13,17.35-11.87,30.28-25,41.07-1.21,1-3.63,1.37-3.06,3.69s2.46,3.59,4.79,4.22c4.33,1.16,8.66,2.32,12.94,3.65,15.11,4.7,26.4,13.3,30,29.66ZM263.88,140.16c.12,2.14-.17,4.63.44,7.1,4.3,17.46,15.29,29.27,31.22,36.83,5.38,2.55,11,3.71,17.06,2.43,23-4.92,40.57-28.08,39.19-51.48a3.25,3.25,0,0,0-2.67-3.41c-4.5-1.34-8.76-3.43-11.68-7.08-3.95-5-8.45-5.94-14.07-3.6-1.14.48-2.41.62-3.59,1a37.51,37.51,0,0,1-23.85,0c-2.13-.7-4.4-1-6.49-1.74-3.75-1.37-6.66-.59-9.29,2.48-2.94,3.43-6.39,6.68-10.79,7.76-5.06,1.24-6.18,4.13-5.49,8.61A8.69,8.69,0,0,1,263.88,140.16Zm86.79-21.11c.83-2.62,0-4.8-.54-6.91C346,95.76,336.49,84,320,78.88c-15.85-5-29.75-.8-41.71,10.19-7.91,7.28-11.9,16.73-13.63,27.21-.13.81-.47,1.91.33,2.45s1.65-.29,2.28-.83c1.9-1.6,3.83-3.19,5.57-5,5.1-5.2,11.22-7.22,18.05-4.75a48,48,0,0,0,33.84,0c6.82-2.45,13-.45,18,4.8C345,115.3,347.22,117.71,350.67,119.05Zm-20.49,84.79c-1.25-1.49-2.85-2.83-3.72-4.55-1.58-3.11-3.46-3.33-6.57-2.2-6.8,2.46-13.94,3.4-20.84.84-5.22-1.94-9.11-1.88-11.64,3.69a2.35,2.35,0,0,1-.78.79c-1.74,1.33-1.34,2.28.4,3.28q9.23,5.33,18.34,10.8a4.34,4.34,0,0,0,4.88,0c6.1-3.62,12.24-7.17,18.36-10.76C329.33,205.32,330.24,205,330.18,203.84Z"/><path d="M36.13,260.58c-7.86,0-15.71,0-23.56,0C3.69,260.49,0,256.86.13,248.05c.1-6.59-.63-13.2.55-19.77,2-11.35,8.42-19.44,18.48-24.86,7.31-3.94,15.26-6,23.19-8.2a11.56,11.56,0,0,0,3.77-1.51c2.64-1.9,2.52-3.76,0-5.77-12.14-9.59-22.42-21-25-36.55C17.64,130.24,17.7,109,29.94,90,40.75,73.18,56.77,64.47,76.51,64.73c26.28.35,47.1,18,53.3,43.79a102.4,102.4,0,0,1,1.38,40.84c-2.64,15.86-12.21,27.8-24.43,37.78-1.21,1-3.63,1.36-3.05,3.7s2.47,3.61,4.81,4.21a142.38,142.38,0,0,1,17.85,5.44c17.58,7,25.33,18.38,25.34,37.3,0,4.12,0,8.23,0,12.35-.09,5.37-3,8.9-8.28,10a25.07,25.07,0,0,1-4.82.45q-22.8,0-45.62,0a22.13,22.13,0,0,1-4.81-.5,5.45,5.45,0,0,1-4.53-6c.17-3.22,2.12-5.25,5.44-5.65a33.25,33.25,0,0,1,3.74-.08c14.08,0,28.17-.1,42.26.07,3.43,0,4.78-1,4.52-4.47-.23-3-.14-6-.14-9,0-10.76-5.59-17.56-15-22.09-6.14-3-11.45-3.73-17.57.7-6.83,5-14.55,8.67-21.81,13-6.15,3.69-12.16,3.74-18.34,0-8.44-5.06-17.06-9.84-25.43-15a8.77,8.77,0,0,0-8.72-.83c-4.05,1.65-8.08,3.25-11.65,5.85-7.37,5.36-8.79,13.23-9.1,21.53-.37,10.15-.32,10.15,9.78,10.15,13.47,0,26.93,0,40.39,0,4.23,0,6.81,2.19,7,5.67.23,3.32-2.34,5.95-6.4,6.44a31.09,31.09,0,0,1-3.74.12ZM32,139.68h.1c0,2,0,4,0,6a8.44,8.44,0,0,0,.35,1.83c4.32,17.47,15.45,29.16,31.37,36.68,5.29,2.5,10.84,3.62,16.71,2.38,22.87-4.82,40.47-27.86,39.36-51.37-.1-2.19-1-3.05-2.9-3.62-4.37-1.32-8.54-3.35-11.35-6.91-4-5.11-8.65-6.1-14.4-3.63-1,.44-2.17.55-3.23.89a37.61,37.61,0,0,1-23.86.09c-2.48-.8-5.12-1.13-7.57-2-3.14-1.1-5.5-.33-7.68,2.06-3.39,3.71-7.09,7.26-12,8.64-4.17,1.17-5.68,3.38-4.93,7.47A8.23,8.23,0,0,1,32,139.68Zm.7-20.47c3.84-1.53,6-3.94,8.27-6.25,5-5.09,11-7.28,17.67-4.86a49.19,49.19,0,0,0,34.56,0c6.69-2.38,12.71-.21,17.68,4.87,1.74,1.77,3.67,3.36,5.57,5,.63.53,1.42,1.41,2.28.8s.46-1.65.3-2.46c-.44-2.32-.91-4.64-1.55-6.91C111.9,89.83,94.23,76,75,76.86c-15.27.7-27.4,7.67-35.54,20.83A43.47,43.47,0,0,0,32.67,119.21ZM98.26,203.9c-1.43-1.73-3.19-3.27-4.18-5.21-1.35-2.64-2.87-2.67-5.39-1.78-6.79,2.38-14,3.77-20.83,1.2-6-2.24-10-1.53-13.25,4.23-.94,1.69-1.38,2.34.44,3.39q9.23,5.28,18.37,10.74a4.33,4.33,0,0,0,4.88,0c6.09-3.63,12.23-7.19,18.33-10.8C97.33,205.28,98.29,205,98.26,203.9Z"/><path class="cls-2" d="M200.13,128.31a36.78,36.78,0,0,1-3.63-3.17c-2.18-2.47-2.44-5.22-.25-7.78s5.08-3.14,7.71-1.22A121.18,121.18,0,0,1,220,130.07c3.29,3.44,2.73,8.29-1,11.68-4.4,4-8.95,7.93-13.56,11.75-3.34,2.77-7,2.59-9.27-.2s-1.91-5.78,1.26-8.89c.71-.69,1.45-1.34,2.2-2-.95-1.26-2.16-.75-3.18-.76-7.72-.05-15.45,0-23.18,0a26.9,26.9,0,0,1-4.83-.38c-3.63-.68-5.61-3.23-5.26-6.53.33-3,2.74-5.22,6.22-5.25,8.72-.08,17.45,0,26.17,0h4Z"/><path class="cls-2" d="M185.37,204.92h16c4.6,0,9.21,0,13.81,0,4.05.05,6.51,2.08,6.75,5.44.27,3.6-1.86,6.26-6.12,6.47-7.32.37-14.67.23-22,.28-2.55,0-5.1,0-7.81,0,.41,2.23,2,2.8,2.87,3.93,2.12,2.74,2.14,5.79-.19,8.1s-5.27,2.68-7.78.67c-5.24-4.19-10.41-8.52-15.25-13.16-3.73-3.58-3.34-8.68.56-12.21q6.78-6.14,13.82-12c3-2.5,6.45-2.37,8.72.05,2.5,2.68,2.22,5.83-.71,8.93C187.18,202.43,185.81,203,185.37,204.92Z"/></g></g></svg>