<?xml version="1.0" encoding="utf-8"?>
<!-- Generator: Adobe Illustrator 25.0.1, SVG Export Plug-In . SVG Version: 6.00 Build 0)  -->
<svg version="1.1" id="Layer_1" xmlns="http://www.w3.org/2000/svg" xmlns:xlink="http://www.w3.org/1999/xlink" x="0px" y="0px"
	 viewBox="0 0 53.6 53.6" style="enable-background:new 0 0 53.6 53.6;" xml:space="preserve">
<style type="text/css">
	.st0{fill:#93C47D;}
	.st1{fill:#010101;}
</style>
<g id="Layer_2_1_">
	<g id="Layer_2-2">
		<path class="st0" d="M25.6,36.6l-2-3.9c0-3.9-3.1-7-7-7H9.3c-3.4,0-6.2,2.8-6.2,6.2l0,0v7.4c0,2.2,0.7,4.3,1.9,6.1L1.2,52
			c-0.2,0.3-0.2,0.7,0,1c0.2,0.3,0.5,0.5,0.9,0.5h18.6c0.4,0,0.7-0.2,0.9-0.5c0.2-0.3,0.2-0.7,0-1l-2.2-4.2c1.4-0.1,2.7-0.9,3.3-2.2
			l1-1.9c0.1-0.1,0.1-0.3,0.1-0.5v-3.7l1.8-1.8C25.8,37.5,25.8,37,25.6,36.6z M21.9,38.4c-0.2,0.2-0.3,0.5-0.3,0.7V43l-0.9,1.7
			c-0.4,0.8-1.4,1.3-2.3,1l-0.8-0.2c-0.5-0.2-1.1,0-1.3,0.5c-0.2,0.4-0.1,0.8,0.1,1.1l2.4,4.6H3.8l3.2-5.7C7.3,45.5,7.3,45,7,44.7
			c-1.2-1.5-1.8-3.4-1.8-5.4V33h5.2c0.6,0,1-0.5,1-1c0-0.6-0.5-1-1-1h-5c0.5-1.8,2.1-3.1,4-3.1h7.4c2.7,0,5,2.3,5,5V33
			c0,0.2,0,0.3,0.1,0.5l1.7,3.5L21.9,38.4z"/>
		<path class="st1" d="M28.5,15.8l-3.8-3.8V2.4c0-1.3-1.1-2.4-2.4-2.4H2.4C1.1,0,0,1.1,0,2.4v19.9c0,1.3,1.1,2.4,2.4,2.4h19.9
			c1.3,0,2.4-1.1,2.4-2.4V21l3.8-3.8C28.9,16.8,28.9,16.2,28.5,15.8C28.6,15.8,28.6,15.8,28.5,15.8z M23,19.9
			c-0.2,0.2-0.3,0.5-0.3,0.7v1.7c0,0.2-0.2,0.4-0.4,0.4c0,0,0,0,0,0H2.4c-0.2,0-0.4-0.2-0.4-0.4l0,0V2.4c0-0.2,0.2-0.4,0.4-0.4h0
			h19.9c0.2,0,0.4,0.2,0.4,0.4c0,0,0,0,0,0v9.9c0,0.3,0.1,0.5,0.3,0.7l3.4,3.4L23,19.9z"/>
		<path class="st0" d="M14.4,31.7c0-0.1,0-0.1-0.1-0.2c0-0.1-0.1-0.1-0.1-0.2c0-0.1-0.1-0.1-0.1-0.2L14,31.1L13.8,31l-0.2-0.1
			c-0.1,0-0.3,0-0.4,0L13,31l-0.2,0.1l-0.1,0.1c0,0-0.1,0.1-0.1,0.2c0,0.1-0.1,0.1-0.1,0.2c0,0.1,0,0.1,0,0.2c0,0.1,0,0.1,0,0.2
			c0,0.1,0,0.1,0,0.2c0,0.1,0,0.1,0,0.2c0,0.1,0.1,0.1,0.1,0.2c0,0.1,0.1,0.1,0.1,0.2c0,0,0.1,0.1,0.1,0.1c0.1,0,0.1,0.1,0.2,0.1
			c0.1,0,0.1,0,0.2,0.1c0.1,0,0.1,0,0.2,0c0.1,0,0.1,0,0.2,0c0.1,0,0.1,0,0.2-0.1c0.1,0,0.1-0.1,0.2-0.1c0.1,0,0.1-0.1,0.1-0.1
			c0,0,0.1-0.1,0.1-0.2c0-0.1,0.1-0.1,0.1-0.2c0-0.1,0-0.1,0.1-0.2c0-0.1,0-0.1,0-0.2C14.4,31.9,14.4,31.8,14.4,31.7z"/>
		<path class="st0" d="M41.2,6l-0.1-0.2c0-0.1-0.1-0.1-0.1-0.2c0-0.1-0.1-0.1-0.1-0.2c0,0-0.1-0.1-0.2-0.1l-0.2-0.1l-0.2-0.1
			c-0.1,0-0.3,0-0.4,0l-0.2,0.1l-0.2,0.1l-0.2,0.1c0,0-0.1,0.1-0.1,0.2c0,0.1-0.1,0.1-0.1,0.2c0,0.1,0,0.1,0,0.2c0,0.1,0,0.1,0,0.2
			c0,0.1,0,0.1,0,0.2c0,0.1,0,0.1,0,0.2c0,0.1,0.1,0.1,0.1,0.2c0,0.1,0.1,0.1,0.1,0.2c0,0,0.1,0.1,0.2,0.1c0.1,0,0.1,0.1,0.2,0.1
			c0.1,0,0.1,0,0.2,0.1c0.1,0,0.1,0,0.2,0c0.1,0,0.1,0,0.2,0c0.1,0,0.1,0,0.2-0.1c0.1,0,0.1-0.1,0.2-0.1c0.1,0,0.1-0.1,0.2-0.1
			c0,0,0.1-0.1,0.1-0.1c0-0.1,0.1-0.1,0.1-0.2l0.1-0.2c0-0.1,0-0.1,0-0.2C41.2,6.1,41.2,6.1,41.2,6z"/>
		<path class="st1" d="M19.6,4.1H5.2c-0.6,0-1,0.5-1,1s0.5,1,1,1h14.4c0.6,0,1-0.5,1-1S20.1,4.1,19.6,4.1z"/>
		<path class="st1" d="M19.6,9.3H5.2c-0.6,0-1,0.5-1,1s0.5,1,1,1h14.4c0.6,0,1-0.5,1-1S20.1,9.3,19.6,9.3z"/>
		<path class="st1" d="M12.4,14.4H5.2c-0.6,0-1,0.5-1,1c0,0.6,0.5,1,1,1h7.2c0.6,0,1-0.5,1-1C13.4,14.9,12.9,14.4,12.4,14.4z"/>
		<path class="st1" d="M48.4,29.9H34c-0.6,0-1,0.5-1,1c0,0.6,0.5,1,1,1h14.4c0.6,0,1-0.5,1-1C49.5,30.3,49,29.9,48.4,29.9z"/>
		<path class="st1" d="M48.4,35H34c-0.6,0-1,0.5-1,1c0,0.6,0.5,1,1,1h14.4c0.6,0,1-0.5,1-1C49.5,35.5,49,35,48.4,35z"/>
		<path class="st1" d="M41.2,40.2H34c-0.6,0-1,0.5-1,1c0,0.6,0.5,1,1,1h7.2c0.6,0,1-0.5,1-1C42.2,40.7,41.8,40.2,41.2,40.2z"/>
		<path class="st0" d="M34.7,25.8l2.4-4.6c0.3-0.5,0.2-1.1-0.3-1.4c-0.3-0.2-0.6-0.2-0.9-0.1L35.1,20c-0.9,0.3-1.9-0.2-2.3-1
			l-0.9-1.7v-3.9c0-0.3-0.1-0.5-0.3-0.7l-1.5-1.5l1.7-3.5c0.1-0.1,0.1-0.3,0.1-0.5V7c0-2.7,2.2-4.9,4.9-4.9h7.4c1.9,0,3.5,1.3,4,3.1
			h-5c-0.6,0-1,0.5-1,1s0.5,1,1,1h5.2v6.4c0,1.9-0.7,3.8-1.8,5.4c-0.3,0.3-0.3,0.8-0.1,1.1l3.2,5.7h2.4l-3.5-6.1
			c1.2-1.8,1.9-3.9,1.9-6.1V6.2c0-3.4-2.8-6.2-6.2-6.2c0,0,0,0,0,0h-7.4c-3.9,0-7,3.1-7,7l-2,3.9c-0.2,0.4-0.1,0.9,0.2,1.2l1.8,1.8
			v3.7c0,0.2,0,0.3,0.1,0.4l1,1.9c0.6,1.3,1.9,2.1,3.3,2.2l-1.9,3.7L34.7,25.8z"/>
		<path class="st1" d="M49.7,25.8H31.3c-1.3,0-2.4,1.1-2.4,2.4v9.5L25,41.5c-0.4,0.4-0.4,1-0.1,1.4c0,0,0,0,0.1,0.1l3.8,3.8v1.3
			c0,1.3,1.1,2.4,2.4,2.4h19.9c1.3,0,2.4-1.1,2.4-2.4V28.2c0-0.9-0.5-1.8-1.3-2.2l-0.2-0.3 M51.5,48c0,0.2-0.2,0.4-0.4,0.4l0,0H31.3
			c-0.2,0-0.4-0.2-0.4-0.4l0,0v-1.7c0-0.3-0.1-0.5-0.3-0.7l-3.4-3.4l3.4-3.4c0.2-0.2,0.3-0.4,0.3-0.7v-10c0-0.2,0.2-0.4,0.4-0.4
			c0,0,0,0,0,0h19.9c0.2,0,0.4,0.2,0.4,0.4c0,0,0,0,0,0V48z"/>
	</g>
</g>
</svg>
