<svg xmlns="http://www.w3.org/2000/svg" viewBox="0 0 371.94 372.33"><defs><style>.cls-1{fill:#231f20;}.cls-2{fill:#93c47d;}</style></defs><g id="Layer_2" data-name="Layer 2"><g id="Layer_1-2" data-name="Layer 1"><path class="cls-1" d="M49.15,254.27c-5.46,5-6.6,5.2-13.1,2q-15.4-7.7-30.78-15.41c-5.59-2.81-6.62-6.15-3.63-11.53q28.94-52.18,57.9-104.37c3.15-5.68,5.69-6.44,11.57-3.49q15.89,8,31.75,16c5.79,2.94,6.79,5.57,4.13,11.39a3.28,3.28,0,0,0,.8,4.27,69.79,69.79,0,0,0,34.11,19.15,9.45,9.45,0,0,0,4.42-.28c15.78-3.65,31.62-7.05,47.33-10.94a82.19,82.19,0,0,1,42.83.61c9.65,2.71,19.43,2.68,29.28,1.24,2.74-.39,3-1.32,1.71-3.65-6.16-11.26-6-11.66,5.62-17.53,9.23-4.67,18.43-9.41,27.67-14.07,5.68-2.86,8.46-2,11.72,3.52Q341.25,180,370,228.81c3.39,5.76,2.45,9.08-3.47,12.11C356,246.31,345.36,251.6,334.84,257c-3.49,1.79-6.78,2.66-9.93-.46-1.23-1.22-2-.36-2.79.45-3.6,3.64-7.16,7.31-10.8,10.9-1.18,1.16-1.1,2.24-.64,3.7,4.23,13.4.36,23.81-11.56,30.93-3,1.79-4.38,4.74-6,7.48-3.89,6.55-9.06,11.58-16.17,14.4-2.19.86-3.33,2.55-4.43,4.34-3.84,6.26-8.52,11.68-14.92,15.46a35.86,35.86,0,0,1-17.7,5.33,7.36,7.36,0,0,0-5,2c-10.91,9.78-23.83,14.78-38.34,15.75a55.11,55.11,0,0,1-20.62-2.85c-2.78-.9-4.72-.91-6.93,1.4-8.64,9-30,8.77-37-1.71-.56-.83-1.43-1.59-1.62-2.49-1.18-5.59-4.8-7.05-10.16-7.76-7.94-1-13.08-6.37-15.52-14-.72-2.24-1.58-3.16-4.08-3.2-13.51-.21-21.42-7.62-22.57-21.21-.26-3.12-2.43-2.74-4.19-3.1-9.74-1.93-15.64-7.76-17.87-17.36a18.66,18.66,0,0,1,1.91-13.41,6.08,6.08,0,0,0,0-6.28C54.46,268.59,51.93,261.45,49.15,254.27ZM133.75,235c-4.18,0-7.55,0-10.91,0-8-.06-10.64-3.85-7.85-11.32,4.59-12.26,9.13-24.53,13.85-36.74,1.24-3.19,1.32-4.89-2.56-6.31A72,72,0,0,1,102,165.39c-2.09-1.94-3.15-2.12-4.65.62q-19.14,34.73-38.49,69.34a5.76,5.76,0,0,0-.59,4.94c2.51,7.71,5.07,15.39,8.11,22.91,1.13,2.81,1.8,3.47,4.34,1A22.2,22.2,0,0,1,106.67,271c1,2.28,1.6,2.58,3.88,1.41,12.41-6.37,26.47-.79,31,12.31.81,2.32,1.86,3,4.21,3.15,9.3.58,16.17,5,19.37,13.93,1.15,3.22,2.65,4.11,5.88,4,8.26-.2,14.87,3.15,18.82,10.57s3.25,14.88-1.52,21.9c-2.38,3.5-4.61,7.12-7.09,10.55-1.73,2.4-1.56,3.45,1.56,4.16,12.65,2.92,24.46.83,35.7-5.4,2.44-1.35,1.65-2.07-.15-3.15-5.45-3.29-10.89-6.58-16.23-10-9.21-6-8.75-3.24-3-13,1.49-2.51,2.85-2.38,5.07-.94q9.87,6.43,20,12.51c10.08,6.08,23.31,4.66,31.54-3.26,2.67-2.56,2.55-3-.85-4.25a46.83,46.83,0,0,1-6.17-2.66q-17.11-9.25-34.15-18.63c-8.53-4.71-8.51-4.76-3.36-13.12l.17-.33c.81-1.77,2-2,3.63-1,1.18.7,2.41,1.31,3.61,2,12.26,6.68,24.46,13.49,36.81,20a19.05,19.05,0,0,0,23.79-4.32c1.43-1.7,1.9-2.82-.73-3.77a26.86,26.86,0,0,1-5.29-2.75c-14-8.88-28-17.72-42-26.74-8.11-5.26-7.81-3-2.66-11.79,1.92-3.28,3.52-3.09,6.41-1.21q22.59,14.67,45.41,29c6.28,4,13.06,2.83,17-2.54s2.72-12.29-3.06-16.88A570,570,0,0,0,200.5,210a9.94,9.94,0,0,0-6.14-1,109.08,109.08,0,0,1-16.73,1.43c-2.92,0-4.64,1-5.75,4.05-4.15,11.38-12.35,18-24.39,20.05C142.64,235.3,137.79,234.72,133.75,235Zm85.4-29.69c12.81,7.08,24.29,13.86,35.5,21.09a522.83,522.83,0,0,1,43.26,30.78c2.66,2.12,4.27,2,6.46-.51,3.23-3.63,6.7-7.06,10.26-10.37,2-1.88,2.08-3.4.68-5.76q-19-32-37.75-64.16c-1.13-1.93-2.22-2.53-4.45-2a79.6,79.6,0,0,1-41.36-.64,65.16,65.16,0,0,0-32.17-.82c-17.85,4.05-35.67,8.26-53.53,12.27-2.57.58-3.73,2-4.56,4.3-3.17,8.66-6.44,17.28-9.66,25.92-2.4,6.45-2.38,6.46,4.6,6.46,17.16,0,19.92-2,25.24-18.55,1.1-3.41,3.2-5.33,6.75-5.37,14.74-.17,29.28-2.19,43.8-4.52,9-1.45,9-1.3,10.43,7.87C223,203.43,222.87,205.11,219.15,205.3ZM92.65,147.86c-.13-1.42-1.31-1.74-2.26-2.22-5.89-3-11.87-5.81-17.65-9-2.91-1.6-4.35-1.31-6,1.74q-24.75,45-49.83,89.9c-1.45,2.6-.8,3.64,1.62,4.78,5.86,2.76,11.7,5.59,17.38,8.7,2.78,1.51,4.13,1.31,5.75-1.64q24.72-44.85,49.69-89.56C91.8,149.68,92.2,148.77,92.65,147.86Zm209.79-6.5c-.42.17-.89.34-1.33.56-6.56,3.32-13.09,6.7-19.68,10-2.17,1.06-2.13,2.2-1,4.09,3.82,6.28,7.49,12.65,11.21,19q19.34,32.87,38.62,65.77c1.46,2.49,2.76,2.91,5.3,1.52q8.69-4.76,17.63-9c2.64-1.25,3.21-2.37,1.55-5-3.48-5.46-6.64-11.13-9.93-16.71Q325,177.84,305.18,144.19C304.52,143.08,304.2,141.54,302.44,141.36ZM170.49,318.89c-2.79-.2-5.42,0-7.3,2.21-7.13,8.48-14.36,16.88-21.26,25.54-3.07,3.87-1.41,10.3,2.91,11.73,6,2,13.58,1.89,17.91-4.93,4.67-7.35,9.64-14.52,14.48-21.76,1.86-2.79,3.36-5.63,1.42-9C176.81,319.48,173.91,318.48,170.49,318.89Zm-70.3,4.79a8.66,8.66,0,0,0,7.55-3.14c6.66-7.92,13.33-15.83,19.83-23.88,3.08-3.81,2.73-8.43-.43-11.51s-9-3.39-12.3-.24c-7.45,7.18-14.81,14.46-21.93,22-3.21,3.4-3.17,7.8-1.35,11.95C93.13,322.4,96.22,323.85,100.19,323.68Zm53.38-14.45a8.15,8.15,0,0,0-8-8.34c-3.29-.12-5.73,1.38-7.74,3.79-6.31,7.55-12.64,15.08-18.89,22.68-3.38,4.11-3.07,9.32.58,12.35s9.06,2.56,12.6-1.63c6.36-7.51,12.63-15.09,18.91-22.67C152.51,313.57,153.79,311.58,153.57,309.23ZM86.25,271c-3.08-.35-5.61,1.05-7.56,3.57-2.83,3.65-5.68,7.28-8.33,11.05a9.05,9.05,0,0,0,1,11.93,9.23,9.23,0,0,0,12,.2,99.17,99.17,0,0,0,10.29-10.31c2.89-3.44,2.89-7.65,1-11.64C93.09,272.38,90.21,270.82,86.25,271Z"/><path class="cls-2" d="M270.11,49.29c-.17,17.16-6.72,31.57-19.62,42.76-19.4,16.81-39.13,33.25-58.74,49.81-4.45,3.75-7.12,3.74-11.57,0-19.61-16.57-39.3-33.06-58.76-49.8C103.11,76.3,96.81,50.7,105.66,29.6,118.45-.9,159-9.71,183.14,12.84c2.25,2.1,3.42,2,5.69,0C202.73.41,219-3,236.5,2.62s28.44,18.18,32.71,36.24A40,40,0,0,1,270.11,49.29ZM257.2,51.91a30.25,30.25,0,0,0-.17-6.59L257,44.8C255.27,31.11,248,21.29,235.49,16c-13-5.52-25.39-3.62-36.56,5.11a94.41,94.41,0,0,0-7.13,6.61c-4.34,4.2-7.28,4.25-11.53.11-1.25-1.22-2.47-2.47-3.72-3.69-8.65-8.39-18.84-12.21-31-10.69a35.65,35.65,0,0,0-31,36.43c.21,13.51,6,24.75,16.46,33.53q26.46,22.31,52.82,44.73c1.77,1.51,2.77,1.22,4.38-.14q26.22-22.32,52.54-44.5A44.9,44.9,0,0,0,257.2,51.91Z"/></g></g></svg>