<?xml version="1.0" encoding="utf-8"?>
<!-- Generator: Adobe Illustrator 23.1.1, SVG Export Plug-In . SVG Version: 6.00 Build 0)  -->
<svg version="1.1" xmlns="http://www.w3.org/2000/svg" xmlns:xlink="http://www.w3.org/1999/xlink" x="0px" y="0px"
	 viewBox="0 0 266 270.2" style="enable-background:new 0 0 266 270.2;" xml:space="preserve">
<style type="text/css">
	.st0{display:none;}
	.st1{display:inline;}
	.st2{fill:#E15A5A;}
	.st3{fill:#6392CC;}
</style>
<g id="Layer_1" class="st0">
	<title>Asset 6</title>
	<g class="st1">
		<g id="Layer_2-2">
			<path class="st2" d="M0,10.5V101c0,5.8,4.7,10.5,10.5,10.5c2.8,0,5.4-1.1,7.4-3.1l90.5-90.5c4.1-4.1,4.2-10.7,0.1-14.8
				c-2-2-4.7-3.1-7.5-3.1H10.5C4.7,0,0,4.7,0,10.5z"/>
			<path class="st2" d="M0,179.1v80.7c0,5.8,4.7,10.5,10.5,10.5c0,0,0,0,0,0H101c5.8,0,10.5-4.7,10.5-10.5c0-2.8-1.1-5.4-3.1-7.4
				l-85.6-85.6c-4.1-4.1-10.7-4.1-14.8,0l-4.9,4.9C1.1,173.6,0,176.3,0,179.1z"/>
			<path class="st2" d="M174.7,201.4c-36.6,0-66.3-29.7-66.3-66.3s29.7-66.3,66.3-66.3c14.7,0,29,4.9,40.6,13.9
				c3.8,2.9,9.2,2.6,12.6-0.8l35.3-35.2c3.8-3.8,3.8-9.9,0-13.6c-0.2-0.2-0.3-0.3-0.5-0.5C238.2,11.5,207,0,174.7,0l-67.6,67.6
				l-60.8,60.8c-3.8,3.8-3.8,9.8,0,13.6c0,0,0,0,0,0l60.8,60.8l67.6,67.6c32.3,0.1,63.5-11.5,88-32.6c4-3.5,4.5-9.5,1-13.6
				c-0.2-0.2-0.3-0.4-0.5-0.5L228,188.4c-3.4-3.4-8.9-3.8-12.7-0.8C203.6,196.6,189.4,201.4,174.7,201.4z"/>
		</g>
	</g>
</g>
<g id="Layer_2">
	<g>
		<path class="st3" d="M0,10.5V101c0,9.3,11.3,14,17.9,7.4l90.5-90.5C115,11.3,110.3,0,101,0H10.5C4.7,0,0,4.7,0,10.5z"/>
		<g>
			<path class="st3" d="M0,179v80.7c0,5.8,4.7,10.5,10.5,10.5H101c9.3,0,14-11.3,7.4-17.9l-85.6-85.6c-4.1-4.1-10.7-4.1-14.8,0
				l-4.9,4.9C1.1,173.6,0,176.3,0,179z"/>
		</g>
		<g>
			<path class="st3" d="M174.7,201.4c-37.1,0-67.2-30.6-66.2-67.9c0.9-35.3,29.7-63.9,65-64.6c15.8-0.3,30.3,4.9,41.8,13.9
				c3.8,3,9.2,2.6,12.6-0.8l35.3-35.3c4-4,3.7-10.5-0.5-14.1C239,12.3,208.3,0,174.7,0l-67.6,67.6l-60.8,60.8
				c-3.8,3.8-3.8,9.8,0,13.6l60.8,60.8l67.6,67.6c33.6,0,64.3-12.3,88-32.5c4.2-3.6,4.5-10.1,0.5-14.1l-35.3-35.3
				c-3.4-3.4-8.9-3.7-12.7-0.8C204,196.2,190,201.4,174.7,201.4z"/>
		</g>
	</g>
</g>
</svg>
