<svg xmlns="http://www.w3.org/2000/svg" viewBox="0 0 359.31 359.03"><defs><style>.cls-1{fill:#ff8000;}</style></defs><g id="Layer_2" data-name="Layer 2"><g id="Layer_1-2" data-name="Layer 1"><path d="M0,179.05q0-46.78,0-93.57C0,61.2,16.58,44.64,40.9,44.6q31.24,0,62.5,0a4.34,4.34,0,0,0,4.38-2.5C123.91,14.8,147.91,0,179.64,0s55.74,14.78,71.87,42.13a4.32,4.32,0,0,0,4.36,2.52q31.26-.13,62.5,0c24.33,0,40.92,16.6,40.93,40.85q0,93.75,0,187.51c0,24.49-16.62,41.1-41.1,41.11q-52.4,0-104.79-.08c-3.13,0-4.11.78-3.89,3.91.26,3.6,0,7.24,1.26,10.71,3.64,9.66,10.68,14.66,20.93,15.36,5.25.35,8,3.27,7.82,8-.2,4.35-3.38,7.07-8.4,7.07H128.21c-5,0-8.22-2.72-8.43-7-.24-4.72,2.54-7.78,7.77-8,13.06-.52,24-10.53,22.18-28.31-.14-1.36-.79-1.64-1.92-1.61s-2,0-3,0H41.14C16.68,314.06,0,297.43,0,273Q0,226,0,179.05ZM259,59.57c.21,1.07.34,1.79.49,2.5,7,32.37-1.26,60.17-26,82.24-25.06,22.33-60.76,26.44-90.79,11.33-2.35-1.18-3.84-1.26-5.68.85-2.6,3-5.56,5.72-8.42,8.5-1.06,1-1.68,1.84-.75,3.48,2,3.49,1.15,6.71-1.64,9.49q-20.64,20.64-41.29,41.26c-3.77,3.74-7.79,3.79-11.52.1q-15.57-15.39-30.95-31c-3.56-3.6-3.56-7.67,0-11.25q20.84-21,41.8-41.8c2.57-2.56,5.68-3.24,8.89-1.44,1.7.95,2.61.56,3.8-.68,2.93-3.07,5.87-6.13,9-9,1.67-1.51,1.46-2.64.55-4.44a81.31,81.31,0,0,1-6.75-57c.68-2.83.07-3.26-2.61-3.25-19.08.1-38.17,0-57.25.07C25.14,59.64,15,69.86,15,84.6q0,75.41-.09,150.8c0,3.11.82,3.89,3.91,3.89q96.17-.18,192.33-.08c2.87,0,3.82-.64,3.77-3.68-.19-10.72-.09-21.45-.07-32.17,0-6.41,2.67-9,9.15-9.05,4.61,0,9.23,0,13.84,0,6.78,0,6.78,0,6.95-6.69.14-5.4,2.94-8.2,8.43-8.26,5.11-.06,10.23,0,15.34,0,6.11,0,6.11,0,6.17-6,.06-6.23,2.69-8.95,8.84-9,8.48,0,17,0,25.44,0s10.63,2.12,10.63,10.57c0,20.08.1,40.17-.09,60.25,0,3.43,1,4.19,4.18,4a155.61,155.61,0,0,1,16.45.08c3.55.22,4.24-1,4.23-4.34q-.15-74.84-.07-149.67c0-15.73-9.94-25.69-25.69-25.72q-27.87,0-55.75,0ZM180.08,254.19H124q-52.75,0-105.5-.06c-2.7,0-3.72.53-3.57,3.45.27,4.85.07,9.72.08,14.58,0,17.27,9.6,26.94,26.77,26.94H158.46q80.43,0,160.86,0c14.68,0,24.92-10.29,25-24.95,0-5.24-.2-10.49.07-15.71.18-3.33-.7-4.34-4.21-4.33Q260.14,254.28,180.08,254.19Zm-.35-104.7a67.36,67.36,0,1,0-67.42-67.24A67.29,67.29,0,0,0,179.73,149.49ZM79.12,203.65c.6-.51,1.09-.87,1.53-1.3,9.61-9.61,19.19-19.25,28.85-28.8,1.39-1.37.59-2-.32-2.92-6-6-12-12-18-18-1.23-1.26-2-1.31-3.27,0q-14.06,14.24-28.29,28.31c-1.36,1.35-1.43,2.2,0,3.58,6,5.84,11.84,11.79,17.76,17.68C77.89,202.7,78.48,203.12,79.12,203.65ZM157.19,344c15,0,29.11,0,43.18,0a7.59,7.59,0,0,0,1.44-.37c-6-8.3-7.72-17.54-7.18-27.33.09-1.54-.36-2.25-2.06-2.24q-12.9.1-25.79,0c-1.66,0-2.2.6-2.11,2.19C165.21,326,163.46,335.28,157.19,344Zm132.5-135c0,9.09.05,18.18,0,27.27,0,2,.44,3,2.67,2.85,3.23-.16,6.48-.11,9.71,0,1.84.05,2.67-.41,2.67-2.48q-.1-27.45,0-54.91c0-2.12-.89-2.46-2.67-2.4-3.11.09-6.24.19-9.34,0-2.56-.18-3.08.84-3.05,3.18C289.76,191.3,289.69,200.15,289.69,209Zm-29.94,7.49c0,6.34.12,12.69-.06,19-.08,2.68.5,3.89,3.45,3.61a42.39,42.39,0,0,1,8.2,0c3,.28,3.48-1,3.44-3.63-.15-9.83,0-19.66-.1-29.49,0-3.81,1.72-9.15-.74-11s-7.61-.49-11.57-.72c-2.21-.13-2.7.76-2.66,2.79C259.82,203.53,259.75,210,259.75,216.48ZM229.81,224c0,4.1.08,8.21,0,12.31-.06,2,.49,2.93,2.68,2.83,3.23-.15,6.48-.16,9.7,0,2.25.11,2.7-.86,2.66-2.86-.11-5.09.06-10.2-.07-15.29-.09-3.81,1.72-9.14-.75-11s-7.61-.49-11.56-.71c-2.21-.13-2.73.75-2.66,2.79C229.9,216,229.81,220,229.81,224ZM116.2,155.9a6.38,6.38,0,0,0,.94-.62q4.47-4.46,8.93-8.95c.71-.72.37-1.29-.24-1.87q-4.81-4.56-9.61-9.14c-3,2.92-6,5.89-9.09,8.74-1.22,1.12-1.15,1.92,0,3,2.6,2.49,5.1,5.07,7.65,7.61C115.21,155.11,115.7,155.47,116.2,155.9Z"/><path d="M179.76,284a33.67,33.67,0,0,1-4.82,0,7.48,7.48,0,0,1-6.48-7.82,7.34,7.34,0,0,1,7-6.94c2.59-.17,5.21-.13,7.81,0,4.35.17,7.43,3.12,7.59,7.13s-2.95,7.44-7.36,7.77c-1.24.1-2.49,0-3.73,0Z"/><path class="cls-1" d="M198.51,61.12c0,3.73.09,49.47,0,53.19-.13,4.41-3.08,7.4-7.16,7.51a7.24,7.24,0,0,1-7.64-7.06c-.25-7.7-.23-57.42,0-65.11a7.41,7.41,0,0,1,14.81.29C198.6,53.67,198.5,57.4,198.51,61.12Z"/><path class="cls-1" d="M170,99.61a7.21,7.21,0,0,1-6.6,6.89c-3.78.35-7.91-1.91-7.91-5.8,0-6.37,0-30.67,0-37.07.47-3.66,4-6.07,7.54-5.88a7.31,7.31,0,0,1,7,7Z"/></g></g></svg>