<svg xmlns="http://www.w3.org/2000/svg" viewBox="0 0 267.1 268.46"><defs><style>.cls-1{fill:#ff8000;}</style></defs><g id="Layer_2" data-name="Layer 2"><g id="Layer_1-2" data-name="Layer 1"><path d="M31.65,115c-11.18,3.24-20.44.88-27.3-8.42a22.33,22.33,0,0,1-.53-25.73c6.81-10,16.36-12.5,28-9.19V66.8q0-14.55,0-29.08c0-4.18,1.58-5.77,5.73-5.77,11.18,0,22.36,0,33.82,0-1.19-4.39-1.93-8.59-1.1-13A23.11,23.11,0,0,1,97.75.59C110.14,3.1,118.27,16,115.31,28.4a4.46,4.46,0,0,1-.2.82c-1.2,2.54,0,2.78,2.26,2.76,10-.1,19.95,0,29.92,0,5.35,0,6.6,1.23,6.6,6.55,0,14,0,28,0,41.94,0,2.25-.59,4.14-2.81,5a4.51,4.51,0,0,1-5.46-1.67,3.78,3.78,0,0,0-.39-.41,14,14,0,0,0-15.75-2.85A14.27,14.27,0,0,0,121.3,94.8,13.93,13.93,0,0,0,131.63,107a13.38,13.38,0,0,0,13.81-3.85c1.64-1.72,3.39-2.69,5.69-1.81s2.78,3,2.78,5.27c0,12.12,0,24.23-.07,36.35,0,2.24.66,2.84,2.84,2.81q12.58-.17,25.17,0c2.37,0,3.17-.1,2.26-2.93a23,23,0,1,1,44.21-12.52,21.12,21.12,0,0,1-.52,12.92c-.93,2.44,0,2.53,2,2.52,10.15-.07,20.31,0,30.47,0,5.71,0,6.85,1.16,6.85,6.91q0,20.42,0,40.83c0,1.92-.16,3.75-1.83,5-2.11,1.62-4.13,1.19-6.84-1.41-4-3.78-8.64-5.17-13.89-3.72s-8.55,5.09-9.82,10.43a14.06,14.06,0,0,0,23.53,13.29c.47-.45.86-1,1.36-1.4a4.38,4.38,0,0,1,7.21,2.43,12.28,12.28,0,0,1,.2,2.78q0,20.42,0,40.82c0,5.31-1.31,6.59-6.64,6.6H218.73c-2.25,0-4-.78-4.9-3s.08-3.72,1.57-5.25c5.45-5.6,6.13-13.31,1.79-19a14,14,0,0,0-20.08-2.49,14.21,14.21,0,0,0-1.69,20.44c1.75,1.95,4,3.66,2.49,6.73s-4.19,2.62-6.8,2.62H107.5c-.47,0-.93,0-1.4,0-2.31.1-4.36-.45-5.3-2.77s0-4,1.74-5.7a14.27,14.27,0,0,0,1-19.49A14,14,0,0,0,84,238.69a14.25,14.25,0,0,0-2.16,19.81c.58.72,1.26,1.37,1.91,2a4.34,4.34,0,0,1,1.18,5.08,4.54,4.54,0,0,1-4.43,2.82c-1.12,0-2.24,0-3.36,0H38c-4.71,0-6.19-1.49-6.19-6.18,0-10.35-.07-20.69,0-31,0-2.25-.44-2.54-2.6-1.95a22.77,22.77,0,0,1-25.07-9.13,23.1,23.1,0,0,1,25.16-35.36c1.38.36,2.52,1.21,2.51-1.39-.08-22.37-.05-44.74-.06-67.11C31.78,115.92,31.71,115.56,31.65,115Zm82.44,144.43c.76,0,1.4.1,2,.1,9,0,18.08,0,27.12,0,1.42,0,1.71-.62,1.7-1.85q0-13.56,0-27.12c0-1.55-.37-1.9-1.94-1.39a21.64,21.64,0,0,1-11.86.43,23.08,23.08,0,1,1,11.24-44.76c2.36.65,2.6.06,2.58-2-.09-8.39-.15-16.78,0-25.16.06-2.61-.87-3-3.19-3-11.56.11-23.11.05-34.67,0a15.59,15.59,0,0,1-3.06-.16,4.33,4.33,0,0,1-2.57-7.13c.52-.65,1.21-1.16,1.76-1.8,3.8-4.42,4.76-9.48,2.66-14.86A13.16,13.16,0,0,0,94.33,122c-5.94-.56-10.54,1.88-13.58,7-3.41,5.74-2.34,12.41,2.73,17.61,1.47,1.51,2.38,3.1,1.55,5.24s-2.68,2.95-4.89,3c-.74,0-1.49,0-2.23,0-11.47,0-22.93.06-34.39-.05-2.19,0-2.82.58-2.8,2.8.11,11.74,0,23.48.07,35.22,0,2.3-.37,4.26-2.72,5.31s-3.88,0-5.53-1.46c-6.05-5.19-14.28-4.83-19.6.8A14.27,14.27,0,0,0,13,217a13.88,13.88,0,0,0,19.41.8c1.76-1.51,3.51-2.51,5.79-1.48s2.6,3.12,2.59,5.4c0,11.46.11,22.92-.1,34.38,0,3.05.93,3.62,3.71,3.56,8.29-.18,16.59-.05,24.88-.08.78,0,1.64.31,2.34-.31-3.32-12.78-.85-21.81,7.66-28.07a22.39,22.39,0,0,1,25.71-1C115.75,237.36,117.93,247.47,114.09,259.42Zm113,.13c9.81,0,19.41,0,29,0,1.72,0,2-.72,2-2.16,0-9.05-.06-18.09,0-27.13,0-1.8-.52-2-2.08-1.41a21.69,21.69,0,0,1-12.92.7,23.08,23.08,0,0,1-16.78-28.71,22.77,22.77,0,0,1,29.21-15.72c2.1.68,2.69.49,2.65-1.86q-.18-12.85,0-25.72c0-2.42-.81-2.93-3-2.91-11.65.1-23.3.05-34.95,0a17.28,17.28,0,0,1-2.79-.11,4.34,4.34,0,0,1-2.75-7.22c.76-.94,1.7-1.73,2.43-2.69a14.1,14.1,0,1,0-24.95-11,13.91,13.91,0,0,0,4.45,12.9c1.53,1.48,2.34,3.13,1.48,5.25s-2.55,2.84-4.66,2.92c-.75,0-1.5,0-2.24,0-11.56,0-23.12.05-34.67,0-2,0-2.82.44-2.72,2.62.18,3.81.05,7.64.05,11.46,0,8,0,16,0,24.05,0,2.18-.35,4.08-2.56,5.13s-3.95.23-5.54-1.32c-.2-.19-.42-.37-.63-.55a14,14,0,0,0-22.18,6.37,14.22,14.22,0,0,0,5.38,16.31,13.85,13.85,0,0,0,16.87-.8,8.27,8.27,0,0,0,.63-.55,4.58,4.58,0,0,1,5.34-1.27c2.07.88,2.7,2.61,2.69,4.77,0,12,0,24,0,36.07,0,1.9.44,2.62,2.46,2.53,3.63-.16,7.27,0,10.91,0h17.58c-3.31-13.9-.68-22.84,8.4-29a22.93,22.93,0,0,1,26.23.44C228.1,237.36,230.67,246.6,227.13,259.55ZM144.81,72c0-9.94-.05-19.63,0-29.32,0-2.2-1.36-1.77-2.59-1.78-11.66,0-23.31,0-35,0-2.28,0-4.37-.27-5.43-2.56s-.07-4,1.45-5.81a14.19,14.19,0,0,0-.86-19.68,14,14,0,0,0-19.26,0c-5.57,5.24-6,13.58-.92,19.66,1.46,1.75,2.61,3.45,1.51,5.79s-3.1,2.62-5.38,2.62c-11.65,0-23.31,0-35-.08-2.27,0-2.76.68-2.74,2.82.09,11.84,0,23.68.06,35.52,0,2.23-.47,4.14-2.64,5.08s-3.87.13-5.58-1.37a14,14,0,0,0-19.63.72,14.26,14.26,0,0,0,0,19.52c5.19,5.5,13.42,5.9,19.39.83,1.79-1.51,3.59-2.46,5.83-1.39s2.57,3.15,2.57,5.43c0,11.84,0,23.68-.06,35.52,0,1.82.47,2.41,2.33,2.39,8.76-.09,17.53-.11,26.29,0,2.35,0,2.27-.74,1.68-2.59a22.44,22.44,0,0,1,3.42-21.19,23,23,0,0,1,40.26,20.79c-.85,2.65-.24,3,2.28,3,8.48-.13,17-.11,25.45,0,2,0,2.5-.62,2.48-2.53-.09-9,0-17.9-.06-26.85,0-.59.28-1.3-.39-1.74-12.5,3.37-21.74.7-27.93-8a23.29,23.29,0,0,1-.21-26.51C122.49,71.21,131.56,68.53,144.81,72Z"/><path class="cls-1" d="M206.22,0c4.28,0,8.57,0,12.85,0,5.82.07,9.58,4.22,8.92,10q-2.69,23.43-5.51,46.86c-.53,4.4-3.54,7.38-8,7.54-5.58.22-11.18.22-16.76,0-4.57-.16-7.64-3.12-8.18-7.65-1.74-14.51-3.51-29-5.06-43.55C183.38,2.58,185.89,0,196.72,0Zm0,9c-3.63,0-7.26,0-10.89,0-1.64,0-2.63.08-2.13,2.23a63.54,63.54,0,0,1,.8,6.65c1.36,11.73,2.75,23.46,4.06,35.2.21,1.88.74,2.79,2.89,2.66a90.88,90.88,0,0,1,10,0c2,.1,2.78-.54,3-2.55q2.37-21.21,4.93-42.41c.17-1.4-.16-1.8-1.53-1.78C213.66,9,209.93,9,206.21,9Z"/><path class="cls-1" d="M223.1,86.28A17.09,17.09,0,1,1,206,69.3,17.08,17.08,0,0,1,223.1,86.28Zm-17.08-8a8.14,8.14,0,1,0,8.14,8.12A8.1,8.1,0,0,0,206,78.26Z"/></g></g></svg>