<svg xmlns="http://www.w3.org/2000/svg" viewBox="0 0 282.27 246.95"><defs><style>.cls-1{fill:#ff8000;}</style></defs><g id="Layer_2" data-name="Layer 2"><g id="Layer_1-2" data-name="Layer 1"><path d="M282.27,186.87c-.09,0-.22,0-.26.09-1.33,2-3,3.25-5.54,2.38s-3.05-3.05-3-5.54c0-13.49.11-27,0-40.46a33.55,33.55,0,0,0-25.22-32.22,36.91,36.91,0,0,0-7.69-1,64.81,64.81,0,0,0,7.48-7.25c.84-1,1.89-.42,2.81-.19a42.57,42.57,0,0,1,30.94,34.41c.09.62-.05,1.31.54,1.78Z"/><path d="M68.45,39.68a35.28,35.28,0,1,1-35.36,35.4A35.32,35.32,0,0,1,68.45,39.68ZM94.82,75.12a26.45,26.45,0,1,0-26.61,26.3A26.5,26.5,0,0,0,94.82,75.12Z"/><path d="M214,110.23a35.28,35.28,0,1,1,35.17-35.32A35.31,35.31,0,0,1,214,110.23ZM187.45,75A26.46,26.46,0,1,0,213.91,48.5,26.51,26.51,0,0,0,187.45,75Z"/><path d="M108.07,213.6A33.07,33.07,0,1,1,140.66,247,33.12,33.12,0,0,1,108.07,213.6Zm33.47-24a24.25,24.25,0,1,0,23.84,24.5A24.32,24.32,0,0,0,141.54,189.63Z"/><path d="M40.48,110.16c-19.34.73-32,17.57-31.69,34.91.22,12.68,0,25.36,0,38a20.49,20.49,0,0,1-.05,2.48,4.33,4.33,0,0,1-4.46,4,4.29,4.29,0,0,1-4.26-3.94,12.26,12.26,0,0,1,0-1.92c0-13.33,0-26.65,0-40a42.51,42.51,0,0,1,31-40.91c1.91-.56,3.23-.42,4.48,1.28C37.08,106.33,39,108.35,40.48,110.16Z"/><path class="cls-1" d="M134.16,90.37a4.28,4.28,0,0,1-3.63-2.65,4.17,4.17,0,0,1,1.08-5c2.71-2.62,5.44-5.22,8.26-7.71,1.17-1,1.25-1.65,0-2.72-2.7-2.35-5.29-4.82-7.86-7.31s-2.6-4.87,0-7.35,5.32-5.07,8.06-7.51c1-.91,1-1.46,0-2.36-2.74-2.44-5.43-5-8.07-7.5s-2.6-4.82,0-7.33q6.09-5.8,12.28-11.48c2.28-2.08,4.81-2.1,6.61-.2s1.64,4.45-.55,6.58q-3.94,3.84-8.06,7.51c-1.06,1-1.14,1.54,0,2.53,2.69,2.36,5.3,4.82,7.88,7.31s2.7,4.94,0,7.55S145,57.66,142.29,60c-1.14,1-1,1.6,0,2.55,2.68,2.37,5.29,4.83,7.87,7.32s2.69,4.89-.08,7.53c-3.93,3.73-7.91,7.41-11.86,11.12A5.43,5.43,0,0,1,134.16,90.37Z"/><path d="M95.05,110.11a52.28,52.28,0,0,0,7-6.83c.87-1.12,1.9-1,3-.64,16.1,4.8,26.37,15.25,30.61,31.54,1.59,6.13,1.06,12.4,1.11,18.62q.06,6.88,0,13.77c0,3.1-1.67,4.92-4.32,5s-4.46-1.84-4.48-5.08c0-7.07-.17-14.13,0-21.19C128.39,128.11,116,111,95.05,110.11Z"/><path d="M187.28,110.12c-20.47.75-33.32,17.48-32.93,34.92.15,7.06,0,14.13,0,21.2,0,3.44-1.7,5.37-4.54,5.3s-4.32-2-4.25-5.3c.2-9.45-.67-18.92.47-28.33a42.4,42.4,0,0,1,31-35.24,3,3,0,0,1,3.59,1.07A44.48,44.48,0,0,0,187.28,110.12Z"/><path class="cls-1" d="M110.34,44.07A4.94,4.94,0,0,1,107,42.63c-3.82-3.57-7.66-7.12-11.43-10.74-2.31-2.22-2.4-4.28-.34-6.77s4.09-5,6.32-7.27c1.38-1.43,1.19-2.29-.22-3.5-2.3-2-4.48-4.07-6.66-6.17-2.36-2.26-2.62-4.8-.8-6.77s4.4-1.89,6.81.32c3.71,3.42,7.41,6.86,11,10.36,2.42,2.32,2.51,4.36.34,7-2,2.47-4.11,4.94-6.33,7.26-1.28,1.34-1.11,2.13.2,3.28,2.56,2.23,5,4.56,7.43,7a4.05,4.05,0,0,1,.82,5A4.3,4.3,0,0,1,110.34,44.07Z"/><path class="cls-1" d="M187.73,0a4.29,4.29,0,0,1,3.68,2.59,4.15,4.15,0,0,1-1,5c-2.41,2.38-4.88,4.72-7.44,7-1.28,1.11-1.29,1.87-.14,3.09,2.25,2.41,4.4,4.93,6.5,7.48s1.93,4.53-.4,6.77q-5.55,5.34-11.25,10.54c-2.29,2.09-4.79,2.12-6.6.24s-1.65-4.52.68-6.76,4.79-4.55,7.25-6.75c1-.88,1-1.52.1-2.48-2.28-2.51-4.5-5.08-6.68-7.68s-2.05-4.62.4-7c3.65-3.48,7.36-6.91,11-10.36A5.22,5.22,0,0,1,187.73,0Z"/><path d="M37.49,178.77c0,2.11.07,4.22,0,6.33a4.38,4.38,0,1,1-8.76-.06q-.13-6.47,0-12.95A4.33,4.33,0,0,1,33,167.6c2.5-.07,4.38,1.78,4.49,4.55C37.56,174.35,37.49,176.56,37.49,178.77Z"/><path d="M108.06,178.66c0,2.11.06,4.22,0,6.33-.11,2.8-2,4.65-4.45,4.61s-4.28-1.89-4.32-4.72c-.07-4.23-.08-8.45,0-12.68a4.34,4.34,0,0,1,4.44-4.6c2.49,0,4.24,1.89,4.33,4.72C108.11,174.43,108.06,176.54,108.06,178.66Z"/><path d="M183,178.74c0,2.11.07,4.23,0,6.34a4.4,4.4,0,0,1-4.53,4.52,4.35,4.35,0,0,1-4.23-4.53q-.13-6.48,0-12.95a4.33,4.33,0,0,1,4.24-4.52,4.38,4.38,0,0,1,4.52,4.53C183.1,174.33,183,176.54,183,178.74Z"/><path d="M253.59,178.86c0,2.11.08,4.23,0,6.33a4.36,4.36,0,0,1-4.37,4.41,4.29,4.29,0,0,1-4.38-4.37q-.15-6.61,0-13.23a4.37,4.37,0,1,1,8.74,0C253.67,174.26,253.59,176.56,253.59,178.86Z"/><path d="M154.35,204.63c0,2.37-1.28,3.58-2.51,4.82-4.42,4.43-4.41,4.43-.06,8.82.45.45.93.89,1.34,1.38,1.68,2.07,1.62,4.5-.13,6.19s-4.18,1.7-6.19-.09a39.29,39.29,0,0,1-4.07-4.09c-1.23-1.48-2.1-1.23-3.24.08a45.94,45.94,0,0,1-3.88,3.89c-2.11,1.92-4.61,1.94-6.39.16s-1.7-4.25.17-6.4c1.67-1.91,5-3.39,4.81-5.59-.12-1.89-3.09-3.57-4.75-5.38-1.94-2.13-2-4.58-.26-6.39s4.36-1.82,6.58.25c1.41,1.32,2.8,2.66,4.08,4.09,1,1.13,1.69,1,2.64,0,1.42-1.56,2.92-3.05,4.48-4.46a4.12,4.12,0,0,1,4.84-.75A4.32,4.32,0,0,1,154.35,204.63Z"/></g></g></svg>