<?xml version="1.0" encoding="utf-8"?>
<!-- Generator: Adobe Illustrator 25.0.1, SVG Export Plug-In . SVG Version: 6.00 Build 0)  -->
<svg version="1.1" id="Layer_1" xmlns="http://www.w3.org/2000/svg" xmlns:xlink="http://www.w3.org/1999/xlink" x="0px" y="0px"
	 viewBox="0 0 294.3 384.2" style="enable-background:new 0 0 294.3 384.2;" xml:space="preserve">
<style type="text/css">
	.st0{fill:#FF8000;}
</style>
<g id="Layer_2_1_">
	<g id="Layer_1-2">
		<path class="st0" d="M178.9,0c3.7-0.2,7.5,0.4,11,1.7c1.1,0.4,2.2,0.8,3.3,1.3c8.9,4.2,15.2,12.4,16.8,22.5c1,5.9-0.1,12-2.6,17.4
			l0,0.1c-2.2,4.5-5.3,6.2-8.8,4.6c-1.6-0.7-2.6-1.7-3.1-3.1c-0.7-1.8-0.4-4.1,0.9-6.8c2.2-4.8,2.4-10,0.5-14.7
			c-1.8-4.4-5.4-7.9-10-9.7c-9.1-3.6-19.5,0.9-23.1,10.1c-1.8,4.7-1.6,10,0.7,14.5c1.4,3,1.6,5.6,0.5,7.3c-1.1,1.8-3.6,2.8-7,2.8
			h-35.6c-5.9,0-7.9,2-7.9,7.8v26.2c0,1,0.1,1.7,0.4,2c0.3,0.3,0.9,0.3,2,0.2c9.3-1.1,18.4,2,25.1,8.8c3.4,3.4,5.9,7.7,7.3,12.3
			c5.4,18.3-7.1,36.2-25.2,38.4c-1.5,0.2-3.1,0.3-4.7,0.2c0,0,0,0,0,0c-1.1,0-2.3-0.1-3.4-0.2c-0.5-0.1-0.9,0-1.1,0.2
			c-0.2,0.2-0.3,0.6-0.3,1.2c0,2,0,4,0,6c0,7.6,0,15.5,0.2,23.2c0.1,3.3,2.2,5.4,5.5,5.4c5,0.1,10,0.1,14.9,0.1
			c4.6,0,9.3,0,13.9,0.1c0.7,0,1.2-0.1,1.5-0.4c0.3-0.3,0.2-1,0.1-1.8c0-0.2,0-0.4-0.1-0.5c-0.9-9.9,2.2-18.4,9.3-25.1
			c12-11.4,31-10.8,42.3,1.1c6,6.4,9,15,8,23.8c-0.2,1.3-0.1,2,0.3,2.4c0.3,0.4,1,0.5,2.2,0.5c5-0.1,10.2-0.1,15.1-0.1
			c3.7,0,7.4,0,11.1,0c5.4,0,7.4-2,7.5-7.5c0-8,0-16,0-24c0-4,0-8,0-12c0-3.5,0.9-5.8,2.7-7c1.8-1.1,4.3-1,7.4,0.4
			c7.2,3.3,13.7,2.5,19.4-2.3c5.9-5,7.8-11.4,5.6-18.7c-2.2-7.2-7.2-11.4-14.9-12.7c-3.2-0.5-6.4,0.1-10.2,2
			c-2.9,1.4-5.4,1.5-7.2,0.4c-1.8-1.1-2.7-3.5-2.8-6.7V57c0-7.2-1.7-8.9-9.1-8.9c-1,0-1.9,0-2.9,0c-1.9,0-3.8,0-5.8,0
			c-3.8-0.1-6.2-2.5-6.3-6c0-3.5,2.5-6,6.2-6.1c4.4-0.2,8.8-0.2,13.1,0.1c9.6,0.7,16.7,8.5,16.8,18.6c0.1,8.3,0.1,17.2,0,27.3
			c0,1,0.1,1.8,0.4,2.1c0.3,0.3,1,0.3,2.1,0.2c8.1-1.1,16,1.2,22.4,6.5c6.5,5.4,10.5,13.3,11,21.7c0.4,8-2.3,15.7-7.7,21.7
			c-5.4,6-12.8,9.5-20.8,9.9c-0.7,0-1.4,0-2.1,0c-2.6,0-4.1-0.1-4.7,0.5c-0.6,0.6-0.6,2-0.6,4.7c0,2.6,0,5.2,0,7.9
			c0,5.2,0,10.5,0,15.7c-0.1,11.6-7.6,19.2-19.2,19.3c-8.1,0.1-16.3,0-24.2,0c-4,0-8.1,0-12.1,0c-3.6,0-6-0.9-7.1-2.7
			c-1.2-1.8-1-4.3,0.4-7.6c3.7-8.1,1.7-16.7-5-21.9c-6.5-5-15.5-5-21.9,0.1c-6.7,5.3-8.6,13.9-4.9,22c1.4,3.2,1.6,5.7,0.4,7.4
			c-1.1,1.8-3.5,2.7-6.9,2.7c-7,0-14,0.1-20.9,0.1c-5.3,0-10.6,0-15.8-0.1c-11.5-0.1-18.9-7.6-19-19.1c-0.1-10.7-0.1-22,0-36.7
			c0-3.3,0.9-5.6,2.7-6.8c1.8-1.2,4.5-1,7.6,0.4c8,3.7,16.5,1.8,21.7-4.7c5.2-6.5,5.3-15.7,0.2-22.2c-5.3-6.7-13.7-8.6-21.9-4.9
			c-3.1,1.4-5.7,1.5-7.5,0.4c-1.8-1.2-2.8-3.5-2.8-6.8c-0.1-13-0.1-24.7,0-36.7c0-11.6,7.6-19.2,19.4-19.2l26.9,0
			c0.8,0,1.5,0,1.8-0.3c0.2-0.3,0.3-0.8,0.2-1.5C148.2,18,159,3.2,174.9,0.4C174.9,0.4,176.5,0.2,178.9,0z"/>
		<path d="M236,212.2c-3.6-1.7-7.6-2.4-11.5-2c-2.9,0.1-5.2,2.5-5.3,5.3c-0.5,2.9,1.3,5.6,4.1,6.3c1.2,0.3,2.5,0.5,3.7,0.6
			c6.5,0.8,11.6,5.6,12.8,12c0.7,3.9-0.1,7.8-2.4,11.1c-2.2,3.3-5.6,5.4-9.5,6.2c-1.9,0.3-3.9,0.4-5.9,0.5c-3.6,0.3-5.7,2.3-6,5.9
			c-0.1,1.2-0.2,2.5-0.2,3.8c-0.1,1.2-0.1,2.5-0.2,3.7c-2.2,28.7-17.7,53.9-42.5,69.3c-24.4,15.1-53.5,17.7-79.7,7
			c-35.6-14.5-54.8-41.9-57.3-81.5c-0.4-6.5-1.9-8-8.4-8.1c-2.6,0-5.1-0.6-7.4-1.6c-5.8-2.9-9.1-9.2-8.1-15.6
			c1.2-7,6.2-11.6,13.6-12.5c4.9-0.6,7.3-2.7,7.2-6.4c-0.1-3.8-2.5-5.7-7.2-5.7c-1.8,0-1.8-0.6-1.8-2.1v-0.2c0-2.1,0-4.2,0-6.4
			c0-4.2,0-8.5,0-12.7c-0.2-9.1,0.9-18.1,3.4-26.8c8.9-29.6,28-50,57-60.7c4.7-1.7,6.5-4.7,5.3-8.4c-1.2-3.4-4.5-4.7-8.7-3.4
			c-36.1,11.2-65.6,48.2-68.6,85.9c-0.7,8.3-0.6,16.8-0.6,24.9c0,3.7,0,7.6,0,11.4c0.1,1.8-0.7,3.5-2.1,4.6
			c-8.5,7.4-11.7,16.8-9,27.4c2.7,10.5,9.7,17.3,20.5,19.8c2.4,0.6,2.9,1.5,3.1,3.7c1.6,19.8,9,38.5,21.5,54c1.3,1.6,2.1,3.7,2,5.8
			c0,10.6,0,21.1,0,31.7c0,5.3,0,10.6,0,15.8l0,2.6c0.2,4.3,2.5,7,6.1,7.1c0,0,0,0,0,0c1.6,0,3-0.6,4.1-1.6c1.3-1.3,1.9-3.1,1.9-5.4
			v-37.8c0-0.3,0-0.6,0-1c0-0.6-0.1-1.2,0-1.7c21.9,15.7,44.1,23.7,65.9,23.7c0,0,0,0,0.1,0c21.8,0,44-8,65.9-23.7
			c0,12.7,0,24.8,0.1,37c0,0.5,0,1,0,1.5c0,1,0,2,0,3c0.2,3.5,2.3,5.6,5.6,5.8c3.3,0.2,5.6-1.7,6.3-5.1c0.2-1.3,0.3-2.5,0.2-3.8
			c0-5.3,0-10.6,0-16c0-10.5,0-21.3,0-32c-0.1-2.2,0.6-4.4,2-6.1c12.5-15.6,19.9-34.4,21.4-54.4c0.2-2.3,0.9-2.8,3.1-3.2
			c11.7-2.4,20-12,21.3-24.3C253.4,228.1,246.5,216.8,236,212.2z"/>
	</g>
</g>
</svg>
