<svg xmlns="http://www.w3.org/2000/svg" viewBox="0 0 383.57 384"><defs><style>.cls-1{fill:#ff8000;}</style></defs><g id="Layer_2" data-name="Layer 2"><g id="Layer_1-2" data-name="Layer 1"><path d="M83.84,0c12.21,2.61,23,7.74,31.88,16.86a56,56,0,0,1,2,75.91c-3.18,3.61-3.18,3.61,1.45,4.75a41,41,0,0,1,31.5,39.73c.09,12.12.05,24.24,0,36.36,0,6.34-3.11,9.52-9.39,9.53q-66,0-132,.05A10.5,10.5,0,0,1,0,178.5V129.75c.46-1.42.91-2.85,1.39-4.27q7.47-22.17,30.09-28c4.13-1.07,4.16-1,1.4-4.18-21.56-25.14-18.34-61,7.31-81.57C48,5.46,57,2,66.62,0ZM74.76,167.12H129c5.66,0,5.66,0,5.67-5.84,0-7.62,0-15.25,0-22.87a28.07,28.07,0,0,0-.61-7.07c-3-11.58-12.48-19-25.86-19.19-22-.27-43.91-.32-65.86,0-17.09.25-27.07,11-27.1,28.18q0,10.88,0,21.75c0,5,0,5,4.88,5ZM34.59,55.76A40.74,40.74,0,0,0,75.27,96.48c22.21-.09,40.64-18.46,40.49-40.61-.14-21.76-16.87-40.28-40.95-40.44C52.58,15.27,34.63,33.65,34.59,55.76Z"/><path d="M0,231c1.92-5,4-9.94,7.91-13.87a28.21,28.21,0,0,1,20.46-8.73q80.66-.14,161.31,0c16,0,28.7,12.55,28.9,28.91q.48,38.63,0,77.25c-.22,16.35-12.86,28.28-29.18,28.47-3.49,0-7,.18-10.48,0-2.95-.17-4,1.21-4.23,3.89-.25,3.36-.58,6.72-.94,10.07-.94,8.89-6.88,11.82-14.38,7.06-9.58-6.09-19.17-12.17-28.67-18.4A15,15,0,0,0,122,343c-29.82.09-59.63.05-89.45.05-18.08,0-26.44-5.87-32.52-22.8Zm202.67,45c0-12.75.06-25.5,0-38.25,0-7.94-5.26-13.31-13.09-13.32q-80.46-.07-160.92,0a12.92,12.92,0,0,0-7.42,2.16c-4.62,3.12-6,7.76-6,13q0,35.61,0,71.24c0,11.68,5,16.7,16.62,16.7,31.56,0,63.12.05,94.68-.05a16.32,16.32,0,0,1,9.46,2.78c6.45,4.28,13.05,8.32,19.51,12.58,2.37,1.56,4,2.34,3.92-1.66a39.25,39.25,0,0,1,.64-5.58c.72-5.47,3.46-8,8.93-8,6.49-.07,13,.06,19.46,0,8.87-.16,14.18-5.54,14.21-14.36C202.71,300.74,202.68,288.36,202.67,276Z"/><path d="M237.29,384c-3.49-2.23-4.81-5.42-4.75-9.53.14-9.24,0-18.48.06-27.72.1-19.79,12.76-35.75,32-40.44,4.15-1,4.07-.94,1.33-4.19-14.25-17-18.41-36.2-10.58-57s23.38-33,45.34-36.07A56.22,56.22,0,0,1,364.62,266a55.18,55.18,0,0,1-14.3,36.15c-.8.92-1.92,1.61-2.35,3.23l4.56,1.14a40.66,40.66,0,0,1,31,38.9c.07,9.74-.1,19.49.08,29.22.08,4.16-1.19,7.31-4.81,9.41Zm71-15.26c18.46,0,36.92-.09,55.38.07,3.54,0,4.52-1.13,4.37-4.51-.24-5.49,0-11-.08-16.49-.27-16.19-10.83-26.63-26.94-26.64-22.82,0-45.65-.1-68.47.05a24.5,24.5,0,0,0-23.95,23.59c-.18,6.49.08,13-.13,19.49-.12,3.38.94,4.54,4.45,4.51C271.42,368.65,289.87,368.74,308.33,368.74Zm.14-144.34c-22.57-.09-40.88,17.73-41,39.9a40.51,40.51,0,0,0,40.14,40.79c22.86.15,41-17.57,41.06-40.11A40.13,40.13,0,0,0,308.47,224.4Z"/><path d="M314.39,0c5.18,1.88,10.12,4.13,14.1,8.18A27.92,27.92,0,0,1,336.93,28q.21,55.31,0,110.61c-.09,16.2-13,28.58-29.5,28.73-16.09.14-32.18.06-48.27,0a16.3,16.3,0,0,0-6.87,1.41q-15.06,6.63-30.23,13c-6.48,2.72-11,.22-12.4-6.64-1.62-7.8-1.62-7.94-9.75-7.76s-16.23-.53-23.15-5.66A28.54,28.54,0,0,1,164.64,138q-.24-54.56,0-109.11c0-12.77,7.58-23.13,19.42-27.6,1.05-.4,2.07-.85,3.1-1.28ZM251,15.27c-18.59,0-37.18-.06-55.76,0-9,0-14.65,5.24-14.66,13.53q-.11,54.75,0,109.49c0,7.56,5.45,12.88,13,13,6.36.11,12.73,0,19.09,0,6.93,0,9.57,2.16,10.49,9,.43,3.21,1.64,3.2,4.16,2.05,7-3.21,14.19-6.16,21.25-9.3a20.7,20.7,0,0,1,8.71-1.76q25.08.07,50.15,0c8.18,0,13.44-5.22,13.46-13.34q.07-54.56,0-109.11a13.22,13.22,0,0,0-1.86-7.15c-3-4.89-7.7-6.45-13.11-6.46Z"/><path class="cls-1" d="M126.79,284.12q15.69,0,31.39,0a12.13,12.13,0,0,1,5.46.95,7.81,7.81,0,0,1,.13,14.08,11.85,11.85,0,0,1-5.45,1q-31.77,0-63.52,0c-5.19,0-8.39-2-9.46-5.72-1.56-5.45,2.27-10.2,8.57-10.26C104.87,284.05,115.83,284.13,126.79,284.12Z"/><path class="cls-1" d="M76.31,264.9c-5.73,0-11.45.06-17.18,0-5.39-.07-9.05-3.27-9.15-7.83s3.57-8.11,9.2-8.16q17.55-.14,35.1,0c5.35.05,9,3.48,9,8s-3.68,7.86-9.08,7.95C88.26,265,82.28,264.9,76.31,264.9Z"/><path class="cls-1" d="M62.38,300a41.13,41.13,0,0,1-5.21,0,8.08,8.08,0,0,1-7.2-7.78,7.81,7.81,0,0,1,6.69-7.8,38.48,38.48,0,0,1,11.88,0,7.48,7.48,0,0,1,6.54,7.48,7.59,7.59,0,0,1-6.39,8,47.21,47.21,0,0,1-6.31.41Z"/><path class="cls-1" d="M137.06,257.2a7.89,7.89,0,1,1-7.59-8.19A8.19,8.19,0,0,1,137.06,257.2Z"/><path class="cls-1" d="M152.53,257a7.83,7.83,0,1,1,8,7.77A8.12,8.12,0,0,1,152.53,257Z"/><path class="cls-1" d="M278.7,65c-.46,8.81-5.81,17.49-16.61,22.4-2.7,1.23-3.93,2.66-3.58,5.62a28.67,28.67,0,0,1,0,5.24,7.74,7.74,0,0,1-7.24,7.24c-4,.19-7.86-2.7-8.05-6.77a176.57,176.57,0,0,1,0-18c.21-4,3.34-6.15,8.57-6.74,5.89-.66,9.93-4.48,11.08-10.48.95-4.93-1.8-10.2-6.64-12.7A12.12,12.12,0,0,0,239,59.16c-.24,1.22-.39,2.47-.64,3.69-.92,4.46-4.38,7.24-8.43,6.79s-6.94-3.81-7.07-8.3c-.36-12.28,9.22-24.13,21.8-27C262.29,30.38,278.76,43.76,278.7,65Z"/><path class="cls-1" d="M258.49,124.73a7.67,7.67,0,0,1-7.71,7.94,7.89,7.89,0,0,1-.12-15.78A7.77,7.77,0,0,1,258.49,124.73Z"/></g></g></svg>