<svg xmlns="http://www.w3.org/2000/svg" viewBox="0 0 383.24 383.59"><defs><style>.cls-1{fill:#73c26c;}</style></defs><g id="Layer_2" data-name="Layer 2"><g id="Layer_1-2" data-name="Layer 1"><path d="M203.59,0c6.77,1,13.57,1.74,20.29,3Q292.13,15.4,337,68.38c22.65,26.77,36.51,57.76,42.27,92.26a186.69,186.69,0,0,1-4.8,83.26c-1.44,5-5.05,7.34-9.4,6.17s-6.33-5-5.1-10c.21-.84.45-1.68.67-2.52a177.91,177.91,0,0,0,6-50.29C364.46,107,309.68,38.59,231.54,20,179.68,7.64,131.76,17.93,88.06,48.34c-2.25,1.57-2.42,2.55-1,4.9C94.65,66.37,94.25,80.06,89.36,94,85.61,104.59,80,114.29,74.48,124c-5.27,9.33-10.56,18.62-14.75,28.52-10.79,25.42-5.43,47.65,13,67.38a65.47,65.47,0,0,0,15.24,12c3.53,2,3.69,1.93,4-2.06a107.18,107.18,0,0,1,19.15-52.73,108.45,108.45,0,0,1,23-23.94c2.05-1.58,2.29-3.05,1.81-5.38-5.11-25.07-2.15-48.66,13.63-69.57a92.68,92.68,0,0,1,36.94-29.65c27.46-12.09,56.46-4.25,74,20.09,12.46,17.31,17.07,36.85,15.19,58-.24,2.76,1,3.28,3,4.08,31.11,12.37,50.43,35.63,59.24,67.21,9,32.26-8.23,60.81-41.37,70.74-28.08,8.41-54.39,3.68-79.16-11.42a163.81,163.81,0,0,1-23.53-17.17c-1.7-1.5-2.94-1.87-5.15-.72-16.47,8.61-33.86,14.44-52.43,16.29A103.63,103.63,0,0,1,109.4,255c-1.74-.28-2.55-.32-2.29,1.81,2.79,23,10.29,43.87,27.14,60.47,11.83,11.65,26,18.84,42.69,20.16,9.29.73,18.15-1.05,25.9-6.59a128.58,128.58,0,0,1,59.43-23.55,102.59,102.59,0,0,1,51.32,6.64c2.23.88,3.49.73,5.09-1,4.28-4.71,8.3-9.62,12.29-14.58a7.38,7.38,0,0,1,9.38-2.25,7.7,7.7,0,0,1,3.92,8.52,9.88,9.88,0,0,1-2.35,4.2q-4.87,5.91-9.84,11.77c-.84,1-1.78,1.76,0,2.86a108.71,108.71,0,0,1,23.3,19.93c1,0,.73-.47.68-.73-1-5.07,1-8.83,5.3-10,3.86-1,7.55,1.17,9.17,5.68,3.76,10.41,7.41,20.86,11.14,31.28.4,1.11.36,2.48,1.59,3.18V378c-3.17,4.79-5.84,6.18-10.1,4.73Q355,376.5,336.89,370c-4.37-1.58-6.29-5.56-5-9.52s5.47-6,10.05-4.66c1.87.55,3.7,1.27,5.55,1.91l.7-.88c-4.13-3.92-8.23-7.87-12.4-11.74a111.69,111.69,0,0,0-12.79-9.7c-2.59-1.79-4.23-1.52-6.7.54-52.14,43.63-111.46,58.18-177,39.92C47.56,350.35-10,262.55,1.49,168.24,7.08,122.51,27,83.82,60.16,51.89c3.58-3.46,3.64-3.45-.44-6.5-2.19-1.64-4.41-3.26-6.72-4.73A364.06,364.06,0,0,0,6.79,15.52C3.49,14,.48,12.39.05,8.3S2.17,1.93,5.23,0H9.72c7.12,3.51,14.34,6.84,21.34,10.57,14.4,7.66,28.83,15.32,41.42,25.82,2.37,2,3.64,2.15,6.18.3A187,187,0,0,1,157.89,3c6.72-1.17,13.5-2,20.25-2.95ZM304.12,326.59a77,77,0,0,0-22.42-4.71c-24.69-1.44-47.15,5.42-67.24,19.49-15.72,11-32.64,13.61-50.82,9.09-27.56-6.86-46.61-24.36-59.39-49.13a113.17,113.17,0,0,1-12.17-45.09c-.26-4-1.16-6.57-5.47-8.36-11.69-4.88-21.32-12.79-29.3-22.63-16.87-20.78-22.83-43.85-14.58-69.88,4-12.55,10.24-24,16.68-35.4,5.15-9.1,10.61-18,14.48-27.8,3.45-8.71,5.69-17.58,2.27-26.89-2.08-5.68-2.25-5.78-6.42-1.59C23.41,110.26,6,165.88,19.52,230.2c16.56,78.56,86.05,135.73,166.27,138a174.28,174.28,0,0,0,77.31-15.63A170.78,170.78,0,0,0,304.12,326.59Zm-33.44-68.94c3.48.19,9.28-.72,15-1.79a62.1,62.1,0,0,0,11.79-3.51c19-7.65,30.24-24.26,27.1-42.94-5-29.85-21.62-51.33-49.38-63.93-2.24-1-2.91-.35-3.51,1.72-3.84,13.18-10.38,25-18.24,36.17A176.29,176.29,0,0,1,208,227.83c-2.61,1.77-2.49,2.6-.16,4.36,4.78,3.6,9.54,7.22,14.64,10.37C236.52,251.23,251.3,257.73,270.68,257.65ZM148.89,127.72c-.23,3.07.37,6.77.75,10.48.43,4.09.43,4.08,4.05,2.22,32.45-16.61,66.68-21.75,102.6-15.93,4.6.75,4.72.84,4.79-3.57.26-15.59-3.12-30.22-12.47-43-11-15-25.59-22.68-44.35-19.06C172.81,65,148.88,94.82,148.89,127.72Zm108.73,14.49c0-1.87,0-1.88-2.19-2.37a114.85,114.85,0,0,0-23-2.48c-26.69-.45-51.88,5.25-75.29,18.34-2.45,1.37-2.8,2.61-1.84,5.16,8.17,21.7,21,40.36,36.88,57,1.23,1.29,2,1.21,3.44.29,25.45-16.9,45.85-38.25,58.45-66.44C255.53,148.47,256.59,145,257.62,142.21ZM141.39,167a2.9,2.9,0,0,0-.56.21c-22,18.11-32.78,41.71-34.27,69.89-.09,1.68.76,2.16,2.15,2.39a92.78,92.78,0,0,0,13.72,1.54c19.18.35,37.15-4.5,54.45-12.47,2.74-1.26,3-2,.85-4.2a185.12,185.12,0,0,1-26.89-37.14A202.86,202.86,0,0,1,141.39,167Z"/><path d="M354.81,281.61a7.22,7.22,0,0,1-7.53-7.44,7.53,7.53,0,0,1,7.52-7.56,7.73,7.73,0,0,1,7.42,7.38A7.38,7.38,0,0,1,354.81,281.61Z"/><path class="cls-1" d="M87,53.24c7.88,13,7.24,26.82,2.35,40.72C85.61,104.59,80,114.29,74.48,124c-5.27,9.33-10.56,18.62-14.75,28.52-10.79,25.42-5.43,47.65,13,67.38a65.47,65.47,0,0,0,15.24,12c3.53,2,3.69,1.93,4-2.06a107.18,107.18,0,0,1,19.15-52.73,108.45,108.45,0,0,1,23-23.94c2.05-1.58,2.29-3.05,1.81-5.38-5.11-25.07-2.15-48.66,13.63-69.57a92.68,92.68,0,0,1,36.94-29.65c27.46-12.09,56.46-4.25,74,20.09,12.46,17.31,17.07,36.85,15.19,58-.24,2.76,1,3.28,3,4.08,31.11,12.37,50.43,35.63,59.24,67.21,9,32.26-8.23,60.81-41.37,70.74-28.08,8.41-54.39,3.68-79.16-11.42a163.81,163.81,0,0,1-23.53-17.17c-1.7-1.5-2.94-1.87-5.15-.72-16.47,8.61-33.86,14.44-52.43,16.29A103.63,103.63,0,0,1,109.4,255c-1.74-.28-2.55-.32-2.29,1.81,2.79,23,10.29,43.87,27.14,60.47,11.83,11.65,26,18.84,42.69,20.16,9.29.73,18.15-1.05,25.9-6.59a128.58,128.58,0,0,1,59.43-23.55,102.59,102.59,0,0,1,51.32,6.64s12.05,5.1,18.47,9.49a108.71,108.71,0,0,1,23.3,19.93c1,0,.73-.47.68-.73-1-5.07,1-8.83,5.3-10,3.86-1,7.55,1.17,9.17,5.68,3.76,10.41,7.41,20.86,11.14,31.28.4,1.11.36,2.48,1.59,3.18V378c-3.17,4.79-5.84,6.18-10.1,4.73Q355,376.5,336.89,370c-4.37-1.58-6.29-5.56-5-9.52s5.47-6,10.05-4.66c1.87.55,3.7,1.27,5.55,1.91l.7-.88c-4.13-3.92-8.23-7.87-12.4-11.74a111.69,111.69,0,0,0-12.79-9.7c-7-4.92-18.88-8.83-18.88-8.83a77,77,0,0,0-22.42-4.71c-24.69-1.44-47.15,5.42-67.24,19.49-15.72,11-32.64,13.61-50.82,9.09-27.56-6.86-46.61-24.36-59.39-49.13a113.17,113.17,0,0,1-12.17-45.09c-.26-4-1.16-6.57-5.47-8.36-11.69-4.88-21.32-12.79-29.3-22.63-16.87-20.78-22.83-43.85-14.58-69.88,4-12.55,10.24-24,16.68-35.4,5.15-9.1,10.61-18,14.48-27.8,3.45-8.71,5.69-17.58,2.27-26.89,0,0-5-13.08-16.44-19.89C57.37,44,55.31,42.13,53,40.66A364.06,364.06,0,0,0,6.79,15.52C3.49,14,.48,12.39.05,8.3S2.17,1.93,5.23,0H9.72c7.12,3.51,14.34,6.84,21.34,10.57,14.4,7.66,28.83,15.32,41.42,25.82C72.48,36.39,79.57,41,87,53.24ZM270.68,257.65c3.48.19,9.28-.72,15-1.79a62.1,62.1,0,0,0,11.79-3.51c19-7.65,30.24-24.26,27.1-42.94-5-29.85-21.62-51.33-49.38-63.93-2.24-1-2.91-.35-3.51,1.72-3.84,13.18-10.38,25-18.24,36.17A176.29,176.29,0,0,1,208,227.83c-2.61,1.77-2.49,2.6-.16,4.36,4.78,3.6,9.54,7.22,14.64,10.37C236.52,251.23,251.3,257.73,270.68,257.65ZM148.89,127.72c-.23,3.07.37,6.77.75,10.48.43,4.09.43,4.08,4.05,2.22,32.45-16.61,66.68-21.75,102.6-15.93,4.6.75,4.72.84,4.79-3.57.26-15.59-3.12-30.22-12.47-43-11-15-25.59-22.68-44.35-19.06C172.81,65,148.88,94.82,148.89,127.72Zm108.73,14.49c0-1.87,0-1.88-2.19-2.37a114.85,114.85,0,0,0-23-2.48c-26.69-.45-51.88,5.25-75.29,18.34-2.45,1.37-2.8,2.61-1.84,5.16,8.17,21.7,21,40.36,36.88,57,1.23,1.29,2,1.21,3.44.29,25.45-16.9,45.85-38.25,58.45-66.44C255.53,148.47,256.59,145,257.62,142.21ZM141.39,167a2.9,2.9,0,0,0-.56.21c-22,18.11-32.78,41.71-34.27,69.89-.09,1.68.76,2.16,2.15,2.39a92.78,92.78,0,0,0,13.72,1.54c19.18.35,37.15-4.5,54.45-12.47,2.74-1.26,3-2,.85-4.2a185.12,185.12,0,0,1-26.89-37.14A202.86,202.86,0,0,1,141.39,167Z"/></g></g></svg>