<svg xmlns="http://www.w3.org/2000/svg" viewBox="0 0 410.86 411"><g id="Layer_2" data-name="Layer 2"><g id="Layer_1-2" data-name="Layer 1"><path d="M409.9,59.15A68.86,68.86,0,0,0,396.29,28c-2.33-3.05-5-4.22-8.05-3.56a7,7,0,0,0-5.59,5.82c-.67,3,1,5.27,2.41,7.24a56.9,56.9,0,0,1-11.46,79,55.45,55.45,0,0,1-45.08,10.35A56.86,56.86,0,0,1,283.63,63c3.47-22.12,19.9-40.69,40.9-46.19a57.58,57.58,0,0,1,35.89,1.84l.75.3a14.85,14.85,0,0,0,1.94.7c4.45,1.2,8.23-.44,9.66-4.18s-.41-7.59-4.58-9.46a69.39,69.39,0,0,0-42.27-4.66A71.26,71.26,0,0,0,281.78,112.8c2.09,2.9,2,4.11-.4,6.5-15.14,14.9-31,30.74-51.4,51.35-2,2-3.06,2.4-5.68.91A38,38,0,0,0,179.87,176c-1.61,1.42-4.94,0-6-.64L136,149.5s-4.25-3-3-5.2c8.56-15.07,11.22-30.92,7.91-47.11C134.62,66.61,115.66,47,86.05,40.34,57.68,34,33.56,42.78,14.35,66.41A62.84,62.84,0,0,0,5,82.39a69.68,69.68,0,0,0-5,26.5V116a34.33,34.33,0,0,0,.55,5.55c5.67,28.52,22,47.31,48.53,55.86s50.65,2.86,71.53-17c2-1.86,2.91-1.71,5-.28,14.73,10.21,28,19.27,40.54,27.69,2.44,1.63,2.85,2.76,2,5.48-4.73,14.58-1.69,28.16,8.8,39.25,10.33,10.93,23.58,14.7,38.32,10.89,2.52-.65,5,2.06,5.36,2.45.8,1.37,13.54,23.09,20,34l.38.63c1.29,2.19,2.08,3.51,2.1,4.2,0,.49-.48,1-1.71,2-.55.48-1.22,1.06-2,1.8a71.08,71.08,0,0,0-1.47,101.75C248.65,401.23,262,408,278.56,411L298,411l.1,0,.75-.19a14.51,14.51,0,0,1,1.49-.35c18.38-2.77,35.32-13.56,46.46-29.61,11.29-16.27,15.53-36.23,11.64-54.78a71.78,71.78,0,0,0-38.09-49.58,71,71,0,0,0-61.82-.89c-2.69,1.23-5.72-4.25-5.77-4.33L234.54,240.4c-.92-1.45-2.93-5.61-1.24-7.34a38.31,38.31,0,0,0,6-46.58c-1.38-2.44-1-3.47.91-5.35,19.81-19.64,36.13-36,51.36-51.39,2.33-2.36,3.53-2.75,6.48-.62,15.7,11.38,33.18,15.67,51.93,12.74A71.16,71.16,0,0,0,409.9,59.15ZM229.74,205.94a24.5,24.5,0,0,1-24.54,24.3h0a24.16,24.16,0,0,1-17.26-7.15,24.76,24.76,0,0,1-7.13-17.73,24.5,24.5,0,0,1,24.66-24.09h.13A24.5,24.5,0,0,1,229.74,205.94ZM127.49,111.41c-.32,30.39-26.13,54.92-57.64,54.92h-.54a54.62,54.62,0,0,1-38.88-17.09,56.35,56.35,0,0,1,41-95.9C103.2,53.7,127.84,79.21,127.49,111.41ZM231.85,339.9a56.84,56.84,0,0,1,56.7-56.4h0c31.05,0,56.3,25.44,56.29,56.68a56.44,56.44,0,0,1-16.54,40.23,55.83,55.83,0,0,1-39.74,16.33h-.09a56.15,56.15,0,0,1-40.07-16.53A57.17,57.17,0,0,1,231.85,339.9Z"/></g></g></svg>