<svg xmlns="http://www.w3.org/2000/svg" viewBox="0 0 383.57 383.53"><g id="Layer_2" data-name="Layer 2"><g id="Layer_1-2" data-name="Layer 1"><path d="M206.6,0h19.46c.72.19,1.43.4,2.16.57A56.89,56.89,0,0,1,269,73.48c-1.87,5.7-1.87,5.7,4.06,5.7q49.77,0,99.54,0c7.92,0,10.9,3,10.9,10.79q0,58.76,0,117.51a26.44,26.44,0,0,1-.51,6.69,7.64,7.64,0,0,1-10.66,5.45,29.64,29.64,0,0,1-6.62-4.19,35.92,35.92,0,0,0-22.33-7.22,39.31,39.31,0,0,0-28,66.73c14.39,14.68,36.91,16,53.35,2.93,3.23-2.57,6.45-4.25,10.59-2.3s4.28,5.58,4.27,9.49q-.09,44.54,0,89.07c0,7-2.42,9.38-9.46,9.38q-59.31,0-118.63,0a28.13,28.13,0,0,1-5.58-.41c-5.86-1.17-8.38-6.17-5.68-11.57a62.64,62.64,0,0,1,4.87-7.52c6.1-8.69,7.52-18.28,5.51-28.52C251.12,318,233.8,302,210.89,304.79c-21.75,2.61-37.87,24.4-33.63,45.91a43.21,43.21,0,0,0,9.05,19.05,8.41,8.41,0,0,1,1.13,9.16c-1.4,3.14-4,4.62-7.49,4.62h-92a7.87,7.87,0,0,1-7.19-3.91c-1.44-2.33-1.53-4.95-1.53-7.59q0-33.87,0-67.74c0-4.7-.11-4.69-4.63-3.22-21.83,7.1-41.06,2.58-57.6-13.22C8,279.32,2.88,268.62,0,256.75V237.29c.22-.85.43-1.69.65-2.53,8.81-33.37,41.76-51.17,74.44-40.21,3.9,1.31,4.08,1.2,4.08-3.19q0-49.4,0-98.8c0-10.83,2.58-13.37,13.55-13.38h67c4.35,0,4.28,0,2.86-4.05-6.68-19.1-4.21-36.86,8.18-53C179.87,10.32,192.11,3.28,206.6,0ZM307.11,96.09c-18.46,0-36.92,0-55.38,0-6.17,0-9.83-4.5-8.6-10.3.43-2,1.81-3.51,3-5.09,7.08-9.25,10.19-19.54,8.22-31.2a39.06,39.06,0,0,0-30.14-32.06A39.52,39.52,0,0,0,182.74,34c-8,12.09-9.91,30.71.64,44.19a37.07,37.07,0,0,1,3.5,5.3c3.36,6.3.29,12-6.82,12.51-4.59.36-9.2.68-13.81.65-21.57-.11-43.15-.37-64.72-.54-5.43,0-5.46,0-5.42,5.38q.28,42.09.62,84.18.09,12.72-.7,25.42c-.53,8.63-6.69,11.73-14,7C81,217.45,80,216.74,79,216c-7.3-5.67-15.53-8-24.78-7.75-23.59.56-42,23.57-37.11,46.68,6.3,29.63,39.87,41.8,63.66,23,3.21-2.53,6.45-4.4,10.59-2.41s4.79,5.55,4.78,9.71c-.08,25.57,0,51.14-.09,76.71,0,3.26.78,4.74,4.38,4.72,19.95-.13,39.91-.1,59.87,0,3,0,3.74-.64,2.61-3.62a55.43,55.43,0,0,1-3.08-27.91C164,305.78,192,284,220.38,287c32.69,3.43,62.65,37.49,47.92,76.1-1.18,3.1-.27,3.57,2.6,3.57q45.64-.11,91.3,0c3.15,0,4.48-1,4.46-4.28-.1-19.59,0-39.17-.06-58.75,0-3.86-.35-4.08-4.18-2.68a56.43,56.43,0,0,1-29.08,2.46c-29-4.83-51.34-36.74-45.86-65.59A56.8,56.8,0,0,1,362,194.4c4.51,1.52,4.59,1.49,4.59-3.26q0-45.09,0-90.18c0-4.7-.17-4.86-4.87-4.86Z"/></g></g></svg>