<svg xmlns="http://www.w3.org/2000/svg" viewBox="0 0 289.05 383.49"><g id="Layer_2" data-name="Layer 2"><g id="Layer_1-2" data-name="Layer 1"><path d="M131.74,383.49c-12.89-2.47-25-6.86-35.47-15a129.53,129.53,0,0,1-12.41-11.36C73.76,347,63.51,336.92,53.58,326.57A80.48,80.48,0,0,1,32.3,285.65c-1-5.3,1.2-9.18,6-10.36,3.94-1,8.43,1.81,9.35,6.57,3.15,16.41,12.06,29.23,23.94,40.5,9.49,9,18.6,18.44,27.83,27.74,11.77,11.84,26.16,17.92,42.65,18,16.1.05,30.16-5.86,41.64-17.45q25.56-25.78,51.18-51.5,16.6-16.74,33.14-33.54c4.63-4.67,6.19-10.22,4.27-16.46A13.79,13.79,0,0,0,252.38,241a54,54,0,0,0-5.23,3.6c-4,2.77-7.8,2.56-10.8-.58s-3.1-7.2,0-10.79c2.51-2.93,5.41-5.53,8-8.4,3.94-4.34,5.13-9.33,2.93-14.89a12.77,12.77,0,0,0-15.92-7.58,23.22,23.22,0,0,0-9.54,5.7c-1.88,1.83-3.63,3.8-5.62,5.49a7.81,7.81,0,0,1-11-11c2.29-2.63,4.9-5,7.32-7.49a15.55,15.55,0,0,0,3.94-15.92c-2.84-9.91-14.32-12.82-22.67-5.86-2.48,2.07-4.65,4.52-7,6.8-4.5,4.45-9.27,5-12.76,1.45s-2.83-8.42,1.55-12.83q26.88-27.09,53.8-54.16,18.19-18.33,36.32-36.72c3.34-3.37,5.9-7,5.93-12,0-6.29-2.8-10.82-8.37-13.44s-10.94-1.79-15.74,2a52.86,52.86,0,0,0-4.29,4.18L110.51,192.09C104,198.62,100.63,199,93,193.67c-10.76-7.52-16.94-18.49-21.83-30.22-3.21-7.69-5.68-15.7-8.67-23.5Q51.82,112.16,23,104.38a8.7,8.7,0,0,0-1.08-.3c-1.82-.27-4-1.15-5.3.43-1.18,1.4.39,3.07,1,4.47,6.14,14.32,13.45,28.11,19,42.69a202.62,202.62,0,0,1,12.73,56.68,36.88,36.88,0,0,1-.75,9.29,7.56,7.56,0,0,1-8,5.86c-3.84-.24-7.22-3-7.16-6.84.55-35-13.64-65.7-28.16-96.3C4,117.65,2.52,115,1.44,112.24-3.93,98.35,6.4,85.42,21.12,88c27.44,4.84,46.28,20.51,56.25,46.48,4,10.47,7.41,21.19,12.59,31.19a45.74,45.74,0,0,0,8.09,11.6c2,2,3.13,1.87,5.07-.1q33.22-33.72,66.61-67.28c21.17-21.35,42.4-42.63,63.48-64.07,8.52-8.66,18.51-12.66,30.48-10a30.33,30.33,0,0,1,18.42,47.12A51.28,51.28,0,0,1,276,90q-30.3,30.55-60.58,61.14c-3.39,3.41-3.3,3.27.67,5.57,9.91,5.74,16.08,14.07,16.8,25.76.18,2.86,1.55,3.05,3.79,3.24,15.91,1.33,28.09,14.58,27.73,29.88-.06,2.61-2.09,5.7-.61,7.52s4.75,1.73,7.14,2.73c19.37,8.16,24.22,33.8,9.37,49.9-4.74,5.13-9.81,9.94-14.73,14.9-21.43,21.62-43.14,43-64.17,65C187.64,370.08,172,380.5,152,383.49Z"/><path d="M64.35,7.48a7.35,7.35,0,0,1,7,4.11c7.48,13.63,15,27.25,22.3,41A7.83,7.83,0,1,1,80,60.15C72.34,46.45,64.78,32.72,57.5,18.84A7.59,7.59,0,0,1,64.35,7.48Z"/><path d="M184,7.48c6.29-.08,9.86,5.91,6.83,11.9-3.54,7-7.4,13.81-11.15,20.69-3.44,6.34-6.85,12.71-10.4,19-2.8,5-7.39,6.49-11.54,4.09-4-2.32-5-6.78-2.29-11.76,6.95-12.93,14-25.8,21-38.69C178.09,9.68,180.24,7.43,184,7.48Z"/><path d="M132,32.07c0,7.85,0,15.69,0,23.54,0,5.38-2.93,8.5-7.75,8.49s-7.69-3.16-7.7-8.54q0-23.54,0-47.07c0-5.37,2.94-8.5,7.75-8.49S132,3.15,132,8.54C132,16.38,132,24.23,132,32.07Z"/><path d="M46.31,249.46a7.91,7.91,0,1,1-8-8.1A8.18,8.18,0,0,1,46.31,249.46Z"/></g></g></svg>