<svg xmlns="http://www.w3.org/2000/svg" viewBox="0 0 383.27 362.31"><defs><style>.cls-1{fill:#73c26c;}</style></defs><g id="Layer_2" data-name="Layer 2"><g id="Layer_1-2" data-name="Layer 1"><path d="M0,351.84c2.52-4,6.17-5.33,10.78-5,3.85.24,7.73-.08,11.59.1,2.43.11,3.16-.66,3.18-3.13.08-8.47-.58-17,.54-25.42C31,281.18,50.69,255,84.81,239.59c.79-.35,1.59-.7,2.38-1.07.08,0,.1-.19.28-.54C67.36,224.47,56.06,205.85,56,181.23c0-18.64,6.93-34.56,20.39-47.39a65.85,65.85,0,0,1,94.64,4c25.73,28.94,21.85,76.8-15.25,100.35,1.73.78,3.25,1.42,4.73,2.12,32.25,15.33,51.27,40.52,56.6,75.92,1.34,8.94.7,17.93.71,26.9,0,3,.91,3.76,3.8,3.73,14.84-.13,29.69-.1,44.53,0a5.11,5.11,0,0,0,4.91-2.48Q315.24,278.14,359.53,212c.47-.7.83-1.47,1.27-2.25-1.49-1.09-3-.6-4.45-.6q-74.66,0-149.31,0c-1.25,0-2.5,0-3.74,0-4.71-.27-8-3.56-7.81-7.8.17-4.08,3.5-7.2,7.95-7.3,3.24-.08,6.49-.19,9.72,0,2.61.17,3.44-.64,3.36-3.3-.29-9.36-.08-18.72,2.42-27.83,6.24-22.83,19.94-39.51,41.29-49.84.56-.27,1.09-.58,2-1.09-16.39-12.75-24.3-29.2-21.88-49.87C242,48.76,248.12,37.68,258.3,29a52.47,52.47,0,0,1,72.29,4.23c19.07,20.45,20.27,57.48-8.35,78.81A76.09,76.09,0,0,1,349.4,132.1c12.49,14.63,18.48,31.65,18.43,50.85,0,.62,0,1.25,0,1.87.15,2.85-1.13,6.34.52,8.37s5.14.49,7.81.75a7.56,7.56,0,0,1,5.93,11.6c-2.29,3.85-4.92,7.5-7.42,11.23Q328,286.71,281.26,356.69a11.37,11.37,0,0,1-10.5,5.62q-130.23-.13-260.47,0c-4.56,0-7.95-1.33-10.29-5.23Zm122-5h47.87q15,0,29.93,0c1.71,0,3.13.09,3.08-2.43-.17-9.22.37-18.46-.85-27.64-4.9-37.08-35.53-66.24-73.16-69.69-37-3.4-72.26,19.82-84,55.12-4.4,13.19-4,26.73-4.17,40.3,0,3.33.74,4.44,4.29,4.42C70.64,346.78,96.32,346.85,122,346.85Zm50.25-165.11a50.58,50.58,0,1,0-50.74,50.4A50.52,50.52,0,0,0,172.25,181.74Zm119.81,12.19q28.62,0,57.23,0c1.42,0,3.39.78,3.33-2.05-.13-7.1.38-14.23-.9-21.27A60.43,60.43,0,0,0,237,156.32c-5,10.91-5.34,22.36-5.22,34,0,3,.88,3.69,3.76,3.67C254.41,193.86,273.24,193.93,292.06,193.93Zm.29-162.09c-20.07-.2-37,16.24-37.14,36.17-.2,21,15.89,37.55,36.63,37.72a37,37,0,0,0,37.44-36.66C329.54,48.77,312.94,32,292.35,31.84Z"/><path class="cls-1" d="M205,53.77c0,8.11.05,16.22,0,24.32-.06,7.42-5.54,10.76-12.18,7.41q-12.68-6.39-25.24-13a12.3,12.3,0,0,0-6-1.44q-25.81.07-51.64,0c-18.15,0-31.19-12.82-31.34-30.92,0-5.46-.59-11,.69-16.39C82.44,10.19,94,.36,107.92.21c22.58-.25,45.16-.32,67.73,0,16.29.24,29.11,13.66,29.36,30C205.13,38.05,205,45.91,205,53.77ZM141.67,15.51v0c-11.11,0-22.21-.13-33.31,0-7.51.12-12.84,4.88-14.37,12.24-.75,3.59-.35,7.22-.36,10.82,0,11.11,5.92,17,17.09,17.08,12.47,0,25,.63,37.41-.16,13.79-.87,26.43,1.43,37.91,9.27.2.14.45.22.66.35,2.49,1.67,3.06.68,3-1.93-.09-10.35,0-20.71-.05-31.06-.05-10.89-5.74-16.63-16.59-16.69C162.62,15.46,152.14,15.51,141.67,15.51Z"/></g></g></svg>