<svg xmlns="http://www.w3.org/2000/svg" viewBox="0 0 383.45 383.36"><defs><style>.cls-1{fill:#73c26c;}</style></defs><g id="Layer_2" data-name="Layer 2"><g id="Layer_1-2" data-name="Layer 1"><path d="M383.45,166.29c-1.46,7.55-1.79,15.28-3.74,22.77-16.11,62-54.93,102-117.17,116.81-50.17,11.91-95.72-.46-135.32-33.74-2.16-1.82-3.4-2-5.37.19-3.24,3.62-6.72,7-10.3,10.32-2,1.81-2.32,2.95-.12,4.92,3.71,3.32,7.15,6.95,10.62,10.53,3.87,4,4,7.89.12,11.79q-32.08,32.19-64.3,64.26c-5,5-11.38,7.36-18,9.22H28.64c-1.12-1.2-2.75-1-4.12-1.43C.39,374.54-8.26,344.35,9.2,326.15c21.15-22,43.05-43.38,64.69-65,3.61-3.6,7.56-3.52,11.24,0Q91,266.75,96.5,272.58c1.45,1.52,2.36,1.59,3.84,0,3.41-3.63,6.88-7.24,10.59-10.56,2.36-2.11,2.52-3.47.32-5.94a146.12,146.12,0,0,1-26.74-43.78c-9.77-24.83-13.25-50.52-9.56-77,7.19-51.62,33.89-90.27,78.91-116C181.09,3.76,210.81-2.37,242,.82c57.62,5.87,99.37,35.4,125.89,86.56,8.57,16.51,13.19,34.33,14.81,52.88.08,1-.07,2,.72,2.82ZM225.06,294.87A139.93,139.93,0,0,0,368.35,160.08c3-76.93-57.47-141.93-134.64-144.89-77.52-3-142.39,57.57-144.91,136.06C86.33,228.06,147,292.7,225.06,294.87ZM34.34,368.42A20.77,20.77,0,0,0,48.6,362.2q28-28.05,56.09-56c1.84-1.83,1.53-2.76-.12-4.38-7.57-7.41-15.1-14.87-22.45-22.49-2-2.11-3.15-2.08-5.2,0Q49.55,306.94,22,334.38a25.44,25.44,0,0,0-3.4,3.95c-4.17,6.37-4.63,13.09-1.05,19.8S27.09,368,34.34,368.42Z"/><path d="M340,155A111.5,111.5,0,1,1,228.47,43.55,111.35,111.35,0,0,1,340,155Zm-15,.14A96.63,96.63,0,0,0,228.8,58.53c-53.19-.19-96.74,43.18-96.8,96.41-.06,53,43.15,96.4,96.25,96.6S325,208.38,325,155.11Z"/><path class="cls-1" d="M220.25,166.11c0-4.25,0-8.5,0-12.74s2.81-6.91,7-7.07c9.37-.35,16.82-7.19,17.58-16.13A17.87,17.87,0,0,0,230.37,111c-10.35-2.2-20.72,6-21.08,16.61-.19,5.66-4.55,9.08-9.3,7.29a6.77,6.77,0,0,1-4.45-6.72c0-17.72,15.53-32.35,33.16-31.16,15.47,1,28.14,12.82,29.72,27.63a31.51,31.51,0,0,1-22.8,34.18c-1.41.41-1.76,1-1.74,2.32.06,5.76,0,11.52,0,17.28,0,4.4-2.84,7.45-6.85,7.44s-6.78-3-6.8-7.46C220.23,174.29,220.25,170.2,220.25,166.11Z"/><path class="cls-1" d="M227,213.18a6.82,6.82,0,1,1,6.89-6.88A6.75,6.75,0,0,1,227,213.18Z"/></g></g></svg>