<svg xmlns="http://www.w3.org/2000/svg" viewBox="0 0 245.71 408.79"><g id="Layer_2" data-name="Layer 2"><g id="Layer_1-2" data-name="Layer 1"><path d="M35,408.79c-6.49-1.88-12.88-3.94-18.34-8.19C5.39,391.82,0,380.24,0,366q0-19.76,0-39.52V81C0,68.11,0,55.2,0,42.29.15,20.84,13.86,4.37,34.84.47A39.66,39.66,0,0,1,42,0q80.83,0,161.68,0c23.6,0,41.64,17.8,41.93,41.48.16,12.78,0,25.55,0,38.32v249.1c0,12.11-.27,24.23.07,36.33.59,21.39-14.1,39.46-34,42.95a3.17,3.17,0,0,0-1,.6ZM229.06,204.38c0-39.38-.05-78.76.08-118.14,0-3.46-.79-4.43-4.35-4.43q-102,.16-203.95,0c-3.6,0-4.32,1-4.32,4.46q.15,118.13,0,236.27c0,3.46.78,4.44,4.35,4.43q102-.17,203.94,0c3.61,0,4.34-1,4.33-4.46C229,283.14,229.06,243.76,229.06,204.38ZM123,343.37c-34.2,0-68.39,0-102.59-.06-2.88,0-4,.58-3.84,3.69a146.63,146.63,0,0,1,0,17.16c-1.05,15.22,9.11,28.58,28.34,28.3,39.51-.58,79-.18,118.55-.18,13.44,0,26.88.14,40.32,0,15.12-.21,25.18-10.45,25.31-25.44,0-6.38-.22-12.78.1-19.15.18-3.6-.93-4.38-4.41-4.36C190.81,343.43,156.88,343.37,123,343.37Zm-.53-278h78.24c8.52,0,17,0,25.55,0,1.9,0,2.93-.31,2.89-2.58-.13-7.71,0-15.43-.14-23.15a21.34,21.34,0,0,0-2.5-9.57c-5.13-9.72-13.37-13.73-24.19-13.69-32.6.13-65.2.05-97.8.05-20.36,0-40.72.32-61.07-.1C26.48,16,15.89,28.68,16.55,43.29c.27,5.85.25,11.72,0,17.56-.17,3.54.73,4.67,4.51,4.65C54.83,65.34,88.63,65.41,122.42,65.41Z"/><path d="M130.89,368a8.07,8.07,0,1,1-8-8.21A8,8,0,0,1,130.89,368Z"/><path d="M123.1,32.73c5.17,0,10.34-.07,15.52,0,5,.09,8.61,3.41,8.78,7.91a8,8,0,0,1-7.56,8.18,263.09,263.09,0,0,1-34.16,0,7.92,7.92,0,0,1-7.42-8.29c.27-4.39,3.75-7.66,8.52-7.76C112.22,32.65,117.66,32.73,123.1,32.73Z"/></g></g></svg>