<svg xmlns="http://www.w3.org/2000/svg" viewBox="0 0 333.52 317.88"><g id="Layer_2" data-name="Layer 2"><g id="Layer_1-2" data-name="Layer 1"><path d="M163.2,317.88l-46.14,0c-16,0-30.73-.12-44.88-.29-3.21,0-5.85-1.3-7.25-3.45a6.44,6.44,0,0,1-.37-6.19c1.25-2.94,3.54-4.37,7-4.37,2.65,0,5.22,0,7.78,0H89.48c3.78,0,7.56,0,11.34.05h.25c2.63,0,4.27-.66,4.92-4,4-20.6,8.05-40.59,11.55-57.41.33-1.6.21-2.64-.39-3.37-.83-1-2.33-1-3.54-1h-.13q-21.47.06-42.94.06-15,0-30,0c-20.61,0-36.28-13.13-39.92-33.34a39.49,39.49,0,0,1-.4-6.9v-.37q0-23.49,0-47c.07-35.74.14-72.7-.25-109A41.51,41.51,0,0,1,11.8,11.68C19.36,4,29.37,0,40.75,0h.37c15.1.12,31.37.17,51.2.17q18.74,0,37.46,0t37.45,0h71.21q26.9,0,53.77,0h.11c16.39,0,28.2,6.48,36.1,19.79a37.71,37.71,0,0,1,5.1,19.84q0,44.34,0,88.69,0,34.8,0,69.6c0,22.57-17,39.69-39.6,39.82-10.07,0-20.61.08-31.33.08-13.25,0-26.87,0-41.63-.12h-.16c-1.91,0-3.25.19-4.05,1.17s-.71,2.47-.31,4.37c3.46,16.24,6.94,33.61,11.31,56.32.56,2.92,1.81,4,4.61,4h.18c4-.06,8.26-.08,13.52-.08h9.33l5.94,0c5.07,0,8.38,2.71,8.45,6.88a6.45,6.45,0,0,1-1.82,4.69,9,9,0,0,1-6.45,2.41c-19.66.17-37.4.26-54.24.29Zm-27.2-80c-2.44,0-3.53.95-4,3.48-4,20.27-8.15,40.75-11.7,58.12a3.74,3.74,0,0,0,.37,3.16,3.78,3.78,0,0,0,3.07,1h.1c6.15,0,12.72-.06,21.3-.06h43.08c8.73,0,15.39,0,21.61.06h.1a3.85,3.85,0,0,0,3.14-1,3.69,3.69,0,0,0,.38-3.1c-3.28-16.06-7.59-37.23-11.76-58.49-.51-2.61-1.94-3.15-3.92-3.15l-30.22,0q-15.75,0-31.49,0Zm-118.86-48a2.88,2.88,0,0,0-2.17.77A3.08,3.08,0,0,0,14.2,193c0,.72,0,1.44,0,2.17a38.14,38.14,0,0,0,.78,9.6c2.89,11.4,12.54,18.77,24.58,18.78l58.62,0H294.43a22.74,22.74,0,0,0,5.29-.48c12.72-3,19.74-12.54,19.75-26.9,0-.52,0-1,0-1.43,0-2.36,0-3.44-.72-4.19a3.22,3.22,0,0,0-2.44-.68l-1.08,0-1.84,0H18.45c-.29,0-.58,0-.87,0ZM41.36,14.11c-16.72,0-27.13,10.37-27.14,27.06q0,24.21,0,48.4c0,26.58,0,54.06-.08,81.09,0,1.4.13,3,1.12,4s2.52,1.12,4,1.12c32.13-.07,64.52-.08,92-.08H221.94c27.69,0,60.35,0,92.64.07h0c1.46,0,2.91-.13,3.88-1.1a5.27,5.27,0,0,0,1.09-3.82c-.06-24.87-.06-50.15-.06-74.6q0-27.63,0-55.25c0-16.56-10.36-26.85-27-26.85H41.36Z"/></g></g></svg>