<svg xmlns="http://www.w3.org/2000/svg" viewBox="0 0 343.44 356.04"><defs><style>.cls-1{fill:#73c26c;}</style></defs><g id="Layer_2" data-name="Layer 2"><g id="Layer_1-2" data-name="Layer 1"><path d="M0,133.93A134.13,134.13,0,0,1,102.06,3.85C175.67-14.18,250.14,33,265,107.34c6.38,31.93,1.75,62.44-13.92,91.1-1.21,2.2-1.23,3.5.7,5.34,6.32,6,12.46,12.24,18.54,18.5,1.59,1.64,2.5,2,4.35.17,4.42-4.38,8.08-4.2,12.56.25q10.37,10.28,20.64,20.63c4.56,4.59,4.73,8.23.2,12.83-1.82,1.84-1.16,2.7.28,4.12,8.51,8.43,17.11,16.77,25.37,25.43a34.26,34.26,0,0,1-16.41,57.21c-12.64,3.23-23.67-.3-32.92-9.28-8.23-8-16.3-16.16-24.33-24.35-1.77-1.81-2.79-2.48-4.92-.24-3.84,4-7.79,3.94-11.73.06q-11.05-10.89-22-21.95c-3.66-3.73-3.73-7.79,0-11.52,2-2,2-3,0-5q-9.47-9.06-18.53-18.51c-1.68-1.74-2.9-1.92-5-.74-20.51,11.26-42.55,17.17-65.91,16.26-55.8-2.19-95.9-29-120.25-79.05C3.39,171.5,0,153,0,133.93ZM133.83,15.26A118.59,118.59,0,0,0,15.15,133.86c0,65.67,53.27,119,118.84,119,65.39-.07,118.5-53.35,118.56-118.94A118.65,118.65,0,0,0,133.83,15.26Zm194.4,296.38c0-7.15-1.41-11.38-5.13-15.2-8.52-8.74-17.21-17.3-25.8-26-1.16-1.17-2-1.52-3.32-.16q-12.08,12.24-24.3,24.31c-1.15,1.13-1.22,1.85-.05,3,9,8.92,17.8,18.14,27.11,26.76,5.81,5.37,13.06,6,20.24,2.72C324.36,323.76,328,317.7,328.23,311.64ZM234.8,262c.36-.3.85-.65,1.28-1.08,8.11-8.1,16.18-16.23,24.34-24.27,1.44-1.42.87-2.18-.25-3.28-5.75-5.7-11.5-11.4-17.16-17.19-1.45-1.49-2.29-1.72-3.69.11a123,123,0,0,1-23.47,23.4c-1.86,1.41-2,2.26-.27,3.93,5.74,5.53,11.31,11.24,17,16.86C233.13,261.05,233.6,261.87,234.8,262Zm14.57,31.49c.57-.5,1.06-.87,1.49-1.3q20.38-20.37,40.77-40.73c1.13-1.13,1.25-1.87.05-3-3.15-3-6.26-6.09-9.25-9.26-1.27-1.35-2-1.21-3.28,0Q259,259.5,238.67,279.68c-1.21,1.21-1.44,2-.08,3.33,3.16,3,6.19,6.15,9.29,9.23C248.3,292.66,248.8,293,249.37,293.47Z"/><path d="M102,326.08H97.34c-23.32,0-46.64,0-70,0-13.07,0-22.47-8.51-23.67-21.16-1-11,7.61-22,18.57-23.55a44.74,44.74,0,0,1,6.34-.45q53.68,0,107.37,0c12.24,0,20.64,5.64,23.88,15.93,1.06,3.37,1.72,6.82.65,10.29-1,3.29.29,3.81,3.34,3.78q24-.21,47.89,0c11.12.06,19.38,5.59,22.73,15,5.37,15-5.64,30.1-22.2,30.16-27.56.1-55.12,0-82.68,0-2.37,0-4.75.1-7.1-.08-14-1.07-23.23-12.71-21.13-26.62C101.52,328.35,101.72,327.4,102,326.08ZM82.64,296.13H58.33c-10.72,0-21.45,0-32.17.05a7,7,0,0,0-7.28,6.92c-.16,4.26,2.55,7.26,7,7.64,1.24.11,2.5.08,3.74.08H135.06a33.5,33.5,0,0,0,4.48-.18,7.19,7.19,0,0,0,5.64-10.12c-1.52-3.35-4.33-4.43-7.92-4.42C119.05,296.18,100.85,296.14,82.64,296.13Zm85.78,29.95c-14.71,0-29.42,0-44.14,0-5,0-8.08,2.84-8.1,7.26s2.88,7.35,7.64,7.36q44.51.1,89,0A7.57,7.57,0,0,0,218,339a7.08,7.08,0,0,0,2.13-8.15c-1.12-3.23-3.7-4.82-7.24-4.81Q190.67,326.12,168.42,326.08Z"/><path d="M325.74,97.84c0,10.1-.08,20.2.05,30.29,0,2.63-.77,3.54-3.39,3.38a91.11,91.11,0,0,0-9.35,0c-2,.07-2.61-.71-2.61-2.62q.06-31.23,0-62.46c0-1.94.7-2.68,2.62-2.62,3.12.09,6.25.16,9.35,0,2.62-.16,3.41.79,3.38,3.4C325.66,77.39,325.74,87.61,325.74,97.84Z"/><path d="M325.73,26.62c0,4-.08,8,0,12,.06,2.15-.46,3.23-2.88,3.1-3.23-.17-6.48-.15-9.71,0-2.2.1-2.81-.86-2.74-2.87.1-2.74-.17-5.5.07-8.21.27-3-.62-4.11-3.85-4-7.58.25-15.18,0-22.78.13-2.59.05-3.57-.72-3.4-3.36.19-3.1.11-6.22,0-9.33-.06-1.93.67-2.64,2.61-2.63q20,.07,40,0c2.2,0,2.75.91,2.7,2.92C325.66,18.4,325.73,22.51,325.73,26.62Z"/><path d="M303.28,52.9c0,5.23-.09,10.47,0,15.7.06,2.25-.64,3.13-3,3-3.23-.17-6.48-.12-9.71,0-1.93.07-2.71-.62-2.65-2.57.08-3.24-.09-6.48.05-9.72.09-2.14-.73-2.83-2.81-2.74-3.11.14-6.23-.06-9.34.07-2.06.08-3.09-.57-2.86-2.73,0-.25,0-.5,0-.75.16-3.72-1.5-8.43.61-10.89s7.05-.79,10.72-.84c2.58,0,4.15-.47,3.63-3.45-.56-3.28.75-4.51,4.09-4.17a55,55,0,0,0,8.22,0c2.24-.11,3.08.67,3,3C303.18,42.18,303.28,47.54,303.28,52.9Z"/><path class="cls-1" d="M134,72.08c34.5.18,61.83,28,61.66,62.76-.16,33.65-28.36,61.3-62.28,61a61.91,61.91,0,0,1-61.27-62.41C72.36,99.42,100.09,71.9,134,72.08Zm8,108.14c13.84-1.34,27.92-11.33,35.7-30,1.14-2.75.94-3.87-2.53-3.82-13,.17-25.94,0-38.91.11a12.22,12.22,0,0,1-9.06-3.54c-10.43-9.85-21.07-19.47-31.44-29.37-2.59-2.46-3.3-1.52-4.45,1.07A47.54,47.54,0,0,0,87.78,142C91.35,164.53,113,182.07,142,180.22Zm-.51-70.64c0,6.1.07,12.21,0,18.31,0,2.25.4,3.36,3,3.33,11.09-.12,22.18-.08,33.27,0,2.12,0,2.67-.55,2.47-2.8-1.63-18.56-17.17-36-35.73-40-2.42-.52-3.08.13-3,2.49C141.55,97.11,141.48,103.35,141.47,109.58Zm-15.28,11.77c0-11.12,0-21.2,0-31.28,0-1.77-.76-2.18-2.29-1.82A48.52,48.52,0,0,0,104,98c-1.09.9-1.34,1.57-.17,2.65C111,107.28,118.22,114,126.19,121.35Z"/><path d="M232.86,134.67c-1.24,34-15.38,61.62-44,81.45-5,3.44-9.46,3-12.1-1s-1.38-8,3.7-11.59c26.51-18.6,38.74-44.3,36.75-76.39-2.31-37.17-31.15-68.92-67.74-75.6-44.44-8.12-87.06,19.32-97.17,63.35-6.48,28.22.34,53.56,19.53,75.41,1,1.13,2.09,2.16,3,3.32a7.46,7.46,0,0,1-.57,10.44,7.32,7.32,0,0,1-10.44-.3,94,94,0,0,1-18-24.65C15.88,120.24,50.05,49.94,115,36.78,168,26.05,221,61.93,230.92,115.21A156.94,156.94,0,0,1,232.86,134.67Z"/></g></g></svg>