<svg xmlns="http://www.w3.org/2000/svg" viewBox="0 0 409.33 409.16"><g id="Layer_2" data-name="Layer 2"><g id="Layer_1-2" data-name="Layer 1"><path d="M397.3,409.11c-2.08-1.85-4.27-3.59-6.24-5.56q-58.46-58.4-116.87-116.83c-3.86-3.86-3.88-3.88-8.19-.27a158.26,158.26,0,0,1-76.1,35.47Q130.56,332.09,78.78,301c-29.94-17.95-51.7-43.22-65.62-75.07A154.83,154.83,0,0,1,1,146C6.45,95.66,30.6,56.2,72,27.51A152.17,152.17,0,0,1,145.82.79c50.77-4.62,94.58,11,130.81,46.53,26.7,26.16,42.38,58.32,46.7,95.62,4.94,42.75-5.93,81.38-31.17,116.09a89.31,89.31,0,0,1-6.84,8.31c-2,2.19-1.61,3.62.41,5.6,10.16,10,20.17,20.09,30.24,30.16q44,44,88,88.07c1.86,1.87,3.51,4,5.26,6,0,3.46-.09,6.92.05,10.38.05,1.39-.25,1.69-1.65,1.64C404.23,409,400.76,409.11,397.3,409.11ZM18.21,161.92c-.33,77.3,61.49,144.23,143.89,144.37,80.2.14,144.44-63.63,144.36-144.34C306.39,80,239.93,18.06,162.52,18A144.06,144.06,0,0,0,18.21,161.92Z"/></g></g></svg>