<?xml version="1.0" encoding="utf-8"?>
<!-- Generator: Adobe Illustrator 25.0.1, SVG Export Plug-In . SVG Version: 6.00 Build 0)  -->
<svg version="1.1" id="Layer_1" xmlns="http://www.w3.org/2000/svg" xmlns:xlink="http://www.w3.org/1999/xlink" x="0px" y="0px"
	 viewBox="0 0 370.4 319.4" style="enable-background:new 0 0 370.4 319.4;" xml:space="preserve">
<style type="text/css">
	.st0{fill:#FF8000;}
</style>
<g id="Layer_2_1_">
	<g id="Layer_1-2">
		<path d="M259,247.8c-21.7-0.3-43.5-16.4-50.2-37c-1.9-5.9-3.9-11.9-5.6-17.9c-0.8-2.7-1.7-2.9-3.8-1.2
			c-8.7,6.9-17.5,13.7-26.2,20.5c-4.9,3.8-7.4,3.8-12.5,0.5c-18-11.8-20.4-28.1-6.8-44.8c3.2-3.9,6.8-7.3,10.8-10.4
			c1.8-1.2,2.8-3.3,2.6-5.4c-0.4-4.5-0.6-9-0.8-13.5c-0.1-1.5-0.8-2.9-2-3.8c-5.3-4.8-10.6-9.4-16.3-13.8c-2.9-2.3-6.7-3-10.2-1.9
			c-7.1,2-13.8,5.2-20.4,8.3c-2.9,1.3-3.9,3.8-3.3,7.1c1.6,9.5,6.1,17.6,10.8,25.8c7.1,11.8,9.7,25.7,7.4,39.3
			c-0.1,0.9-0.4,1.7-0.7,2.5c-5,18.5-20.4,20.6-33.4,11.5c-3.4-2.4-6.3-5.4-8.5-8.9c-21.6-31.8-43.1-63.8-64.8-95.5
			c-5.4-8-6.1-17-7.5-26c-0.6-3.7-1.1-7.4-1.7-11.1c-0.5-3-1.8-5.7-3.8-8C8.6,60.3,5.2,56.5,2,52.4c-3-3.8-2.6-8.6,0.7-11.5
			c3.5-3.1,8.2-2.8,11.6,1c4.2,4.7,8.2,9.4,12,14.3c4.2,5.4,5.4,12,6.3,18.6c0.8,5.7,1.6,11.4,2.5,17c0.4,2.9,1.5,5.6,3.2,7.9
			c21.8,32,43.5,64,65.2,96.1c2.3,3.3,5.3,7.2,9.5,5.9c3.9-1.2,3.7-6.1,3.8-9.8c0.3-8.5-1.9-17-6.4-24.3c-5.8-9.8-10.7-20-12.6-31.5
			c-1.5-9.3,3.4-19.4,11.9-23.3c7.5-3.4,14.9-7,22.9-9.3c9.1-2.6,17.4-1.6,25.1,4.3c16.7,12.8,31.8,27.3,46.4,42.4
			c4,4.2,5.8,10.1,7.6,15.7c4.2,13.1,8.3,26.2,12.4,39.3c4.3,13.4,14.5,20.4,27.2,24.5c2.2,0.7,2.7-0.1,2.2-2.2
			c-5.2-20.7-9.9-41.6-15.7-62.1c-2.4-8.5-7.3-16.4-11.1-24.5c-8.1-17.4-16.3-34.7-24.5-52.1c-2.9-6.5-7.8-12-14-15.6
			C156.4,54.5,124.7,35.5,93,16.5c-1.3-0.7-2.5-1.6-3.7-2.6c-2.8-2.7-3.3-7-1.1-10.3c2.1-3.3,6.3-4.6,9.8-2.9c4,2,7.8,4.4,11.7,6.7
			c28.9,17.3,57.8,34.6,86.7,51.9c8.9,5.2,16,13,20.2,22.4c10.9,23.3,21.6,46.7,32.9,69.8c5,10.2,6.9,21.1,9.7,31.8
			c4.2,16.2,8.1,32.5,12.1,48.7C274,242.9,270,247.9,259,247.8z M183.2,153.2c2.7,8.7-2.1,12.5-7.4,16.4s-10.1,8.5-13.1,14.6
			c-1.9,3.2-1.5,7.3,1,10.1c1.7,2.1,3.2,2.3,5.3,0.6c8.6-6.8,17.2-13.6,25.9-20.2c1.4-0.8,1.9-2.4,1.3-3.8
			C193.9,164.1,190.5,158.1,183.2,153.2z"/>
		<path d="M102.5,279.6c18.7,0,37.5,0.6,56.1-0.2c18.3-0.8,35,3.3,51.2,11.5c10,5.1,20.6,9.1,31.7,10.9c16.9,2.8,33-0.3,48.6-7
			c8.7-3.8,17.2-8,26.1-11.3c7.5-2.7,15.5-4.1,23.5-4c7.2,0,14.5-0.1,21.7,0c5.4,0.1,8.8,3.1,9.1,7.5c0.4,5.3-3,8.9-9.1,9
			s-12.2,0.4-18.3,0c-11.4-0.8-21.7,2.3-31.7,7.1c-12.1,5.7-24.2,11.2-37.4,14c-22.2,4.8-43.3,0.8-63.8-8.3
			c-7.1-3.1-14.1-6.3-21.2-9.3c-5.8-2.4-12-3.6-18.2-3.5c-45.5,0.1-91.1,0.1-136.6,0c-2.1,0.2-4.2,0-6.3-0.6
			c-3.5-1.1-5.8-4.3-5.8-7.9c0.1-3.6,2.6-6.7,6.1-7.6c1.9-0.5,3.9-0.6,5.9-0.5L102.5,279.6z"/>
		<path class="st0" d="M103.6,241.2c22,0,43.9,0.1,65.9,0c13.3,0,26.4,3,38.3,8.8c9.9,4.6,19.4,10.3,30.3,12.5
			c20.3,4.1,39.7,2,57.6-9.1c8.9-5.5,18-10.7,28.5-11.6c13.2-1.1,26.4-1.8,39.6-0.4c4.2,0.4,6.9,4.1,6.6,8.6s-3.5,7.4-8.3,7.4
			c-7.9,0.1-15.7,0.3-23.6-0.1c-12.3-0.6-23.3,2.8-33.6,9.5c-10.2,6.7-21.9,11.1-34,12.8c-19,2.6-37.3,0.9-54.8-7.5
			c-6.5-3.1-13-6.3-19.7-9.2c-8.6-3.7-17.9-5.6-27.3-5.5H33c-7.1,0-11.1-3-11-8.2s3.8-8,10.9-8L103.6,241.2z"/>
	</g>
</g>
</svg>
