<?xml version="1.0" encoding="utf-8"?>
<!-- Generator: Adobe Illustrator 25.0.1, SVG Export Plug-In . SVG Version: 6.00 Build 0)  -->
<svg version="1.1" id="Layer_1" xmlns="http://www.w3.org/2000/svg" xmlns:xlink="http://www.w3.org/1999/xlink" x="0px" y="0px"
	 viewBox="0 0 383.6 359.8" style="enable-background:new 0 0 383.6 359.8;" xml:space="preserve">
<style type="text/css">
	.st0{fill:#FF8000;}
</style>
<g id="Layer_2_1_">
	<g id="Layer_1-2">
		<path d="M0,122c3.6-11.5,11.1-18.4,23.3-19.6c2.4-0.2,2.6-1.9,3.2-3.5c4-11.5,12-18.6,24-20.6c14.2-2.4,28.2,5.8,32.8,19.5
			c1.2,3.6,2.8,5.8,6.5,7.3c5.3,2.1,5.2,2.4,9.5-1.8c21.9-21.1,48.3-32.8,78.1-37c20.7-3.1,41.8-1.4,61.7,5
			c19.3,6.2,35.9,16.7,49.1,32.2c1.7,2,3.1,2.8,5.6,1.2c3.4-2.2,8.4-1,11.2-3.5s2.8-7.1,5.1-10.2c6.9-9.4,16.1-14.3,27.7-13
			c12.8,1.4,21.6,8.6,25.7,20.9c0.7,2.6,2.6,4.7,5.2,5.6c12.6,5.5,18.4,20.2,13,32.8c-3.6,8.3-11.3,14-20.3,14.9
			c-2.7,0.3-5.5,0.4-8.2,0.5c-12.1,0.1-24.2,0-36.3,0c-5.1,0-5.2,0-4.4,5.1c4.4,29.3-4.5,55-21.2,78.6c-4,5.6-7.8,11.3-11.9,16.8
			c-14.6,19.9-17.2,41.6-9.9,64.7c1.6,5.6,3.6,11.2,5.9,16.6c5.4,11.7-2.8,25.3-16.9,25.2h-1.9c-35.6,0-71.1,0-106.7,0
			c-2,0-4-0.1-6-0.4c-7.6-1.1-12.4-5.5-14.5-12.8c-1.5-5-2.7-10.1-3.7-15.3c-0.6-3.6-2.4-4-5.4-3.4c-8.8,1.7-17.8,2.5-26.8,2.2
			c-3-0.1-6-0.4-8.9-1.1c-14.1-3.3-20.7-13.8-17.9-28.4c0.1-0.4,0.2-0.7,0.3-1.1c1.6-4.5,1.7-8.4-2.3-12.4
			c-3.6-3.5-3.7-8.6-1.7-13.4c0.7-1.3,0.6-3-0.5-4.1c-1.5-1.9-2.9-4.1-2.7-6.4c0.2-3.6-1.6-4.5-4.6-5.4c-10.4-3-14.5-11.1-11.1-21.6
			c1.4-4.1,3.5-8,6.2-11.5c3.9-5.1,7.5-10.3,10.8-15.8c5.6-9.1,8.4-19.6,8.3-30.3c0-7.5-0.2-15,1.6-22.4c0.7-3-0.4-3.7-3.2-3.6
			c-13.5,0.1-26.9,0-40.4,0c-9.8,0-18.1-3.2-23.8-11.7c-1.6-2.4-2.4-5.2-3.6-7.8V122z M202.8,346.8h53.9c7,0,8.5-2.2,6.1-8.7
			c-1.9-4.9-3.7-9.8-5.2-14.9c-4-13-6-26.3-4.2-39.9c1.8-14.3,8.1-26.6,16.2-38.3c6.6-9.6,13.7-18.7,19.4-28.9
			c10.2-18.6,14.2-38.2,10.4-59.3c-0.6-3.2-1.6-5.2-4.9-6.6c-12.1-5.2-17.6-18-13.5-30.8c0.9-2.2,0.4-4.7-1.3-6.4
			c-10-12.1-22.9-21.4-37.6-27c-32.2-12.3-64.3-10.6-96,2c-14.8,5.8-28.2,14.7-39.3,26.1c-2.5,2.6-4,5-3.2,9.2
			c2.3,11.7-3.8,22.5-15,27.2c-2.3,0.9-4,2.9-4.3,5.4c-1.8,8.8-2.5,17.8-2.2,26.8c0,8.5-1.9,17-5.6,24.6
			c-4.2,8.7-9.3,16.8-15.2,24.4c-2,2.6-3.6,5.4-4.8,8.4c-1.2,3.1-0.2,4.9,3,5.4c3.3,0.5,6.7,1,10,1.3c3.1,0.2,5.7,1.1,6.9,4.2
			s0,5.4-2.1,7.4s-1.5,3.7,0.7,5.1c0.8,0.5,1.8,0.9,2.7,1.4c5.2,2.7,5.5,8.4,0.6,11.6c-3.7,2.5-3.6,3.5,0.4,5.7
			c5.1,2.7,6,5.2,3.9,10.7c-1.4,3.6-2.5,7.3-3.2,11.1c-1.1,6.5,1.2,10.4,7.7,12c4.5,1.2,9.1,1.5,13.7,1.2c8.7-0.7,17.3-2,25.9-3.5
			c6.1-1.1,8.4,0.6,9.9,6.7c1.6,6.7,3.2,13.4,4.8,20c1.4,5.7,2.1,6.3,7.9,6.3L202.8,346.8z M331.4,139.8c9.1,0,18.2,0.1,27.3,0
			c6.1-0.1,10.6-4.1,11.9-10c1.1-5.3-1.6-10.7-6.4-13.1c-5-2.6-10-1.5-15.2,3.4c-3.1,2.9-6.8,3.2-9.4,0.8c-2.8-2.6-2.9-6.3,0-9.7
			c2.3-3,5.4-5.2,8.9-6.6c2.9-1,2.7-2.5,1.5-4.7c-3.5-6.6-10.9-10.1-18.2-8.9c-7.6,1.5-13.8,7.6-13.9,15.5c-0.1,7-4.2,9.3-10.4,9
			c-2.6-0.2-5.2-0.3-7.7,0.8c-6.3,2.5-9.3,9.7-6.7,15.9c1.9,4.7,6.4,7.7,11.5,7.6C313.4,139.9,322.4,139.8,331.4,139.8L331.4,139.8z
			 M51.7,139.8c9,0,18,0.1,26.9,0c6.8,0,12.4-5.5,12.4-12.3c0-0.3,0-0.5,0-0.8c-0.5-7.2-6.7-12-14.1-11.2c-3.3,0.3-5.7,2.3-7.9,4.6
			c-2.7,2.8-6.5,3.1-9.1,1c-2.9-2.4-3.1-5.9-0.5-9.3c2.2-3.1,5.3-5.4,8.8-6.8c3.4-1.3,3.3-2.9,1.8-5.6C66.3,93,59,89.7,51.8,91
			c-7.2,1.5-12.7,7.4-13.5,14.7c-0.9,8.3-2.4,9.6-10.9,9.7c-2.4,0-4.7-0.2-7,0.7c-5.2,2.1-8.6,7.5-7.8,12.7
			c1,6.4,5.8,10.8,12.3,10.9C33.8,139.9,42.8,139.8,51.7,139.8L51.7,139.8z"/>
		<path d="M308.6,32.3c0.1,1.8-0.4,3.6-1.4,5.2c-5.9,10.3-11.8,20.5-17.8,30.8c-0.8,1.7-2.2,3.1-3.9,3.9c-2.3,1.1-5.1,0.5-6.9-1.4
			c-2.1-1.8-2.6-4.8-1.2-7.2c2.4-4.4,4.9-8.7,7.3-13c3.8-6.7,7.7-13.4,11.6-20.1c1.7-2.8,4.2-4.3,7.5-3.3
			C306.4,27.8,308.2,29.8,308.6,32.3z"/>
		<path d="M237.9,49c0.2-0.9,0.6-2.6,1-4.3c2.8-10.6,5.6-21.2,8.6-31.7c1.3-4.9,4.4-6.9,8.4-5.7c3.5,1,5.1,4.4,4,8.8
			c-3.1,11.7-6.2,23.3-9.4,35c-0.3,1.7-1.3,3.3-2.7,4.3c-2,1.4-4.6,1.6-6.7,0.3C238.8,54.4,237.7,52.4,237.9,49z"/>
		<path d="M166.4,49.9c0.1,3.5-1.8,5.8-5,6.4c-3.2,0.8-6.4-1.2-7.3-4.4c-1.3-4.2-2.3-8.4-3.5-12.6c-2.1-7.8-4.3-15.6-6.3-23.5
			c-1.2-4.6,0.7-8.1,4.5-8.8c3.4-0.6,6.2,0.6,7.2,3.9c3.6,12.7,6.9,25.5,10.3,38.2C166.4,49.4,166.4,49.7,166.4,49.9z"/>
		<path d="M102,26.8c2.4,0.1,4.6,1.5,5.8,3.6c6.2,10.8,12.5,21.6,18.6,32.4c2,3.6,1,7.3-2.2,9.1s-6.7,0.9-8.7-2.6
			c-6.4-10.9-12.8-21.9-19-33c-1.7-3.1-0.6-7,2.5-8.7C100,27.1,101,26.9,102,26.8z"/>
		<path d="M208.4,25.8c0,6,0.1,12,0,18c-0.1,4.5-2.5,7.3-6.3,7.2s-6.2-2.8-6.2-7.3c0-12.1,0-24.2,0-36.4c0-4.5,2.6-7.2,6.3-7.2
			s6.1,2.8,6.1,7.4C208.4,13.5,208.4,19.6,208.4,25.8z"/>
		<path d="M270.5,145.9c0,0.2,0,0.5,0,0.8c-0.9,4.9,0.6,8.9,3.2,13.2c6.8,11.5,4.1,25.9-6.1,35.1c-1.7,1.4-3,3.3-3.6,5.5
			c-1.2,4.5-3.6,8.6-7,11.8c-2,1.9-2.4,3.7-1.6,6.3c2.7,9.6,4,19.3,2.4,29.3c-0.9,5.7-4.2,8.5-9.9,8.7c-2,0.1-4,0.1-6,0
			c-4.8-0.3-8.6-3.2-9.1-8c-1-10.2-6.8-16.9-14.4-23.1c-4.8-3.9-8.7-4.9-15.1-3c-19,5.7-36,1.6-49.5-13.7c-0.9-1.2-2.4-1.7-3.9-1.5
			c-21.9,1.4-40.6-13.9-41.7-35.8c-0.4-9-1.2-17.8-1.8-26.7c-1.5-22.3,15.6-39.7,38.1-40.1c2.4,0.1,4.6-0.9,6.1-2.7
			c11.1-12,27.3-14.2,41.1-5.5c1.8,1.3,4.2,1.5,6.2,0.4c13.2-6,28.8-2.3,37.8,9.1c1.4,1.8,3.3,3,5.4,3.5
			C258.7,113.9,270.5,128.6,270.5,145.9z M245.1,241.9c0.3-3.7,0.3-7.5-0.2-11.2c-1.2-8.4-4-16.5-8.4-23.9c-2.2-3.7-1.3-7.4,1.7-9.2
			s6.5-1.1,8.8,2.1c1.7,2.3,2.6,1.9,3.5-0.3c0.7-1.2,1.1-2.5,1.4-3.8c0.3-4.2,2.5-7,5.9-9.4c5.7-3.9,8.1-11.1,5.9-17.6
			c-2.1-6.6-8.5-11.3-16.2-11.9c-5.1-0.4-7.9-3.2-7.4-7.4c0.5-3.9,4-6.1,8.8-5.5c1.1,0.1,2.2,0.3,3.3,0.5c6.3,1.1,6.6,0.8,4.4-5.5
			c-3.3-9.7-10.3-15.4-20.2-17.4c-3.7-0.8-7-1.5-9.3-5.3c-6-10-18-12.2-27.6-5.6c-5.4,3.7-7.1,3.7-11.6-0.8
			c-5.6-5.6-12.3-6.6-19.7-4.7c-1.8,0.5-4.2,0.9-4.6,2.7c-0.3,1.6,2.3,1.8,3.6,2.7c4,2.6,5.4,6,3.5,9.4s-5.8,4.2-10.1,1.6
			c-6.2-3.8-13.7-5.1-20.8-3.7c-17.8,3.4-26.7,23.1-16.8,37.8c2.6,3.7,6.1,6.7,10.1,8.7c4.2,2.3,5.4,5.8,3.5,9.3
			c-1.8,3.2-5.3,4-9.4,2c-2-1-3.8-2.1-5.9-3.2c0.9,11,9.7,19.6,21.6,21.8c3.2,0.6,4.6,0.3,4.4-3.4c-0.2-4.7,1.8-7.1,5.6-7.3
			c4-0.3,6.4,2,6.9,6.6c0.3,4.4,2.1,8.6,5,11.9c11.6,13.1,36.7,13.4,48.6,0.6c1.3-1.4,2.3-3,3.6-4.3c2.4-2.5,6.4-2.5,8.8-0.1
			c1.9,1.9,2.5,4.8,1.3,7.3c-0.5,1.3-1.3,2.4-2.2,3.4c-2.8,2.7-1.9,4.4,0.9,6.4c3.8,2.6,7.3,5.7,10.3,9.1
			C240.6,229.3,243.2,235.4,245.1,241.9L245.1,241.9z"/>
		<path class="st0" d="M229.7,157c0,21.2-17.1,38.4-38.3,38.5c-20.4,0-37.9-17.7-37.8-38.3s17.6-38.3,38-38.1
			C212.3,119.2,229.5,136.3,229.7,157z M216.8,157.5c0.3-13.9-10.7-25.5-24.6-25.8c-13.9-0.3-25.5,10.7-25.8,24.6c0,0.3,0,0.7,0,1
			c0,13.6,11.4,25.1,25,25.2C205.3,182.5,216.7,171.3,216.8,157.5L216.8,157.5z"/>
		<path class="st0" d="M187.9,173c-1.9-0.1-3.6-0.9-4.9-2.2c-3.5-3.4-7-6.8-10.3-10.3c-2.9-3-2.9-6.8-0.4-9.4s6.1-2.6,9.3,0.2
			c0.3,0.2,0.5,0.5,0.8,0.8c5.5,5.3,5.5,5.3,10.9,0c2.7-2.7,5.4-5.5,8.2-8.2c3.1-2.9,6.7-3,9.3-0.4s2.7,6.3-0.2,9.4
			c-5.8,6-11.8,11.9-17.7,17.7C191.6,172,189.8,172.8,187.9,173z"/>
	</g>
</g>
</svg>
