<?xml version="1.0" encoding="utf-8"?>
<!-- Generator: Adobe Illustrator 25.0.1, SVG Export Plug-In . SVG Version: 6.00 Build 0)  -->
<svg version="1.1" id="Layer_1" xmlns="http://www.w3.org/2000/svg" xmlns:xlink="http://www.w3.org/1999/xlink" x="0px" y="0px"
	 viewBox="0 0 358.2 358.9" style="enable-background:new 0 0 358.2 358.9;" xml:space="preserve">
<style type="text/css">
	.st0{fill:#FF8000;}
</style>
<g id="Layer_2_1_">
	<g id="Layer_1-2">
		<path d="M171,340.1c-7.6-0.3-14.7-4.4-19.2-12.4c-1.5-2.6-2.2-2.8-4.3-0.6c-8.1,8.3-16.3,16.5-24.6,24.7c-9.6,9.6-21.1,9.6-30.7,0
			C63.8,323.2,35.4,294.8,7,266.4c-9.4-9.4-9.4-21,0-30.5c8.2-8.3,16.4-16.5,24.6-24.6c1.9-1.8,2.6-2.7-0.4-4.4
			c-11.5-6.2-15.8-20.6-9.6-32.1c4-7.5,11.8-12.3,20.3-12.5c9.2-0.2,16.5,3.8,21.1,11.9c2,3.5,3,2.7,5.2,0.5
			c7.8-8,15.8-16,23.8-23.9c9.6-9.6,21.4-9.6,31,0.1c8.2,8.2,16.4,16.4,24.6,24.7c1.8,1.8,2.6,1.9,3.9-0.5
			c5.7-10,15.1-14.4,25.7-12.3c10,2,17.3,10.3,18.8,21.2c1.1,8.5-3.6,18-11.4,22.5c-3.8,2.2-3.8,2.2-0.6,5.4
			c7.7,7.7,15.4,15.3,23,23.1c10.8,10.9,10.7,21.8-0.1,32.6c-7.8,7.9-15.6,15.8-23.6,23.6c-2.1,2-2.2,2.9,0.6,4.4
			c9.6,5.2,14.3,16.3,11.5,26.8C192.6,332.8,183.3,340,171,340.1z M171.1,303.4c-0.4,0-0.8,0-1.1,0.1c-2.7,0.3-5-0.2-6.3-2.9
			s-0.1-5,1.9-7c11.4-11.4,22.8-22.8,34.1-34.2c5.7-5.8,5.7-10.4,0.1-16.1c-11.2-11.3-22.4-22.5-33.6-33.7c-2.1-2.1-4-4.4-2.6-7.6
			s4.2-3.5,7.2-3.2s6.2-0.1,8.9-2c5-3.6,6.8-10.1,4.5-15.8c-2.4-5.8-8.6-8.8-15.2-7.4c-5.4,1.1-9.4,6.3-9.4,12.4
			c0,1.4,0.2,2.8,0.1,4.1c-0.1,2.9-2.5,5.2-5.4,5.2c-1.1,0-2.2-0.4-3.1-1.1c-1.1-0.8-2.1-1.7-3.1-2.8
			c-10.9-10.9-21.9-21.9-32.8-32.9c-5.6-5.6-10.5-5.6-16.1,0.1c-10.9,10.9-21.9,21.9-32.8,32.9c-0.9,0.9-1.8,1.8-2.7,2.6
			c-1.6,1.4-3.8,1.6-5.6,0.6c-2-0.9-3.2-3-3-5.2c0-1.4,0.3-2.7,0.3-4.1c-0.3-6.9-6-12.4-12.9-12.5c-7.1,0.2-12.7,5.9-12.8,13
			c0,7,5.6,12.6,12.6,12.7c1.5,0,3-0.1,4.5-0.1c2.1,0,3.9,1.2,4.8,3.1c0.9,1.9,0.6,4.1-0.8,5.6c-0.8,1-1.6,1.9-2.6,2.8
			c-10.8,10.9-21.7,21.8-32.5,32.6c-6.1,6.1-6.1,10.6-0.1,16.6c27.9,27.9,55.7,55.9,83.6,83.8c6.4,6.4,10.7,6.4,17.1,0
			c11.1-11.1,22.2-22.3,33.3-33.4c2-2,4.1-3.8,7.2-2.4s3.3,4.1,3.1,7c-0.3,3.5,0.2,6.7,2.4,9.6c4.1,5.8,12.2,7.1,17.9,2.9
			c4.3-3.1,6.3-8.6,4.9-13.8C183.4,306.7,178.1,303.1,171.1,303.4L171.1,303.4z"/>
		<path d="M194.9,63c-0.2,8.1,4.5,13.8,11.3,14.3c7.6,0.5,13.2-4,14.1-11.4c0.8-6.9-3.9-12.9-11-14.1c-1.1-0.2-2.2-0.1-3.3,0.1
			c-3,0.5-5.6,0.1-7-2.8s-0.1-5.3,2-7.4c5.1-5.1,10.2-10.2,15.3-15.4c6.4-6.5,12.9-12.9,19.3-19.3c9.3-9.2,20.9-9.2,30.1,0
			c28.5,28.5,57,57.1,85.5,85.6c9.4,9.4,9.3,21-0.1,30.5c-8.2,8.4-16.5,16.7-24.9,24.9c-1.8,1.7-2,2.5,0.5,3.9
			c8.9,4.8,14,14.7,12.6,24c-1.5,10.1-9.1,18.3-18.6,20.2c-10,2.2-20.2-2.3-25.3-11.2c-1.9-3.3-3-3.2-5.4-0.6
			c-7.8,8.1-15.8,16-23.8,23.9c-9.8,9.7-21.1,9.7-30.9-0.1c-11.2-11.2-22.3-22.3-33.4-33.5c-2.1-2.1-4.6-4.2-3.2-7.7
			c1.5-3.7,4.7-3.4,7.9-3.4c7.7,0.2,13.1-4.4,13.8-11.7c0.7-6.6-4.1-12.4-11.1-13.8c-6.5-1.3-13.7,4-14.3,10.6
			c-0.1,1.6-0.1,3.2,0,4.9c0.1,2.7-0.6,5-3.2,6.2s-4.8,0-6.7-1.9c-4.2-4.3-8.5-8.5-12.7-12.7c-7.5-7.5-15-15-22.5-22.6
			c-8.9-9-9-20.6-0.1-29.6c11.1-11.4,22.5-22.6,33.8-33.9c2.2-2.2,4.4-4.8,8-3.3S195.2,60.2,194.9,63z M314.2,160
			c-2.3,0.1-5,0.5-6.9-2s-1.4-5.1,1.7-8.2c11.4-11.5,22.9-23,34.4-34.5c5.1-5.2,5.1-10.1,0-15.3c-28.4-28.5-56.8-56.9-85.2-85.3
			c-5.2-5.2-10-5.2-15.2,0.1c-8.1,8-16,16.1-24.1,24.1c-2.3,2.2-3,3.2,0.5,5.2c8.2,4.6,12.3,12,11.9,21.4
			c-0.3,10.8-8,19.9-18.5,22.2c-10.3,2.4-20.5-2.2-26-11.8c-1.4-2.5-2.3-2.6-4.2-0.6c-8.1,8.3-16.4,16.5-24.6,24.7
			c-5.2,5.3-5.3,10-0.1,15.2c8,8.1,16.1,16,24,24.2c2.3,2.4,3.4,3,5.4-0.6c4.5-8.2,14.2-13,22.6-11.7c10.8,1.6,19.1,9.1,20.9,18.7
			c2.1,10.9-2.2,20.2-12.4,26.1c-2.1,1.2-2,2-0.5,3.5c8.8,8.7,17.5,17.4,26.2,26.2c1.8,1.8,4.3,2.7,6.8,2.6c3.3,0,5.6-1.7,7.8-3.9
			c11.3-11.4,22.7-22.8,34.1-34.2c2-2,4.2-3.3,7-2.1s3.4,3.7,3.1,6.6c-0.3,2-0.2,4,0.4,5.9c1.9,6.6,8.6,10.5,15.2,8.9
			c6.4-1.5,10.6-7.4,9.9-13.9C327.6,164.4,322,159.8,314.2,160z"/>
		<path class="st0" d="M98.8,54.6c-0.2-4.7,1.3-6.8,4.5-7.3c2.6-0.6,5.2,1.1,5.8,3.7c0,0.1,0,0.2,0.1,0.4c1.8,8.9,3.4,17.9,4.8,26.9
			c0.4,2.9-1.3,5.1-4.2,5.8c-2.5,0.8-5.2-0.7-6-3.2c0-0.2-0.1-0.3-0.1-0.5C101.7,71.4,100.2,62.3,98.8,54.6z"/>
		<path class="st0" d="M304.6,260.1c-8.8-1.6-17.6-3.1-26.4-4.9c-2.7-0.5-4.5-3.1-4-5.8c0,0,0,0,0-0.1c0.4-3,3.2-5,6.1-4.6
			c0,0,0.1,0,0.1,0c8.6,1.4,17.2,2.9,25.7,4.6c3.4,0.6,5.3,3.2,4.7,6.1C310.3,258.8,308,260.1,304.6,260.1z"/>
		<path class="st0" d="M54.7,98.9c7.5,1.4,16.3,2.9,25.1,4.7c2.8,0.6,4.6,3.3,4,6.1c0,0.1,0,0.1,0,0.2c-0.9,3.1-3.1,4.7-6.2,4.2
			c-8.6-1.4-17.1-2.9-25.7-4.6c-3.2-0.6-5.1-2.7-4.8-6.1C47.5,100.4,49.8,98.8,54.7,98.9z"/>
		<path class="st0" d="M259.4,304.9c-0.1,3.9-1.4,6.2-4.6,6.6c-2.6,0.5-5.2-1.2-5.7-3.8c0-0.1,0-0.2-0.1-0.3
			c-1.8-8.9-3.4-17.9-4.8-26.8c-0.5-3.1,1.5-5.3,4.6-5.8c2.5-0.6,5,1,5.6,3.6c0,0.1,0,0.1,0,0.2
			C256.4,287.5,257.9,296.6,259.4,304.9z"/>
		<path class="st0" d="M76.5,72c2-0.1,4,0.7,5.3,2.2c5.4,5.3,10.8,10.7,16.1,16.1c2.7,2.8,2.8,6.2,0.5,8.3s-5.4,1.9-8.2-0.8
			c-5.6-5.5-11.1-11.1-16.6-16.7c-1.8-1.5-2.3-4.1-1.2-6.2C73.2,73.3,74.7,72.2,76.5,72z"/>
		<path class="st0" d="M263.9,258.7c1.2,0.1,2.4,0.6,3.3,1.5c5.8,5.7,11.6,11.4,17.2,17.1c2.2,2.2,2.7,4.8,0.8,7.4
			c-1.6,2.3-4.7,2.9-7,1.3c-0.3-0.2-0.6-0.5-0.9-0.8c-6-5.8-11.8-11.8-17.7-17.7c-1.6-1.5-2-3.9-0.9-5.9
			C259.6,259.6,261.3,258.7,263.9,258.7z"/>
	</g>
</g>
</svg>
