<?xml version="1.0" encoding="utf-8"?>
<!-- Generator: Adobe Illustrator 25.0.1, SVG Export Plug-In . SVG Version: 6.00 Build 0)  -->
<svg version="1.1" id="Layer_1" xmlns="http://www.w3.org/2000/svg" xmlns:xlink="http://www.w3.org/1999/xlink" x="0px" y="0px"
	 viewBox="0 0 378 378.9" style="enable-background:new 0 0 378 378.9;" xml:space="preserve">
<style type="text/css">
	.st0{fill:#FF8000;}
</style>
<g id="Layer_2_1_">
	<g id="Layer_1-2">
		<path d="M238.6,281.7c-1.7-0.1-2.7,0.8-3.8,1.3c-31,15.4-67.7,14.3-97.6-3.1c-3.5-2-7-3.2-11-1.6c-2.2,0.9-3.2,2.1-2.7,4.6
			c1.4,5.9-0.7,10.9-4.8,15c-18.8,18.9-37.5,37.7-56.4,56.4c-10.3,10.5-27.2,10.7-37.6,0.4c-0.1-0.1-0.2-0.2-0.4-0.4
			c-10.4-10.6-10.4-27.2,0.4-38.1c18.6-18.8,37.3-37.5,56.1-56.2c4.2-4.2,9.3-6.3,15.3-4.9c2.4,0.5,3.4-0.5,4.2-2.5
			c1.6-4,0.5-7.6-1.5-11.1c-6.5-11.4-10.8-24-12.7-37c-3.2-21.3,0.3-41.5,9.5-60.9c0.6-1.2,1.7-2.2,1.2-4c-5.5,1.4-11,3-16.6,3.8
			c-27.1,3.6-56-10.5-69.9-34.3C-15,65.7,8.5,12.2,57.5,1.5c40-8.7,80.7,20.6,85.4,61.3c1.3,10.6,0.2,21.3-3,31.4
			c-0.3,0.9-1.2,2-0.4,2.8c0.9,1,1.8-0.1,2.6-0.5c31.5-15.2,63-15.2,94.3,0.4c0.5,0.3,1.1,0.4,2.4,0.9c-9.4-29.9-4-56.1,18.1-77.8
			c15-14.9,33.6-21,54.6-19.7c35.9,2.3,69.6,34,66.1,77.7c-1.9,23.5-13.3,42-33.1,54.6s-41.2,14.4-64.5,6.5c8.6,16.5,13,33,13,50.5
			s-4.4,33.8-12.9,50c28.8-9.3,54-4.7,75.5,15.4c15.8,14.8,22.9,33.5,22.2,55.2c-1.1,36.4-33.2,72.3-78.5,68.3
			S221.6,326.9,238.6,281.7z M189.1,96.7c-7.1-0.1-14.2,0.7-21.1,2.4c-42.1,9.8-71.8,47.4-71.6,90.6c0,16.6,4.5,32.8,12.8,47.2
			c3.8,6.6,4.5,13.4,1.5,20.5c-2.7,6.3-2.7,6.2,2.3,11.2c0.4,0.4,0.7,0.7,1.1,1.1c1.2,1.4,2.4,1.4,3.9,0.3c2.4-1.6,5.1-2.8,7.9-3.3
			c5.9-1.2,11.4,0.2,16.5,3.1c18.1,10.6,39.4,14.7,60.2,11.7c50.2-7,86-55.3,78.3-105.7C273.9,130.4,235,96.8,189.1,96.7L189.1,96.7
			z M121.1,106c1.3-0.6,1.7-1.7,2.3-2.6c7.3-11.7,10.2-25.6,8.3-39.2c-4.3-32.4-33.5-55.5-66-52.3C22,16-3.1,65.6,19.9,103.1
			c0.6,0.9,0.9,2.4,2.2,2.3s1.4-1.6,1.9-2.6c5-10.3,13.2-18.8,23.4-24c4.6-2.4,4.6-2.4,1.6-6.5c-9.3-12.5-6.6-30.2,5.9-39.5
			s30.2-6.6,39.5,5.9c0.9,1.2,1.7,2.6,2.4,4c5.4,10.9,4.2,21.3-3.3,30.9c-2,2.5-1.8,3.4,1.2,4.6c4.2,1.9,8.1,4.4,11.6,7.5
			C112.6,91.2,117.7,98.2,121.1,106L121.1,106z M256.8,106.5c5.6-12.9,14.1-22.3,26.2-28.1c3.4-1.6,3.5-2.4,1.3-5.3
			c-6.9-8.9-8.3-18.9-3.5-29.2s13.4-16.2,24.8-16.4c11.9-0.3,21,5.2,26.2,16.1c5.1,10.6,3.7,21-3.7,30.2c-1.7,2.2-2.1,3,0.9,4.3
			c11.1,5.1,20.1,13.9,25.3,25c0.5,0.9,0.6,2.6,2,2.4c0.7-0.1,1.4-1.3,1.9-2.2c7.4-12.2,10.3-26.6,8-40.7
			c-4.5-33.1-35-56.2-68.1-51.7s-56.2,35-51.7,68.1C247.3,88.9,250.9,98.4,256.8,106.5L256.8,106.5z M355.8,341.2
			c16.2-22,15.4-57.3-9.1-79.3c-24.1-21.7-61.9-20.2-83.9,3c-23.6,24.8-19.3,59.9-6,75.9c1.1-0.9,1.4-2.3,2-3.5
			c5-10,13-18.2,23-23.4c4.6-2.5,4.7-2.4,1.7-6.6c-9.9-13.8-6.1-32.1,8.5-41c13.7-8.4,31.9-3.2,39.5,11.3c5.4,10.2,4,22.2-3.8,31.5
			c-1.6,1.9-1.7,2.6,0.7,3.6c2.3,1,4.5,2.2,6.6,3.5C344.3,322.3,351,330.6,355.8,341.2L355.8,341.2z M45.4,350.8
			c2.3,0.1,6.1-1.6,9.3-4.7c18.5-18.6,37-37.1,55.6-55.7c3.1-3.1,3.1-5.5,0-8.7c-4.2-4.3-8.4-8.5-12.7-12.7c-3.9-3.8-5.9-3.8-9.8,0
			c-8.8,8.8-17.7,17.7-26.5,26.5c-9.6,9.6-19.3,19.2-28.8,28.9c-4.8,4.9-5.7,10.8-3.3,17S36.5,350.7,45.4,350.8z M306.4,319.4
			c-18.2-0.2-34.4,11.5-40,28.8c-0.8,2.5-0.5,4,1.6,5.8c21.8,18.1,54.4,18.2,76.3,0.2c2.2-1.8,2.6-3.5,1.7-6.2
			C340.5,330.8,324.4,319.2,306.4,319.4L306.4,319.4z M72.8,132.5c13.1,0.1,25.8-4.5,37-13.4c2-1.6,2.6-3.2,1.8-5.8
			c-7-22-30.6-34.2-52.6-27.1c-12.9,4.1-23,14.2-27.1,27c-0.9,2.8-0.2,4.3,1.9,6C44.9,127.9,57.4,132.5,72.8,132.5z M305.6,132.5
			c14,0.2,27.6-4.5,38.5-13.2c2.4-1.9,2.8-3.6,1.8-6.4C338.7,90.9,315,79,293.1,86.3c-12.5,4.1-22.3,13.9-26.5,26.3
			c-1.1,3.1-0.5,5,2.1,7C279.8,128,292.1,132.5,305.6,132.5L305.6,132.5z M323,291.1c0.2-9.6-6.9-17.1-16.3-17.4
			c-9.2-0.3-17,6.9-17.3,16.1c0,0.1,0,0.2,0,0.3c-0.2,9.9,7.2,17.6,16.9,17.6C315.5,307.6,322.9,300.2,323,291.1z M306.2,72.5
			c9.3,0.1,16.9-7.3,17-16.6c0.1-9.3-7.3-16.9-16.6-17c-9.8-0.1-17.1,7.1-17.1,16.8c-0.2,9.1,7,16.6,16,16.8
			C305.7,72.5,305.9,72.5,306.2,72.5z M71.6,72.5c9.1,0.3,16.6-6.9,16.9-15.9c0-0.2,0-0.4,0-0.7c0.3-9.1-6.8-16.7-15.9-17
			c-0.3,0-0.7,0-1,0C62,38.9,55,46,55,55.7S62,72.5,71.6,72.5L71.6,72.5z"/>
		<path d="M35,160.8c-1.5,8.2-2.3,16.4-2.5,24.8c-0.8,23.9,4,47.7,14.1,69.4c2,4.4,4.4,8.7,6.6,13c2,4,1.4,7.1-1.7,8.8
			s-5.9,0.5-8-3.2c-10.8-18.6-17.9-39.2-20.8-60.5c-2.4-17.2-2.2-34.7,0.7-51.8c0.2-1,0.4-2,0.6-2.9c0.9-3.2,3.1-4.8,6.4-4.4
			C33.3,154.3,35.1,156.9,35,160.8z"/>
		<path d="M188.9,357.8c-29,0.1-57.4-7.4-82.6-21.8c-0.8-0.4-1.5-0.9-2.2-1.4c-2.7-2-3.5-4.9-2.1-7.5s4.4-3.6,7.4-2.2
			c4.1,1.9,8,4.2,12,6.1c30.1,14.4,61.6,18.4,94.4,13.1c2.3-0.4,4.5-0.4,6.3,1.3c1.6,1.3,2.2,3.5,1.6,5.5c-0.8,3-3.1,4.1-5.8,4.5
			c-8.8,1.3-17.5,2.5-26.4,2.4C190.6,357.7,189.7,357.8,188.9,357.8z"/>
		<path d="M188.9,21.3c9.5-0.2,19.1,0.6,28.4,2.3c4,0.7,6.3,3.1,5.8,6.4c-0.4,3.5-3.4,5.4-7.5,4.8c-17.6-2.8-35.6-2.8-53.2,0
			c-4.2,0.7-7.1-1.1-7.6-4.6s1.7-5.9,6-6.6C170.2,22.1,179.6,21,188.9,21.3z"/>
		<path d="M356.9,189.5c0.4,9.5-0.8,18.9-2.2,28.3c-0.7,4.2-3.3,6.5-6.7,5.9s-5.1-3.5-4.5-7.7c2.8-17.5,2.8-35.4,0-52.9
			c-0.7-4.3,1-7.1,4.5-7.7s6,1.6,6.7,5.9C356.1,170.6,357.2,180,356.9,189.5z"/>
		<path d="M189,269.9c-44,0-80.2-36.4-80.2-80.5s36.4-80.3,80.5-80.3c43.8,0.1,80,36.4,80,80.3C269.2,233.6,233,269.9,189,269.9z
			 M257.8,189.7c0-38-30.7-68.7-68.7-68.7s-68.7,30.7-68.7,68.7c0,37.9,30.7,68.7,68.6,68.7c37.8,0.2,68.6-30.3,68.8-68.1
			C257.7,190,257.7,189.9,257.8,189.7L257.8,189.7z"/>
		<path class="st0" d="M173.1,183.5c0-13.5,0-27,0-40.5c0-6.3,2-8.3,8.2-8.4c5.4-0.1,10.7-0.1,16.1,0s7.4,2.3,7.4,7.6
			c0,27.7,0,55.4,0,83.2c0,5.3-2.1,7.5-7.5,7.6c-5.6,0.1-11.2,0.1-16.8,0c-5.4-0.1-7.4-2.3-7.4-7.6
			C173.1,211.5,173.1,197.5,173.1,183.5z M193.4,184.1c0-11.1-0.1-22.2,0.1-33.3c0-3.3-0.8-4.7-4.4-4.6c-3.3,0.1-4.6,0.9-4.6,4.5
			c0.1,22.2,0.1,44.5,0,66.7c0,3.5,1.2,4.4,4.6,4.4c3.6,0.1,4.4-1.4,4.4-4.6C193.3,206.1,193.4,195.1,193.4,184.1z"/>
		<path class="st0" d="M240.8,195c0,10,0,20,0,30c0,6-2,8.1-8.1,8.1c-5.4,0.1-10.7,0.1-16.1,0s-7.6-2.1-7.6-7.5
			c0-20.4,0-40.7,0-61.1c0-5.2,2.1-7.3,7.3-7.4c5.7-0.1,11.5-0.1,17.2,0c5.2,0.1,7.3,2.3,7.3,7.4C240.8,174.8,240.8,184.9,240.8,195
			z M220.5,195.2c0,7.4,0.2,14.7-0.1,22.1c-0.1,3.6,1.3,4.4,4.6,4.4s4.4-0.9,4.3-4.3c-0.1-14.9-0.1-29.7,0-44.6
			c0-3.4-1.2-4.2-4.4-4.2c-3.3,0-4.7,0.9-4.6,4.4C220.6,180.4,220.5,187.8,220.5,195.2L220.5,195.2z"/>
		<path class="st0" d="M169,205.4c0,6.8,0,13.5,0,20.2c0,5.2-2.1,7.3-7.2,7.4c-5.7,0.1-11.5,0.1-17.2,0c-5.2-0.1-7.3-2.3-7.3-7.4
			c-0.1-13.6-0.1-27.2,0-40.8c0-5.1,2.1-7.3,7.3-7.4c5.9-0.1,11.7-0.1,17.6,0c4.7,0.1,6.8,2.3,6.9,7
			C169.1,191.4,169,198.4,169,205.4z M157.5,205.4c0-4.2-0.2-8.5,0.1-12.7c0.2-3.4-1.6-3.9-4.4-3.8c-2.6,0-4.6,0-4.5,3.7
			c0.2,8.5,0.2,17,0,25.5c-0.1,3.2,1.6,3.7,4.2,3.6c2.4-0.1,4.9,0.3,4.7-3.5C157.4,213.9,157.5,209.7,157.5,205.4L157.5,205.4z"/>
	</g>
</g>
</svg>
