<?xml version="1.0" encoding="utf-8"?>
<!-- Generator: Adobe Illustrator 25.0.1, SVG Export Plug-In . SVG Version: 6.00 Build 0)  -->
<svg version="1.1" id="Layer_1" xmlns="http://www.w3.org/2000/svg" xmlns:xlink="http://www.w3.org/1999/xlink" x="0px" y="0px"
	 viewBox="0 0 383.7 384" style="enable-background:new 0 0 383.7 384;" xml:space="preserve">
<style type="text/css">
	.st0{fill:#FF8000;}
</style>
<g id="Layer_2_1_">
	<g id="Layer_1-2">
		<path d="M217.8,384c-11.1-1.9-21.9-4.7-31.9-10.2c-28.3-15.7-45.5-39.4-49.1-71.8c-2.3-21-0.6-42.2-0.7-63.3
			c0-0.6,0.1-1.2,0.3-1.9c2.9-15.5,15.1-25.8,31.1-26.1c6.4-0.1,5.9,0.1,5.9-6c0-4.4,2.1-6.8,5.6-6.9s6.1,2.5,6.1,6.9
			c0,20.3,0,40.5,0,60.7c0,4.4-2.4,7.1-6,7s-5.7-2.5-5.7-6.9c0-12.9-0.1-25.7,0-38.6c0-3.1-1-3.9-4.1-4.1c-12.2-0.8-21.7,8-21.2,21
			c0.5,15.7,0.4,31.5,0.1,47.2c-0.7,38.7,28.3,74.8,69.8,80.5c3.6,0.5,7.2,0.8,10.8,0.9c20.6,0.1,41.2,0.3,61.8,0
			c39.3-0.6,70.8-26.4,79.3-64.4c1.2-5.6,1.8-11.4,1.8-17.1c0.2-17.7,0.1-35.5,0-53.2c0.1-3.8-0.7-7.5-2.4-10.9
			c-3.9-7.5-12.3-11.4-20.5-9.7c-7.7,1.5-13.7,8.3-14.6,16.6c-0.1,0.9,0,1.8-0.2,2.6c-0.6,3-2.5,5-5.6,5.1c-2.9,0.3-5.5-1.8-6-4.6
			c-0.3-1.6-0.5-3.2-0.5-4.8c-0.1-7.1,0.1-14.2-0.1-21.4c-0.2-10.8-8.3-18.7-18.9-18.6s-18.1,7.9-18.2,18.7c0,3.4,0,6.8,0,10.1
			c0,5.2-2.3,8.1-6.2,8.1s-6-2.9-6-7.9c-0.1-7.9,0.1-15.8-0.1-23.6c-0.5-9.1-7.3-16.6-16.3-17.9c-8.9-1-17.3,4.4-20,12.9
			c-0.6,2.3-0.9,4.6-0.8,7c0,8.5,0,17,0,25.5c0,1.6-0.1,3.2-0.5,4.8c-0.8,3.1-2.9,4.6-6.1,4.4s-5-2.1-5.5-5.1
			c-0.2-1.4-0.2-2.7-0.1-4.1c0-35.5,0-71,0-106.5c0-9.6-5.8-17.2-14.2-19.2c-12.5-2.9-23.4,5.9-23.4,19.2c-0.1,18.6,0,37.2,0,55.9
			c0,1.2,0,2.5-0.1,3.7c-0.2,3-2.8,5.3-5.8,5.1c-3.2,0-5.6-2-5.7-5.2c-0.3-4.4-0.3-8.7-0.1-13.1c0.2-3.4-1.1-4.2-4.3-4.2
			c-29.6,0.1-59.1,0.1-88.7,0.1c-6.3,0-9.3-2-9.2-6.2c0.1-3.9,3.2-6,9.2-6c29.2,0,58.4,0,87.6,0c5.4,0,5.4,0,5.4-5.3
			c-0.1-8.1,0.9-7.2-7.2-7.2c-40.3,0-80.6-0.2-120.9,0.1c-11.6,0.1-21.3-8.1-21-21c0.5-23.5,0.1-47,0.2-70.5
			c0-12.6,7.4-20.1,19.9-20.1c69.2,0,138.5,0,207.7,0c12.4,0,19.8,7.5,19.8,20.1c0,23.7,0,47.5,0,71.2c0,12.5-7.5,20-20,20.1
			c-4.5,0-9,0.1-13.5,0c-2.3-0.1-3.4,0.8-3.4,3.2c0.1,11-0.9,9.2,8.6,9.3c7.4,0.1,14.7,0.1,22.1,0c11.1-0.2,19-7.7,19.1-18.8
			c0.2-33,0.2-66,0-99c-0.1-11-7.9-18.4-19.1-19.1c-0.9-0.1-1.8,0-2.6,0H33.3c-8.9,0-16.2,2.9-20.1,11.5c-1.3,3-1.9,6.3-1.8,9.5
			c0,31.7,0.1,63.5,0,95.2c0,12.4,8.3,21.5,20.8,20.8c5.3-0.3,10.7-0.1,16.1,0c1.6,0,3.2,0.2,4.8,0.6c2.7,0.7,4.4,3.3,4,6
			c-0.2,3-2,5.2-4.9,5.3c-9,0.3-18,1.1-26.9-0.3c-11.9-1.9-20-9.1-24.1-20.6c-0.4-1-0.8-2.1-1.2-3.1V24C3.6,11.6,11.6,3.6,24,0
			h248.5c0.8,0.3,1.6,0.6,2.5,0.9c13.8,4.7,21.8,15.6,21.8,30.3c0,33.1,0,66.3,0,99.4c-0.1,16.5-13.5,30-30,30.2
			c-7.6,0.1-15.2-0.1-22.8,0.1c-9.8,0.1-8.6-1.9-8.7,9.1c0,2.4,0.5,3.3,3,1.8c16.4-9.7,35.9-2.3,43.3,13.6c1,2.2,1.7,2.1,3.4,0.8
			c4.8-3.9,10.8-6,16.9-6.2c16.1-0.6,28.9,10.1,32,27.1c0.5,2.9,0.9,3.5,3.8,1.9c21.1-11.7,45.9,2.9,46,27
			c0.1,18.8,0.4,37.5-0.1,56.3c-0.9,37-18.1,64.1-50.2,81.9c-9.8,5.5-20.6,8.1-31.6,10L217.8,384z M148.5,36.7
			c-34.4,0-68.8,0-103.3,0c-7,0-8.6,1.6-8.6,8.6c0,23,0,46,0,69c0,8,1.3,9.3,9.4,9.3c40,0,80.1,0,120.1,0c8.6,0,7,0.4,7.2-7.2
			c0.5-12.9,6.9-22.2,18.5-27.2c11.7-5,23-3.2,32.8,5.4c7.6,6.7,10.4,15.4,10.4,25.2c0,2.9,1,4.1,3.9,3.9c3.9-0.2,7.7,0,11.6,0
			c7.8,0,9.2-1.4,9.2-9.1c0-22.7,0-45.5,0-68.2c0-8.4-1.2-9.6-9.5-9.6L148.5,36.7z"/>
		<path class="st0" d="M191.4,68c0,3.3-1.4,6.5-3.9,8.7c-13.1,11.7-26.3,23.4-39.5,35c-3.9,3.4-8.2,3.4-12.3-0.1
			c-8.8-7.3-17.6-14.7-26.2-22.3c-5.8-5.1-6-12.2-0.9-18c2.7-3.1,5.4-6.2,8.4-9.1c4.8-4.8,10.8-5.2,16.3-1.3c0.7,0.5,1.4,1,2.1,1.6
			c6.6,5.1,6.7,5.1,13.1-0.5c4.6-4,9.2-8.1,13.8-12.1c6-5.2,13.2-4.8,18.5,1.1c2.6,2.9,5.1,5.8,7.7,8.7C190.4,62,191.4,65,191.4,68z
			 M178.8,67.4c-0.3-0.5-0.6-0.9-1-1.3c-1.6-1.9-3.4-3.7-4.9-5.6c-1.4-1.8-2.6-1.7-4.3-0.2c-5.8,5.2-11.6,10.2-17.4,15.4
			c-7.3,6.5-10.3,6.7-17.9,0.7s-7.7-6-14.1,1.2c-0.2,0.2-0.3,0.4-0.5,0.6c-1.6,1.3-1.2,2.4,0.3,3.6c6.9,5.8,13.8,11.6,20.6,17.4
			c1.6,1.3,2.7,1.6,4.4,0.1c11.2-10,22.4-19.9,33.6-29.8C178.2,69,178.9,68.6,178.8,67.4L178.8,67.4z"/>
	</g>
</g>
</svg>
