<?xml version="1.0" encoding="utf-8"?>
<!-- Generator: Adobe Illustrator 25.0.1, SVG Export Plug-In . SVG Version: 6.00 Build 0)  -->
<svg version="1.1" id="Layer_1" xmlns="http://www.w3.org/2000/svg" xmlns:xlink="http://www.w3.org/1999/xlink" x="0px" y="0px"
	 viewBox="0 0 383.5 340.7" style="enable-background:new 0 0 383.5 340.7;" xml:space="preserve">
<style type="text/css">
	.st0{fill:#FF8000;}
</style>
<g id="Layer_2_1_">
	<g id="Layer_1-2">
		<path d="M0,142.6c2.2-12.2,4.5-24.3,6.5-36.5c2.4-14.3,10.5-21.4,25-21.5c2.2,0,5.5,1.1,6.2-0.8c0.9-2.2-2.5-3.2-4-4.7
			c-7.1-7.4-11.6-16-11.6-26.4c0-7.4-0.9-14.8,0.7-22C26.8,12.6,43.3-0.6,61.2,0c19,0.5,34.8,14.8,37.2,33.7
			c1.1,8.2,1.1,16.5-0.2,24.6c-1.5,9.1-6.1,16.5-13,22.6c-0.9,0.8-2.6,1.3-2.1,2.7c0.6,1.7,2.4,0.9,3.6,1c3,0.2,6-0.2,9,0.4
			c9.7,1.9,16.3,8.4,18.2,18c0.9,4.6-0.7,7.8-4.3,8.7s-6.4-1.4-7.5-6c-1.8-6.6-4.7-8.8-11.5-8.8h-1.9c-5.7,0-5.7,0-6.9,5.5
			c-2.3,10.5-12,18.2-22.2,17.6c-10.9-0.5-19.9-8.9-20.9-19.8c-0.2-2.4-1-3.4-3.4-3.2c-0.2,0-0.5,0-0.7,0
			c-12.7-0.2-14.4,1.2-16.6,13.8c-1.8,10.3-3.5,20.7-5.5,31c-0.5,2.7,0.2,3.6,2.9,3.6c30.1,0,60.1,0,90.2,0c2.8,0,3.1-1.2,2.7-3.4
			c-0.6-3.3-1.2-6.6-1.7-10c-0.6-3.9,1.5-6.9,5-7.5c3.2-0.5,6,1.7,6.8,5.5c0.9,4.9,1.8,9.8,2.6,14.8c1,6.3-2.5,11.4-8.8,12.6
			c-1.6,0.2-3.2,0.3-4.8,0.3c-31.3,0-62.6-0.1-93.9,0.1c-5.9,0-10.5-1.6-13.4-7L0,142.6z M86.7,46.6c0-2.2,0.1-3.8,0-5.4
			c-0.1-1.8,0.9-4.4-0.6-5.3s-3.2,1.3-4.8,2.2c-13.8,7.8-28.3,12.1-44.3,9.6c-2.9-0.5-3,1.2-3,3.3c0,13.8,10.5,25.4,24.3,26.8
			c13.3,1.2,25.4-8.2,28-21.7C86.9,52.7,86.5,49.4,86.7,46.6L86.7,46.6z M44.7,36.7c13.6-0.4,24.7-5.1,35.1-11.8
			c2.4-1.5,1.2-2.9-0.1-4.2c-6.9-6.9-15.2-9.9-24.8-7.7c-10.1,2.3-16.5,8.6-19.7,18.4c-0.8,2.5-0.1,3.9,2.4,4.2S42.9,36.4,44.7,36.7
			L44.7,36.7z M70.1,95.2L70.1,95.2c0-0.7,0-1.5,0.1-2.2c0.3-3-0.4-4.4-3.9-3.5c-4.3,1.1-8.7,0.6-13-0.1c-1.5-0.3-2.9-0.5-2.9,1.6
			c0,3.4-0.4,6.7,0.6,10c1.4,4.4,5.7,7.3,10.4,6.9c4.7-0.5,8.3-4.2,8.7-8.9C70.2,97.7,70.1,96.4,70.1,95.2z"/>
		<path d="M323,340.7c-15.7,0-31.4,0-47.1,0c-2.1,0.1-4.2-0.2-6.3-0.7c-5-1.5-8.2-6.4-7.4-11.6c2.4-14.1,4.7-28.3,7.4-42.4
			c2.2-11.5,10.9-18.3,22.6-18.4c2,0,4,0,6,0c0.8,0,1.9,0.1,2.2-1s-0.6-1.6-1.3-2.1c-10.9-8.9-15.1-20.6-14.9-34.4
			c0.2-8.8,0.1-17.5,4.2-25.6c7.8-15.9,25.5-24.4,42.8-20.5c17.3,3.9,29.7,19.2,29.7,37c0.1,6.4,0.4,12.8-0.3,19.1
			c-1.2,9.8-6.2,17.8-13.8,24.2c-0.8,0.7-2.2,1.3-1.8,2.6s2,0.7,3,0.8c3.6,0.2,7.2-0.3,10.8,0.6c9,2.2,15,7.7,16.8,16.7
			c2.9,14.1,5.3,28.2,7.5,42.4c1.3,8.2-3.5,13.2-12,13.4L323,340.7L323,340.7z M322.5,328.4c15,0,29.9,0,44.9,0c3,0,3.9-0.8,3.3-4
			c-2-10.2-3.6-20.4-5.4-30.6C363,281,361,279.4,348,279.9c-2.2,0.1-3.3,0.7-3.5,3.2c-1.1,11.1-9.1,18.7-20.5,19.7
			c-9.8,0.9-19.5-6-22.3-15.9c-2-7-2-7-9.5-6.9c-6.5,0.1-9.7,2.5-10.9,8.9c-2.2,11.9-4.2,23.8-6.4,35.8c-0.5,3,0.3,3.9,3.4,3.9
			C293,328.3,307.8,328.4,322.5,328.4L322.5,328.4z M349.3,229c0-2.6,0.1-4.4,0-6.1c-0.1-1.4,0.6-3.4-0.8-4.2
			c-1.3-0.7-2.4,0.9-3.6,1.5c-14,8-28.8,13-45.3,10.4c-2.8-0.4-3,1.2-3.1,3.3c-0.3,12.9,8.8,23.8,22,26.3
			c12.1,2.3,24.6-4.9,28.9-16.7C349,238.9,349.6,234,349.3,229z M307.3,219.5c12.9-0.4,23.7-4.8,33.9-11.2c2.6-1.6,2.8-2.8,0.6-5
			c-10-10.5-26.6-10.9-37.1-0.9c-2.7,2.5-4.8,5.6-6.2,9c-2.5,6-2.1,6.7,4.3,7.5C304.5,219.2,306.2,219.4,307.3,219.5L307.3,219.5z
			 M313,278.2L313,278.2c0,1,0,2,0,3c0.2,5.1,4.1,9.2,9.2,9.6c4.6,0.4,8.8-2.9,10.1-7.7c0.8-2.8,0.3-5.7,0.5-8.5
			c0.1-2.1-0.8-2.9-3-2.4c-4.3,0.9-8.7,0.9-13,0.2c-3.1-0.5-4.2,0.2-3.9,3.3C313,276.4,313,277.3,313,278.2z"/>
		<path d="M251.4,242.6c-6-2.6-11.2-4.9-16.4-7.2c-1.8-0.8-3.7-1.6-5.5-2.4c-3.5-1.4-5.8-4.6-6.1-8.3c-0.6-5-0.2-10-0.3-15
			c-0.1-10-4.5-14.4-14.4-14.5h-32.9c-1.1,0-2.2,0-3.4,0c-4.1-0.3-6.8-2.6-6.9-6s2.7-6.2,7-6.2c9.7-0.1,19.5-0.1,29.2,0
			c4.6,0,9.2-0.3,13.8,0.6c11.2,2.3,19.3,11.9,19.8,23.3c0.1,4.1,0.1,8.2,0,12.4c-0.1,2.4,0.8,3.6,3,4.5c7.3,3,14.4,6.3,21.7,9.3
			c4.3,1.8,7.2,4.8,7.2,9.5c0,4.9-2.9,8-7.3,9.8c-7.2,2.9-14.2,6.2-21.3,9.1c-2.3,0.9-3.4,2.2-3.2,4.8c0.2,2.9-0.2,5.8,0.1,8.6
			c1.2,14.7-9.8,27.8-27.8,27.7c-43.8-0.3-87.6-0.1-131.4-0.1c-3.7,0.2-7.5,0-11.2-0.5c-11.7-2-20.2-12.1-20.3-23.9
			c-0.1-23.3-0.1-46.5,0-69.7c0-14.4,10.5-25.2,25-25.3c25.2-0.1,50.4-0.1,75.6,0c4.9,0,7.7,2.4,7.6,6.3c-0.1,3.7-2.9,5.9-7.6,6
			c-24.6,0-49.2,0.3-73.7-0.1c-10.8-0.2-15.3,7.2-15.2,15.2c0.2,21.6,0,43.2,0.1,64.9c0,10,5,14.9,15,14.9h137
			c10.1,0,14.6-4.5,14.8-14.5c0.1-4.9,0.1-9.7,0.3-14.6c0.2-4.5,2.7-7.3,6.7-9c5.5-2.3,11-4.7,16.5-7.1
			C248,244.3,249.3,243.6,251.4,242.6z"/>
		<path d="M132.8,60.3c0.5,1.2,1.7,1.3,2.7,1.7c4.7,2.1,9.2,4.5,14.1,6c8.4,2.6,11.3,8.2,10.6,16.5c-0.2,3.7-0.2,7.5,0,11.2
			c0.3,7,5.3,11.8,12.3,12.1c0.9,0,1.8,0,2.6,0h136.2c10.7,0,15.5-4.8,15.5-15.6c0-21.2,0-42.5,0-63.8c0-10.9-4.7-15.6-15.5-15.6
			c-6.7,0-13.5,0-20.2,0c-1.4,0-2.7-0.1-4.1-0.4c-3-0.8-4.9-2.8-4.8-5.9s2.1-5.7,5.3-5.8c10.3-0.2,20.8-1.2,31,0.5
			c12,2,19.9,11.9,19.9,24.1c0,22.1-0.6,44.3,0.2,66.4c0.6,16.6-10.8,28.6-28.7,28.4c-43.8-0.4-87.6-0.1-131.4-0.1
			c-1.9,0-3.8,0-5.6,0c-12.8-0.5-23-8.8-24.8-20.8c-0.7-4.9-0.4-10-0.3-15c0.1-2.8-1-4.3-3.5-5.3c-7.1-2.9-14.2-6.1-21.3-9.1
			c-4.3-1.9-7.2-4.9-7.1-9.6s2.9-7.7,7.2-9.5c7.2-3,14.4-6.3,21.7-9.3c2.2-0.9,3.1-2.1,3-4.5c-0.1-3.9-0.1-7.7,0-11.6
			c0.1-13.3,10.5-24.5,23.8-24.6c30.3-0.3,60.6-0.1,91-0.1c4.2,0,6.8,2.3,6.9,5.8c0.1,3.7-2.4,6.1-6.8,6.4c-1.4,0.1-2.8,0-4.1,0
			h-84.3c-10,0-14.4,4.4-14.4,14.4c0,4.1,0,8.3,0,12.4c-0.1,5.7-2.5,9.6-8,11.8c-6.5,2.6-12.8,5.6-19.2,8.4
			C132.9,60,132.9,60.1,132.8,60.3z"/>
		<path class="st0" d="M140.1,256.4h49.7c1.4-0.1,2.7,0,4.1,0.2c2.9,0.3,5,2.8,5.1,5.7c0.2,2.8-1.6,5.3-4.3,5.9
			c-1.6,0.4-3.2,0.6-4.8,0.5c-33.3,0-66.6,0-99.8,0c-6.1,0-9.3-2.2-9.2-6.4c0.1-3.9,3.1-5.9,9.1-5.9L140.1,256.4z"/>
		<path class="st0" d="M139.8,229c-16.7,0-33.4,0-50.1,0c-1.5,0.1-3-0.1-4.4-0.4c-2.6-0.5-4.4-2.8-4.4-5.4c-0.2-2.6,1.4-5,3.9-5.8
			c1.3-0.4,2.6-0.6,4-0.6c34,0,68,0,102.1,0c1.2,0,2.5,0.1,3.7,0.5c2.8,0.9,4.5,2.9,4.4,5.8c0,2.9-2.1,5.3-5,5.8
			c-1.4,0.2-2.7,0.3-4.1,0.2L139.8,229z"/>
		<path class="st0" d="M237.2,67.2c0-2.4,0-4.7,0-7.1c0.1-5.5,1.9-7.6,7.4-8.3c4.7-0.6,8-3.1,9.3-7.5c1.4-4.6,0.6-8.9-3.2-12.3
			c-3.3-3-7.2-3.4-11.2-2c-3.8,1.2-6.6,4.4-7.2,8.4c-0.2,1.1-0.3,2.2-0.6,3.3c-0.8,3.2-2.9,5-6.2,4.9s-5.5-2.8-5.6-6.3
			c-0.3-8.2,5.5-17.2,13.5-20.9c11.7-5.4,25.5-0.4,31.1,11.2c5.5,11.8,0.8,25.5-11,31.1c-3.4,1.6-4.4,3.5-4.1,6.9
			c0.2,2.5,0.2,5,0,7.5c-0.3,3.9-2.6,6.2-6.1,6.2s-5.8-2.3-6-6.3c-0.2-2.9,0-5.7,0-8.6L237.2,67.2z"/>
		<path class="st0" d="M237.2,92c0-3.3,2.7-6.1,6-6.1c3.3,0,6.1,2.7,6.1,6c0,3.3-2.7,6.1-6,6.1c-0.1,0-0.1,0-0.2,0
			C239.9,97.9,237.3,95.3,237.2,92z"/>
	</g>
</g>
</svg>
