<svg xmlns="http://www.w3.org/2000/svg" viewBox="0 0 330.33 350.45"><defs><style>.cls-1{fill:#825ab0;}</style></defs><g id="Layer_2" data-name="Layer 2"><g id="Layer_1-2" data-name="Layer 1"><path d="M91.22,124.66a23.44,23.44,0,0,0,1.4-12.29C89.8,97.5,84.82,83.43,75.25,71.48c-5.8-7.23-13.39-11.47-23.06-11-14.46.64-23.83,13.64-19.75,27.43a48.71,48.71,0,0,0,4.27,10.36c3.92,6.83,5.83,14.27,7.17,21.92,5,28.82,6.85,57.95,6.48,87.12C50.08,229.21,52.22,224.08,37,240c-11,11.44-22.77,22-34.33,32.85-3.19,3-3.42,6.22-1,8.9s5.84,2.76,9-.06c15.32-13.75,30.19-28,44.26-43a25.82,25.82,0,0,0,7.16-16.86c.3-6.48.62-13,.53-19.44-.33-22.32-1.22-44.61-4.15-66.76-2.06-15.58-4-31.21-12.07-45.22a28.44,28.44,0,0,1-1.9-4.47c-2.61-7.33,0-11.85,7.71-13.33,3.7-.7,6.91.59,9.75,2.8A34.85,34.85,0,0,1,71,86.24c3.09,5.61,4.75,11.79,7.21,17.64l7,4.15A13.81,13.81,0,0,1,91.22,124.66Z"/><path d="M172.48,148c.18.05.37.09.55.15C172.85,148.13,172.66,148.09,172.48,148Z"/><path d="M143.54,118.38c-.27-.44-.52-.89-.76-1.34C143,117.49,143.27,117.94,143.54,118.38Z"/><path d="M170.73,147.58l.65.16Z"/><path d="M174.29,148.55l.4.11Z"/><path d="M142.57,116.62c-.21-.4-.41-.81-.59-1.23C142.16,115.81,142.36,116.22,142.57,116.62Z"/><path d="M169,147.18l.7.15Z"/><path d="M144.52,119.87c-.32-.45-.63-.91-.92-1.38C143.89,119,144.2,119.42,144.52,119.87Z"/><path d="M145.6,121.31c-.28-.35-.55-.7-.81-1.06C145.05,120.61,145.32,121,145.6,121.31Z"/><path d="M148.2,124.12c-.34-.32-.67-.64-1-1C147.53,123.48,147.86,123.8,148.2,124.12Z"/><path d="M149.88,125.59q-.69-.56-1.32-1.14Q149.19,125,149.88,125.59Z"/><path d="M167.32,146.87c.24,0,.49.07.73.12C167.81,146.94,167.56,146.91,167.32,146.87Z"/><path d="M165.6,146.64l.76.08Z"/><path d="M162.8,146.5h0Z"/><path d="M163.86,146.53l.8,0Z"/><path d="M329.91,120.53c-2.2-9.82-11.28-14.81-21.4-11.72-3.07.94-6,2.4-9,3.62a34.47,34.47,0,0,1,4.69-6c5.39-6.07,10.73-12.17,13.46-20,2.53-7.31,1.05-13.79-4-19.44s-11.38-6.88-18.45-5.18c-8.51,2-15.39,6.94-21.62,12.84-4.5,4.27-8.88,8.68-13.32,13,6.81-8.35,14-16.29,21.12-24.31,5.33-6,10.17-12.35,11.77-20.52,2.23-11.4-7.29-22.59-18.88-22-6.1.29-11.27,3.1-15.86,6.89-9.63,8-18,17.29-26.63,26.26-1.34,1.4-2.66,2.83-4,4.24,5.35-7.8,11.13-15.17,15.14-23.71a33.25,33.25,0,0,0,3.52-15.89,19.34,19.34,0,0,0-26.92-17C213,4.45,207.78,9.12,203.15,14.4c-20.53,23.36-38.11,49-57.61,73.21a26.65,26.65,0,0,0-4.43,25.59c-4.29-12.56,5.71-25.51,19-24.73,14.7-18.91,29.33-37.87,44.11-56.72,5.15-6.57,10.49-13,17.56-17.74,2.8-1.86,6-3.08,9.07-.83s4.31,5.61,3.43,9.6a33.6,33.6,0,0,1-3.72,9.34,159.68,159.68,0,0,1-12.11,17.53c-11.49,15.09-23.39,29.86-34,45.56-2,3-3.79,6.16-5.51,9.33a15.29,15.29,0,0,0-2,7.16,7.52,7.52,0,0,0,3.95,7.14c2.6,1.44,5.15.69,7.36-1,5.82-4.37,10.53-9.9,15.35-15.29,18.2-20.37,36.68-40.49,56-59.85a55.81,55.81,0,0,1,9.53-7.82c4.05-2.57,7.39-2.76,9.69-.7,2.69,2.43,3.11,6,1.11,10.36a35.27,35.27,0,0,1-5.86,8.65l-42.82,48.05c-8,9-16.17,18-24.12,27.11-3.66,4.19-3.83,8.27-1,11.49s7.07,3.58,11.61.84a63.24,63.24,0,0,0,7.29-5.22C244.62,119.38,263,102,281,84.14c4.38-4.33,9.24-8,15.09-10.15,3.18-1.16,6.39-1.6,8.94,1.38s1.85,6.07.4,9.13a44.93,44.93,0,0,1-7.49,10.69c-17.42,19.4-34.93,38.71-53,57.54-4,4.23-8.24,8.38-11.11,13.57-1.85,3.34-1.51,6.55,1.15,9.28s5.76,2.68,9,1.25a25.37,25.37,0,0,0,6.15-4.22c11.06-9.54,21.45-19.79,32.06-29.81a214.15,214.15,0,0,1,18.87-16.49c3.21-2.38,6.5-4.67,10.38-5.85,4.58-1.4,7.44,1.32,6.26,6-.75,3-2.52,5.42-4.3,7.83-5.35,7.25-11.63,13.67-18,20-18,17.66-36.58,34.68-53.88,53-13.37,14.16-27,28-42.5,39.94-15.87,12.22-32.39,23.18-52,28.86-11.54,3.34-22.6,8.29-31.48,16.7-15.31,14.5-30,29.58-44.61,44.84a30.64,30.64,0,0,0-2.75,3.06c-1.94,2.68-1.82,5.46.42,7.84s5,2.57,7.75.59A26.23,26.23,0,0,0,79.57,346c12.72-13.39,25.84-26.38,38.82-39.51,7.45-7.53,16.17-12.76,25.87-16.72,7.62-3.12,15.75-4.76,23.2-8.37,22.46-10.89,42.16-25.7,60-42.95,15.24-14.74,29.78-30.2,44.83-45.14,12.75-12.65,25.85-24.94,38.65-37.55a95.08,95.08,0,0,0,15.67-19.49C329.46,131.4,331.18,126.21,329.91,120.53Z"/><path d="M141.85,115.11c-.22-.5-.42-1-.6-1.51C141.43,114.11,141.63,114.61,141.85,115.11Z"/><path d="M147,122.88c-.39-.41-.76-.83-1.12-1.26C146.2,122.05,146.57,122.47,147,122.88Z"/><path class="cls-1" d="M141.11,113.2l.09.27a.5.5,0,0,0,.05.13c.18.51.38,1,.6,1.51,0,.1.09.19.13.28.18.42.38.83.59,1.23l.21.42c.24.45.49.9.76,1.34l.06.11c.29.47.6.93.92,1.38.08.13.18.25.27.38.26.36.53.71.81,1.06l.24.31c.36.43.73.85,1.12,1.26l.25.27c.32.33.65.65,1,1l.36.33q.63.58,1.32,1.14a120.69,120.69,0,0,0,34.7,19.63,67.45,67.45,0,0,0,7.27,1.72c1.12.26,2.28.6,2.25,2A2.47,2.47,0,0,1,192,151.3a15.59,15.59,0,0,1-3.67.49c-4.2.1-8.05-1.5-12-2.65l-1.63-.48-.4-.11-1.26-.36c-.18-.06-.37-.1-.55-.15-.37-.11-.73-.21-1.1-.3l-.65-.16-1-.25-.7-.15c-.32-.06-.65-.14-1-.19s-.49-.08-.73-.12-.64-.11-1-.15l-.76-.08-.94-.09-.8,0c-.27,0-.54,0-.82,0h-.24a13,13,0,0,0-12.69,13c0,6.75,1.62,13.3,2.75,19.9,2.64,15.39,7.94,30.12,11.72,45.23.82,3.25,2,6.44,2,9.85,0,.95.38,2.29-.79,2.65-1.37.43-1.88-1-2.4-1.88a52.28,52.28,0,0,1-3.89-10.11c-3.25-10.47-5.56-21.23-9.68-31.44a15.81,15.81,0,0,0-3.61-6.05c-2.08-1.9-4.44-2.75-7.22-1.64a5.89,5.89,0,0,0-3.93,6.17,46.56,46.56,0,0,0,.58,6.68c2.44,13.62,5.07,27.2,7.38,40.83.56,3.27,1.67,6.67.51,10.58-2-2.11-2.33-4.33-2.77-6.49-3.17-15.63-6.26-31.28-9.52-46.9-1.09-5.16-3.76-7.38-7.68-7.1s-6.21,2.68-6.53,7.73c-.66,10.11,1,20.12,2,30.15.57,5.82,1.89,11.56,1.84,17.45,0,1,.1,2.28-1.07,2.52-1.32.27-1.55-1.15-1.76-2-1-4-1.89-8-2.66-12-2.29-12-4.36-24-6.81-36-1.09-5.31-4.42-7.6-8.6-6.85-3.8.69-5.93,4.16-5.51,9.33S95.6,210.5,96,215.71c.6,7.15,2.09,14.23,1,21.58-.61-2.73-1.39-5.43-1.81-8.19-2.68-17.36-4.65-34.82-7.39-52.17-2.78-17.52-3.13-35,3.29-52l.05-.12a.56.56,0,0,1,0-.12,13.81,13.81,0,0,0-6-16.63l-7-4.15c3.08,7.34,2.85,14.56.23,21.87C73,140.83,73.08,156.34,75,171.93c2.16,17.3,5.21,34.48,7.18,51.82.83,7.28,1.68,14.67,5.25,21.3,3,5.58,9.06,8.49,14.08,5.77,4.31-2.35,5.33-.63,7.16,2.8,4.36,8.17,14,9.54,20,2.95,2-2.25,2.77-2.22,4.48.24a12.37,12.37,0,0,0,14.49,5c4.82-1.52,7.8-5.85,8.23-11.8.09-1.15-.5-2.49.74-3.56.76.46,1.48.94,2.23,1.36,9.14,5.19,19.16-.43,19.5-10.9A40.92,40.92,0,0,0,177,224.69c-2.44-8.9-4.81-17.81-7.34-26.69a219.14,219.14,0,0,1-7.21-35.49c-.46-4.17.63-5,4.69-3.84,3.59,1,7.08,2.4,10.67,3.46,5.17,1.53,10.38,2.55,15.83,1.31,7.6-1.73,12.54-7.19,12.86-14.52.3-6.93-3.53-12.06-11.76-13.66-13.84-2.67-24.93-10.56-36.21-18.06-7.29-4.85-8.63-15.14-3.58-22.32,1.58-2.23,3.47-4.25,5.15-6.41C146.82,87.69,136.82,100.64,141.11,113.2Z"/></g></g></svg>