<?xml version="1.0" encoding="utf-8"?>
<!-- Generator: Adobe Illustrator 25.0.1, SVG Export Plug-In . SVG Version: 6.00 Build 0)  -->
<svg version="1.1" id="Capa_1" xmlns="http://www.w3.org/2000/svg" xmlns:xlink="http://www.w3.org/1999/xlink" x="0px" y="0px"
	 viewBox="0 0 480 480" style="enable-background:new 0 0 480 480;" xml:space="preserve">
<style type="text/css">
	.st0{fill:#825AB0;}
</style>
<g>
	<g>
		<path d="M454.7,194.9C470,183.2,480,164.8,480,144c0-35.3-28.7-64-64-64s-64,28.7-64,64c0,19.1,8.5,36.3,21.8,48h-42.5l-53.7-53.7
			c-3.1-3.1-8.2-3.1-11.3,0l-32,32c-3.1,3.1-3.1,8.2,0,11.3l72,72c1.5,1.5,3.5,2.3,5.7,2.3h64v56h-40h-97.1l39.7-59.6l-13.3-8.9
			L219.7,312H200v-40c0-4.4-3.6-8-8-8h-64v-32c0-16.9-10.5-31.3-25.3-37.1C118,183.2,128,164.8,128,144c0-35.3-28.7-64-64-64
			S0,108.7,0,144c0,20.8,10,39.2,25.3,50.9C10.5,200.7,0,215.1,0,232v112c0,22.1,17.9,40,40,40v96h16v-96h56v88c0,4.4,3.6,8,8,8h56
			c4.4,0,8-3.6,8-8V352c0-9-3-17.3-8-24h8h8h40v136h-32v16h80v-16h-32V328h56.2c-5.1,6.7-8.2,15-8.2,24v120c0,4.4,3.6,8,8,8h56
			c4.4,0,8-3.6,8-8v-88h56v96h16v-96c22.1,0,40-17.9,40-40V232C480,215.1,469.5,200.7,454.7,194.9z M16,144c0-26.5,21.5-48,48-48
			s48,21.5,48,48s-21.5,48-48,48S16,170.5,16,144z M184,312H80v-64H64v72c0,4.4,3.6,8,8,8h72c13.2,0,24,10.8,24,24v112h-40v-88
			c0-4.4-3.6-8-8-8H40c-13.2,0-24-10.8-24-24V232c0-13.2,10.8-24,24-24h48c13.2,0,24,10.8,24,24v40c0,4.4,3.6,8,8,8h64V312z
			 M368,144c0-26.5,21.5-48,48-48s48,21.5,48,48s-21.5,48-48,48S368,170.5,368,144z M464,344c0,13.2-10.8,24-24,24h-80
			c-4.4,0-8,3.6-8,8v88h-40V352c0-13.2,10.8-24,24-24h48c4.4,0,8-3.6,8-8v-72c0-4.4-3.6-8-8-8h-68.7l-64-64l20.7-20.7l50.3,50.3
			c1.5,1.5,3.5,2.3,5.7,2.3h112c13.2,0,24,10.8,24,24V344z"/>
	</g>
</g>
<g>
	<g>
		<path class="st0" d="M320,0H160c-13.2,0-24,10.8-24,24v64c0,13.2,10.8,24,24,24h8v48c0,3.2,1.9,6.2,4.9,7.4c1,0.4,2,0.6,3.1,0.6
			c2.1,0,4.1-0.8,5.7-2.3l53.7-53.7H320c13.2,0,24-10.8,24-24V24C344,10.8,333.2,0,320,0z M328,88c0,4.4-3.6,8-8,8h-88
			c-2.1,0-4.2,0.8-5.7,2.3L184,140.7V104c0-4.4-3.6-8-8-8h-16c-4.4,0-8-3.6-8-8V24c0-4.4,3.6-8,8-8h160c4.4,0,8,3.6,8,8V88z"/>
	</g>
</g>
<g>
	<g>
		<rect x="168" y="32" class="st0" width="48" height="16"/>
	</g>
</g>
<g>
	<g>
		<rect x="168" y="64" class="st0" width="144" height="16"/>
	</g>
</g>
<g>
	<g>
		<rect x="232" y="32" class="st0" width="80" height="16"/>
	</g>
</g>
</svg>
