<?xml version="1.0" encoding="utf-8"?>
<!-- Generator: Adobe Illustrator 25.0.1, SVG Export Plug-In . SVG Version: 6.00 Build 0)  -->
<svg version="1.1" id="Capa_1" xmlns="http://www.w3.org/2000/svg" xmlns:xlink="http://www.w3.org/1999/xlink" x="0px" y="0px"
	 viewBox="0 0 512 512" style="enable-background:new 0 0 512 512;" xml:space="preserve">
<style type="text/css">
	.st0{fill:#825AB0;}
</style>
<g>
	<path d="M219.3,355.2l-28.1,28.3c-0.4,0.4-0.8,0.4-1.1,0.4h0c-0.3,0-0.7-0.1-1.1-0.4L178.6,373c-2.9-2.9-7.7-2.9-10.6,0
		c-2.9,2.9-2.9,7.7,0,10.6l10.4,10.4c3.1,3.1,7.3,4.8,11.7,4.8h0c4.4,0,8.6-1.7,11.7-4.9l28.1-28.3c2.9-2.9,2.9-7.7,0-10.6
		C226.9,352.2,222.2,352.2,219.3,355.2L219.3,355.2z M229.9,150.9c-2.9-2.9-7.7-2.9-10.6,0l-28.1,28.3c-0.4,0.4-0.8,0.4-1.1,0.4h0
		c-0.3,0-0.7-0.1-1.1-0.4l-10.4-10.4c-2.9-2.9-7.7-2.9-10.6,0s-2.9,7.7,0,10.6l10.4,10.4c3.1,3.1,7.3,4.8,11.7,4.8h0
		c4.4,0,8.6-1.7,11.7-4.9l28.1-28.3C232.8,158.6,232.8,153.8,229.9,150.9z M229.9,253c-2.9-2.9-7.7-2.9-10.6,0l-28.1,28.3
		c-0.4,0.4-0.8,0.4-1.1,0.4h0c-0.3,0-0.7-0.1-1.1-0.4l-10.4-10.4c-2.9-2.9-7.7-2.9-10.6,0c-2.9,2.9-2.9,7.7,0,10.6l10.4,10.4
		c3.1,3.1,7.3,4.8,11.7,4.8h0c4.4,0,8.6-1.7,11.7-4.9l28.1-28.3C232.8,260.7,232.8,255.9,229.9,253L229.9,253z M182.8,142.5h-24.4
		c-9.1,0-16.5,7.4-16.5,16.5v54.1c0,9.1,7.4,16.5,16.5,16.5h54.1c9.1,0,16.5-7.4,16.5-16.5v-19c0-4.1-3.4-7.5-7.5-7.5
		s-7.5,3.4-7.5,7.5v19c0,0.8-0.7,1.5-1.5,1.5h-54.1c-0.8,0-1.5-0.7-1.5-1.5V159c0-0.8,0.7-1.5,1.5-1.5h24.4c4.1,0,7.5-3.4,7.5-7.5
		S187,142.5,182.8,142.5z M412.9,15.4h-34.4c-4.1,0-7.5,3.4-7.5,7.5s3.4,7.5,7.5,7.5h34.4c12.3,0,22.4,10,22.4,22.4v421.8
		c0,12.3-10,22.4-22.4,22.4H99.1c-12.3,0-22.4-10-22.4-22.4V52.8c0-12.3,10-22.4,22.4-22.4h56.8v14.9h-51.8
		c-6.9,0-12.5,5.6-12.5,12.5v308.9c0,4.1,3.4,7.5,7.5,7.5s7.5-3.4,7.5-7.5V60.3h35.6c-0.8,2.3-1.3,4.8-1.3,7.4v20.8
		c0,12.4,10.1,22.4,22.4,22.4h185.1c12.4,0,22.4-10.1,22.4-22.4V67.7c0-2.6-0.5-5.1-1.3-7.4h35.6v328.8h-38.9
		c-20.6,0-37.4,16.8-37.4,37.4v38.9H106.6v-68.8c0-4.1-3.4-7.5-7.5-7.5s-7.5,3.4-7.5,7.5v71.3c0,6.9,5.6,12.5,12.5,12.5h232.4
		c2,0,3.9-0.8,5.3-2.2l0,0l76.3-76.3c1.3-1.3,2.1-3,2.2-4.8c0-0.1,0-339.2,0-339.3c0-6.9-5.6-12.5-12.5-12.5h-51.8V24.5
		c0-13.5-11-24.5-24.5-24.5H180.4c-10.3,0-19.1,6.4-22.7,15.4H99.1c-20.6,0-37.4,16.8-37.4,37.4v421.8c0,20.6,16.8,37.4,37.4,37.4
		h313.7c20.6,0,37.4-16.8,37.4-37.4V52.8C450.2,32.2,433.5,15.4,412.9,15.4z M344.1,454.8v-28.3c0-12.3,10-22.4,22.4-22.4h28.3
		L344.1,454.8z M170.9,24.5c0-5.2,4.2-9.5,9.5-9.5h151.2c5.2,0,9.5,4.2,9.5,9.5V52c0,5.2-4.2,9.5-9.5,9.5H180.4
		c-5.2,0-9.5-4.2-9.5-9.5L170.9,24.5z M156,67.7c0-2.1,0.9-4,2.3-5.3c3.9,8.3,12.4,14.1,22.1,14.1h151.2c9.8,0,18.2-5.8,22.1-14.1
		c1.4,1.4,2.3,3.2,2.3,5.3v20.8c0,4.1-3.3,7.4-7.4,7.4H163.4c-4.1,0-7.4-3.3-7.4-7.4L156,67.7z M141.9,315.2
		c0,9.1,7.4,16.5,16.5,16.5h54.1c9.1,0,16.5-7.4,16.5-16.5v-19c0-4.1-3.4-7.5-7.5-7.5s-7.5,3.4-7.5,7.5v19c0,0.8-0.7,1.5-1.5,1.5
		h-54.1c-0.8,0-1.5-0.7-1.5-1.5v-54.1c0-0.8,0.7-1.5,1.5-1.5h24.4c4.1,0,7.5-3.4,7.5-7.5s-3.4-7.5-7.5-7.5h-24.4
		c-9.1,0-16.5,7.4-16.5,16.5V315.2z M255.6,361.7h107c4.1,0,7.5-3.4,7.5-7.5s-3.4-7.5-7.5-7.5h-107c-4.1,0-7.5,3.4-7.5,7.5
		S251.5,361.7,255.6,361.7L255.6,361.7z M141.9,417.3c0,9.1,7.4,16.5,16.5,16.5h54.1c9.1,0,16.5-7.4,16.5-16.5v-19
		c0-4.1-3.4-7.5-7.5-7.5s-7.5,3.4-7.5,7.5v19c0,0.8-0.7,1.5-1.5,1.5h-54.1c-0.8,0-1.5-0.7-1.5-1.5v-54.1c0-0.8,0.7-1.5,1.5-1.5h24.4
		c4.1,0,7.5-3.4,7.5-7.5s-3.4-7.5-7.5-7.5h-24.4c-9.1,0-16.5,7.4-16.5,16.5V417.3z M255.6,391.7h62c4.1,0,7.5-3.4,7.5-7.5
		s-3.4-7.5-7.5-7.5h-62c-4.1,0-7.5,3.4-7.5,7.5S251.5,391.7,255.6,391.7L255.6,391.7z M255.6,289.6h62c4.1,0,7.5-3.4,7.5-7.5
		s-3.4-7.5-7.5-7.5h-62c-4.1,0-7.5,3.4-7.5,7.5S251.5,289.6,255.6,289.6L255.6,289.6z M255.6,259.6h107c4.1,0,7.5-3.4,7.5-7.5
		s-3.4-7.5-7.5-7.5h-107c-4.1,0-7.5,3.4-7.5,7.5S251.5,259.6,255.6,259.6L255.6,259.6z M255.6,187.5h107c4.1,0,7.5-3.4,7.5-7.5
		s-3.4-7.5-7.5-7.5h-107c-4.1,0-7.5,3.4-7.5,7.5S251.5,187.5,255.6,187.5L255.6,187.5z M255.6,157.5h107c4.1,0,7.5-3.4,7.5-7.5
		s-3.4-7.5-7.5-7.5h-107c-4.1,0-7.5,3.4-7.5,7.5S251.5,157.5,255.6,157.5L255.6,157.5z"/>
</g>
<path class="st0" d="M229.9,150.9c-2.9-2.9-7.7-2.9-10.6,0l-28.1,28.3c-0.4,0.4-0.8,0.4-1.1,0.4h0c-0.3,0-0.7-0.1-1.1-0.4
	l-10.4-10.4c-2.9-2.9-7.7-2.9-10.6,0s-2.9,7.7,0,10.6l10.4,10.4c3.1,3.1,7.3,4.8,11.7,4.8h0c4.4,0,8.6-1.7,11.7-4.9l28.1-28.3
	C232.8,158.6,232.8,153.8,229.9,150.9z"/>
<path class="st0" d="M229.9,253c-2.9-2.9-7.7-2.9-10.6,0l-28.1,28.3c-0.4,0.4-0.8,0.4-1.1,0.4h0c-0.3,0-0.7-0.1-1.1-0.4l-10.4-10.4
	c-2.9-2.9-7.7-2.9-10.6,0s-2.9,7.7,0,10.6l10.4,10.4c3.1,3.1,7.3,4.8,11.7,4.8h0c4.4,0,8.6-1.7,11.7-4.9l28.1-28.3
	C232.8,260.7,232.8,255.9,229.9,253z"/>
<path class="st0" d="M229.9,355.1c-2.9-2.9-7.7-2.9-10.6,0l-28.1,28.3c-0.4,0.4-0.8,0.4-1.1,0.4h0c-0.3,0-0.7-0.1-1.1-0.4L178.6,373
	c-2.9-2.9-7.7-2.9-10.6,0s-2.9,7.7,0,10.6l10.4,10.4c3.1,3.1,7.3,4.8,11.7,4.8h0c4.4,0,8.6-1.7,11.7-4.9l28.1-28.3
	C232.8,362.8,232.8,358,229.9,355.1z"/>
</svg>
