<?xml version="1.0" encoding="utf-8"?>
<!-- Generator: Adobe Illustrator 25.0.1, SVG Export Plug-In . SVG Version: 6.00 Build 0)  -->
<svg version="1.1" id="Capa_1" xmlns="http://www.w3.org/2000/svg" xmlns:xlink="http://www.w3.org/1999/xlink" x="0px" y="0px"
	 viewBox="0 0 512 512" style="enable-background:new 0 0 512 512;" xml:space="preserve">
<style type="text/css">
	.st0{fill:#825AB0;}
</style>
<g>
	<g>
		<path d="M451.5,190.5c7.8-13.9,5.1-31.2-6.6-42c-4.9-4.5-7.1-11.4-5.8-18c3.1-15.6-4.8-31.2-19.3-37.9
			c-6.1-2.8-10.3-8.6-11.1-15.3c-1.9-15.8-14.2-28.2-30.1-30.1c-6.6-0.8-12.5-5-15.3-11.1c-6.7-14.5-22.2-22.4-37.9-19.3
			c-6.6,1.3-13.4-0.9-18-5.8c-10.8-11.7-28.1-14.4-42-6.7c-5.8,3.3-13.1,3.3-18.9,0c-13.9-7.8-31.2-5.1-42,6.7
			c-4.5,4.9-11.4,7.1-18,5.8c-15.6-3.1-31.2,4.8-37.9,19.3c-2.8,6.1-8.6,10.3-15.3,11.1c-15.8,1.9-28.2,14.2-30.1,30.1
			c-0.8,6.6-5,12.5-11.1,15.3c-14.5,6.7-22.4,22.2-19.3,37.9c1.3,6.6-0.9,13.4-5.8,18c-11.7,10.8-14.4,28.1-6.7,42
			c3.3,5.8,3.3,13.1,0,18.9c-7.8,13.9-5.1,31.2,6.7,42c4.9,4.5,7.1,11.4,5.8,18c-3.1,15.6,4.8,31.2,19.3,37.9
			c6.1,2.8,10.3,8.6,11.1,15.3c1.6,13.2,10.4,23.9,22.4,28.2L72.9,459c-1.2,2.4-1,5.2,0.5,7.4c1.5,2.2,4,3.5,6.6,3.4l50.7-2.6
			l29.2,41.6c1.4,2,3.7,3.2,6.1,3.2c0.2,0,0.4,0,0.6,0c2.6-0.2,5-1.8,6.1-4.2l52.8-108.2c7,0.8,14.3-0.5,20.9-4.2
			c5.8-3.3,13.1-3.3,18.9,0c5.3,3,11.1,4.4,16.8,4.4c1.5,0,3-0.1,4.5-0.3l52.9,108.3c1.2,2.4,3.5,4,6.1,4.2c0.2,0,0.4,0,0.6,0
			c2.4,0,4.7-1.2,6.1-3.2l29.2-41.6l50.7,2.6c2.6,0.1,5.2-1.1,6.6-3.4c1.5-2.2,1.6-5,0.5-7.4l-52.9-108.5
			c11.8-4.4,20.5-15.1,22-28.1c0.8-6.6,5-12.5,11.1-15.3c14.5-6.7,22.4-22.2,19.3-37.9c-1.3-6.5,0.9-13.4,5.8-18
			c11.7-10.8,14.4-28.1,6.6-42C448.2,203.5,448.2,196.3,451.5,190.5z M164.9,489.8l-24.3-34.6c-1.5-2.1-3.9-3.3-6.5-3.2L92,454.2
			l48.5-99.4c3.6,2,6.5,5,8.2,8.8c3.6,7.7,9.7,13.6,17,16.9l-16,32.9c-1.8,3.7-0.3,8.2,3.4,10c1.1,0.5,2.2,0.8,3.3,0.8
			c2.8,0,5.4-1.5,6.7-4.2l17.8-36.4c1.9-0.1,3.8-0.3,5.7-0.7c6.6-1.3,13.4,0.9,18,5.8c2.1,2.2,4.4,4.2,6.9,5.7L164.9,489.8z
			 M420.5,454.2l-42.2-2.1c-2.6-0.1-5,1.1-6.5,3.2l-24.3,34.6l-46.6-95.5c2.4-1.5,4.6-3.4,6.6-5.5c4.5-4.9,11.4-7.1,18-5.8
			c2.1,0.4,4.1,0.6,6.1,0.7l17.8,36.4c1.3,2.7,4,4.2,6.7,4.2c1.1,0,2.2-0.2,3.3-0.8c3.7-1.8,5.3-6.3,3.5-10l-16.1-33
			c7.1-3.3,13.1-9.1,16.6-16.8c1.8-3.9,4.9-7,8.6-9L420.5,454.2z M434.7,240.3c-8.7,8.1-12.7,20.3-10.4,31.9
			c1.8,8.8-2.7,17.6-10.9,21.3c-10.8,5-18.3,15.4-19.7,27.1c-1.1,8.9-8,15.9-16.9,16.9c-11.8,1.4-22.2,8.9-27.1,19.7
			c-3.8,8.1-12.5,12.6-21.3,10.9c-11.6-2.3-23.9,1.7-31.9,10.4c-6.1,6.6-15.8,8.1-23.6,3.7c-5.2-2.9-11-4.4-16.8-4.4
			c-5.8,0-11.6,1.5-16.8,4.4c-7.8,4.4-17.5,2.8-23.6-3.7c-8.1-8.7-20.3-12.7-31.9-10.4c-8.8,1.8-17.6-2.7-21.3-10.9
			c-5-10.8-15.4-18.3-27.1-19.7c-8.9-1.1-15.9-8-16.9-16.9c-1.4-11.8-8.9-22.2-19.7-27.1c-8.2-3.8-12.6-12.5-10.9-21.3
			c2.3-11.6-1.7-23.9-10.4-31.9c-6.6-6.1-8.1-15.8-3.7-23.6c5.8-10.3,5.8-23.2,0-33.6c-4.4-7.8-2.8-17.5,3.7-23.6
			c8.7-8.1,12.7-20.3,10.4-31.9c-1.8-8.8,2.7-17.6,10.9-21.3c10.8-5,18.3-15.4,19.7-27.1c1.1-8.9,8-15.9,16.9-16.9
			c11.8-1.4,22.2-8.9,27.1-19.7c3.8-8.2,12.5-12.6,21.3-10.9c11.6,2.3,23.9-1.7,31.9-10.4c6.1-6.6,15.8-8.1,23.6-3.7
			c10.3,5.8,23.2,5.8,33.6,0c7.8-4.4,17.5-2.8,23.6,3.7c8,8.7,20.3,12.7,31.9,10.4c8.8-1.8,17.6,2.7,21.3,10.9
			c5,10.8,15.4,18.3,27.1,19.7c8.9,1.1,15.9,8,16.9,16.9c1.4,11.8,8.9,22.2,19.7,27.1c8.1,3.8,12.6,12.5,10.9,21.3
			c-2.3,11.6,1.7,23.9,10.4,31.9c6.6,6.1,8.1,15.8,3.7,23.6c-5.8,10.4-5.8,23.2,0,33.6C442.8,224.5,441.3,234.2,434.7,240.3z"/>
	</g>
</g>
<g>
	<g>
		<path class="st0" d="M375.7,167.8c0-13-10.6-23.5-23.5-23.5h-51.1c4.3-8.1,9.9-19.8,14.5-33.8c3.5-10.7-2.4-22.3-13.2-25.9
			l-0.5-0.2c-9.9-3.3-20.7,1.4-25.3,10.8c-6.6,13.9-21.4,38.4-46.3,49h-4.9c-4.3-4.9-10.6-8-17.7-8h-32.1c-13,0-23.5,10.6-23.5,23.5
			V272c0,13,10.6,23.5,23.5,23.5h32.1c7,0,13.4-3.1,17.7-8h102.6c13,0,23.5-10.6,23.5-23.5c0-4.4-1.2-8.5-3.3-12
			c6.8-4.1,11.3-11.6,11.3-20.1c0-4.4-1.2-8.5-3.3-12c6.8-4.1,11.3-11.6,11.3-20.1c0-4.4-1.2-8.5-3.3-12
			C371.2,183.8,375.7,176.3,375.7,167.8z M352.2,176.4h-24c-4.1,0-7.5,3.4-7.5,7.5s3.4,7.5,7.5,7.5h16c4.7,0,8.5,3.8,8.5,8.5
			s-3.8,8.5-8.5,8.5h-24c-4.1,0-7.5,3.4-7.5,7.5s3.4,7.5,7.5,7.5h16c4.7,0,8.5,3.8,8.5,8.5s-3.8,8.5-8.5,8.5h-24
			c-4.1,0-7.5,3.4-7.5,7.5s3.4,7.5,7.5,7.5h16c4.7,0,8.5,3.8,8.5,8.5s-3.8,8.5-8.5,8.5h-96.7v-72.7c0-4.1-3.4-7.5-7.5-7.5
			s-7.5,3.4-7.5,7.5V272c0,4.7-3.8,8.5-8.5,8.5h-32.1c-4.7,0-8.5-3.8-8.5-8.5V159.8c0-4.7,3.8-8.5,8.5-8.5h32.1
			c4.7,0,8.5,3.8,8.5,8.5v8c0,4.1,3.4,7.5,7.5,7.5s7.5-3.4,7.5-7.5v-8.5h0.5c1,0,1.9-0.2,2.8-0.5c30.4-12.2,47.9-41,55.5-57
			c1.3-2.7,4.3-4,7-3.1l0.5,0.2c3,1,4.6,4.1,3.7,7c-8,24.3-19.4,41.7-19.6,41.8c-1.5,2.3-1.7,5.3-0.4,7.7c1.3,2.4,3.8,4,6.6,4h64.1
			c4.7,0,8.5,3.8,8.5,8.5S356.9,176.4,352.2,176.4z"/>
	</g>
</g>
<g>
	<g>
		<circle class="st0" cx="192" cy="256" r="7.5"/>
	</g>
</g>
</svg>
