<svg xmlns="http://www.w3.org/2000/svg" viewBox="0 0 333.89 323.62"><defs><style>.cls-1{fill:#825ab0;}</style></defs><g id="Layer_2" data-name="Layer 2"><g id="Layer_1-2" data-name="Layer 1"><path d="M0,225.65a24.47,24.47,0,0,1,9.85-14.49c1.36-.93,1.56-1.84.74-3.25-3.5-6-4.42-12.57-4.27-19.44.16-7.81,0-15.64,0-23.45.07-12.55,8.57-21,21.19-21q10.43,0,20.84,0c12,0,20.53,7.33,21.16,19.31a238.8,238.8,0,0,1-.22,32.54A26.53,26.53,0,0,1,66,206.68c-1,1.71-1.06,2.85.9,3.93,2.32,1.28,3.86,3.45,5.44,5.54,7.05,9.37,14.17,18.69,21.15,28.11a6.11,6.11,0,0,0,5.7,2.87c4-.18,8-.14,12,0,2.53.08,3.53-.87,3.45-3.41-.13-4.13.12-8.26-.06-12.38-.4-9.26,3.78-16,11.1-21.19a48.23,48.23,0,0,1,8.74-5c1.45-.62,2-1.42,1.46-3-1.73-5.11-1.92-10.43-1.78-15.76.23-8.46-.69-17,.5-25.37A19.57,19.57,0,0,1,154,144.05c12.38-.11,24.76-.05,37.14,0,4.41,0,6.41,2,6.43,6.37q.06,21.5,0,43a22.09,22.09,0,0,1-1.26,7.35c-.77,2.16,0,3.07,1.92,3.93a47,47,0,0,1,13.4,8.53A21.73,21.73,0,0,1,218.93,230c0,4.67,0,9.34,0,14,0,2.2.82,3.15,3.07,3.1,4.56-.08,9.12-.1,13.68,0,2.07,0,3.11-1.16,4.19-2.59q10.38-13.78,20.79-27.56c1.9-2.52,3.76-5.08,6.54-6.72,1.34-.78,1.43-1.64.7-2.93-3.42-6.06-4.23-12.69-4.05-19.51.23-8.9-.71-17.83.48-26.68A19.6,19.6,0,0,1,283.86,144q11.72-.12,23.45,0a19.9,19.9,0,0,1,19.88,19.62c.18,10,.13,20,0,30a28.7,28.7,0,0,1-4,14c-.93,1.62-.81,2.59.78,3.76,6.88,5,10.12,11.84,9.92,20.47-.23,9.65-.05,19.32-.06,29,0,.76,0,1.52,0,2.28-.18,3.23-2.09,5.31-4.93,5.41s-5.21-2.07-5.23-5.41c-.08-10.43,0-20.85-.05-31.28,0-4.94-1.63-9.14-5.85-12.07a5.11,5.11,0,0,0-6.22-.31c-10.43,6-21.06,6.05-31.62.23-4.46-2.46-6.35-2.22-9.56,1.92-4,5.24-8,10.54-12,15.83-4.19,5.54-8.44,11-12.51,16.67a8.27,8.27,0,0,1-7.43,3.74c-10.53-.12-21.06-.1-31.59,0a8.32,8.32,0,0,0-8.51,7.43,8.44,8.44,0,0,0,6.25,9.42,15.62,15.62,0,0,0,3.87.32c12.06,0,24.11-.2,36.16.12,5.19.14,8.59-1.91,11.5-5.88,6-8.14,12.13-16.15,18.21-24.21.33-.43.64-.87,1-1.3,2.33-2.88,5.52-3.57,7.92-1.71s2.59,5,.32,8.1c-2.77,3.76-5.3,7.76-8.49,11.12-5.84,6.16-7.94,13.1-7.29,21.57.66,8.63.24,17.36.09,26-.05,3,.77,4.24,4,4.21q23.94-.19,47.88,0c2.9,0,4-.78,4-3.87-.2-7.49-.08-15-.06-22.48,0-4.05,2.08-6.51,5.27-6.4s4.94,2.44,4.95,6.39q0,15,0,30c0,5.35-1.61,6.94-7,6.94H194.85q-93.65,0-187.3,0c-3,0-5.63-.31-7.55-2.84V283c1.92-1.88,3.91-3.56,6.88-2.24s3.17,3.78,3.14,6.53C10,294.66,10.1,302,10,309.42c0,2.67.83,3.63,3.54,3.62q24.26-.14,48.51,0c2.8,0,3.84-.91,3.79-3.76-.14-7.71-.66-15.48.1-23.11,1.1-10.87-1.72-19.9-9.37-27.69a65.86,65.86,0,0,1-7.21-9.63,4.9,4.9,0,0,1,1.26-6.92,5,5,0,0,1,6.81.68A31.22,31.22,0,0,1,60,245.89q9.43,12.47,18.84,24.94c1.77,2.32,3.91,4.13,7,4.13,13.78,0,27.57.08,41.35,0a8.2,8.2,0,0,0,8.06-7.51c.55-5.47-3.16-9.57-8.94-9.62-10.31-.08-20.62-.11-30.93,0A8.54,8.54,0,0,1,87.72,254c-5.43-7.46-11-14.79-16.61-22.13-3-4-6-8-9.26-11.75-1.63-1.88-3.74-3.28-6.57-1.5-11.16,7-22.51,7-33.85.46a4,4,0,0,0-4.52,0c-4.83,2.75-6.86,7.08-6.89,12.44-.06,10.21,0,20.41,0,30.61,0,2.71-.59,5-3.41,6s-5-.3-6.6-2.74Zm166.8,60H111.42c-10.54,0-21.07,0-31.6,0-2.47,0-3.51.72-3.46,3.35.14,6.94.12,13.89,0,20.84,0,2.45,1,3.28,3.29,3.21,3.36-.11,6.73,0,10.1,0H252.64c4.54,0,4.55,0,4.56-4.49q0-9.28,0-18.56c0-4.26,0-4.28-4.4-4.28ZM166.74,275c6.4,0,12.8-.08,19.2,0,2.54.05,3.67-.37,2.56-3.24a14.63,14.63,0,0,1-.78-7.69c1.55-9.21,7.4-15.24,16.7-16.57,3.18-.45,4.15-1.7,3.94-4.81a87.81,87.81,0,0,1,0-12c.35-4.89-1.8-8.33-5.42-11.17a50.72,50.72,0,0,0-10.72-6.1,2.68,2.68,0,0,0-3.49.61,31.47,31.47,0,0,1-45.21.51,2.57,2.57,0,0,0-3.22-.61c-4.17,1.9-8.18,4-11.49,7.26a10.73,10.73,0,0,0-3.55,8.41c.15,4.33.24,8.69,0,13-.21,3.26.87,4.48,4.16,5,12.11,1.79,19,12.62,15.63,24.41-.82,2.83.18,3.08,2.51,3C153.93,274.93,160.33,275,166.74,275Zm-.92-97.34c-6,0-11.92.09-17.88,0-2.45-.05-3.23.88-3.16,3.24.14,4.11-.05,8.24.08,12.35a20.86,20.86,0,0,0,21.07,20,20.64,20.64,0,0,0,20.93-20.06c.11-4.11-.06-8.24.08-12.35.07-2.41-.86-3.23-3.24-3.18C177.74,177.74,171.78,177.66,165.82,177.66Zm-127.38-23v0c-4.23,0-8.46-.13-12.68,0a8.81,8.81,0,0,0-8.64,8.5c-.18,7.8-.07,15.61-.08,23.42,0,1.26.26,2.3,1.67,2.81A14.28,14.28,0,0,0,36.23,182c1.51-3.42,1.89-7.08,2.43-10.73.91-6.17,4.42-7.68,9.53-4.2a15,15,0,0,0,8.43,3c1,0,1.92,0,2.38-1.21,2.49-6.37-2.36-14-9.17-14.2C46,154.59,42.24,154.69,38.44,154.69Zm257.25,0h-12a8.84,8.84,0,0,0-6.4,2.72c-2.77,2.71-2.77,6.15-2.81,9.67,0,2.49,1,3.29,3.31,3,3.25-.34,5.92-1.86,8.57-3.62,3.93-2.6,7.56-1,8.43,3.64.29,1.6.42,3.22.63,4.83,1.47,11.23,7.13,15.8,18,14.73,2.32-.23,3.22-1.2,3.2-3.49-.07-7.48.06-15-.07-22.44a9,9,0,0,0-9.14-9.06C303.49,154.6,299.59,154.69,295.69,154.69Zm-.32,58.53a20.21,20.21,0,0,0,17.31-8.65c.8-1.08,2.29-2.31,1.63-3.65s-2.38-.48-3.61-.46c-10.46.09-18.18-4.27-22.73-13.81-1.1-2.31-1.29-5.89-3-6.85s-4.91.82-7.47.92-3.13,1.19-3,3.44c.13,2.81,0,5.64.05,8.46A20.93,20.93,0,0,0,295.37,213.22ZM59.11,189.59a40.49,40.49,0,0,1,0-4.22c.35-3.11-.42-5-4.1-4.76a12.16,12.16,0,0,1-4.42-.93c-1.91-.64-2.65-.05-3.16,1.87-3.59,13.52-13.79,19.74-25.94,18.85-2.38-.18-3,.41-1.68,2.64,6.07,10.35,20.28,13.52,30.08,6.57C57,204.56,59.69,197.46,59.11,189.59ZM165.83,167.4c4,0,8,.08,12,0,10.78-.26,8.81,2.21,9.06-9.67.05-2.24-.85-3.09-3.07-3.07-10,.06-19.95-.05-29.93.08-5.3.07-8.95,4.16-9.13,9.48-.08,2.38.7,3.28,3.15,3.23C153.9,167.31,159.87,167.4,165.83,167.4Z"/><path d="M246.85,138c0-2.77,0-5.55,0-8.32.09-4.4,1.5-5.95,5.88-6.62,8.58-1.32,12.88-6.35,12.89-15.15q0-22,0-44c0-9.37-5.38-14.7-14.79-14.71-25.74,0-51.47,0-77.2-.06-3,0-4.18.77-4.12,4,.18,10.31.1,20.63,0,30.94-.07,16.56-11.82,29.15-28.26,30.42-1.25.09-3.09-.25-3.55,1-.6,1.56,1,2.7,2.08,3.73,3.08,3,6.91,3.91,11.06,3.91,8.58,0,17.15,0,25.73,0,4,0,6.26,1.82,6.34,5s-2.3,5.23-6.43,5.25c-9.23,0-18.46,0-27.68,0a23.23,23.23,0,0,1-21.9-15.1c-1-2.62-2.32-3.45-5-3.44q-30.47.14-60.91,0a7,7,0,0,0-5.47,2.26c-6,6.13-12.12,12.14-18.15,18.24-2,2-4.15,3.67-7.17,2.4s-3.18-3.8-3.15-6.54c.06-4.67-.05-9.34.05-14,0-2.09-.73-3-2.78-3.62-13.77-4.17-22-15.24-22-29.58q0-26.7,0-53.41C2.45,13.09,15.45,0,32.86,0Q86,0,139.05,0c17.37,0,30.41,13.11,30.53,30.53.06,8,.06,8,8.16,8h72.31c15.95,0,26.11,10,26.2,26q.13,21.49,0,43c-.07,11.83-5.19,20.41-16.57,24.67-1.78.66-2.21,1.73-2.18,3.44.06,4.88,0,9.77,0,14.65,0,2.68-.64,5.06-3.3,6.19s-4.77,0-6.68-2c-6.26-6.34-12.62-12.57-18.84-18.93a6.86,6.86,0,0,0-5.43-2.29c-7.38.12-14.77.07-22.15,0-3.92,0-6.29-1.9-6.39-5s2.37-5.23,6.43-5.24c8.69,0,17.37,0,26.06,0a8,8,0,0,1,6.35,2.62c4.09,4.28,8.3,8.44,12.46,12.65ZM37.41,119.39c1.75-.1,2.28-1.18,3-1.89,2.88-2.81,5.9-5.5,8.49-8.55,3.06-3.61,6.61-4.84,11.36-4.8,26,.21,52.11.12,78.16.09,12.25,0,20.44-8.16,20.49-20.4q.09-26.55,0-53.09c0-12.15-7.77-20.07-19.9-20.1q-53.09-.15-106.16,0c-12,0-19.77,7.91-19.83,19.82q-.15,26.87,0,53.73c.06,11.3,7.26,19,18.54,20,4.47.43,5.78,1.85,5.83,6.47C37.43,113.58,37.41,116.46,37.41,119.39Z"/><path class="cls-1" d="M86,36.87H43.33a11,11,0,0,1-4.19-.38c-2.23-.89-3.56-2.46-3.48-4.95a4.68,4.68,0,0,1,3.63-4.8,16.3,16.3,0,0,1,4.18-.47q42.48,0,85,0c5.21,0,7.84,1.8,7.88,5.27,0,3.64-2.52,5.36-8,5.36Z"/><path class="cls-1" d="M86.16,52.13h42.32a20.67,20.67,0,0,1,3.25.09A4.9,4.9,0,0,1,136.29,57a4.7,4.7,0,0,1-3.83,5.29,20.07,20.07,0,0,1-4.84.46q-41.67,0-83.34,0a20,20,0,0,1-4.83-.47,4.69,4.69,0,0,1-3.77-5.33A4.82,4.82,0,0,1,40,52.26a16.62,16.62,0,0,1,3.24-.13Q64.67,52.11,86.16,52.13Z"/><path class="cls-1" d="M63.18,88.32c-7.15,0-14.31.06-21.46,0-4.2-.05-6.72-2.75-6-6.26a5.12,5.12,0,0,1,5.37-4.31q22.1-.1,44.21,0c3.45,0,5.89,2.49,5.86,5.34,0,3.06-2.48,5.21-6.22,5.24C77.7,88.36,70.44,88.32,63.18,88.32Z"/></g></g></svg>