<?xml version="1.0" encoding="utf-8"?>
<!-- Generator: Adobe Illustrator 25.0.1, SVG Export Plug-In . SVG Version: 6.00 Build 0)  -->
<svg version="1.1" id="Capa_1" xmlns="http://www.w3.org/2000/svg" xmlns:xlink="http://www.w3.org/1999/xlink" x="0px" y="0px"
	 viewBox="0 0 512 512" style="enable-background:new 0 0 512 512;" xml:space="preserve">
<style type="text/css">
	.st0{fill:#825AB0;}
</style>
<g>
	<g>
		<path d="M267.4,249.8c0-50.4-41-91.3-91.3-91.3c-17.3,0-34.2,4.9-48.8,14.1c-4.7,3-6.1,9.1-3.1,13.8c3,4.7,9.1,6.1,13.8,3.1
			c8.5-5.4,18.1-9,28.1-10.3v66.5l-47,47c-8-10.6-12.9-23.4-14-36.7c-0.5-5.5-5.3-9.6-10.8-9.1c-5.5,0.5-9.6,5.3-9.1,10.8
			c0.2,2.7,0.6,5.3,1,7.9c3,17.1,10.8,33,22.6,45.8c0.9,1,1.8,2,2.8,2.9c0,0,0,0,0,0c17.2,17.3,40.2,26.8,64.6,26.8
			C226.5,341.1,267.4,300.2,267.4,249.8L267.4,249.8z M183.2,256.9c1.9-1.9,2.9-4.4,2.9-7.1v-70.6c34.6,4.9,61.3,34.7,61.3,70.6
			c0,39.3-32,71.3-71.3,71.3c-15.7,0-30.6-5-42.9-14.3L183.2,256.9z"/>
		<path d="M233.9,370c-3-4.6-9.4-5.8-13.9-2.8c-4.5,3-5.8,9.3-2.8,13.9C224.4,391.9,241,380.8,233.9,370L233.9,370z"/>
		<path d="M275.4,414.3c-2.1-5-8-7.5-13.1-5.4c-5,2.1-7.5,8-5.4,13.1C261.8,433.9,280.3,426.2,275.4,414.3z"/>
		<path d="M259.7,368.5l-42.5,42.5c-3.9,3.9-3.9,10.2,0,14.1c2,2,4.5,2.9,7.1,2.9s5.1-1,7.1-2.9l42.5-42.5c3.9-3.9,3.9-10.2,0-14.1
			C269.9,364.6,263.6,364.6,259.7,368.5z"/>
		<path d="M466.9,0h-147c-22.4,0-40.7,18.3-40.7,40.7V90l-0.9,0.9H65.9c-22.3,0-40.4,18.1-40.4,40.4v16.7H14.4c-5.5,0-10,4.5-10,10
			s4.5,10,10,10h11.1v40.8H14.4c-5.5,0-10,4.5-10,10s4.5,10,10,10h11.1v40.8H14.4c-5.5,0-10,4.5-10,10s4.5,10,10,10h11.1v40.8H14.4
			c-5.5,0-10,4.5-10,10s4.5,10,10,10h11.1v40.8H14.4c-5.5,0-10,4.5-10,10s4.5,10,10,10h11.1v18c0,22.3,18.1,40.4,40.4,40.4h10.9v5.4
			c0,20.6,16.8,37.4,37.3,37.4h236.5c5.5,0,10-4.5,10-10V400.4c0-5.5-4.5-10-10-10s-10,4.5-10,10V492H114.1
			c-9.6,0-17.3-7.8-17.3-17.4v-5.4h211.9c5.5,0,10-4.5,10-10V228.6c0.3,0,0.5,0,0.8,0c0.1,0,0.2,0,0.3,0h20.8v83.5
			c0,5.5,4.5,10,10,10s10-4.5,10-10v-83.5h106.3c22.4,0,40.7-18.3,40.7-40.7V40.7C507.6,18.3,489.3,0,466.9,0L466.9,0z M298.7,449.3
			H65.9c-11.2,0-20.4-9.1-20.4-20.4v-18h11.1c5.5,0,10-4.5,10-10s-4.5-10-10-10H45.5v-40.8h11.1c5.5,0,10-4.5,10-10s-4.5-10-10-10
			H45.5v-40.8h11.1c5.5,0,10-4.5,10-10s-4.5-10-10-10H45.5v-40.8h11.1c5.5,0,10-4.5,10-10s-4.5-10-10-10H45.5v-40.8h11.1
			c5.5,0,10-4.5,10-10s-4.5-10-10-10H45.5v-16.7c0-11.2,9.1-20.4,20.4-20.4h193l-24,24.6c-6.1,6.2-1.5,17,7.2,17h37.2V188
			c0,14.1,7.5,27.5,19.5,34.8V449.3z M487.6,188c0,11.4-9.3,20.7-20.7,20.7l-147,0c-11.2,0-20.7-9.4-20.7-20.7v-45.5
			c0-5.5-4.5-10-10-10h-23.5l30.6-31.4c1.8-1.9,2.8-4.4,2.8-7V40.7c0-11.4,9.3-20.7,20.7-20.7h147c11.4,0,20.7,9.3,20.7,20.7
			L487.6,188L487.6,188z"/>
		<path d="M359.9,352.5c-2.1-5-8-7.5-13.1-5.4c-5,2.1-7.5,8-5.4,13.1c2.1,5,8,7.5,13.1,5.4C359.5,363.4,361.9,357.5,359.9,352.5z"/>
		<path class="st0" d="M392.9,57.7c-56.4,0-81.8,43.6-82.8,45.4c-1.7,3.1-1.7,6.8,0,9.9c1.1,1.9,26.5,45.4,82.8,45.4
			c56.4,0,81.8-43.6,82.8-45.4c1.7-3.1,1.7-6.8,0-9.9C474.7,101.3,449.3,57.7,392.9,57.7z M392.9,125.5c-10.4,0-18.8-8.4-18.8-18.8
			s8.4-18.8,18.8-18.8c10.4,0,18.8,8.4,18.8,18.8S403.2,125.5,392.9,125.5z M330.9,108.1c4.8-6.2,14.8-17,30.5-23.9
			c-4.5,6.4-7.2,14.1-7.2,22.5c0,10.3,4.1,19.7,10.7,26.7C347.1,126.7,336,114.8,330.9,108.1z M421,133.4c6.6-7,10.7-16.4,10.7-26.7
			c0-8.4-2.7-16.2-7.3-22.6c15.8,6.9,25.7,17.7,30.5,23.9C449.8,114.8,438.7,126.7,421,133.4z"/>
		<path d="M93.9,217.7c2,4.9,7.9,7.4,12.8,5.5c5.2-2,7.8-8.1,5.6-13.2c-2-4.8-7.8-7.3-12.7-5.5C94.5,206.5,91.8,212.6,93.9,217.7
			L93.9,217.7z"/>
	</g>
</g>
</svg>
