<?xml version="1.0" encoding="utf-8"?>
<!-- Generator: Adobe Illustrator 25.0.1, SVG Export Plug-In . SVG Version: 6.00 Build 0)  -->
<svg version="1.1" id="Layer_1" xmlns="http://www.w3.org/2000/svg" xmlns:xlink="http://www.w3.org/1999/xlink" x="0px" y="0px"
	 viewBox="0 0 384 384" style="enable-background:new 0 0 384 384;" xml:space="preserve">
<style type="text/css">
	.st0{fill:#10528E;}
</style>
<g id="Layer_2_1_">
	<g id="Layer_1-2">
		<path d="M253.8,0c1.8,0.7,3.7,1.4,5.5,2.2c14.1,6.4,18.7,23.3,9.6,35.7c-10.3,14.1-20.8,28-31.3,42c-0.7,1-1.4,2-2.2,3.2
			c15,3.8,22.1,13.1,21.4,28.3c15.5,2.3,23.8,11,24.1,26.8c2.8,0.4,5.6,1,8.4,1.8c12.5,4,19.4,17.3,15.4,29.8c-0.8,2.5-2,4.9-3.6,7
			c-12.9,17.5-25.9,34.8-38.9,52.2c-0.6,0.8-1.1,1.6-2,3h4.5c18.5,0,36.9,0.4,55.4-0.1c18-0.6,30.6,13.8,30.3,30.1
			c-0.6,30.4-0.6,60.9,0,91.3c0.3,17.1-13.3,31.1-30.4,30c-5-0.3-10,0-15-0.1c-3.7,0-6.2-2.3-6.3-5.5s2.5-5.7,6.4-5.7
			c5.5,0,11,0.1,16.5,0c10.2-0.2,17.4-7.4,17.4-17.6c0-31.2,0-62.4,0-93.6c0-10.5-7.2-17.6-17.7-17.6c-23.1,0-46.2-0.1-69.2,0.1
			c-1.9,0.1-3.8,0.7-5.3,1.9c-33.1,26.7-80.3,26.7-113.4,0.1c-1.6-1.2-3.6-1.9-5.6-2c-21.4-0.1-42.9-0.1-64.4-0.1
			c-10.7,0-17.8,7.1-17.8,17.8c0,30.8,0,61.6,0,92.4c0,11.6,7,18.5,18.7,18.5h211.1c1.2-0.1,2.5-0.1,3.7,0.1
			c2.8,0.2,4.8,2.6,4.7,5.4c0.1,3.2-1.6,5.1-4.8,5.7c-1.1,0.1-2.2,0.1-3.4,0.1c-70.5,0-141-0.2-211.4,0.2
			c-16.2,0.1-30.3-12.5-30-30.1c0.5-30.6,0.5-61.1,0-91.7c-0.3-16.1,12.5-30.3,29.9-29.8c17.1,0.5,34.2,0.1,51.3,0.1h4.6
			c-1.3-1.8-2.1-3-2.9-4.1c-8.8-11.9-13-25.6-16.7-39.7C93.7,162.1,87,135.9,79.6,110c-3.5-12.4,5.1-28.3,15.8-33.2
			c7.9-3.6,15.5-1.5,21.4,6.2c4.6,6,9,12.2,13.5,18.4c4.9,6.7,9.9,13.4,15.2,20.6c1.2-1.4,2.1-2.5,2.9-3.7L177.3,80
			c0.5-0.7,1-1.4,1.6-2.1c2.2-2.7,5.4-3.2,7.9-1.5c2.8,2,3.4,5.2,1.1,8.2c-4.4,6-9,12-13.5,17.9c-6.1,8.1-12.2,16.1-18.2,24.2
			c-6.3,8.3-15.2,8.2-21.4-0.2c-8.9-12-17.7-24.1-26.6-36.2c-3.5-4.8-7-5.3-11.2-1.2c-5.3,5.2-8.2,11.1-6,19.1
			c8.2,30,15.3,60.3,24.3,90c9.6,31.6,32,50.1,64.6,54.6c29.9,4.2,54.4-6.8,72.9-30.4c13.3-17.1,26-34.7,39-52.1
			c4.5-6,3.4-13.4-2.5-17.8s-13.1-3.1-17.7,3c-5.5,7.3-10.8,14.6-16.4,21.8c-1.1,1.5-2.5,2.7-4.2,3.4c-2.3,0.9-5-0.1-6.1-2.3
			c-1.5-2.4-1.1-4.7,0.6-6.9c7.1-9.5,14.1-19,21.2-28.5c2.8-3.7,3.6-7.6,1.7-11.9c-1.6-4.2-5.3-7.2-9.7-7.9c-4.9-0.8-9,0.6-12.1,4.9
			c-5.1,7.1-10.4,14-15.6,21c-2.7,3.6-6.1,4.6-8.9,2.5s-3-5.6-0.3-9.2c6.8-9.2,13.7-18.4,20.6-27.6c3.7-5,4-9.4,1-14.2
			s-8.3-7.3-13.8-5.7c-2.7,0.9-5,2.5-6.8,4.7c-4,4.6-7.4,9.7-11.1,14.6c-2.9,3.8-5.9,4.7-8.8,2.5s-3.1-5.6-0.1-9.5
			c18.9-25.3,37.7-50.6,56.6-75.8c2.7-3.6,3.5-7.4,2.1-11.6c-1.8-5.1-5.6-7.9-10.8-8.7c-4.7-0.7-8.4,1.3-11.3,5.1
			C228,31.8,216.5,47,205,62.2c-1.8,2.3-3.7,4.1-6.9,3.2c-4.4-1.3-5.5-5.7-2.3-9.9c7.8-10.4,15.6-20.7,23.4-31
			c2.7-3.6,5.6-7,8.1-10.8C231.7,7.2,237,2.1,244.8,0H253.8z"/>
		<path d="M175.2,0c2.6,1.6,3.8,3.9,3.9,7.1c0.2,5.8,1,11.6,1.3,17.4c0.2,3.9-1.9,6.2-5.2,6.4s-5.7-2-6-5.7
			c-0.5-5.8-0.9-11.6-1.5-17.4c-0.4-3.5,0.6-6.1,3.7-7.8L175.2,0z"/>
		<path class="st0" d="M185.4,335.9c-1.7,1.6-3.1,3.7-5.1,4.5c-2.7,1.1-5.2-0.2-6.5-3c-1.1-2.4-2-4.8-2.7-7.3c-0.6-2.1-1.6-3-4-3
			c-6.2,0.2-12.5-0.1-18.7,0.2c-1.4,0.3-2.6,1.1-3.4,2.4c-1.2,2.3-1.9,4.9-2.9,7.3c-1.4,3.2-4.3,4.5-7.3,3.5c-2.9-1-4.4-4.2-3.3-7.1
			c0-0.1,0.1-0.2,0.1-0.3c6.6-18.1,13.2-36.2,19.9-54.3c0.9-2.7,3.5-4.5,6.3-4.5c2.9-0.2,5.5,1.5,6.4,4.2
			c6.7,18.2,13.3,36.5,19.9,54.7c0.2,0.6,0.3,1.2,0.5,1.8L185.4,335.9z M150.1,315.7h15.7c-2.6-7-5-13.7-7.8-21.3
			C155.2,302,152.7,308.6,150.1,315.7L150.1,315.7z"/>
		<path class="st0" d="M222,340.8c-9.1-0.2-16.2-3.3-22-9.3c-2.8-2.9-2.9-5.8-0.6-8.3s5.6-2.6,8.5,0.3c4.1,4,9,6.4,14.8,5.8
			c2.5-0.3,4.8-1.2,6.8-2.6c3.9-2.9,3.7-7.9-0.2-10.8c-1.7-1.2-3.6-2.2-5.6-3c-3.9-1.7-7.8-3.2-11.7-4.9c-8-3.5-12-9.6-11.2-17
			c0.9-8.2,7.2-14.8,15.3-16.2c8.6-1.6,16.3,0.8,23.1,6c3,2.2,3.5,5.6,1.6,8.2s-5.1,3-8.3,0.8c-3.9-2.7-8.1-4.6-12.9-3.9
			c-2,0.2-3.8,1-5.4,2.1c-2.3,1.8-2.7,5.1-1,7.4c0.6,0.8,1.4,1.4,2.3,1.7c4.8,2.1,9.7,4,14.4,6.1c6.3,2.8,11.4,6.8,13.2,13.8
			c2.7,10.8-5.6,22-17.4,23.5C224.3,340.7,222.8,340.7,222,340.8z"/>
		<path class="st0" d="M94.4,285.9v16.3c4.9,0,9.6,0,14.3,0s7.3,2.2,7.2,5.7s-2.8,5.6-7.4,5.6s-9.2,0-14,0v15.9c4.8,0,9.6,0,14.4,0
			c1.4-0.1,2.7,0,4.1,0.2c3,0.8,4.7,2.7,4.5,6c-0.2,3-2,5-5,5c-8.1,0.2-16.2,0.2-24.3,0c-3.2-0.1-5.1-2.1-5.1-5.3
			c-0.1-18.5-0.1-36.9,0-55.4c0-3.4,2.2-5.2,5.6-5.3c7.7-0.1,15.5-0.1,23.2,0c3.5,0,5.7,2.3,5.7,5.5s-2.3,5.6-6.1,5.6
			C105.9,286,100.3,285.9,94.4,285.9z"/>
		<path class="st0" d="M278.8,296.7c4.1-6.4,8.1-12.4,12-18.4c1.6-2.5,3.7-4.1,6.8-3.3c4.1,1.1,5.4,5.3,2.8,9.4
			c-4.5,7.1-9.3,14.1-13.7,21.4c-1.3,2.2-2,4.7-2.1,7.2c-0.3,7-0.1,14-0.1,20.9c0,4.4-2.1,6.8-5.7,6.8s-5.6-2.4-5.6-6.8
			c0-7.2,0.1-14.5,0-21.7c-0.1-2.1-0.6-4.1-1.7-5.9c-4.5-7.3-9.3-14.4-14-21.6c-2.5-3.8-2.1-7.2,0.8-9.1c3-1.9,6.1-0.9,8.7,3
			C270.8,284.5,274.7,290.5,278.8,296.7z"/>
		<path d="M165.2,36.9c-1.2,1.6-2.1,3.7-3.6,4.4c-1.7,0.7-4.5,0.8-5.8-0.2c-6.5-5-12.7-10.4-18.8-15.9c-2.3-2.1-2.2-4.9-0.3-7.4
			c1.7-2.3,5-2.8,7.4-1.1c0.1,0.1,0.2,0.1,0.3,0.2c6.3,5.1,12.4,10.4,18.4,15.7C163.8,33.5,164.2,35.1,165.2,36.9z"/>
		<path d="M133,61.4c-0.9,0.1-1.9,0.1-2.8,0c-3.2-0.4-5-2.2-5.1-5.4s1.7-5.3,4.8-5.7c6.7-0.7,13.4-1.2,20.1-1.6
			c3.6-0.2,5.9,2,6.1,5.1c0.2,3.1-2.1,5.8-5.2,6c-0.1,0-0.1,0-0.2,0C144.7,60.4,138.8,60.9,133,61.4z"/>
	</g>
</g>
</svg>
