<?xml version="1.0" encoding="utf-8"?>
<!-- Generator: Adobe Illustrator 25.0.1, SVG Export Plug-In . SVG Version: 6.00 Build 0)  -->
<svg version="1.1" id="Layer_1" xmlns="http://www.w3.org/2000/svg" xmlns:xlink="http://www.w3.org/1999/xlink" x="0px" y="0px"
	 viewBox="0 0 384 384" style="enable-background:new 0 0 384 384;" xml:space="preserve">
<style type="text/css">
	.st0{fill:#10528E;}
</style>
<g id="Layer_2_1_">
	<g id="Layer_1-2">
		<path d="M13.5,384c-0.6-0.3-1.2-0.7-1.9-1c-7-3.2-10.9-8.5-10.9-16.3c0-92.6,0-185.1,0-277.7c-0.1-0.9,0-1.7,0.1-2.6
			c0.4-2.7,2.8-4.7,5.6-4.6c2.8-0.1,5.2,1.9,5.5,4.7c0.2,1.5,0.2,3,0.1,4.4v272.8c0,7.5,1.5,9.1,8.9,9.1c80.5,0,160.9,0,241.4,0
			c7.2,0,8.8-1.5,8.8-8.7v-61.8c-8,1.6-15.9,3.4-23.8,4.8c-3.9,0.6-7.9,0.8-11.9,0.7c-40.6,0-81.1,0-121.6,0c-1,0-2,0-3-0.1
			c-2.8,0-5-2.2-5.1-5c-0.3-3.2,1.4-5.2,4.4-6c1.2-0.2,2.5-0.3,3.7-0.2H188c-6.7-5.2-13.2-10.3-19.9-15.2c-0.9-0.7-2.6-0.6-3.9-0.6
			c-16.8,0-33.7,0-50.5,0c-1.6,0-3.7,0.1-4.7-0.8c-1.5-1.4-3.2-3.7-3.2-5.6c0.1-1.6,2.2-3.5,3.9-4.7c1-0.7,2.9-0.5,4.4-0.5
			c12.7,0,25.4,0,38.2,0h4.7c-1.1-1.7-1.8-2.7-2.4-3.6c-7.3-10.4-12.5-22.2-15.2-34.6c-0.6-2.6-1.5-3.4-4.2-3.3
			c-6.9,0.2-13.7,0.1-20.6,0.1c-6.4,0-9-1.7-9-5.8s2.5-5.6,9.1-5.6c6.1,0,12.2,0,18.3,0c1.2,0,2.4-0.1,3.8-0.2v-16h-18.3
			c-2.4,0-4.7,0.1-7.1,0c-3.6-0.1-5.8-2.2-5.9-5.4c-0.1-3.4,2.2-5.8,5.9-5.8c7.9-0.1,15.7-0.2,23.6,0c2.9,0.1,4.1-0.7,4.7-3.6
			c2.8-12.2,8.1-23.6,15.4-33.7c0.5-0.7,0.9-1.4,1.7-2.8h-4.6c-12.6,0-25.2,0-37.8,0c-1.5,0-3-0.1-4.5-0.3c-2.6-0.3-4.5-2.6-4.4-5.2
			c-0.3-2.6,1.4-5,4-5.6c1.3-0.3,2.7-0.4,4.1-0.4c16.2,0,32.4-0.1,48.7,0.1c3.3,0.1,6.5-1.1,9-3.3c5.3-4.4,11-8.3,17-12.7H184
			c-23.6,0-47.2,0-70.7,0c-1.5,0.1-3-0.1-4.4-0.6c-2.7-1-4.1-3.4-3.2-5.9c0.7-1.9,2.9-3.2,4.6-4.6c0.4-0.3,1.2-0.1,1.8-0.1
			c42.5,0,85.1,0,127.6,0.1c10.6,0,20.7,2.5,30.9,6.1V81.7h-4.1c-15.7,0-31.4,0-47.2,0c-11.4,0-18.1-6.8-18.1-18.2
			c0-15.7,0-31.4,0-47.2V12H20.7c-7.1,0-8.7,1.6-8.7,8.8c0,14.2,0,28.4,0,42.7c0,4.7-2,7.1-5.8,7c-3.6-0.1-5.5-2.4-5.5-7
			c0-15.2,0-30.4,0-45.7c0-9.8,7.2-17,17-17c62.6,0,125.2,0,187.9,0.1c2.3,0.1,4.5,1,6.2,2.5c22.7,22.5,45.3,45,67.7,67.8
			c1.6,1.8,2.5,4.1,2.6,6.6c0.2,13.3,0.2,26.7,0.1,40c-0.2,2.2,0.9,4.3,3,5.3c25.1,14.8,41,36.5,47.5,65c0.1,0.5,0.2,1,0.3,1.5
			c0.8,4.8-0.6,7.5-4.1,8.2c-3.8,0.7-6-1.3-7-6.3c-7.5-37.2-38.2-65.4-76-69.6c-45.7-4.9-86.3,24.4-95.9,69.4
			c-10.2,47.8,22.6,96,70.7,103.8c47.3,7.7,90-20.8,100.8-67.5c0.8-4,1.5-8.1,1.9-12.2c0.5-4,2.7-6.5,5.9-6.4
			c3.5,0.1,5.6,2.8,5.3,7.1c-1,15.2-5.6,30-13.5,43.1c-0.6,1.1-1.2,2.1-1.7,2.9l13.5,13.5c4.5-1.9,5.7-1.6,9.6,2.2
			c9.5,9.5,19,19.2,28.6,28.5c5.7,5.5,10.9,11.3,12.8,19.2v9.7c-0.2,0.3-0.5,0.6-0.6,0.9c-4.2,20.6-30.7,28.2-46.1,11.9
			c-10.5-11.1-21.6-21.7-32.5-32.6c-3.9-3.9-4.1-5.2-2.2-9.7l-13.2-13.3c-5.5,1.5-7.4,4.9-7.3,11c0.4,20.8,0.1,41.6,0.2,62.4
			c0,5.6-1.6,10.4-5.9,13.9c-2.1,1.7-4.6,2.8-7,4.1L13.5,384z M315.7,309.9c0,0.2,0.1,0.3,0.2,0.5c10.6,10.6,21.1,21.2,31.7,31.7
			c2.9,2.8,7,4.1,11,3.6c6.2-0.6,10.8-3.8,13-9.7c2.4-5.6,1.1-12-3.4-16.2c-10.1-10.3-20.4-20.5-30.6-30.7c-0.2-0.2-0.5-0.3-0.8-0.4
			C329.8,295.7,322.8,302.8,315.7,309.9z M261.9,70.4l-49.2-49.2c0,14.5-0.1,29.3,0.1,44c0,3.2,2.5,5.1,5.8,5.1
			C233,70.4,247.5,70.4,261.9,70.4z M312.9,272.9l-12.5,12.6l10.6,11.2c4.3-4.3,8.5-8.6,12.8-12.9L312.9,272.9z"/>
		<path d="M309.4,209.1c-0.3,37-28.1,68.4-64.8,72.4c-26.9,3-48.9-6.5-66.1-27.1c-3.1-3.7-3.1-6.8-0.3-9.2s6.2-1.4,9.3,2.2
			c17.2,20.3,39.1,27.9,64.7,21c25.1-6.8,40.3-24.2,44.8-49.8c6.3-35.1-20-68.4-55.8-71.3c-32.9-2.7-61.4,19.6-66.6,52.4
			c-1.4,8.7-0.8,17.5,1.7,25.9c0.5,1.3,0.8,2.6,0.8,4c-0.2,2.9-1.8,5-4.8,5.4s-5.3-1-6.3-4c-2.8-8.4-3.9-17.3-3.4-26.2
			c1.7-30.4,22.1-56.6,51.1-65.8c42.6-13.4,87.4,13.9,94.5,57.8C308.9,200.8,309,205,309.4,209.1z"/>
		<path class="st0" d="M229,199.4c5.8-5.5,11.5-10.9,17.1-16.4c7.5-7.4,18.3-7.8,25.4-0.9s7,17.7-0.4,25.4
			c-9.2,9.5-18.4,19-27.7,28.4c-8.4,8.5-18.5,8.6-27,0.3c-4.5-4.4-8.9-8.7-13.4-13.1c-7.8-7.6-8.3-18.4-1.2-25.6s17.6-7,25.4,0.3
			C227.9,198.5,228.7,199.2,229,199.4z M266.2,194.1c-1.7-1.8-2.9-3.9-4.7-5c-2.5-1.5-5-0.3-7,1.7c-6.4,6.6-12.8,13.2-19.3,19.8
			c-4.2,4.2-6.6,4.2-11,0c-1.6-1.6-3.2-3.1-4.8-4.7c-3.2-3-6.6-3.2-9.2-0.6s-2.5,6.1,0.6,9.2c4.8,4.7,9.6,9.4,14.5,14
			c3.1,2.9,6.5,2.9,9.5-0.1c9.5-9.7,19-19.4,28.4-29.2C264.2,198.2,264.8,196.4,266.2,194.1L266.2,194.1z"/>
		<path d="M89,288.7c0,4,0,8,0,12c-0.1,7.1-5.3,12.6-12.4,12.8c-8.3,0.2-16.7,0.2-25,0c-7.1-0.2-12.3-5.6-12.5-12.8
			c-0.2-8.1-0.2-16.2,0-24.3c0.2-7.6,5.6-12.7,13.2-12.8c7.8-0.1,15.7-0.1,23.5,0c7.8,0,13.1,5.4,13.1,13.1
			C89.1,280.7,89,284.7,89,288.7z M64.4,302.1c3.4,0,6.7-0.1,10.1,0c2.3,0.1,3.4-0.7,3.3-3.2c-0.1-7-0.1-13.9,0-20.9
			c0-2.5-1.1-3.2-3.4-3.2c-6.8,0.1-13.7,0.1-20.5,0c-2.4,0-3.3,0.8-3.3,3.2c0.1,7,0.1,13.9,0,20.9c0,2.5,1,3.2,3.3,3.2
			C57.4,302,60.9,302.1,64.4,302.1z"/>
		<path d="M89,129.2c0,4,0,8,0,12c-0.1,7.5-5.4,12.9-13,13c-8,0.1-16,0.1-23.9,0c-7.4-0.1-12.8-5.3-13-12.7
			c-0.2-8.2-0.2-16.4,0-24.7c0.2-7.4,5.7-12.5,13-12.6c8-0.1,16-0.1,23.9,0c7.6,0.1,12.8,5.5,12.9,13.1
			C89.1,121.2,89,125.2,89,129.2z M50.6,129.1c0,3.6,0,7.2,0,10.8c0,2,0.7,2.9,2.8,2.9c7.1-0.1,14.2-0.1,21.3,0
			c2.2,0,3.1-0.9,3.1-3.1c-0.1-7.1-0.1-14.2,0-21.3c0-2.1-0.9-2.9-2.9-2.9c-7.2,0-14.4,0-21.6,0c-1.9,0-2.7,0.8-2.6,2.7
			C50.7,121.9,50.6,125.5,50.6,129.1L50.6,129.1z"/>
		<path d="M64,232.9c-4.1,0-8.2,0.1-12.3,0c-7.3-0.2-12.4-5.3-12.6-12.6c-0.2-8.2-0.2-16.4,0-24.7c0.2-7.1,5.1-12.2,12.3-12.4
			c8.5-0.3,16.9-0.3,25.4,0c7.3,0.3,12.1,5.6,12.2,12.9c0.1,7.8,0.1,15.7,0,23.5c0,7.9-5.1,13-13,13.2C72,233,68,232.9,64,232.9
			L64,232.9z M50.6,207.8c0,3.7,0,7.5,0,11.2c0,1.9,0.7,2.7,2.6,2.6c7.3-0.1,14.7,0.1,22-0.1c1.1-0.3,2-1.2,2.4-2.3
			c0.2-7.3,0.2-14.7,0-22c-0.4-1.2-1.3-2.2-2.6-2.5c-7.2-0.2-14.4,0-21.7-0.1c-2.1,0-2.9,0.8-2.8,2.8
			C50.7,200.8,50.6,204.3,50.6,207.8z"/>
	</g>
</g>
</svg>
