<?xml version="1.0" encoding="utf-8"?>
<!-- Generator: Adobe Illustrator 25.0.1, SVG Export Plug-In . SVG Version: 6.00 Build 0)  -->
<svg version="1.1" id="Layer_1" xmlns="http://www.w3.org/2000/svg" xmlns:xlink="http://www.w3.org/1999/xlink" x="0px" y="0px"
	 viewBox="0 0 384 384" style="enable-background:new 0 0 384 384;" xml:space="preserve">
<style type="text/css">
	.st0{fill:#3E70AB;}
</style>
<g id="Layer_2_1_">
	<g id="Layer_1-2">
		<path d="M0,194.6c1.9-6.1,3.1-12.6,5.9-18.3c11.2-22.8,29.8-34.6,55.2-35c21.3-0.4,42.7-0.1,64-0.1c0.9,0.1,1.8,0.2,2.7,0.3v12.6
			h-4c-20.6,0-41.2,0-61.8,0c-26.9,0-47.2,18.9-49.1,45.8c-1.7,24,18.2,47.3,42.1,49.4c3.8,0.3,7.7,0.5,11.6,0.5
			c28.5,0,56.9,0,85.3,0h4.9c-3-3.1-5.4-5.6-7.8-8.1l8.8-8.4c6.4,6.2,13.2,12.5,19.7,19.2c2.4,2.5,1.9,5.7-0.5,8.1
			c-6.3,6.4-12.7,12.6-19,18.8l-8.9-8.9l7.7-6.4l-0.8-1.2h-44.8c0.3,0.5,0.6,0.9,1,1.4c10.2,10,15.1,22.3,15.6,36.5
			c0.7,19.9,13.1,34.3,32.7,37.9c1.7,0.3,3.5,0.4,5.2,0.4c34.3,0,68.6,0,102.9,0c0.6,0,1.2,0,2.7-0.1l-7.2-7.6l9.2-8.8
			c5.8,5.7,12.1,11.9,18.3,18.2c3,3.1,2.9,6.5-0.1,9.6c-6.1,6.3-12.3,12.4-18.4,18.4l-8.9-9.2l7.3-7.6h-5.2c-32.7,0-65.4-0.1-98.1,0
			c-16.4,0-30.2-5.5-41.1-17.9c-8.8-10-12.1-22-12.7-35.1c-1-21-17.6-36.4-38.8-36.5c-10.4-0.1-20.9,0.6-31.2-2.1
			c-22.4-5.9-40.5-26-43.9-49c-0.2-0.7-0.4-1.4-0.8-2L0,194.6z"/>
		<path d="M0,32.9C2.1,25.7,5,19,10,13.2C24.2-3.2,52.2-3.4,66.4,13.1C82,31,79.7,55.3,60.9,69.9C43.7,83.4,16,77.9,5.5,58.6
			C3.2,54.3,1.8,49.5,0,44.9V32.9z M37.9,64.4c14,0.2,25.5-10.9,25.8-24.9c0,0,0,0,0-0.1c0.1-14.2-11.2-25.7-25.4-25.9
			C24.4,13.7,13.1,25,12.8,39C12.9,52.9,24.1,64.2,37.9,64.4z"/>
		<path d="M339.2,384c-6.9-2-13.5-4.6-19.2-9.4c-19.9-16.5-16.9-49.5,5.8-62c24.5-13.5,53,0.4,57.4,27.9c3,18.7-10.3,37.8-29.6,42.5
			c-0.8,0.2-1.6,0.5-2.3,0.9L339.2,384z M319.6,345.4c-0.1,14.1,11.5,25.9,25.5,25.8s25.5-11.9,25.4-25.6
			c-0.2-13.9-11.4-25.1-25.2-25.3C331.3,320.1,319.8,331.3,319.6,345.4L319.6,345.4L319.6,345.4z"/>
		<path d="M236.6,45.6V32.8c1.2-0.1,2.4-0.2,3.6-0.2c27,0,53.9-0.1,80.8,0c27.9,0.2,50,15.7,59.1,41c12.7,35.5-11.8,75.3-49.3,79.7
			c-6.7,0.8-13.6,0.8-21.4,1.1l8.5,7.1l-9.6,9.2c-6.3-6.2-12.9-12.6-19.3-19.2c-2.5-2.6-2.2-5.9,0.3-8.4
			c6.2-6.4,12.7-12.6,18.9-18.8c2.9,3,5.8,5.9,9.3,9.4l-8.3,6.5c32.1,4.9,56.4-12.6,60.5-39.6c3.9-25.7-11.3-47.7-36.4-53.8
			c-4.1-0.9-8.3-1.3-12.6-1.3c-26.5-0.1-52.9-0.1-79.3-0.1h-4.8V45.6z"/>
		<path class="st0" d="M383.3,256.4c0,20.9-17.6,38.4-38.4,38.3s-38.3-17.6-38.4-38.4c0-21,17.6-38.5,38.7-38.4
			C366.1,218,383.4,235.4,383.3,256.4z M344.8,281.6c14,0.1,25.5-11.1,25.7-25.2c0.2-13.7-11.3-25.4-25.3-25.7
			c-13.7-0.3-25.5,11.4-25.6,25.3c-0.1,14,11.1,25.4,25,25.5C344.7,281.6,344.8,281.6,344.8,281.6z"/>
		<path d="M89.3,45.7c0-4.2-0.1-7.6,0.1-11.1c0-0.7,1.2-1.7,2-2c1.1-0.2,2.2-0.2,3.3-0.1h105.7l0.6-0.9l-8.2-6.4l9.7-9.2
			c6.4,6.2,13.1,12.4,19.5,19c2.6,2.6,2.2,5.9-0.5,8.7c-6.2,6.3-12.5,12.5-18.9,18.8l-8.8-9.1l7.5-7.8L89.3,45.7z"/>
		<path d="M163.2,155.1l7.6,6.5l-9.6,9.3c-6.1-6-12.5-12.2-18.8-18.6c-2.8-2.9-2.5-6.4,0.3-9.4c6.1-6.3,12.3-12.4,18.2-18.4l9.6,9.8
			l-8,6.9h111.9V154H163.7L163.2,155.1z"/>
		<path d="M263.2,242.4l9.4-9.1c6.6,6.3,13.4,12.6,19.9,19.3c2.5,2.5,1.9,5.8-0.9,8.7c-6.1,6.2-12.3,12.4-18.5,18.7l-9-9.4l7.9-6.3
			l-0.9-1.3H192v-13h79l0.6-1L263.2,242.4z"/>
		<path d="M83.2,320v-12.5h12.4V320H83.2z"/>
		<path d="M44.7,307.6V320H32.1v-12.4H44.7z"/>
		<path d="M70.1,320.1H57.8v-12.6h12.4L70.1,320.1L70.1,320.1z"/>
	</g>
</g>
</svg>
