<?xml version="1.0" encoding="utf-8"?>
<!-- Generator: Adobe Illustrator 25.0.1, SVG Export Plug-In . SVG Version: 6.00 Build 0)  -->
<svg version="1.1" id="Layer_1" xmlns="http://www.w3.org/2000/svg" xmlns:xlink="http://www.w3.org/1999/xlink" x="0px" y="0px"
	 viewBox="0 0 384 384" style="enable-background:new 0 0 384 384;" xml:space="preserve">
<style type="text/css">
	.st0{fill:#3E70AB;}
</style>
<g id="Layer_2_1_">
	<g id="Layer_1-2">
		<path d="M95.1,384c-6.4-2.7-11.8-6.4-13.6-13.6c-0.5-2.1-0.7-4.2-0.6-6.3c-0.1-10.1,0-20.2,0-30.9h-4.2c-9.1,0-18.2,0-27.3,0
			c-11.7-0.1-19.4-7.8-19.4-19.5c0-97.8,0-195.6,0-293.5C30,8.5,37.8,0.7,49.4,0.7c78,0,156,0,234,0c11.3,0,19.1,7.7,19.1,19
			c0.1,10.5,0,20.9,0,31.9h4.3c9.4,0,18.7-0.1,28.1,0c10.6,0.2,18.5,8,18.5,18.5c0,74,0,148-0.1,222c0,11.5-4.8,22.6-13.2,30.5
			c-17.1,16.6-34.5,32.8-52,49c-6.8,6.3-15.3,9.7-24.3,11.7c-0.8,0.2-1.6,0.5-2.4,0.8L95.1,384z M260.8,370v-4.7
			c0-13.7,0.2-27.5-0.1-41.2c-0.4-17.1,12.5-28.5,27.7-27.9c14.6,0.5,29.2,0.2,43.8,0.1c7.1,0,7.1,1.8,7.1-7c0-72.2,0-144.5,0-216.7
			c0-6.1-1-7.2-7.2-7.2c-76.7,0-153.5,0-230.2,0c-6.1,0-7.1,1-7.1,7.3v290.1c0,6.5,0.8,7.2,7.4,7.2H260.8L260.8,370z M288.5,51.5
			c0-10.3,0-20,0-29.7c0-6.2-0.9-7-7.2-7H51.1c-6.2,0-7.1,0.8-7.1,7.2c0,42.8,0,85.6,0,128.4c0,54,0,108,0,162.1c0,5.8,1.1,6.9,7,7
			c5,0,10,0,15,0h14.8V314c0-80.3,0-160.7,0-241c-0.1-2.5,0.1-5,0.5-7.4c2.2-9,9.3-14,19.5-14L288.5,51.5L288.5,51.5z M332.6,310.5
			c-1.9-0.2-2.5-0.3-3.1-0.3c-14.2,0-28.5-0.1-42.7,0c-7.4,0.1-12,4.9-12.1,12.4c-0.1,13,0,26,0,38.9c0.1,1,0.2,2,0.4,2.9
			L332.6,310.5z"/>
		<path class="st0" d="M217.5,116c21.7,0,43.4,0,65.1,0c6.3,0,9.9,4.5,7.9,9.5c-1,2.8-3.7,4.6-6.7,4.5c-44.5,0-89.1,0-133.6,0
			c-3.9,0.1-7.1-3-7.1-6.9c0-0.1,0-0.2,0-0.3c0.1-4,3.2-6.8,7.8-6.8C173.1,116,195.3,116,217.5,116z"/>
		<path class="st0" d="M217.2,162.4c22.1,0,44.2,0,66.2,0c5.8,0,9.5,5,6.9,9.7c-0.9,1.6-3,2.9-4.7,3.8c-1.1,0.6-2.7,0.4-4,0.4H152.8
			c-1.1,0-2.2,0-3.4-0.2c-3.9-0.6-6.5-3.5-6.4-7.1c0.1-3.8,3.3-6.8,7.1-6.7c0,0,0,0,0.1,0c9.6-0.1,19.2,0,28.8,0h38.2V162.4z"/>
		<path class="st0" d="M217.2,222.3c-22.2,0-44.4,0-66.6,0c-3.6,0-6-1.5-7.1-4.9c-1.1-2.8-0.1-6,2.5-7.5c2-1,4.2-1.6,6.4-1.5
			c10.8-0.1,21.7-0.1,32.5-0.1h95.4c1.4,0,2.7,0,4.1,0.1c4,0.5,6.9,3.6,6.6,7.2c-0.2,3.8-3.1,6.5-7.3,6.5c-13.5,0.1-26.9,0-40.4,0
			L217.2,222.3z"/>
		<path class="st0" d="M187.3,254.6c11.9,0,23.7,0,35.5,0c5.8,0,9.3,4.2,7.7,9.1c-1,3.3-3.7,4.9-8.3,4.9c-22.2,0-44.4,0-66.6,0
			c-1.5,0-3,0-4.5,0c-4.9-0.1-8.1-2.8-8.1-6.9s3.2-7.1,8.3-7.1C163.4,254.5,175.3,254.6,187.3,254.6z"/>
	</g>
</g>
</svg>
