<?xml version="1.0" encoding="utf-8"?>
<!-- Generator: Adobe Illustrator 25.0.1, SVG Export Plug-In . SVG Version: 6.00 Build 0)  -->
<svg version="1.1" id="Layer_1" xmlns="http://www.w3.org/2000/svg" xmlns:xlink="http://www.w3.org/1999/xlink" x="0px" y="0px"
	 viewBox="0 0 407.7 407.7" style="enable-background:new 0 0 407.7 407.7;" xml:space="preserve">
<style type="text/css">
	.st0{fill:#3E70AB;}
</style>
<g id="Layer_2_1_">
	<g id="Layer_1-2">
		<path d="M351,203.9c0,59.5,0,119.1,0,178.6c0,12.3-5.7,20.3-16.3,22.9c-1.9,0.4-3.9,0.6-5.8,0.6c-83.2,0-166.4,0-249.5,0
			c-12.5,0-21.3-8.4-21.9-21c0-1.4,0-2.7,0-4.1c0-94.9,0-189.9-0.1-284.8c-0.2-4.8,1.7-9.4,5.2-12.7c26.2-26,52.3-52.1,78.3-78.3
			c2.7-2.9,6.4-4.5,10.3-4.3c58.8,0,117.6,0.1,176.4,0c15,0,23.4,8.4,23.4,23.5C351,84.2,351,144,351,203.9z M72.1,99.2v282.3
			c0,8.2,1.8,10.1,10,10.1h244.1c8.2,0,10.1-1.9,10.1-10.1V25.6c0-8.6-1.7-10.3-10.2-10.3H155.7v5.3c0,18.5,0.1,37.1,0,55.6
			c0,10.9-5.2,18.7-14.4,21.6c-3.2,0.9-6.5,1.4-9.8,1.4C111.9,99.3,92.3,99.2,72.1,99.2L72.1,99.2z M141,27.3
			c-19.1,19.1-38,38-57.1,57.1h43c14.1,0,14.1,0,14.1-14.1V27.3z"/>
		<path class="st0" d="M149.4,221.1c-7.3,12.6-14.7,24.7-21.5,37.1c-10.2,18.7,2.7,40.1,23.9,40.4c5.6,0.1,11.1-0.1,16.7,0
			c5.6,0.1,9,2.9,9.1,7.3s-3.1,7.3-8.5,7.3c-8.7,0-17.7,0.8-26.1-0.8c-28.2-5.6-41.9-36.3-27.8-61.4c6.2-11.1,12.8-22.1,19.3-33.1
			c0.8-1.4,1.6-2.9,2.4-4.3c-2-0.5-4.6-0.3-5.5-1.5c-1.8-2.1-3.6-4.9-3.7-7.5c-0.1-3.4,2.6-5.7,6.1-6.2c5.4-0.8,10.8-1.3,16.1-1.7
			c3.6-0.5,7,1.6,8.2,5.1c1.8,4.6,3.7,9.2,5.4,13.8c1.8,4.6,0.7,8.3-2.8,10.2s-7.1,0.7-10.1-3.1C150.3,222,149.9,221.7,149.4,221.1z
			"/>
		<path class="st0" d="M261.4,195.8c3-1.5,5.5-3.7,8.2-4.1c3.6-0.6,6.9,1.9,7.5,5.5c0.2,1.2,0,2.5-0.5,3.6
			c-2.1,5.5-4.6,10.8-7.1,16.1c-1.5,3.2-4.4,4.4-7.9,3.9c-5.1-0.7-10.1-1.3-15.2-2.2c-3.9-0.6-6.6-2.8-7-7.1
			c-0.3-3.9,2.1-6.7,6.7-7.8c0.7-0.2,1.4-0.3,2.7-0.5c-7.8-13.3-14.6-26.8-23-39.2c-10.6-15.7-33.9-14.7-44.4,1.3
			c-3.4,5.3-6.3,10.9-9.5,16.4c-2.7,4.6-6.8,5.9-10.6,3.7s-4.6-6.4-2-11c2.9-5.1,5.7-10.2,8.7-15.3c11.6-19.9,37.2-26.7,57.1-15.1
			c6.2,3.6,11.4,8.8,15.1,15c6.7,11.1,12.9,22.4,19.3,33.7C260.3,194,261.1,195.2,261.4,195.8z"/>
		<path class="st0" d="M213.7,313.3c0.3,0.8,0.6,1.5,0.8,2.2c1.5,4.6,0.3,8.3-3.2,10.1c-3.5,1.8-6.8,0.7-9.7-3.1
			c-2.9-3.9-5.6-7.8-8.5-11.7c-2.7-3.7-2.5-7.2,0.4-10.7c2.7-3.3,5.3-6.6,7.9-9.9c3.7-4.6,7.5-5.8,11.2-3.6c3.7,2.3,4.3,5.6,2,11.5
			c1.3,0.1,2.6,0.2,3.8,0.3c12.4,0,24.7,0.1,37.1,0.1c22.9,0,35.6-21.9,24.4-41.8c-2.7-4.7-5.5-9.3-8.2-14s-1.7-8.8,2-11
			c3.8-2.2,8-1,10.5,3.7c4.6,8.3,10.2,16.3,12.8,25.2c8,27.4-13.5,53.3-42.5,52.7C241,313.1,227.5,313.3,213.7,313.3z"/>
	</g>
</g>
</svg>
