<?xml version="1.0" encoding="utf-8"?>
<!-- Generator: Adobe Illustrator 25.0.1, SVG Export Plug-In . SVG Version: 6.00 Build 0)  -->
<svg version="1.1" id="Layer_1" xmlns="http://www.w3.org/2000/svg" xmlns:xlink="http://www.w3.org/1999/xlink" x="0px" y="0px"
	 viewBox="0 0 383.6 384" style="enable-background:new 0 0 383.6 384;" xml:space="preserve">
<g id="Layer_2_1_">
	<g id="Layer_1-2">
		<path d="M83.8,0c12.2,2.6,23,7.7,31.9,16.9c20.3,20.9,21.2,53.9,2,75.9c-3.2,3.6-3.2,3.6,1.4,4.8c18.4,4.4,31.4,20.8,31.5,39.7
			c0.1,12.1,0.1,24.2,0,36.4c0,6.3-3.1,9.5-9.4,9.5c-44,0-88,0-132,0.1c-3.7,0.2-7.2-1.6-9.3-4.7v-48.8c0.5-1.4,0.9-2.8,1.4-4.3
			c5-14.8,15-24.1,30.1-28c4.1-1.1,4.2-1,1.4-4.2c-21.6-25.1-18.3-61,7.3-81.6C48,5.5,57,2,66.6,0H83.8z M74.8,167.1H129
			c5.7,0,5.7,0,5.7-5.8c0-7.6,0-15.2,0-22.9c0.1-2.4-0.1-4.7-0.6-7.1c-3-11.6-12.5-19-25.9-19.2c-22-0.3-43.9-0.3-65.9,0
			c-17.1,0.2-27.1,11-27.1,28.2c0,7.3,0,14.5,0,21.8c0,5,0,5,4.9,5L74.8,167.1z M34.6,55.8c0,22.5,18.2,40.7,40.7,40.7
			c22.2-0.1,40.6-18.5,40.5-40.6c-0.1-21.8-16.9-40.3-40.9-40.4C52.6,15.3,34.6,33.7,34.6,55.8z"/>
		<path d="M0,231c1.9-5,4-9.9,7.9-13.9c5.3-5.6,12.7-8.7,20.5-8.7c53.8-0.1,107.5-0.1,161.3,0c16,0,28.7,12.6,28.9,28.9
			c0.3,25.8,0.3,51.5,0,77.2c-0.2,16.4-12.9,28.3-29.2,28.5c-3.5,0-7,0.2-10.5,0c-2.9-0.2-4,1.2-4.2,3.9c-0.2,3.4-0.6,6.7-0.9,10.1
			c-0.9,8.9-6.9,11.8-14.4,7.1c-9.6-6.1-19.2-12.2-28.7-18.4c-2.6-1.8-5.6-2.7-8.7-2.7c-29.8,0.1-59.6,0-89.4,0
			c-18.1,0-26.4-5.9-32.5-22.8L0,231z M202.7,276c0-12.8,0.1-25.5,0-38.2c0-7.9-5.3-13.3-13.1-13.3c-53.6,0-107.3,0-160.9,0
			c-2.6-0.1-5.2,0.7-7.4,2.2c-4.6,3.1-6,7.8-6,13c0,23.7,0,47.5,0,71.2c0,11.7,5,16.7,16.6,16.7c31.6,0,63.1,0,94.7,0
			c3.4-0.1,6.7,0.9,9.5,2.8c6.4,4.3,13.1,8.3,19.5,12.6c2.4,1.6,4,2.3,3.9-1.7c0.1-1.9,0.3-3.7,0.6-5.6c0.7-5.5,3.5-8,8.9-8
			c6.5-0.1,13,0.1,19.5,0c8.9-0.2,14.2-5.5,14.2-14.4C202.7,300.7,202.7,288.4,202.7,276z"/>
		<path d="M237.3,384c-3.5-2.2-4.8-5.4-4.8-9.5c0.1-9.2,0-18.5,0.1-27.7c0.1-19.8,12.8-35.8,32-40.4c4.1-1,4.1-0.9,1.3-4.2
			c-14.2-17-18.4-36.2-10.6-57s23.4-33,45.3-36.1c30.8-4.3,59.1,17.2,63.4,48c0.4,3,0.6,6,0.5,9c-0.2,13.4-5.3,26.2-14.3,36.1
			c-0.8,0.9-1.9,1.6-2.4,3.2l4.6,1.1c18,4.4,30.7,20.4,31,38.9c0.1,9.7-0.1,19.5,0.1,29.2c0.1,4.2-1.2,7.3-4.8,9.4L237.3,384z
			 M308.3,368.7c18.5,0,36.9-0.1,55.4,0.1c3.5,0,4.5-1.1,4.4-4.5c-0.2-5.5,0-11-0.1-16.5c-0.3-16.2-10.8-26.6-26.9-26.6
			c-22.8,0-45.6-0.1-68.5,0c-13,0.3-23.5,10.6-23.9,23.6c-0.2,6.5,0.1,13-0.1,19.5c-0.1,3.4,0.9,4.5,4.4,4.5
			C271.4,368.6,289.9,368.7,308.3,368.7L308.3,368.7z M308.4,224.4c-22.6-0.1-40.9,17.7-41,39.9c-0.2,22.3,17.8,40.6,40.1,40.8
			c22.9,0.1,41-17.6,41.1-40.1c0.2-22.2-17.5-40.3-39.7-40.6C308.8,224.4,308.6,224.4,308.4,224.4L308.4,224.4z"/>
		<path d="M314.4,0c5.2,1.9,10.1,4.1,14.1,8.2c5.4,5.2,8.4,12.4,8.4,19.8c0.1,36.9,0.1,73.7,0,110.6c-0.1,16.2-13,28.6-29.5,28.7
			c-16.1,0.1-32.2,0.1-48.3,0c-2.4,0-4.7,0.4-6.9,1.4c-10,4.4-20.1,8.8-30.2,13c-6.5,2.7-11,0.2-12.4-6.6c-1.6-7.8-1.6-7.9-9.8-7.8
			s-16.2-0.5-23.1-5.7c-7.7-5.4-12.2-14.3-12.1-23.7c-0.2-36.4-0.2-72.7,0-109.1c0-12.8,7.6-23.1,19.4-27.6c1.1-0.4,2.1-0.9,3.1-1.3
			L314.4,0z M251,15.3c-18.6,0-37.2-0.1-55.8,0c-9,0-14.6,5.2-14.7,13.5c-0.1,36.5-0.1,73,0,109.5c0,7.6,5.4,12.9,13,13
			c6.4,0.1,12.7,0,19.1,0c6.9,0,9.6,2.2,10.5,9c0.4,3.2,1.6,3.2,4.2,2.1c7-3.2,14.2-6.2,21.2-9.3c2.7-1.2,5.7-1.8,8.7-1.8
			c16.7,0,33.4,0,50.1,0c8.2,0,13.4-5.2,13.5-13.3c0-36.4,0-72.7,0-109.1c0.1-2.5-0.6-5-1.9-7.1c-3-4.9-7.7-6.4-13.1-6.5L251,15.3z"
			/>
		<path d="M126.8,284.1c10.5,0,20.9,0,31.4,0c1.9-0.1,3.7,0.2,5.5,1c3.9,1.8,5.6,6.5,3.8,10.4c-0.8,1.6-2,2.9-3.6,3.7
			c-1.7,0.8-3.6,1.1-5.4,1c-21.2,0-42.4,0-63.5,0c-5.2,0-8.4-2-9.5-5.7c-1.6-5.5,2.3-10.2,8.6-10.3
			C104.9,284,115.8,284.1,126.8,284.1z"/>
		<path d="M76.3,264.9c-5.7,0-11.4,0.1-17.2,0c-5.4-0.1-9-3.3-9.2-7.8s3.6-8.1,9.2-8.2c11.7-0.1,23.4-0.1,35.1,0c5.3,0.1,9,3.5,9,8
			c0,4.5-3.7,7.9-9.1,8C88.3,265,82.3,264.9,76.3,264.9z"/>
		<path d="M62.4,300c-1.7,0.1-3.5,0.1-5.2,0c-4-0.4-7.1-3.8-7.2-7.8c0-3.9,2.8-7.2,6.7-7.8c3.9-0.6,7.9-0.6,11.9,0
			c3.8,0.5,6.6,3.7,6.5,7.5c0.3,3.9-2.5,7.4-6.4,8c-2.1,0.3-4.2,0.4-6.3,0.4V300z"/>
		<path d="M137.1,257.2c-0.2,4.4-3.8,7.7-8.2,7.6c-4.4-0.2-7.7-3.8-7.6-8.2c0.2-4.3,3.8-7.7,8.2-7.6
			C133.8,249.3,137.1,252.9,137.1,257.2z"/>
		<path d="M152.5,257c0-4.3,3.4-7.9,7.8-7.9s7.9,3.4,7.9,7.8c0,4.3-3.4,7.8-7.7,7.9C156.2,264.7,152.7,261.3,152.5,257z"/>
		<path d="M278.7,65c-0.5,8.8-5.8,17.5-16.6,22.4c-2.7,1.2-3.9,2.7-3.6,5.6c0.2,1.7,0.2,3.5,0,5.2c-0.2,3.9-3.3,7-7.2,7.2
			c-4,0.2-7.9-2.7-8.1-6.8c-0.3-6-0.3-12,0-18c0.2-4,3.3-6.2,8.6-6.7c5.9-0.7,9.9-4.5,11.1-10.5c1-4.9-1.8-10.2-6.6-12.7
			c-6-3-13.3-0.5-16.2,5.5c-0.4,0.9-0.8,1.9-1,2.9c-0.2,1.2-0.4,2.5-0.6,3.7c-0.9,4.5-4.4,7.2-8.4,6.8s-6.9-3.8-7.1-8.3
			c-0.4-12.3,9.2-24.1,21.8-27C262.3,30.4,278.8,43.8,278.7,65z"/>
		<path d="M258.5,124.7c0.1,4.2-3.2,7.8-7.4,7.9c-0.1,0-0.2,0-0.3,0c-4.4,0-7.9-3.5-7.9-7.8s3.5-7.9,7.8-7.9c4.3,0,7.8,3.4,7.8,7.7
			C258.5,124.6,258.5,124.7,258.5,124.7z"/>
	</g>
</g>
</svg>
