<?xml version="1.0" encoding="utf-8"?>
<!-- Generator: Adobe Illustrator 25.0.1, SVG Export Plug-In . SVG Version: 6.00 Build 0)  -->
<svg version="1.1" id="Layer_1" xmlns="http://www.w3.org/2000/svg" xmlns:xlink="http://www.w3.org/1999/xlink" x="0px" y="0px"
	 viewBox="0 0 344.8 344.8" style="enable-background:new 0 0 344.8 344.8;" xml:space="preserve">
<g id="Layer_2_1_">
	<g id="Layer_1-2">
		<path d="M177.4,0.1C82.2-2.6,2.9,72.4,0.2,167.6s72.4,174.5,167.6,177.1c97,2.5,174.8-74.1,177-168.7
			C346.5,80.4,271.6,2.7,177.4,0.1z M179.9,117.5c0-15.5,0.1-31-0.1-46.5c0-2.7,0.6-3.2,3.3-3c43.6,3.3,83.2,38.9,91.9,82.7
			c0.9,4.5,1.2,9.1,2,13.7c0.5,2.7-0.2,3.7-3.2,3.6c-9.2-0.2-18.5-0.1-27.7-0.1c-20.7,0-41.5-0.1-62.2,0.1c-3.1,0-4.2-0.5-4.2-4
			C180,148.5,179.9,133,179.9,117.5z M81.4,44c23.8-16.8,51.7-26.7,80.8-28.7c3.2-0.2,2.8,1.4,2.8,3.3c0,30,0,59.9,0,89.9v44.4
			l-0.8,0.1c-17.2-21.4-34.3-42.9-51.5-64.3C102,75.4,91.5,62.1,80.8,49C79,46.8,78.8,45.8,81.4,44z M329.2,186.7
			c-2.5,26.9-11.2,51.7-26.5,73.9c-26,37.7-61.8,60.3-107,67.6c-70.7,11.4-142.8-30-169.3-97.1C18.6,211.7,15,192.5,15,165.4
			c0.9-38.1,17.1-76,49.2-107.2c2.3-2.3,3.3-2.1,5.3,0.4c31.4,39.4,62.9,78.6,94.2,118c3.6,4.6,7.4,6.5,13.3,6.4
			c32-0.3,64-0.1,95.9-0.2c3.6,0,4.1,1.1,3.6,4.2c-7.1,45.2-39.5,79.3-84.2,88.4c-6.1,1.2-12.4,1.9-18.6,1.9
			c-5.4,0.1-8.8,3.2-8.6,7.8c0.2,4.4,3.6,7.2,8.7,7.2c57.6,0.1,109.3-44.7,117.2-101.8c1.1-7.7,1.1-7.7,9-7.7c8.5,0,17,0.1,25.5-0.1
			C328.5,182.8,329.5,183.3,329.2,186.7z M326.8,168c-5.2-0.2-10.5,0-15.7,0c-4.9,0-9.8-0.2-14.6,0.1c-3,0.2-4.2-0.5-4.5-3.9
			c-2.2-30.4-14.3-56.4-36.1-77.6c-20.1-19.6-44.3-30.8-72.3-33.3c-2.7-0.2-3.8-1-3.7-4c0.2-10.4,0.1-20.7,0-31.1
			c0-2.4,0.6-2.9,3-2.7c65.1,6.5,110.4,40,136.1,99.9c6.8,15.7,9.7,32.5,10.7,49.5C329.9,167.2,329.3,168,326.8,168z"/>
		<path d="M92.9,160.4c-24.9,0-45,20.1-45,45s20.1,45,45,45s45-20.1,45-45l0,0C137.8,180.6,117.7,160.5,92.9,160.4z M92.9,235.4
			c-16.6,0-30-13.4-30-30c0-16.6,13.4-30,30-30s30,13.4,30,30c0,0.1,0,0.2,0,0.3C122.7,222.1,109.4,235.3,92.9,235.4L92.9,235.4z"/>
		<path d="M97.3,201.8c-2.4-0.8-3.7-3.4-2.9-5.7c0.1-0.2,0.2-0.4,0.3-0.6c1.2-2.1,2.9,0,4.4,0.2c0.4,0.1,0.7,0.2,1,0.5
			c1.8,1.4,2.9,0.9,3.9-1.1c2.3-4.4,2.4-4.4-2.2-6.2c-1.2-0.6-2.5-1-3.9-1.3c-2.2-0.2-3.1-1.1-2.8-3.3c0.2-1.3-0.2-2.2-1.8-2.2
			s-1.9,0.9-1.8,2.2c0.3,2.2-0.6,3-2.8,3.4c-3.4,0.6-6.2,2.9-7.6,6.1c-2.8,6.3-0.2,11.4,7.2,14.1c2.1,0.7,4.7,0.9,3.7,4.2
			c0.7,3.6-0.9,3.9-3.6,2.7c-1.3-0.4-2.6-1-3.8-1.7c-2-1.3-2.9-0.8-3.9,1.3c-2.3,4.8-2.5,4.8,2.5,6.7c1.7,0.8,3.5,1.3,5.4,1.5
			c2.2,0.2,3.1,1,2.9,3.3c-0.1,1.2-0.6,2.9,1.7,3s2-1.5,1.8-2.8c-0.4-2.6,1.1-3,3.2-3.4c5.8-1.1,8.9-4.9,8.9-10.3
			S104.6,204.2,97.3,201.8z M91.1,199.8c-1.4-0.1-2.5-1.4-2.4-2.8c-0.1-1.3,1-2.4,2.3-2.5c2.2-0.1,0.8,1.8,1.3,2.6
			C91.8,198.1,93.1,200,91.1,199.8L91.1,199.8z M98.2,213.7c-0.3,1.4-2,2.2-2.8,1.7c-1.9-1.3-0.6-3.5-0.8-5.6
			C96.9,210.6,98.7,211.3,98.2,213.7L98.2,213.7z"/>
	</g>
</g>
</svg>
