<svg xmlns="http://www.w3.org/2000/svg" viewBox="0 0 383.26 383.49"><g id="Layer_2" data-name="Layer 2"><g id="Layer_1-2" data-name="Layer 1"><path d="M383.26,220.27c-1.87,2.53-4,4.59-7.49,3.29s-3.76-4.14-3.75-7.34q.06-68.33,0-136.64c0-10.43-4.63-15.06-15.06-15.06H216l-5.27,11.26H349.57c8.63,0,11.22,2.55,11.22,11v186.8c0,8.35-2.64,11-10.86,11H33.29c-8.08,0-10.83-2.71-10.83-10.68V86.42c0-7.84,2.75-10.64,10.49-10.64h94.49c-1.65-3.63-2.91-6.85-4.59-9.85-.46-.82-2.14-1.34-3.27-1.35-12.1-.09-24.2,0-36.3-.06-4.59,0-6.9-1.83-7-5.42-.1-3.79,2.27-5.77,7-5.78h36.59C119.09,17.09,147.65-1,171.19,0c22.08,1,48.23,19.09,47,53.28H357c13.85,0,21,5.07,25.7,18.23.07.2.35.32.53.47ZM216,87.14l-.52.86c4.31,4.15,8.7,8.22,12.88,12.5a5.54,5.54,0,0,1,.22,7.78c-2.16,2.34-5.37,2.49-8.06.3a36.48,36.48,0,0,1-2.68-2.6l-18.17-18.2c-.56.35-.88.54-1.19.75-19.38,13.23-39.93,13.08-59.19-.31A8.4,8.4,0,0,0,134.83,87Q86,86.94,37.17,87c-1.08,0-2.16.13-3.26.19v186H349.32v-186ZM131.53,49a37.6,37.6,0,1,0,37.84-37.66A37.72,37.72,0,0,0,131.53,49Z"/><path d="M108.53,383.49c-6.76-2.63-11.75-6.78-13-14.47-1.51-9.62,6-18.93,15.8-19.18,4.71-.12,9.42,0,14.35,0V307.11H24.94C9.8,307.1,0,297.24,0,282V78.41C0,63.17,9.78,53.33,24.93,53.32H54.12c4.33,0,7,2.14,7,5.57s-2.61,5.62-6.92,5.62c-9.73,0-19.46,0-29.19,0-8.64,0-13.75,5.09-13.76,13.71q0,102,0,204c0,8.6,5.13,13.66,13.82,13.67q166.52,0,333,0c8.89,0,13.93-5,14-13.91q0-17.4,0-34.8c0-3.14.12-6.06,3.59-7.44s5.61.68,7.65,3V288.4c-.18.16-.47.28-.54.47-4.7,13.16-11.83,18.24-25.66,18.24H257.53v42.71c5,0,9.66-.1,14.37,0,9.76.27,17.25,9.55,15.76,19.2-1.2,7.69-6.19,11.82-12.94,14.45Zm137-76.16H137.8v42.29h33.08c0-3.4,0-6.61,0-9.82.24-12.39,9-21.43,20.73-21.43s20.47,9,20.74,21.43c.07,3.21,0,6.42,0,9.77h33.2ZM192,361H115.33c-5.93,0-8.4,1.61-8.46,5.52s2.52,5.73,8.62,5.74H267.72a28.92,28.92,0,0,0,3.36,0c3.27-.37,5.33-2.62,5.3-5.66s-2.15-5.19-5.46-5.5c-1.11-.11-2.24,0-3.36,0Zm8.68-11.42c0-4.19.23-8.17-.06-12.11-.33-4.39-4.6-7.89-9-7.88s-8.67,3.52-9,7.91c-.28,3.94-.06,7.92-.06,12.08Z"/><path d="M144.29,149.43c9.92,2.83,16.87,8.63,18.93,18.53,1.14,5.51.88,11.4.54,17.08-.21,3.61-3,5.93-6.62,6.72a22.92,22.92,0,0,1-4.84.36q-35.55,0-71.1,0c-9.31,0-12.35-3-12.2-12.39.06-4.21,0-8.58,1.13-12.58,2.58-9.42,9.18-15.11,18-17.48-.17-8.5-.53-16.78-.44-25.06.15-14.63,11.37-27.24,25.1-28.57,15.51-1.5,29.33,7.58,31.76,22.57,1.46,9.09.24,18.61.18,27.93A19.54,19.54,0,0,1,144.29,149.43Zm8.49,31.1c0-2.42,0-4.4,0-6.39-.13-7-4.6-12.52-11.51-13.5a8.14,8.14,0,0,0-5.66,1.53c-11.36,9.35-26.55,9.56-37.69,0a6.75,6.75,0,0,0-6.48-1.57c-8.68,2-13.19,10.51-10.43,19.89ZM99.44,134.92c-1.26,9.78,1.7,16.79,8.5,20.66a17.68,17.68,0,0,0,19.29-1.36,18.06,18.06,0,0,0,6.23-19.3ZM133.78,123a17.19,17.19,0,0,0-19.16-15.79c-8.38,1-15.73,8.8-14.69,15.79Z"/><path d="M232,149.63c0-8.95-.23-17.64,0-26.31a28.35,28.35,0,0,1,28.45-27.41c15.39-.09,28.36,11.69,29,26.93.38,8.79-.13,17.61-.24,26.58,2.28,1.13,5.47,2.3,8.2,4.14,7,4.7,10.44,11.53,10.86,19.88.14,2.86.07,5.74,0,8.61-.1,6.16-3.49,9.68-9.65,10-.87.05-1.75,0-2.62,0H225.35c-9.26,0-12.19-2.86-12.13-12,0-3.85-.15-7.81.62-11.54C215.79,159.19,221.49,153.64,232,149.63Zm65.14,30.87c-.15-3.07-.05-5.81-.46-8.48a13,13,0,0,0-11.56-11.43,7.93,7.93,0,0,0-5.34,1.5c-11.84,9.59-26.61,9.57-38.3-.14a6.53,6.53,0,0,0-4.27-1.47c-5.82.54-10.22,3.52-11.84,9.24-1,3.35-.78,7-1.14,10.78Zm-53.54-45.6c-1.29,9.82,1.53,16.64,8.35,20.59a17.6,17.6,0,0,0,19.32-1.19,18.6,18.6,0,0,0,6.45-19.4Zm34-11.88c.27-8.47-7.83-15.89-17-15.84s-17,7.5-16.8,15.84Z"/><path d="M272,258.63c-8.37,5.12-13.71,5.1-21.73.06-9.12,5.32-16.82,4.88-22.78-1.29-4.75-4.91-6.36-16.2-3.32-23.27,2.7-6.27,9-10.94,15.66-9.83,5.16.86,8.7.2,12.64-3.39,3.59-3.27,8.64-3.51,13.61-1.92,1.65-7.43,5.46-12.7,13-14.51,9.87-2.38,19.83,4.89,20.17,15.07.31,9.09.45,18.22,0,27.3C298.55,260.58,283,267.2,272,258.63Zm5.63-25.69c0,4.1-.06,8.2,0,12.3.06,3.61,1.89,5.69,4.92,5.8s5.34-1.92,5.4-5.37c.15-8.32.16-16.65,0-25-.07-3.48-2.44-5.51-5.51-5.21-3.27.31-4.78,2.33-4.8,5.53C277.65,225,277.67,229,277.67,232.94ZM256,240.15c0,2-.11,4,0,5.95.21,2.81,1.73,4.63,4.62,4.9,3.11.29,5.22-1.4,5.48-4.31a73.75,73.75,0,0,0,0-12.61c-.25-3-2.39-4.61-5.46-4.34s-4.59,2.19-4.7,5.21C255.91,236.68,256,238.42,256,240.15Zm-21.78,2.9h.06c0,.88,0,1.75,0,2.62.16,3.18,1.7,5.2,5,5.34s4.91-1.81,5.24-4.7c.27-2.32.5-5-.39-7-.74-1.68-3.12-3.64-4.75-3.62s-3.54,2.12-4.87,3.69C233.85,240.17,234.25,241.81,234.19,243.05Z"/><path d="M133.49,224.66c12.77-2.27,21.44,5,21.35,17.84a30.62,30.62,0,0,1-1.11,9.18c-2.85,8.72-14.5,15.24-26.3,7-7.1,5-14.27,5.17-21,.4-3.57,1.16-6.75,2.78-10.08,3.18a16,16,0,0,1-17.83-15.43c-.17-4-.15-8,0-12,.29-11.18,9.13-18.19,20.22-16.13a5.58,5.58,0,0,0,1.08,0c3.65-10.57,10-15.71,18.31-14.74C127.61,205.1,132,210.87,133.49,224.66Zm-22,8.65c0,4,0,7.95,0,11.93.06,3.62,1.85,5.68,4.9,5.8s5.33-1.9,5.4-5.37q.22-12.48,0-25c-.08-3.49-2.43-5.51-5.51-5.22-3.27.31-4.78,2.32-4.79,5.52C111.46,225.11,111.47,229.21,111.47,233.31Zm-21.69,6.86c0,2-.11,4,0,5.94.19,2.83,1.74,4.62,4.62,4.89s5.11-1.19,5.36-4a79.94,79.94,0,0,0,0-13.31c-.23-2.86-2.49-4.21-5.35-4s-4.45,2-4.65,4.85C89.68,236.44,89.78,238.31,89.78,240.17Zm54,3.37-.22,0a24.68,24.68,0,0,0,0-3c-.4-3.16-2.2-5.19-5.41-5s-4.89,2.21-4.9,5.48c0,1.87-.54,4,.19,5.54a8.67,8.67,0,0,0,4.3,4.31c2.47.88,4.59-.69,5.42-3.29A26.73,26.73,0,0,0,143.74,243.54Z"/></g></g></svg>