<?xml version="1.0" encoding="utf-8"?>
<!-- Generator: Adobe Illustrator 25.0.1, SVG Export Plug-In . SVG Version: 6.00 Build 0)  -->
<svg version="1.1" id="Layer_1" xmlns="http://www.w3.org/2000/svg" xmlns:xlink="http://www.w3.org/1999/xlink" x="0px" y="0px"
	 viewBox="0 0 359.3 359" style="enable-background:new 0 0 359.3 359;" xml:space="preserve">
<g id="Layer_2_1_">
	<g id="Layer_1-2">
		<path d="M0,179.1c0-31.2,0-62.4,0-93.6c0-24.3,16.6-40.8,40.9-40.9c20.8,0,41.7,0,62.5,0c1.8,0.2,3.6-0.8,4.4-2.5
			C123.9,14.8,147.9,0,179.6,0s55.7,14.8,71.9,42.1c0.8,1.7,2.5,2.7,4.4,2.5c20.8-0.1,41.7-0.1,62.5,0c24.3,0,40.9,16.6,40.9,40.8
			c0,62.5,0,125,0,187.5c0,24.5-16.6,41.1-41.1,41.1c-34.9,0-69.9,0-104.8-0.1c-3.1,0-4.1,0.8-3.9,3.9c0.3,3.6,0,7.2,1.3,10.7
			c3.6,9.7,10.7,14.7,20.9,15.4c5.2,0.4,8,3.3,7.8,8c-0.2,4.4-3.4,7.1-8.4,7.1H128.2c-5,0-8.2-2.7-8.4-7c-0.2-4.7,2.5-7.8,7.8-8
			c13.1-0.5,24-10.5,22.2-28.3c-0.1-1.4-0.8-1.6-1.9-1.6s-2,0-3,0H41.1C16.7,314.1,0,297.4,0,273C0,241.7,0,210.3,0,179.1z
			 M259,59.6c0.2,1.1,0.3,1.8,0.5,2.5c7,32.4-1.3,60.2-26,82.2c-25.1,22.3-60.8,26.4-90.8,11.3c-2.4-1.2-3.8-1.3-5.7,0.9
			c-2.6,3-5.6,5.7-8.4,8.5c-1.1,1-1.7,1.8-0.8,3.5c2,3.5,1.1,6.7-1.6,9.5c-13.8,13.8-27.5,27.5-41.3,41.3c-3.8,3.7-7.8,3.8-11.5,0.1
			c-10.4-10.3-20.7-20.6-31-31c-3.6-3.6-3.6-7.7,0-11.2c13.9-14,27.8-27.9,41.8-41.8c2.6-2.6,5.7-3.2,8.9-1.4
			c1.7,0.9,2.6,0.6,3.8-0.7c2.9-3.1,5.9-6.1,9-9c1.7-1.5,1.5-2.6,0.6-4.4c-9.1-17.5-11.5-37.8-6.8-57c0.7-2.8,0.1-3.3-2.6-3.2
			c-19.1,0.1-38.2,0-57.2,0.1C25.1,59.6,15,69.9,15,84.6c0,50.3,0,100.5-0.1,150.8c0,3.1,0.8,3.9,3.9,3.9
			c64.1-0.1,128.2-0.1,192.3-0.1c2.9,0,3.8-0.6,3.8-3.7c-0.2-10.7-0.1-21.4-0.1-32.2c0-6.4,2.7-9,9.1-9.1c4.6,0,9.2,0,13.8,0
			c6.8,0,6.8,0,6.9-6.7c0.1-5.4,2.9-8.2,8.4-8.3c5.1-0.1,10.2,0,15.3,0c6.1,0,6.1,0,6.2-6c0.1-6.2,2.7-8.9,8.8-9c8.5,0,17,0,25.4,0
			s10.6,2.1,10.6,10.6c0,20.1,0.1,40.2-0.1,60.2c0,3.4,1,4.2,4.2,4c5.5-0.3,11-0.2,16.5,0.1c3.5,0.2,4.2-1,4.2-4.3
			C344,184.9,344,135,344,85.1c0-15.7-9.9-25.7-25.7-25.7c-18.6,0-37.2,0-55.8,0L259,59.6z M180.1,254.2H124
			c-35.2,0-70.3,0-105.5-0.1c-2.7,0-3.7,0.5-3.6,3.5c0.3,4.9,0.1,9.7,0.1,14.6c0,17.3,9.6,26.9,26.8,26.9h116.7
			c53.6,0,107.2,0,160.9,0c14.7,0,24.9-10.3,25-25c0-5.2-0.2-10.5,0.1-15.7c0.2-3.3-0.7-4.3-4.2-4.3
			C286.8,254.2,233.5,254.2,180.1,254.2z M179.7,149.5c37.2,0,67.3-30.2,67.3-67.4s-30.2-67.3-67.4-67.3S112.3,45,112.3,82.2
			c0,0,0,0,0,0.1C112.3,119.4,142.5,149.5,179.7,149.5L179.7,149.5z M79.1,203.6c0.6-0.5,1.1-0.9,1.5-1.3
			c9.6-9.6,19.2-19.2,28.8-28.8c1.4-1.4,0.6-2-0.3-2.9c-6-6-12-12-18-18c-1.2-1.3-2-1.3-3.3,0c-9.4,9.5-18.8,18.9-28.3,28.3
			c-1.4,1.4-1.4,2.2,0,3.6c6,5.8,11.8,11.8,17.8,17.7C77.9,202.7,78.5,203.1,79.1,203.6z M157.2,344c15,0,29.1,0,43.2,0
			c0.5-0.1,1-0.2,1.4-0.4c-6-8.3-7.7-17.5-7.2-27.3c0.1-1.5-0.4-2.2-2.1-2.2c-8.6,0.1-17.2,0.1-25.8,0c-1.7,0-2.2,0.6-2.1,2.2
			C165.2,326,163.5,335.3,157.2,344z M289.7,209c0,9.1,0,18.2,0,27.3c0,2,0.4,3,2.7,2.9c3.2-0.2,6.5-0.1,9.7,0
			c1.8,0.1,2.7-0.4,2.7-2.5c-0.1-18.3-0.1-36.6,0-54.9c0-2.1-0.9-2.5-2.7-2.4c-3.1,0.1-6.2,0.2-9.3,0c-2.6-0.2-3.1,0.8-3,3.2
			C289.8,191.3,289.7,200.1,289.7,209z M259.8,216.5c0,6.3,0.1,12.7-0.1,19c-0.1,2.7,0.5,3.9,3.5,3.6c2.7-0.3,5.5-0.3,8.2,0
			c3,0.3,3.5-1,3.4-3.6c-0.1-9.8,0-19.7-0.1-29.5c0-3.8,1.7-9.1-0.7-11s-7.6-0.5-11.6-0.7c-2.2-0.1-2.7,0.8-2.7,2.8
			C259.8,203.5,259.8,210,259.8,216.5L259.8,216.5z M229.8,224c0,4.1,0.1,8.2,0,12.3c-0.1,2,0.5,2.9,2.7,2.8c3.2-0.1,6.5-0.2,9.7,0
			c2.2,0.1,2.7-0.9,2.7-2.9c-0.1-5.1,0.1-10.2-0.1-15.3c-0.1-3.8,1.7-9.1-0.8-11s-7.6-0.5-11.6-0.7c-2.2-0.1-2.7,0.8-2.7,2.8
			C229.9,216,229.8,220,229.8,224z M116.2,155.9c0.3-0.2,0.6-0.4,0.9-0.6c3-3,6-6,8.9-8.9c0.7-0.7,0.4-1.3-0.2-1.9
			c-3.2-3-6.4-6.1-9.6-9.1c-3,2.9-6,5.9-9.1,8.7c-1.2,1.1-1.2,1.9,0,3c2.6,2.5,5.1,5.1,7.7,7.6C115.2,155.1,115.7,155.5,116.2,155.9
			z"/>
		<path d="M179.8,284c-1.6,0.1-3.2,0.1-4.8,0c-3.9-0.5-6.7-3.9-6.5-7.8c0.2-3.8,3.2-6.8,7-6.9c2.6-0.2,5.2-0.1,7.8,0
			c4.4,0.2,7.4,3.1,7.6,7.1s-2.9,7.4-7.4,7.8c-1.2,0.1-2.5,0-3.7,0L179.8,284z"/>
		<path d="M198.5,61.1c0,3.7,0.1,49.5,0,53.2c-0.1,4.4-3.1,7.4-7.2,7.5c-4,0.2-7.4-2.8-7.6-6.8c0-0.1,0-0.2,0-0.2
			c-0.2-7.7-0.2-57.4,0-65.1c0.2-4.1,3.7-7.2,7.8-7c3.9,0.2,7,3.4,7,7.3C198.6,53.7,198.5,57.4,198.5,61.1z"/>
		<path d="M170,99.6c-0.1,3.6-3,6.6-6.6,6.9c-3.8,0.3-7.9-1.9-7.9-5.8c0-6.4,0-30.7,0-37.1c0.5-3.7,4-6.1,7.5-5.9
			c3.8,0.2,6.8,3.2,7,7V99.6z"/>
	</g>
</g>
</svg>
