<svg xmlns="http://www.w3.org/2000/svg" viewBox="0 0 372.09 383.34"><defs><style>.cls-1{fill:#3560b1;}</style></defs><g id="Layer_2" data-name="Layer 2"><g id="Layer_1-2" data-name="Layer 1"><path d="M49,383.34c-4.11-2.38-5.3-6-5.26-10.62.18-18.34.07-36.68.08-55,0-7.76,2.33-10.13,10-10.16,8.47,0,16.93,0,26,0v-4.6c0-37.8-.06-75.61,0-113.41.09-44.92,25.89-82.83,67.55-99.43,60.33-24,129.83,14.48,141.31,78.48a131.23,131.23,0,0,1,2,22.3c.2,37.3.09,74.61.09,111.91v4.55c1.52.07,2.83.19,4.13.19,8.11,0,16.23,0,24.34,0,6.07.05,9.8,3.76,9.81,9.8.05,19,0,37.92.07,56.89,0,4.24-1.86,7-5.26,9.09Zm226.46-76v-4.23q0-56.33,0-112.65a110.37,110.37,0,0,0-.95-14.54c-7.14-52.94-60.82-88.07-112.25-73.55-39.33,11.11-65.48,45.94-65.6,87.68-.11,37.67,0,75.35,0,113v4.27ZM60.1,367.16H312.84v-43.5H60.1Z"/><path class="cls-1" d="M194.09,30.72c0,7.11,0,14.22,0,21.33,0,6.09-2.76,9.31-7.76,9.39S178,58,178,52.06q-.08-21.52,0-43c0-6.23,3.82-9.71,9.32-8.91,4.21.62,6.63,3.52,6.71,8.53C194.17,16,194.09,23.36,194.09,30.72Z"/><path class="cls-1" d="M31,178.16c7.23,0,14.47,0,21.7,0,5.45,0,8.59,2.84,8.72,7.62S58.06,194,52.78,194q-22.27.08-44.54,0C3,194-.08,190.86,0,185.94c.08-4.75,3.07-7.7,8.16-7.76C15.77,178.1,23.38,178.16,31,178.16Z"/><path class="cls-1" d="M341.29,194c-7.36,0-14.72,0-22.08,0-5.35-.05-8.47-3-8.55-7.79s3.16-8,8.68-8q21.89-.07,43.78,0c5.46,0,8.9,3.11,9,7.89.07,4.95-3.11,7.91-8.72,8C356,194.06,348.65,194,341.29,194Z"/><path class="cls-1" d="M280.87,99.78c-4.64-.13-7.16-1.74-8.61-4.81-1.6-3.36-.63-6.35,1.84-8.87,5.68-5.76,11.43-11.46,17.15-17.18,4.67-4.66,9.3-9.37,14-14,3.95-3.86,8.5-4,11.86-.47s3.06,7.84-.67,11.6q-15.37,15.51-30.93,30.86C284,98.4,281.87,99.19,280.87,99.78Z"/><path class="cls-1" d="M92.43,100.31c-2-1.13-4.32-1.91-5.9-3.45C76.12,86.67,65.85,76.35,55.59,66c-3.7-3.73-3.83-8.23-.56-11.59s7.84-3.37,11.59.33Q82.28,70.23,97.8,85.88c2.58,2.6,3.7,5.67,2,9.16A9.11,9.11,0,0,1,92.43,100.31Z"/><path d="M112.65,186.76c.57-34,27.9-65.08,61.59-69.93a93.25,93.25,0,0,1,10.42-.87c6-.18,9.26,2.59,9.37,7.66s-3.21,7.63-9,8.29c-6.27.71-12.73,1.43-18.6,3.54-22.6,8.11-37,28.58-37.95,52.83-.25,6.77-4.33,10.16-10.38,8.63C114.15,195.91,112.54,192.93,112.65,186.76Z"/></g></g></svg>