<svg xmlns="http://www.w3.org/2000/svg" viewBox="0 0 344.84 344.8"><defs><style>.cls-1{fill:#3560b1;}</style></defs><g id="Layer_2" data-name="Layer 2"><g id="Layer_1-2" data-name="Layer 1"><path d="M177.37.07a172.4,172.4,0,1,0-9.57,344.67c97,2.54,174.8-74.1,177-168.69C346.55,80.45,271.61,2.65,177.37.07ZM179.9,117.5c0-15.49.06-31-.06-46.46,0-2.67.61-3.25,3.31-3,43.6,3.35,83.21,38.87,91.9,82.66.89,4.52,1.24,9.14,2,13.69.48,2.74-.16,3.69-3.16,3.62-9.24-.2-18.48-.07-27.73-.07-20.73,0-41.47-.07-62.21.07-3.12,0-4.23-.52-4.18-4C180,148.49,179.9,133,179.9,117.5ZM81.37,44a158.68,158.68,0,0,1,80.77-28.72c3.16-.23,2.77,1.39,2.77,3.3q0,44.94,0,89.9v44.44l-.8.13q-25.74-32.15-51.47-64.31C102,75.44,91.47,62.14,80.78,49,79,46.78,78.8,45.75,81.37,44ZM329.19,186.66c-2.55,26.9-11.16,51.67-26.51,73.88-26,37.66-61.83,60.28-107,67.59-70.68,11.42-142.78-30-169.31-97.07C18.65,211.68,15,192.48,15,165.36c.93-38.07,17.09-76,49.17-107.17,2.33-2.26,3.35-2.08,5.31.37,31.36,39.37,62.89,78.6,94.19,118,3.6,4.55,7.4,6.48,13.27,6.44,32-.26,64-.06,95.94-.22,3.63,0,4.06,1.1,3.56,4.23-7.1,45.21-39.5,79.28-84.25,88.43a99.23,99.23,0,0,1-18.61,1.9c-5.35.07-8.76,3.21-8.61,7.75.16,4.39,3.56,7.21,8.74,7.22,57.62.14,109.28-44.7,117.24-101.77,1.07-7.67,1.07-7.67,9-7.67,8.49,0,17,.13,25.48-.06C328.46,182.76,329.51,183.32,329.19,186.66ZM326.77,168c-5.24-.18-10.49,0-15.74,0-4.87,0-9.76-.18-14.62.06-3,.16-4.2-.48-4.45-3.9-2.25-30.39-14.27-56.42-36.11-77.64-20.12-19.56-44.28-30.78-72.32-33.32-2.74-.25-3.77-1-3.71-4,.21-10.37.14-20.74,0-31.11,0-2.36.62-2.91,3-2.67,65.07,6.49,110.39,40,136.14,99.9,6.76,15.73,9.7,32.47,10.74,49.54C329.87,167.17,329.33,168,326.77,168Z"/><path class="cls-1" d="M92.91,160.41a45,45,0,1,0,45,45A45.14,45.14,0,0,0,92.91,160.41Zm0,75a30,30,0,1,1,30-29.71A30.05,30.05,0,0,1,92.94,235.36Z"/><path class="cls-1" d="M97.29,201.8a4.56,4.56,0,0,1-2.67-6.37c1.17-2.07,2.92,0,4.41.22a2.44,2.44,0,0,1,1,.46c1.84,1.41,2.88.94,3.94-1.13,2.28-4.44,2.4-4.4-2.16-6.25a14.38,14.38,0,0,0-3.89-1.26c-2.22-.19-3.13-1.13-2.84-3.34.17-1.27-.17-2.18-1.76-2.17s-1.93.92-1.77,2.19c.28,2.17-.63,3-2.78,3.43a10.36,10.36,0,0,0-7.6,6.09C78.35,200,81,205.1,88.37,207.74c2.07.73,4.72.91,3.72,4.22.71,3.55-.88,3.93-3.62,2.7A24.85,24.85,0,0,1,84.71,213c-2-1.32-2.87-.8-3.87,1.27-2.34,4.84-2.48,4.82,2.47,6.71a20.25,20.25,0,0,0,5.37,1.52c2.23.2,3.08,1,2.91,3.26-.09,1.22-.61,2.92,1.66,3s2-1.54,1.82-2.81c-.36-2.59,1.05-3,3.18-3.41,5.79-1.08,8.91-4.85,8.92-10.31S104.63,204.16,97.29,201.8Zm-6.24-2A2.61,2.61,0,0,1,88.66,197a2.4,2.4,0,0,1,2.28-2.51c2.2-.11.85,1.76,1.32,2.64C91.83,198.09,93.06,200,91.05,199.85Zm7.11,13.89c-.31,1.42-2,2.25-2.8,1.69-1.92-1.28-.6-3.46-.84-5.56C96.94,210.6,98.69,211.3,98.16,213.74Z"/></g></g></svg>