<svg xmlns="http://www.w3.org/2000/svg" viewBox="0 0 383.26 339.66"><defs><style>.cls-1{fill:none;}.cls-2{fill:#3560b1;}</style></defs><g id="Layer_2" data-name="Layer 2"><g id="Layer_1-2" data-name="Layer 1"><path class="cls-1" d="M318.52,215c-15.79-8.9-32-14.71-49.78-16-16.81-1.2-32.94,2.66-48.16,8.85-12.49,5.08-24.89,6.74-38.09,6.3-13.83-.47-27.69-.17-41.53-.08-8.59.05-15.06,6.26-15.2,14.3-.15,8.42,6,14.79,14.78,14.86,22.2.16,44.41.13,66.61.21,1.61,0,3.63-.31,4.73.51,1.72,1.26,3.74,3.28,3.92,5.15.17,1.67-1.67,3.93-3.21,5.24-1,.88-3.07.72-4.66.73q-33.12.08-66.24.05c-11.37,0-19.79-5-25.1-15.19a7.3,7.3,0,0,0-3.27-3.21c-21-9-41-19.89-60.66-31.48-6.65-3.91-13.31-8-20.39-10.92a31.47,31.47,0,0,0-14.11-2.06c-5.77.43-8.13,5.6-5.43,10.79a20.74,20.74,0,0,0,5.47,6.47q49.9,39.16,103,73.82a45.82,45.82,0,0,0,16.37,6.88c12.11,2.14,24.42,4,36.68,4.23,31.17.59,62.37.18,93.56.31,2.68,0,4-1,5.25-3.16,6-10.22,12-20.38,18.08-30.57C300.2,245.89,309.23,230.68,318.52,215Z"/><path class="cls-1" d="M218.48,12.08v4.31q0,23.39,0,46.77c0,6.72-3.34,9.11-9.57,6.89-11.38-4-22.7-8.26-34.14-12.13a11.87,11.87,0,0,0-7.08,0c-11.32,3.79-22.53,7.93-33.79,11.93-7,2.49-10,.31-10.06-7.25q0-23,0-46V12.08H35.32a9.94,9.94,0,0,0-.24,1.34q0,83.43.07,166.87c0,1.17,1.29,2.77,2.41,3.42,3.86,2.26,8,4.08,11.88,6.26,14,7.84,27.93,15.91,42,23.59,7.36,4,15.06,7.39,22.7,11.1,3.7-14.52,14.4-22.69,30.42-22.16,17.94.6,35.91.17,53.87.09a18.52,18.52,0,0,0,5.77-1.12c6.93-2.41,13.75-5.18,20.73-7.43,22.66-7.33,45.55-9.54,68.72-2.34,4.44,1.38,8.84,2.92,13.38,4.43v-184Zm-3.15,112.13q9-.15,17.94,0c3.62.07,6,2.58,6,5.82s-2.37,5.43-5.83,5.57c-3.11.12-6.23,0-9.34,0v0c-2.87,0-5.73.07-8.6,0-3.8-.12-6-2.26-6.09-5.63S211.67,124.27,215.33,124.21Zm61.39,42.11c-10.09,0-20.18,0-30.26,0s-19.93,0-29.89,0c-4.69,0-7.15-2-7.18-5.7s2.48-5.78,7.09-5.78q30.08,0,60.15,0c4.67,0,7.16,2,7.18,5.71S281.37,166.3,276.72,166.32Zm1.49-30.74c-3.11.15-6.23,0-9.34,0s-6.24.12-9.35,0a5.67,5.67,0,0,1-.11-11.33q9.54-.23,19.07,0a5.67,5.67,0,0,1-.27,11.33Z"/><path class="cls-1" d="M175.23,45.81c5.39,1.48,10.57,3.67,15.85,5.55,5.09,1.81,10.19,3.59,15.37,5.42V12.18H135.58V57c10.8-3.87,21-7.72,31.43-11.12A15,15,0,0,1,175.23,45.81Z"/><path class="cls-1" d="M278.94,304.51l36,21.36L369.5,234l-36-21.4Zm62.7-72.27c5.18-.05,8.15,4.31,6.25,8.2a90.29,90.29,0,0,1-6.48,10.91,5.47,5.47,0,0,1-7.61,1.59,5.55,5.55,0,0,1-2.12-7.48A99.77,99.77,0,0,1,338,234.89C339,233.51,340.87,232.78,341.64,232.24Z"/><path d="M378.54,225.87q-20.4-12.15-40.82-24.25c-7.13-4.23-8.43-3.94-13,2.76-.1.16-.41.18-.46.2s-4.1-.45-17.21-8.45c-4.54-1.51-8.94-3-13.38-4.43-23.17-7.2-46.06-5-68.72,2.34-7,2.25-13.8,5-20.73,7.43a18.52,18.52,0,0,1-5.77,1.12c-18,.08-35.93.51-53.87-.09-16-.53-26.72,7.64-30.42,22.16-7.64-3.71-15.34-7.09-22.7-11.1-14.11-7.68-28-15.75-42-23.59-3.9-2.18-8-4-11.88-6.26L23.33,180.2C11.66,179.77,3.74,184.45,0,195.34v7.48C2.14,210,6.51,215.5,12.42,220.05c33.21,25.56,67.1,50.18,102.27,73a70.86,70.86,0,0,0,17.24,7.83c13.43,4.23,27.4,5.23,41.4,5.31,22.08.13,44.16,0,66.25,0h23.54c3.13,2.84,5.08,5.26,7.57,6.78,13.74,8.35,27.6,16.49,41.43,24.69,5.42,3.22,7.76,2.63,11-2.78q29.12-49,58.2-98.07C384.5,231.43,383.92,229.08,378.54,225.87Zm-110.69,69c-31.19-.13-62.39.28-93.56-.31-12.26-.24-24.57-2.09-36.68-4.23a45.82,45.82,0,0,1-16.37-6.88q-53.19-34.56-103-73.82a20.74,20.74,0,0,1-5.47-6.47c-2.7-5.19-.34-10.36,5.43-10.79a31.47,31.47,0,0,1,14.11,2.06c7.08,3,13.74,7,20.39,10.92,19.66,11.59,39.66,22.48,60.66,31.48a7.3,7.3,0,0,1,3.27,3.21c5.31,10.19,13.73,15.17,25.1,15.19q33.12.06,66.24-.05c1.59,0,3.64.15,4.66-.73,1.54-1.31,3.38-3.57,3.21-5.24-.18-1.87-2.2-3.89-3.92-5.15-1.1-.82-3.12-.5-4.73-.51-22.2-.08-44.41,0-66.61-.21-8.79-.07-14.93-6.44-14.78-14.86.14-8,6.61-14.25,15.2-14.3,13.84-.09,27.7-.39,41.53.08,13.2.44,25.6-1.22,38.09-6.3,15.22-6.19,31.35-10,48.16-8.85,17.73,1.26,34,7.07,49.78,16-9.29,15.64-18.32,30.85-27.34,46.06-6,10.19-12.12,20.35-18.08,30.57C271.86,293.8,270.53,294.84,267.85,294.83Zm47.12,31-36-21.36,54.55-91.93,36,21.4Z"/><path d="M333.8,252.94a5.47,5.47,0,0,0,7.61-1.59,90.29,90.29,0,0,0,6.48-10.91c1.9-3.89-1.07-8.25-6.25-8.2-.77.54-2.67,1.27-3.63,2.65a99.77,99.77,0,0,0-6.33,10.57A5.55,5.55,0,0,0,333.8,252.94Z"/><path class="cls-2" d="M35.15,180.29Q35,96.86,35.08,13.42a9.94,9.94,0,0,1,.24-1.34h88.5v4.48q0,23,0,46c0,7.56,3,9.74,10.06,7.25,11.26-4,22.47-8.14,33.79-11.93a11.87,11.87,0,0,1,7.08,0C186.2,61.79,197.52,66,208.9,70.05c6.23,2.22,9.56-.17,9.57-6.89q0-23.38,0-46.77V12.08h88.59v184c13.11,8,17.21,8.45,17.21,8.45-4.45-1.06-5.52-3.77-5.51-8.16q.25-93.94.11-187.89c0-6.71-1.69-8.41-8.37-8.42Q258.87.05,207.21,0,119.82,0,32.43.11c-7.61,0-9.1,1.51-9.1,9.26V180.2l14.23,3.51C36.44,183.06,35.16,181.46,35.15,180.29ZM135.58,12.18h70.87v44.6c-5.18-1.83-10.28-3.61-15.37-5.42-5.28-1.88-10.46-4.07-15.85-5.55a15,15,0,0,0-8.22,0c-10.39,3.4-20.63,7.25-31.43,11.12Z"/><path class="cls-2" d="M276.63,154.83q-30.08,0-60.15,0c-4.61,0-7.11,2.1-7.09,5.78s2.49,5.68,7.18,5.7c10,0,19.92,0,29.89,0s20.17,0,30.26,0c4.65,0,7.11-2.09,7.09-5.78S281.3,154.84,276.63,154.83Z"/><path class="cls-2" d="M278.48,124.25q-9.53-.24-19.07,0a5.67,5.67,0,0,0,.11,11.33c3.11.15,6.23,0,9.35,0s6.23.12,9.34,0a5.67,5.67,0,0,0,.27-11.33Z"/><path class="cls-2" d="M215.48,135.62c2.87.09,5.73,0,8.6,0v0c3.11,0,6.23.1,9.34,0,3.46-.14,5.77-2.44,5.83-5.57s-2.36-5.75-6-5.82q-9-.15-17.94,0c-3.66.06-6,2.45-5.94,5.78S211.68,135.5,215.48,135.62Z"/></g></g></svg>