<svg xmlns="http://www.w3.org/2000/svg" viewBox="0 0 324.65 324.69"><defs><style>.cls-1{fill:#3560b1;}</style></defs><g id="Layer_2" data-name="Layer 2"><g id="Layer_1-2" data-name="Layer 1"><path class="cls-1" d="M162.33,235.42h-.22A73,73,0,0,1,89.44,162a73,73,0,0,1,73-72.58h.09a73,73,0,0,1-.18,146Zm.09-131.79a58.8,58.8,0,0,0-41.74,100.22,58.2,58.2,0,0,0,41.47,17.4h.18a58.81,58.81,0,0,0,.16-117.62Z"/><path d="M315.44,5.55A24.44,24.44,0,0,0,286.66,4.3a23.92,23.92,0,0,0-9.86,27,10,10,0,0,1-2.91,10.6c-5.48,5.37-11,10.91-16.34,16.26l-7.47,7.48c-.66.65-1.33,1.22-2,1.78l-.92.78-3.89,3.43-3.65-3.69-3.92-4c-2.69-2.77-5.27-5.41-7.87-7.93-.09,6.72-.07,13.53-.06,20.14,0,2.58,0,5.17,0,7.75V97h16.76c7.18,0,15.58,0,24.29-.08-2.55-2.69-5.22-5.3-8-8l-3.93-3.88-3.78-3.77,3.65-3.89,1-1.05c.69-.74,1.29-1.39,1.92-2q3.29-3.3,6.6-6.58c5.12-5.09,10.42-10.36,15.48-15.63,1.42-1.48,4.39-4.57,9-4.57a11.92,11.92,0,0,1,4.9,1.14,12.62,12.62,0,0,0,3.06.35h.41q.52,0,1.05,0A24.45,24.45,0,0,0,315.44,5.55Zm-15.28,33a14,14,0,1,1,14-14A14,14,0,0,1,300.16,38.5Z"/><path d="M320.48,286.68a23.74,23.74,0,0,0-20-10.81,25.3,25.3,0,0,0-7,1,11.76,11.76,0,0,1-3.24.49,9.59,9.59,0,0,1-7.07-3.19c-5.44-5.55-11-11.14-16.45-16.55l-7.8-7.81a21.18,21.18,0,0,1-1.71-2l-.67-.85-3.2-3.89,3.6-3.53q2-1.93,3.95-3.83c2.75-2.66,5.38-5.19,7.89-7.8-6.9-.07-13.58-.08-18.8-.08l-22.18,0v6.37c0,11.37,0,23.1.07,34.63,2.59-2.53,5.16-5.17,7.84-7.94,1.31-1.36,2.64-2.74,4-4.14l3.89-4,3.93,3.92,7.15,7.17c6.47,6.5,12.59,12.65,18.88,18.78,1.37,1.33,5.52,5.37,2.84,12.1a14.89,14.89,0,0,0-.64,4.44,24.51,24.51,0,0,0,16,24,23.59,23.59,0,0,0,8.23,1.47,24.63,24.63,0,0,0,19.22-9.22A24.16,24.16,0,0,0,320.48,286.68Zm-20.32,27.78a14,14,0,1,1,14-14A14,14,0,0,1,300.16,314.46Z"/><path d="M96.94,56c-2.64,2.58-5.24,5.23-8,8q-1.91,1.95-3.84,3.9l-3.72,3.75-3.9-3.55-1-.88c-.66-.6-1.29-1.15-1.91-1.78q-3.5-3.48-7-7c-5.41-5.43-11-11.05-16.57-16.46-4.16-4-3.68-8.29-3-11.13,2.56-10,0-18.15-7.75-24.8C35.67,2.05,30.56,0,25.21,0A25.68,25.68,0,0,0,14.75,2.41C5.51,6.53.64,13.8.28,24A23.82,23.82,0,0,0,6.94,41.54,24.77,24.77,0,0,0,24.64,49a25.34,25.34,0,0,0,6.67-.9,12.79,12.79,0,0,1,3.24-.42,8.4,8.4,0,0,1,6,2.15C47.79,56.92,54.8,64,62.23,71.42L72,81.16,68,85.05q-2,2-4,3.94c-2.79,2.72-5.45,5.32-8,8,6.24.06,13,.09,21.45.09H97V92C97,79.64,97,67.9,96.94,56ZM24.55,38.5a14,14,0,1,1,14-14A14,14,0,0,1,24.55,38.5Z"/><path d="M97,233v-5.13H80.13c-6.71,0-15.35,0-24.1.08,2.55,2.68,5.21,5.29,8,8,1.3,1.27,2.61,2.56,3.91,3.86l3.79,3.76-3.65,3.9-1,1.09c-.68.74-1.28,1.39-1.91,2l-6.8,6.8c-5.31,5.29-10.81,10.77-16.11,16.22a10.73,10.73,0,0,1-7.92,3.63,14.38,14.38,0,0,1-3.51-.48,28.31,28.31,0,0,0-7-1c-6.78,0-12.74,2.94-17.7,8.74-6.52,7.61-7.78,16.15-3.77,25.38s11.26,14.24,21.46,14.69c.38,0,.77,0,1.15,0a23.81,23.81,0,0,0,19-9.38,24.82,24.82,0,0,0,4.17-21.75c-.72-2.65-.67-6.65,1.8-9.21,7-7.23,14-14.24,21.43-21.66l9.75-9.77L85,256.78l4,4.12c2.71,2.77,5.3,5.42,7.92,8C97.05,256.88,97,244.74,97,233ZM24.55,314.46a14,14,0,1,1,14-14A14,14,0,0,1,24.55,314.46Z"/></g></g></svg>