<?xml version="1.0" encoding="utf-8"?>
<!-- Generator: Adobe Illustrator 25.0.1, SVG Export Plug-In . SVG Version: 6.00 Build 0)  -->
<svg version="1.1" id="Layer_1" xmlns="http://www.w3.org/2000/svg" xmlns:xlink="http://www.w3.org/1999/xlink" x="0px" y="0px"
	 viewBox="0 0 512 512" style="enable-background:new 0 0 512 512;" xml:space="preserve">
<style type="text/css">
	.st0{fill:#3560B1;}
</style>
<g id="Page-1">
	<g id="_x30_44---Survey">
		<path id="Shape" d="M469.3,0H110.9C87.4,0,68.3,19.1,68.3,42.7v366.9H17.1c-9.4,0-17.1,7.6-17.1,17.1v42.7
			C0,492.9,19.1,512,42.7,512h358.4c23.6,0,42.6-19.1,42.7-42.7V102.4h51.2c9.4,0,17.1-7.6,17.1-17.1V42.7C512,19.1,492.9,0,469.3,0
			z M76.8,494.9H42.7c-14.1,0-25.6-11.5-25.6-25.6v-42.7h341.3v42.7c0,9.2,3,18.2,8.6,25.6H76.8z M426.7,469.3
			c0,14.1-11.5,25.6-25.6,25.6c-14.1,0-25.6-11.5-25.6-25.6v-42.7c0-9.4-7.6-17.1-17.1-17.1H85.3V42.7c0-14.1,11.5-25.6,25.6-25.6
			h324.5c-5.6,7.3-8.7,16.3-8.8,25.6V469.3z M494.9,85.3h-51.2V42.7c0-14.1,11.5-25.6,25.6-25.6c14.1,0,25.6,11.5,25.6,25.6V85.3z"
			/>
		<path id="Shape_1_" class="st0" d="M187.7,42.7c-42.4,0-76.8,34.4-76.8,76.8s34.4,76.8,76.8,76.8s76.8-34.4,76.8-76.8
			C264.5,77.1,230.1,42.7,187.7,42.7z M187.7,179.2c-33,0-59.7-26.7-59.7-59.7s26.7-59.7,59.7-59.7s59.7,26.7,59.7,59.7
			C247.4,152.4,220.7,179.2,187.7,179.2z"/>
		<path id="Shape_2_" d="M187.7,230.4c-42.4,0-76.8,34.4-76.8,76.8s34.4,76.8,76.8,76.8s76.8-34.4,76.8-76.8
			C264.5,264.8,230.1,230.4,187.7,230.4z M187.7,366.9c-33,0-59.7-26.7-59.7-59.7s26.7-59.7,59.7-59.7s59.7,26.7,59.7,59.7
			C247.4,340.2,220.7,366.9,187.7,366.9z"/>
		<circle id="Oval" class="st0" cx="153.6" cy="110.9" r="8.5"/>
		<circle id="Oval_1_" class="st0" cx="221.9" cy="110.9" r="8.5"/>
		<path id="Shape_3_" class="st0" d="M209,129.1c-4.1-2.3-9.3-0.8-11.6,3.3c-0.4,0.7-1,1.3-1.7,1.8c-1,0.7-2.1,1.3-3.3,1.7
			c-3,0.9-6.2,0.9-9.2,0c-1.2-0.4-2.3-0.9-3.3-1.7c-0.7-0.5-1.2-1.1-1.7-1.8c-1.5-2.7-4.3-4.4-7.3-4.5s-5.9,1.5-7.5,4.2
			c-1.6,2.6-1.6,5.9,0,8.6c1.6,2.8,3.7,5.2,6.3,7.1c2.5,1.9,5.4,3.4,8.4,4.3c6.4,2,13.2,2,19.6,0c3-0.9,5.9-2.4,8.4-4.3
			c2.6-1.9,4.7-4.3,6.3-7.1c1.1-2,1.4-4.3,0.8-6.5C212.4,132,210.9,130.2,209,129.1L209,129.1z"/>
		<circle id="Oval_2_" cx="153.6" cy="298.7" r="8.5"/>
		<circle id="Oval_3_" cx="221.9" cy="298.7" r="8.5"/>
		<path id="Shape_4_" d="M206,321.5c-2.5-1.9-5.4-3.4-8.4-4.3c-6.4-2-13.2-2-19.6,0c-3,0.9-5.9,2.4-8.4,4.3
			c-2.6,1.9-4.7,4.3-6.3,7.1c-1.5,2.7-1.5,5.9,0,8.6c1.6,2.6,4.4,4.2,7.5,4.2c3.1-0.1,5.9-1.8,7.3-4.5c0.4-0.7,1-1.3,1.7-1.8
			c1-0.7,2.1-1.3,3.3-1.7c3-0.9,6.2-0.9,9.2,0c1.2,0.4,2.3,0.9,3.3,1.7c0.7,0.5,1.2,1.1,1.7,1.8c1.5,2.7,4.3,4.4,7.3,4.5
			c3.1,0.1,5.9-1.5,7.5-4.2c1.6-2.6,1.6-5.9,0-8.6C210.7,325.9,208.5,323.4,206,321.5L206,321.5z"/>
		<path id="Shape_5_" d="M384,128c-4.7,0-8.5,3.8-8.5,8.5v17.1h-68.3V85.3h51.2c4.7,0,8.5-3.8,8.5-8.5c0-4.7-3.8-8.5-8.5-8.5h-51.2
			c-9.4,0-17.1,7.6-17.1,17.1v68.3c0,9.4,7.6,17.1,17.1,17.1h68.3c9.4,0,17.1-7.6,17.1-17.1v-17.1c0-2.3-0.9-4.4-2.5-6
			C388.4,128.9,386.3,128,384,128z"/>
		<path id="Shape_6_" d="M375.5,256h-68.3c-9.4,0-17.1,7.6-17.1,17.1v68.3c0,9.4,7.6,17.1,17.1,17.1h68.3c9.4,0,17.1-7.6,17.1-17.1
			v-68.3C392.5,263.6,384.9,256,375.5,256z M307.2,341.3v-68.3h68.3l0,68.3H307.2z"/>
		<path id="Shape_7_" class="st0" d="M395,70.8l-45.2,45.2l-11-11c-3.3-3.2-8.7-3.2-12,0.1s-3.3,8.6-0.1,12l17.1,17.1
			c1.6,1.6,3.8,2.5,6,2.5c2.3,0,4.4-0.9,6-2.5l51.2-51.2c3.2-3.3,3.2-8.7-0.1-12S398.4,67.5,395,70.8L395,70.8z"/>
	</g>
</g>
</svg>
