<?xml version="1.0" encoding="utf-8"?>
<!-- Generator: Adobe Illustrator 25.0.1, SVG Export Plug-In . SVG Version: 6.00 Build 0)  -->
<svg version="1.1" id="Layer_1" xmlns="http://www.w3.org/2000/svg" xmlns:xlink="http://www.w3.org/1999/xlink" x="0px" y="0px"
	 viewBox="0 0 409 409.1" style="enable-background:new 0 0 409 409.1;" xml:space="preserve">
<style type="text/css">
	.st0{fill:#FF8000;}
</style>
<g id="Layer_2_1_">
	<g id="Layer_1-2">
		<path class="st0" d="M228.6,0c9,2.9,16.1,8.3,18.2,17.8c2.4,10.3,2.4,21-0.1,31.2c-2.9,11.2-11.3,17.4-22.7,17.9
			c-13.8,0.6-27.6,1.2-41.4-0.4c-12-1.4-20.9-11.6-21.2-23.7c-0.2-5.7-0.1-11.4-0.1-17.1c0.1-12.1,6.1-20.6,17.5-24.8
			c0.6-0.2,1.2-0.5,1.8-0.8H228.6z M204.9,12.8c-6.2,0-12.5-0.1-18.7,0c-7,0.2-11.4,4.6-11.6,11.6c-0.2,6-0.2,12,0,17.9
			c0,6.3,5,11.5,11.4,11.6c12.5,0.2,25,0.2,37.5,0c6.3,0,11.4-5.2,11.4-11.5c0.2-6,0.2-12,0-17.9c-0.2-6.9-4.6-11.4-11.6-11.6
			C217.1,12.7,211,12.8,204.9,12.8z"/>
		<path d="M409,388.8c-2.8,9.7-8.5,16.7-18.6,19.5c-2.1,0.5-4.2,0.8-6.3,0.7c-12.1,0-24.2,0.1-36.3,0c-14.5-0.1-25.1-10.6-25.3-25.2
			c-0.1-5,0-10.1,0-15.2c0-15,8.1-25,23-26.6c13.5-1.4,27.1-1,40.6-0.1c11.2,0.8,18.5,7.2,22.1,17.8c0.2,0.6,0.5,1.2,0.8,1.8
			L409,388.8z M365.8,396L365.8,396c6.2,0,12.5,0.1,18.7,0c6.9-0.2,11.4-4.7,11.6-11.6c0.1-5.8,0.1-11.7,0-17.5
			c-0.1-6.9-5-11.9-11.9-12c-12.2-0.2-24.5-0.2-36.7,0c-6.9,0.1-11.6,5.1-11.8,12c-0.1,5.7-0.1,11.4,0,17.1
			c0.1,7.3,4.6,11.8,12.1,12C353.8,396.1,359.8,396,365.8,396z"/>
		<path d="M183.8,132h-74.3c-6,0-6,0-6,6.2s0,12.5,0,18.8c-0.1,4.5-2.4,7.3-6.1,7.4c-3.5,0.1-6.5-2.4-6.7-6.6
			c-0.6-10.6-0.6-21.3,0-31.9c0.3-4.5,2.5-6.3,6.9-6.8c1.6-0.1,3.2-0.2,4.8-0.1H191c7,0,7,0,7-7.2c0-9.3,0-18.7,0-28
			c0-2.9,0.6-5.6,3.3-7.3c4.6-2.8,9.7,0.6,9.8,6.8c0.1,9.3,0,18.6,0.1,27.9c0,8.4-1,7.7,7.7,7.7c12.8,0,25.6,0,38.3,0
			c2.1-0.1,4.3,0.1,6.3,0.7c2.8,0.7,4.7,3.5,4.3,6.4c-0.2,3.2-2.1,5.1-5.1,5.8c-1.4,0.2-2.9,0.3-4.4,0.2H183.8z"/>
		<path d="M97.1,170.7c6.2,0,12.5-0.1,18.7,0c13.2,0.4,23.3,10.1,24.5,23.2c0.6,7,0.6,14.1,0,21.1c-1.1,12.8-10.9,22.6-23.8,23
			s-25.8,0.4-38.7,0c-13.4-0.4-23-10.1-24-24.5c-0.7-7.1-0.5-14.4,0.4-21.5C55.9,180,66,171.1,78,170.7
			C84.4,170.5,90.8,170.7,97.1,170.7L97.1,170.7z M97.3,183.8L97.3,183.8c-6.2,0-12.5-0.1-18.8,0c-6.3,0-11.5,5-11.7,11.3
			c-0.3,6.1-0.2,12.2,0,18.4c0.1,6.3,5.3,11.4,11.6,11.4c12.4,0.1,24.7,0.1,37.1,0c6.3-0.1,10.6-3.8,11.6-10c1-6.7,1-13.5,0.1-20.3
			c-0.9-7.2-5.2-10.8-12.4-10.9C109,183.7,103.1,183.8,97.3,183.8z"/>
		<path d="M312.6,170.6c5.3,0,10.6,0,16,0c15.5,0.1,25.6,9,26.9,24.5c0.7,7,0.6,14.1-0.3,21.1c-1.9,12.7-11.4,21.5-24.1,21.8
			s-25.2,0.3-37.9,0c-13.1-0.3-23-10.1-24.2-23.1c-0.6-7-0.6-14.1,0-21.1c1.2-13.2,11.2-22.8,24.4-23.2
			C299.9,170.5,306.3,170.7,312.6,170.6L312.6,170.6z M312.1,225c6.1,0,12.2,0.1,18.4,0c6.7-0.1,11.8-4.8,12-11.4
			c0.2-6.1,0.2-12.2,0-18.4c-0.1-6.3-5.3-11.4-11.6-11.4c-12.4-0.1-24.7-0.1-37.1,0c-6.3,0.1-10.6,3.8-11.5,10
			c-1,6.8-1,13.8-0.1,20.7c0.9,6.7,5.3,10.3,12,10.4C300.1,225.1,306.1,225,312.1,225z"/>
		<path d="M258.4,409.1c-5.6,0-11.2,0-16.8,0c-14.8,0-24.4-8.2-26.4-22.8c-0.9-7-0.9-14.1,0-21.1c1.7-14,10-22.4,24-23.2
			c13.8-0.8,27.7-1.2,41.4,0.4c11.4,1.3,20.5,11.4,20.8,22.8c0.2,6.6,0.2,13.3,0,20c-0.2,13.3-11.1,24-24.4,24
			C270.9,409.1,264.6,409,258.4,409.1L258.4,409.1z M258.2,396L258.2,396h17.5h1.2c6.9-0.3,11.2-4.5,11.5-11.3
			c0.2-6.1,0.2-12.2,0-18.3c-0.2-6.7-4.7-11.4-11.4-11.5c-12.5-0.2-25-0.2-37.5,0c-6.3,0.1-11.4,5.2-11.5,11.6c-0.2,6-0.2,12,0,18
			c0.2,6.9,4.9,11.4,11.7,11.6C246,396.1,252.1,396,258.2,396z"/>
		<path d="M151,409.1c-6.4,0-12.8,0.1-19.2,0c-13.1-0.2-23.8-10.7-24.1-23.9c-0.1-5.6-0.1-11.2-0.1-16.8c0.1-15.1,8-24.8,23.1-26.3
			c13.4-1.3,26.9-1.3,40.2,0c13.8,1.3,21.8,9.9,23,23.7c0.8,7.5,0.7,15.2-0.4,22.7c-1.9,11.6-11.8,20.1-23.5,20.5
			C163.8,409.2,157.4,409.1,151,409.1z M150.9,396L150.9,396c6.1,0,12.2,0.1,18.4,0c7.1-0.2,11.7-4.7,11.9-11.8
			c0.2-5.9,0.2-11.7,0-17.5c0-6.5-5.2-11.7-11.7-11.8c-12.4-0.2-24.7-0.2-37.1,0c-6.9,0.1-11.3,4.8-11.6,11.7
			c-0.2,5.8-0.2,11.7,0,17.5c0.2,7.5,4.6,11.7,12.1,11.9C138.9,396.1,144.9,396,150.9,396z"/>
		<path d="M96.9,301.9H55.8C50,302,50,302,50,307.5c0,6.1,0,12.2,0,18.4c-0.1,5.1-2.4,8-6.4,8c-4.2,0-6.7-2.9-6.7-8.1
			c-0.1-9.4-0.1-18.9,0-28.3c0-6.3,2.4-8.6,8.7-8.7c13.4,0,26.9-0.1,40.3,0c3.5,0,4.7-1,4.6-4.5c-0.2-9.5-0.1-18.9,0-28.3
			c0-1.7,0.1-3.5,0.4-5.1c0.7-3.6,3.5-5.9,6.6-5.7c3.4,0.2,5.9,2.9,6,6.8c0.1,7.1,0.1,14.1,0.1,21.2c0,3.6,0.2,7.2,0,10.8
			c-0.3,3.8,0.9,5.1,4.8,5c13.2-0.2,26.3-0.1,39.5-0.1c7.4,0,9.7,2.2,9.8,9.8c0.1,8.5,0,17,0,25.5c0,1.3-0.1,2.7-0.4,4
			c-0.8,4-3.3,6.1-6.8,5.9s-5.8-2.8-5.9-6.8c-0.1-7-0.2-14.1,0-21.1c0.1-3.2-1.1-4.1-4.2-4.1C125.9,302,111.4,301.9,96.9,301.9z"/>
		<path d="M312,301.9c-14.2,0-28.5,0.1-42.7-0.1c-3.4,0-4.7,0.9-4.6,4.5c0.2,6.6,0.1,13.3,0,20c0,4.6-2.2,7.3-5.9,7.6
			c-3.9,0.3-6.8-2.3-7-7c-0.3-10.2-0.3-20.5,0-30.7c0.1-5.3,2.8-7.4,8.4-7.4c13.6,0,27.1-0.1,40.7,0.1c3.9,0.1,5-1.3,4.9-5
			c-0.2-10.6-0.1-21.3,0-31.9c0-3.9,2.6-6.6,6-6.8c3.1-0.2,5.9,2.1,6.6,5.7c0.3,1.6,0.4,3.2,0.4,4.8c0,9.4,0.2,18.9,0,28.3
			c-0.1,3.9,1.2,5,5,5c13.2-0.2,26.3-0.1,39.5-0.1c6.8,0,9.1,2.3,9.2,9.1c0,9.2,0,18.4,0,27.5c0,0.3,0,0.5,0,0.8
			c-0.2,4.9-2.7,7.8-6.7,7.8c-3.8,0-6.3-2.9-6.4-7.6c-0.1-6.1,0-12.2,0-18.4s0-6-6.2-6L312,301.9z"/>
		<path d="M43.2,354.8c-5.7,0-11.4-0.1-17.2,0c-7.9,0.1-12.7,4.9-12.8,12.7c-0.1,4.8,0.1,9.6,0,14.4c-0.1,3.3,0.6,6.6,2.1,9.6
			c2.1,4.2,1.3,7.5-2,9.4s-6.7,0.8-9.4-3.3c-2.5-3.8-3.9-8.2-3.9-12.8c-0.1-5.2,0-10.4,0-15.6c0-15.7,8.3-25.9,23.8-27.1
			c13.8-1.2,27.7-1.1,41.4,0.3c12.3,1.4,21.2,11.5,21.5,23.9c0.2,6.1,0.1,12.2,0,18.4c-0.1,13.6-11.2,24.6-24.8,24.5c0,0,0,0,0,0
			c-10.4,0.1-20.8,0-31.1,0c-5,0-8.1-2.4-8.1-6.3s3.1-6.6,8-6.7c9.6-0.2,19.2-0.1,28.7-0.1c10.3,0,14.3-4,14.3-14.2
			c0-4.8,0-9.6,0-14.4c-0.1-7.8-4.9-12.5-12.8-12.6C54.9,354.7,49,354.8,43.2,354.8z"/>
		<path d="M318.9,142c0,4.3,0,8.5,0,12.8c0,1.5-0.2,2.9-0.5,4.3c-0.7,3.5-3.1,5.2-6.5,5.2s-5.9-2.6-6-6.2c-0.2-7.3-0.2-14.6,0-21.9
			c0.1-3.1-0.9-4.2-4.1-4.1c-6.2,0.2-12.5,0.1-18.7,0c-4.5-0.1-7.3-2.4-7.5-6.1s2.3-6.6,6.8-6.8c9.8-0.3,19.7-0.3,29.5,0
			c4.6,0.1,6.6,2.6,6.9,7.7S318.8,136.9,318.9,142L318.9,142z"/>
	</g>
</g>
</svg>
