<?xml version="1.0" encoding="utf-8"?>
<!-- Generator: Adobe Illustrator 25.0.1, SVG Export Plug-In . SVG Version: 6.00 Build 0)  -->
<svg version="1.1" id="Layer_1" xmlns="http://www.w3.org/2000/svg" xmlns:xlink="http://www.w3.org/1999/xlink" x="0px" y="0px"
	 viewBox="0 0 345.9 384" style="enable-background:new 0 0 345.9 384;" xml:space="preserve">
<style type="text/css">
	.st0{fill:#FF8000;}
</style>
<g id="Layer_2_1_">
	<g id="Layer_1-2">
		<path d="M175.9,0c3.4,2,4.9,5,4.8,9c-0.1,15.8,0,31.7-0.1,47.5c0,6.3-5.6,10-11,7.5c-2.8-1.1-4.5-3.8-4.5-6.8
			c0-16.7,0-33.4,0-50.1c0-3.4,2.1-5.4,4.7-7.1L175.9,0z"/>
		<path d="M169.9,384c-3.6-2.1-4.9-5.2-4.8-9.4c0.1-15.3,0-30.7,0.1-46c-0.1-1.4,0.1-2.7,0.4-4.1c1.1-3.6,4.7-5.8,8.5-5.2
			c3.8,0.4,6.6,3.6,6.6,7.4c0.1,16.7,0,33.4,0,50.1c0,3.4-2.1,5.4-4.7,7.1L169.9,384z"/>
		<path d="M169,86.7c33.8,0,61.5,8.1,87.5,22.2c34.5,18.8,62.7,44.7,86.1,76.1c4.4,5.9,4.4,8.2-0.1,14.1
			C311.3,240,273.6,272.4,224,289c-39.8,13.3-79,10.7-117.4-5.6c-35-14.8-63.8-38.1-88.8-66.3c-5.5-6.1-10.7-12.6-15.4-19.3
			c-3-4.4-3.2-7.2-0.1-11.3c31.5-42.1,70-75,120.6-91.8C139.1,89.3,155.8,86.4,169,86.7z M172.9,102.3c-18.7-0.1-40.8,4.6-59,12.4
			c-38.3,16.3-68.5,42.6-94.3,74.6c-1.9,2.4-1.2,3.8,0.4,5.8c20.3,25.4,43.8,47.3,72.2,63.5c27.8,15.9,57.4,24.7,89.8,22.6
			c23-1.5,44.4-8.2,64.6-18.8c31.4-16.5,57-39.8,79.2-67.2c1.8-2.2,2-3.8,0.1-6.1c-20.6-25.5-44.2-47.6-72.8-63.9
			C228.3,110.9,201.7,102.7,172.9,102.3L172.9,102.3z"/>
		<path d="M70.3,96.6c-0.1,2.8-1.5,5.3-3.9,6.7c-2.5,1.6-5.7,1.5-8.2-0.1c-0.4-0.3-0.8-0.6-1.2-0.9c-10.7-10.7-21.3-21.3-32-32
			c-2.1-1.9-2.9-4.9-2-7.6c1.7-5.8,8.5-7.8,12.9-3.5c10.8,10.5,21.4,21.3,32.1,32C69.5,92.5,70.3,94.5,70.3,96.6z"/>
		<path d="M283.1,104.4c-2.7-0.1-5.2-1.6-6.5-4c-1.6-2.5-1.5-5.7,0.3-8.1c0.5-0.7,1.1-1.4,1.7-2c10.1-10.2,20.3-20.4,30.5-30.4
			c4.9-4.8,11.5-3.5,13.6,2.4c1.1,2.8,0.4,5.9-1.8,7.9c-10.7,10.7-21.3,21.4-32,32.1C287.3,103.7,285.2,104.5,283.1,104.4z"/>
		<path d="M70.3,294.6c0,2.4-0.9,4.7-2.7,6.3c-10.4,10.4-20.8,20.9-31.3,31.2c-3.5,3.5-8.2,3.4-11.4,0.2s-3.1-7.8,0.4-11.4
			c10.4-10.5,20.8-20.9,31.2-31.2c2.5-2.5,5.5-3.3,8.9-1.8C68.3,289,70.1,291.6,70.3,294.6z"/>
		<path d="M323.1,326.9c-0.1,2.8-1.6,5.3-4,6.7c-2.5,1.6-5.7,1.5-8.1-0.2c-0.7-0.5-1.4-1-2-1.7c-10.2-10.1-20.3-20.3-30.5-30.4
			c-2.1-2.1-3.5-4.6-2.9-7.7c0.7-4.2,4.8-7,9-6.3c1.5,0.3,3,1,4.1,2.1c10.8,10.5,21.4,21.3,32.1,32
			C322.2,322.8,323.1,324.8,323.1,326.9z"/>
		<path d="M172.1,124.2c35.5,0,64.7,26.1,68.4,60.4c4,37.1-23.4,71.2-60.3,75c-37.2,3.8-70.8-23.1-74.8-60.1
			c-0.8-6.2-0.6-12.5,0.5-18.7c1-5.1,4.7-8.3,9-7.6c4.7,0.8,7.4,4.6,6.6,10c-4.8,28.3,14.3,55.2,42.7,60s55.2-14.3,60-42.7
			c0.2-1.1,0.3-2.1,0.4-3.2c3.3-29.8-19.6-54.7-46.2-57c-7.8-0.6-15.7,0.3-23.2,2.6c-5,1.5-8.8,0.2-10.7-3.5
			c-2.2-4.5-0.2-9.2,4.9-11.1C156.6,125.5,164.3,124.1,172.1,124.2z"/>
		<path class="st0" d="M172.9,161.7c16.7,0,30.3,13.5,30.3,30.2c0,16.7-13.5,30.3-30.2,30.3s-30.3-13.5-30.3-30.2c0,0,0-0.1,0-0.1
			c-0.2-16.5,13.1-30,29.6-30.2C172.5,161.7,172.7,161.7,172.9,161.7z M172.9,177.3c-8.1,0-14.7,6.6-14.6,14.7s6.6,14.7,14.7,14.6
			c8.1,0,14.6-6.6,14.6-14.7C187.4,184,180.9,177.5,172.9,177.3L172.9,177.3z"/>
		<path d="M135.6,154.7c-0.1,4.3-3.6,7.7-7.9,7.6c-4.3-0.1-7.7-3.6-7.6-7.9c0.1-4.2,3.6-7.6,7.8-7.6c4.2-0.1,7.6,3.3,7.7,7.4
			C135.6,154.4,135.6,154.5,135.6,154.7z"/>
	</g>
</g>
</svg>
