<?xml version="1.0" encoding="utf-8"?>
<!-- Generator: Adobe Illustrator 25.0.1, SVG Export Plug-In . SVG Version: 6.00 Build 0)  -->
<svg version="1.1" id="Layer_1" xmlns="http://www.w3.org/2000/svg" xmlns:xlink="http://www.w3.org/1999/xlink" x="0px" y="0px"
	 viewBox="0 0 378.4 384" style="enable-background:new 0 0 378.4 384;" xml:space="preserve">
<style type="text/css">
	.st0{fill:#FF8000;}
</style>
<g id="Layer_2_1_">
	<g id="Layer_1-2">
		<path d="M167.5,384c-11.7-4.4-15.9-13.1-15.9-25.2c0.2-73,0.2-146,0.1-219c0-8.2,2.3-15.2,9.3-20.2c3.3-2.4,7.2-3.6,11.2-3.6
			c61.9,0,123.7,0,185.6,0c11.3,0,19.9,9.1,20.5,21.2c0.1,1.4,0,2.8,0,4.1c0,72.5,0,145,0.1,217.5c0,12.1-4.2,20.8-15.9,25.2
			L167.5,384z M366,250.5c0-37,0-74,0-111c0-8.4-2.8-11.3-11.2-11.3c-59.9,0-119.8,0-179.6,0c-8.4,0-11.2,2.8-11.3,11.2v221.2
			c0,8.5,3.2,11.8,11.8,11.8h178.5c8.6,0,11.8-3.2,11.8-11.7V250.5z"/>
		<path d="M16,384c-11.7-4.4-16.1-13-15.9-25.2c0.3-17,0-34,0.1-51C0.3,296.6,6.6,288.1,17,286c6.9-1.4,14-0.7,20.9-0.3
			c3.1,0.2,5,2.5,5,5.6c0.2,2.9-1.9,5.5-4.8,5.9c-4.8,0.9-9.7,0.4-14.6,0.5c-8.2,0.1-11.1,2.9-11.1,11c0,17.6,0,35.2,0,52.9
			c0,7.3,3.4,10.9,10.8,10.9c27.5,0.1,55,0.1,82.5,0c7.8,0,11.3-3.5,11.3-11.3c0-17.5,0-35,0-52.5c0-7.6-3.3-11-11-11
			c-12.6,0-25.2,0-37.9,0c-1.9,0-3.7-0.1-5.6-0.4c-3.2-0.2-5.7-3-5.5-6.2c0.2-3.2,3-5.7,6.2-5.5c2.7-0.1,5.5-0.1,8.2-0.1
			c11.9,0,23.7,0,35.6,0c12.9,0,21.6,8.7,21.6,21.7c0.1,17.9-0.3,35.8,0.1,53.6c0.3,12.9-6.9,20.5-16.2,23.2L16,384z"/>
		<path d="M40,0c2.5,2.3,3.2,5.1,3.2,8.4c-0.1,8.6,0,17.2,0,25.9c0,10.1-5.7,17.6-15.1,20.4C19,57.6,9,54.2,3.5,46.3
			C1.3,43,0.1,39,0.2,35c-0.1-9.1,0-18.2,0-27.4C0.2,4.4,1,1.7,4,0h5.2c2.5,2.2,3.3,5,3.2,8.4c-0.1,8.7-0.1,17.4,0,26.2
			c0,5.7,3.4,8.9,9.1,8.9s9.2-3.3,9.2-8.9c0-8.7,0.1-17.4,0-26.1C30.8,5.1,31.5,2.3,34,0H40z"/>
		<path d="M162.2,0c2.5,2.1,3.3,4.7,3.3,8c-0.1,9.1,0,18.2-0.1,27.3c-0.1,10.3-6.8,18-17.7,20.1c-9.2,1.8-19.9-3.7-23.5-12.2
			c-0.9-2.1-1.3-4.3-1.2-6.6c0-10,0-20,0-30c-0.2-2.6,1-5.2,3.2-6.7h5.2c2.6,2,3.4,4.7,3.3,7.9c-0.1,8.9-0.1,17.7,0,26.6
			c0,5.7,3.5,9,9.2,9s9.2-3.2,9.2-8.9c0.1-8.9,0-17.7,0-26.6c0-3.3,0.7-6.2,3.8-8L162.2,0z"/>
		<path d="M211,0c4.1,4.3,4.3,6.2,0.9,11c-2.9,4.1-5.6,8.2-8.7,12.2c-1.6,2-1.6,3.5-0.1,5.6c4,5.4,7.8,11,11.7,16.5
			c1.9,2.7,2.3,5.5,0,8.2c-2.6,3.1-6.8,2.7-9.6-0.9c-3.3-4.4-6.4-8.9-9.5-13.5c-1.4-2-2.3-2.2-3.7-0.1c-2.9,4.3-6,8.6-9,12.9
			c-2.8,3.8-6.2,4.7-9.2,2.5s-3.3-5.4-0.8-9.2c3.7-5.5,7.5-10.9,11.5-16.2c1.6-2.2,1.6-3.9-0.1-6c-3-4-5.8-8.1-8.7-12.2
			c-3.3-4.8-3.1-6.3,0.8-10.8h6c3.6,4,6.4,8.5,9.4,12.9c1.5,2.2,2.3,2.2,3.9,0c3.2-4.4,5.6-9.4,9.9-12.9L211,0z"/>
		<path d="M107.5,0c3.5,2.5,3.9,5.8,2.3,9.6c-5.9,13.8-11.6,27.6-17.5,41.3c-1.8,4.2-4.9,5.7-8.2,4.3s-4.7-4.6-2.9-8.8
			C87,32.2,93,18.1,99,4c0.7-1.6,1.8-3,3.3-4H107.5z"/>
		<path d="M63.2,0c2.5,2,3.3,4.7,3.3,7.9c-0.1,13.1-0.1,26.2-0.1,39.4c0.1,1.1,0,2.2-0.2,3.4c-0.4,2.7-2.6,4.8-5.3,4.9
			c-3,0.3-5-1.3-6-4c-0.4-1.1-0.6-2.2-0.6-3.3c0-13.7,0-27.5,0-41.2c-0.2-2.8,1.2-5.5,3.6-7H63.2z"/>
		<path d="M374.5,0c2.5,1.9,4.4,4.2,3.2,7.6s-4,4.3-7.1,4.3c-12.1,0.1-24.2,0.1-36.3,0c-3,0-5.7-0.9-6.9-4.1
			c-1.3-3.4,0.6-5.7,2.9-7.8L374.5,0z"/>
		<path d="M128.8,187.4c0,16.4,0,32.7,0,49.1c0,13.5-8.7,22.4-22.2,22.4c-27.9,0.1-55.7,0.1-83.6,0c-13.5,0-22.6-8.8-22.7-22.2
			c-0.2-15.7-0.1-31.5,0-47.2c0-1.2,0.2-2.5,0.6-3.7c0.8-2.6,3.3-4.4,6.1-4.1c2.6,0.1,4.8,2,5.3,4.6c0.3,1.3,0.4,2.7,0.3,4.1
			c0,15.1,0,30.2,0,45.4c0,7.6,3.2,10.8,10.6,10.8c27.7,0,55.5,0,83.2,0c7.1,0,10.6-3.4,10.6-10.6c0.1-32.5,0.1-65,0-97.5
			c0-6.9-3.6-10.3-10.5-10.3c-28,0-56,0-84,0c-6.9,0-10,3.2-10.1,10.1c-0.1,7.1,0,14.2,0,21.4c0,4.7-2.3,7.5-5.9,7.6
			s-6.3-2.7-6.2-7.4c0.1-8.9-0.8-17.8,0.5-26.6c1.5-10.1,10.2-17.5,20.4-17.4c29-0.1,58-0.1,87,0c11.2-0.2,20.5,8.8,20.7,20
			c0,0.2,0,0.4,0,0.7C128.9,153.6,128.8,170.4,128.8,187.4L128.8,187.4z"/>
		<path d="M188.9,91.7H10.1c-1.6,0.1-3.3,0-4.9-0.2c-3.2-0.6-5.3-3.7-4.6-6.9c0.4-2.2,2-3.9,4.1-4.5c1.7-0.4,3.4-0.6,5.2-0.6
			c119.6,0,239.2,0,358.8,0c1.6,0,3.2,0.1,4.8,0.5c2.8,0.5,4.8,3.1,4.5,6c-0.1,3.1-2,5.1-5.1,5.6c-1.6,0.2-3.2,0.2-4.9,0.1
			L188.9,91.7z"/>
		<path d="M64.4,329c7.9,0,15.7,0,23.6,0c4.8,0,7.6,2.2,7.7,5.8s-2.8,6-7.4,6c-15.7,0-31.4,0-47.2,0c-4.7,0-7.1-2-7.2-5.7
			s2.6-6,7.4-6C48.9,329,56.6,329,64.4,329z"/>
		<path d="M352.8,21.6c6,0,12,0,18,0c4.5,0,7.5,2.6,7.4,6.2c-0.1,3.4-3,6-7.3,6c-12.2,0.1-24.5,0.1-36.7,0c-4.7,0-7.3-2.6-7.1-6.5
			c0.1-3.6,2.8-5.7,7.4-5.8C340.5,21.5,346.6,21.6,352.8,21.6z"/>
		<path d="M352.5,55.7c-6,0-12,0-18,0c-4.8,0-7.5-2.3-7.5-6s2.7-6.2,7.4-6.2c12-0.1,24-0.1,36,0c4.8,0,7.9,2.7,7.8,6.3s-3,5.9-7.7,6
			C364.5,55.7,358.5,55.7,352.5,55.7z"/>
		<path d="M79.7,163.6c-4.5,0-9,0.1-13.5,0c-4.9-0.1-7.8-2.6-7.6-6.4s2.9-5.8,7.7-5.8c9.1,0,18.2,0,27.3,0c4.8,0,7.4,2.3,7.4,6.1
			s-2.4,5.9-7,6.1C89.3,163.7,84.5,163.5,79.7,163.6L79.7,163.6z"/>
		<path d="M79.8,181.3c4.8,0,9.5,0,14.2,0c4.2,0.1,6.8,2.2,6.9,5.8s-2.2,6.2-6.4,6.3c-9.9,0.2-19.7,0.2-29.6,0
			c-4.1-0.1-6.6-2.9-6.4-6.3s2.8-5.7,7-5.7C70.4,181.2,75.1,181.3,79.8,181.3z"/>
		<path d="M79.7,211.3c4.9,0,9.7-0.1,14.6,0c4,0.1,6.5,2.2,6.6,5.6s-1.9,6.3-5.9,6.4c-10.1,0.3-20.2,0.3-30.3,0
			c-3.3,0.1-6-2.4-6.2-5.7c0-0.2,0-0.3,0-0.5c0.1-3.5,2.8-5.8,6.9-5.8C70.2,211.2,75,211.3,79.7,211.3z"/>
		<path d="M35.7,151.3c4.7,0,7.5,2.2,7.5,5.9c0.1,3.9-2.9,6.3-7.7,6.3c-4.3,0-7.5-2.7-7.4-6.2S31.1,151.3,35.7,151.3z"/>
		<path d="M35.6,181.3c4.7,0,7.5,2.2,7.6,5.9s-2.7,6.3-7.2,6.4s-7.9-2.5-7.9-6.1S31,181.3,35.6,181.3z"/>
		<path d="M35.8,223.5c-4.4,0-7.6-2.5-7.7-6c-0.1-3.8,2.9-6.2,7.7-6.2s7.4,2.2,7.4,6S40.3,223.5,35.8,223.5z"/>
		<path class="st0" d="M265.1,275.5c-26.9-0.1-49.8-17.2-57.3-42.8c-0.6-1.9-1.1-3.9-0.1-5.8c0.9-2.1,3-3.5,5.3-3.5
			c2.2-0.2,4.3,1.1,5.2,3.1c0.8,1.8,1.5,3.7,2.1,5.6c7.2,20.3,26.6,33,47.4,31.4c23.2-1.7,40.9-18.5,44.1-40.1
			c3.9-25.9-13.8-50-39.7-54c-22.9-3.5-44.9,10-52.1,32c-0.4,1.1-0.7,2.1-1.1,3.2c-1.5,3.7-4.5,5.3-7.7,4.1s-4.7-4.2-3.7-7.9
			c4.4-16,13.7-28.3,28.2-36.3c20.3-11.1,40.9-10.9,60.5,1.3c20,12.5,29.4,31.3,28,54.8C322.5,251.5,296.1,275.6,265.1,275.5z"/>
		<path class="st0" d="M261.8,297.8c18.8,0,34,0,49.3,0c7.6,0,14.6,1.8,20,7.7c6.4,7.1,8.4,15.3,5.1,24.3s-9.9,14.2-19.5,15.5
			c-2.6,0.3-5.2,0.5-7.8,0.5c-29.6,0-59.2,0-88.8,0c-3.5,0.1-7-0.3-10.4-1.2c-10.6-3-18.3-13.6-17.3-23.9
			c1.1-12.5,9.7-21.6,21.7-22.4C231.1,297.1,248.3,298.2,261.8,297.8z M265.3,310h-48c-4.7,0-8.6,1.6-11.1,5.8
			c-4.9,8.2,0.9,17.7,10.8,17.8c15.1,0.1,30.2,0,45.4,0c16.7,0,33.5,0,50.2,0c5.3,0,9.5-2,11.9-6.9c3.8-7.8-2.1-16.5-11.2-16.6
			C297.2,309.9,281.2,310,265.3,310z"/>
	</g>
</g>
</svg>
