<?xml version="1.0" encoding="utf-8"?>
<!-- Generator: Adobe Illustrator 25.0.1, SVG Export Plug-In . SVG Version: 6.00 Build 0)  -->
<svg version="1.1" id="Layer_1" xmlns="http://www.w3.org/2000/svg" xmlns:xlink="http://www.w3.org/1999/xlink" x="0px" y="0px"
	 viewBox="0 0 384 384.1" style="enable-background:new 0 0 384 384.1;" xml:space="preserve">
<style type="text/css">
	.st0{fill:#FF8000;}
</style>
<g id="Layer_2_1_">
	<g id="Layer_1-2">
		<path d="M99.8,0c9.2,2,17.7,5.4,24.3,12.4c6.8,7.1,10.8,16.5,11.2,26.3c0.7,11.6,0.7,23.2,0,34.8c-0.6,10.1-4.1,19-11.2,26.3
			c-2.1,2.2-2.3,4.3-2.3,7.1c-0.1,10.6,6.7,16.1,15.1,20.1c7.5,3.6,15.3,6.9,23,10c15.8,6.4,22.9,18.5,23.1,35.1
			c0,3.6,0.1,7.2,0,10.9c-0.1,2.5,0.9,3.7,3.5,3.6c3-0.2,6,0,8.9,0.6c7.6,1.9,12.8,9.4,11.5,17c-4.2,24.4-8.4,48.7-12.8,73
			c-2,11.1-10.4,17.7-21.8,17.7c-42.4,0-84.7,0-127.1,0c-10.6,0-15.2-3.7-17.7-14c-1-4-2-8-2.9-12c-1.4-6,1.1-9.4,7.4-9.6
			c7.7-0.2,15.5,0,23.2-0.1c6.1,0,6.2,0,7.3-6.1c2.9-16.2,5.8-32.4,8.5-48.7c1.2-7,4.7-12.3,10.9-15.6c1.9-1,2.8-2.1,2.8-4.3
			c-0.1-6.4,0-12.8-0.1-19.1c0-0.8,0.4-1.9-0.6-2.4s-1.6,0.5-2.3,1c-4.1,2.9-8,6-12.1,8.8c-5.4,3.8-9.7,2.4-11.8-4
			c-2.8-8.6-5.5-17.1-8.1-25.7c-0.8-2.6-1.7-3.4-4.5-2.1c-6,2.8-12.1,5.4-18.2,7.9c-10.1,4.2-14.8,11.9-14.8,22.6
			c0,24.1,0,48.2,0,72.4c0,5-2.2,7.5-6.2,7.7c-2.7,0.1-4.3-1.6-6-3.3v-85.5c3.6-13.7,12.5-22.3,25.7-27c6.6-2.4,12.8-5.7,19.3-8.2
			c5.3-2.1,8.9-6.3,13.1-9.8c1-1,1.5-2.3,1.6-3.7c0.4-2.6,0.5-5.2,1-7.8s-0.2-4.2-2-6c-7.1-7-11.3-16.5-11.5-26.5
			c-0.3-11.6-0.6-23.2,0-34.8c0.8-14.7,7.5-26.2,20.6-33.6c4.7-2.6,9.8-3.8,14.8-5.3H99.8z M141,199.7c-16.2,0-32.5,0-48.7,0
			c-5.2,0-7.7,2-8.6,6.9c-4.1,23-8.1,46-12.1,69c-1,5.7,0.2,7,6,7h93c7.4,0,10.1-2.3,11.4-9.5c4-22.6,8-45.2,11.9-67.9
			c0.8-4.4,0-5.4-4.5-5.4C173.3,199.7,157.1,199.6,141,199.7z M60,64.9h0.1c0,2.9-0.1,5.8,0,8.6c0.6,12.1,12.3,26.3,24.1,29.2
			c12.7,3.1,25.9-3.2,34-15.9c5-7.9,4.6-16.6,4.6-25.4c0-2.5-0.7-3.1-3.3-2.8C105.7,60,93.5,56.8,83.9,46c-1.2-1.3-2.1-1.5-3.4-0.3
			c-4.7,4.4-11.1,6.6-17.5,6.2c-2.4-0.1-3,1.2-3,3.2C60,58.4,60,61.6,60,64.9z M133.7,186.6c10.7,0,21.5-0.1,32.2,0
			c3,0,4.3-0.8,4.1-4c-0.2-4.2,0.1-8.5-0.1-12.7c-0.3-9.1-4.3-16.1-12.8-19.9c-6.7-3.1-13.5-5.8-20.2-8.9c-2.5-1.1-3.4-0.6-4.2,2
			c-2.6,8.6-5.4,17.1-8.2,25.7c-2.2,6.7-6.2,8.1-11.9,4.1c-4.2-3-8.3-6-12.4-9c-1.8-1.4-2.6-1-2.6,1.3c0,5.6,0.2,11.2-0.1,16.9
			c-0.2,3.5,0.9,4.8,4.6,4.8C112.7,186.5,123.2,186.6,133.7,186.6L133.7,186.6z M90.6,12.3c-1.8,0.2-4.3,0.4-6.8,0.8
			C72.3,14.6,63,23.2,60.7,34.6c-0.8,3.5-0.2,4.2,3.5,4.1c6-0.1,9.5-3.8,11.9-8.9c1.3-2.6,3-4.6,6.2-4.6s4.9,1.9,6.3,4.5
			C94.7,42,103.8,47,117.5,45.7c5.5-0.5,5.9-1.1,5.1-6.5C120.1,21.9,109,12.4,90.6,12.3z M110,115.9c0.1-2.7-0.4-3.9-3.6-2.6
			c-9.7,4-20.6,4.1-30.3,0.1c-3.1-1.2-3.8-0.7-3.9,2.7c0,1.5,0.6,3,1.7,4c5.1,5.7,10.2,11.3,15.1,17.1c1.7,2,2.8,1.7,4.4-0.1
			c4.9-5.7,9.9-11.2,14.9-16.8C109.6,119.2,110.2,117.6,110,115.9z M81,147.6c-0.5-0.6-1-1.5-1.7-2.2c-4-4.6-8.1-9.2-12.2-13.7
			c-0.9-1-1.6-3.1-3.5-1.8s-4,2.3-3,5.3c2.2,6.8,4.3,13.5,6.4,20.3c0.6,1.9,1.4,2.5,3.2,1.1c3-2.4,6.2-4.6,9.3-6.9
			C80.2,149.4,81.1,149,81,147.6z M122,134.9c0.3-2.6-1.7-3.6-3.1-4.9c-1-0.9-1.8-0.2-2.5,0.6c-4.7,5.3-9.4,10.6-14.1,15.9
			c-1,1.2-1.2,2,0.2,3c3.3,2.4,6.6,4.8,9.9,7.3c1,0.8,2.2,1.2,2.7-0.4C117.4,149.2,119.7,142,122,134.9L122,134.9z M49.9,282.5
			c1.9,0,3.7,0,5.6,0c1.3,0,2.8-0.1,2.7-1.8c-0.2-2.7,1.2-5.3-0.1-7.9c-0.1-0.3-0.9-0.3-1.4-0.3c-5.2,0-10.5,0-15.7,0
			c-1.7,0-2.1,0.7-1.9,2.3c0.7,6.8,1.7,7.7,8.5,7.7L49.9,282.5z"/>
		<path d="M375,384c-2.6-2.2-3.4-5-3.3-8.3c0.1-11.9,0.1-23.7,0-35.6c0-14.3-5.6-22.4-18.9-27.2c-16.4-6-32.4-13.1-49.2-18
			c-15.8-4.6-31.9-5.3-47.6-0.2c-11,3.5-21.6,8.5-32.3,12.9c-5,2-9.9,4.1-14.9,6.1c-11,4.5-16.5,12.6-16.6,24.6
			c0,12.6-0.1,25.2,0,37.8c0,3.4-1,6.1-4,7.9H183c-2.4-1.5-3.8-4.2-3.8-7c0.2-14.7-1-29.5,0.6-44.2s9.7-25,23.2-30.7
			c13-5.5,26.1-10.8,39.2-15.9c3.6-1.4,5.1-3.4,5.1-7.2c0.1-4.4,0.8-8.7,1.2-13c0.2-2.4,0.4-4.6-1.6-6.5
			c-9.6-9.1-14.2-20.5-14.4-33.5c-0.2-12.4-0.6-24.7,0.4-37.1c1.8-22.4,17.7-39.1,40-42c14.3-1.9,27.7,0.1,39.6,8.7
			s17.6,20.6,18.3,34.9c0.6,12.7,0.4,25.5,0,38.2c-0.3,11.6-4.9,21.6-13.1,29.8c-2,1.8-3,4.4-2.6,7c0.6,5.8,1.1,11.7,1.6,17.5
			c0.2,2.4,1.9,3.3,3.8,4c11.7,4.4,23.3,9.1,35.1,13.1c15.2,5.1,24.8,14.9,28.3,30.6c0,17,0,34,0,51c0,1.9-0.4,2.5-2.3,2.3
			C379.5,383.9,377.2,384,375,384z M317.8,209.3c0-6.7,0.3-13.5-0.1-20.2c-0.3-7.2-3.2-14-8.2-19.2c-8.6-9.1-19.7-11.2-31.6-10.5
			c-17.3,1-29.6,11.8-31.8,28.8c-1.7,13.7-0.9,27.5-0.4,41.2c0.4,9.4,5,17.1,12.2,23.2c1.9,1.7,4.3,2.5,6.9,2.5
			c11.4-0.1,22.7-0.1,34.1,0c2.4,0.1,4.7-0.7,6.5-2.3c5.8-4.9,10-10.8,11.6-18.3C318.9,226,317.6,217.6,317.8,209.3z M281.8,267.8
			h-12.4c-8.7,0-9.1,0.5-9.1,9.3c0,2.4,0.8,2.9,3.1,2.6c12.1-1.8,24.5-1.4,36.5,1c2.6,0.5,3.9-0.1,3.6-3c-0.3-1.8-0.5-3.7-0.6-5.6
			c0-3.5-1.8-4.5-5-4.5C292.6,267.9,287.2,267.8,281.8,267.8L281.8,267.8z"/>
		<path d="M384,111c-4.4,11.5-9.7,15.1-22,15.1c-44,0-87.9,0-131.9,0c-12.4,0-20.2-8-20.4-20.4c0-3.5-0.2-7,0-10.5s-1.1-5.1-4.1-6.6
			c-8-3.8-15.8-8.1-23.7-12c-5.3-2.6-8.4-6.6-8.4-12.6s3.3-9.9,8.6-12.5c8.2-4,16.2-8.3,24.4-12.4c2.3-1.2,3.4-2.6,3.2-5.2
			c-0.2-4.2,0.1-8.5-0.1-12.7c-0.4-10.3,4.2-17.4,13.8-21.2h147c6.9,2.5,11.1,7.5,13.5,14.2V111z M296.9,113.1h66.3
			c6,0,8.5-2.2,8.5-8.3c0.1-28.1,0.1-56.2,0-84.3c0-5.8-2.6-8.2-8.3-8.2c-44.2,0-88.5,0-132.7,0c-6,0-8.3,2.4-8.4,8.5
			s-0.2,12.2,0,18.4c0.2,4.5-1.6,7.2-5.6,9.2c-9.2,4.5-18.2,9.3-27.3,14c-0.9,0.5-2.5,0.6-2.5,1.9c0.1,1.3,1.6,1.4,2.6,1.9
			c9.2,4.8,18.4,9.6,27.7,14.2c3.5,1.8,5.3,4.2,5.1,8.3c-0.2,5.2-0.1,10.5,0,15.7c0,6.7,2.1,8.8,8.7,8.8L296.9,113.1z"/>
		<path d="M47.5,225.2c0,6.4,0,12.7,0,19.1c0,4.6-2.4,7.2-6.3,7.2s-6.2-2.6-6.2-7.3c0-12.7,0-25.5,0-38.2c0-4.5,2.5-7.3,6.3-7.3
			s6.2,2.8,6.2,7.4C47.5,212.5,47.5,218.9,47.5,225.2z"/>
		<path d="M144.2,240.6c0.2,3.3-2.3,6.2-5.6,6.4c-0.2,0-0.4,0-0.6,0c-3.4,0.1-6.3-2.6-6.4-6c-0.1-3.4,2.6-6.3,6-6.4
			c0.2,0,0.3,0,0.5,0c3.3-0.1,6.1,2.5,6.1,5.9C144.2,240.5,144.2,240.5,144.2,240.6z"/>
		<path class="st0" d="M298.5,29.8h41.6c1.3,0,2.5,0,3.8,0.1c3.5,0.4,5.3,2.6,5.6,6c0.2,3.1-1.9,6-5,6.6c-1.5,0.3-3,0.4-4.5,0.3
			c-27.7,0-55.5,0-83.2,0c-1.7,0-3.5-0.1-5.2-0.5c-3.1-0.7-4.5-3-4.5-6.1c-0.2-2.9,1.7-5.5,4.6-6.1c1.5-0.3,3-0.4,4.5-0.4
			C270.3,29.8,284.4,29.8,298.5,29.8z"/>
		<path class="st0" d="M298.1,69.2c-14,0-28,0-42,0c-1.2,0.1-2.5,0-3.7-0.1c-3.2-0.6-5.1-2.6-5.2-5.9s1.2-5.6,4.5-6.5
			c1.6-0.4,3.2-0.5,4.8-0.5c27.9,0,55.7,0,83.6,0c1.4,0,2.7,0.1,4.1,0.3c3.2,0.5,5.6,3.3,5.4,6.6c-0.2,3.4-2.5,5.7-6.1,6
			c-1.1,0.1-2.2,0.1-3.4,0.1C326.1,69.2,312.1,69.2,298.1,69.2z"/>
		<path class="st0" d="M279.8,83c8.5,0,17,0,25.5,0c5,0,7.6,2.2,7.7,6.2s-2.4,6.6-7.4,6.6c-17,0.2-34,0.2-51,0
			c-5.5-0.1-8.1-3.1-7.4-7.6c0.5-3.3,2.8-5.2,6.7-5.2C262.5,83,271.1,83,279.8,83z"/>
	</g>
</g>
</svg>
