<svg xmlns="http://www.w3.org/2000/svg" viewBox="0 0 400 400"><defs><style>.cls-1{fill:none;}.cls-2{fill:#010101;}</style></defs><g id="Layer_2" data-name="Layer 2"><g id="Layer_2-2" data-name="Layer 2"><rect class="cls-1" width="400" height="400"/></g><g id="Layer_4" data-name="Layer 4"><path class="cls-2" d="M100.54,108.2l15.91-15.9a4.83,4.83,0,0,0-6.83-6.84L90.29,104.79a4.84,4.84,0,0,0,0,6.83L109.62,131a4.86,4.86,0,0,0,3.42,1.41,4.78,4.78,0,0,0,3.41-1.42,4.84,4.84,0,0,0,0-6.83Z"/><path class="cls-2" d="M309.71,104.79,290.38,85.47a4.83,4.83,0,0,0-6.83,6.83l15.91,15.9-15.92,15.92a4.84,4.84,0,0,0,0,6.83,4.85,4.85,0,0,0,6.84,0l19.33-19.33A4.84,4.84,0,0,0,309.71,104.79Z"/><path class="cls-2" d="M306.29,103.37h-58a4.83,4.83,0,0,0,0,9.66h58a4.83,4.83,0,0,0,0-9.66Z"/><path class="cls-2" d="M151.69,103.37h-58a4.83,4.83,0,0,0,0,9.66h58a4.83,4.83,0,1,0,0-9.66Z"/><path class="cls-2" d="M272.47,190.33a19.29,19.29,0,0,0-10.75,3.27,19.31,19.31,0,0,0-27.9-10.33V132.36a19.33,19.33,0,0,0-37.57-6.4A19.33,19.33,0,0,0,166.18,142v82.13l-16.79-12.59a25.33,25.33,0,0,0-32.94,2.34,14.5,14.5,0,0,0,0,20.5l68.81,68.81A43.2,43.2,0,0,0,216,316h22.64A53.21,53.21,0,0,0,291.8,262.8V209.66A19.35,19.35,0,0,0,272.47,190.33Zm9.66,72.47a43.54,43.54,0,0,1-43.48,43.49H216a33.54,33.54,0,0,1-23.9-9.91l-68.82-68.82a4.82,4.82,0,0,1,0-6.83,15.63,15.63,0,0,1,20.31-1.44l24.51,18.39a4.83,4.83,0,0,0,7.73-3.86V142a9.67,9.67,0,0,1,19.33,0v72.47a4.83,4.83,0,1,0,9.66,0V132.36a9.67,9.67,0,0,1,19.33,0v82.13a4.83,4.83,0,1,0,9.66,0V200a9.66,9.66,0,1,1,19.32,0v14.49a4.84,4.84,0,0,0,9.67,0v-4.83a9.66,9.66,0,1,1,19.32,0V262.8Z"/></g></g></svg>