<?xml version="1.0" encoding="utf-8"?>
<!-- Generator: Adobe Illustrator 25.0.1, SVG Export Plug-In . SVG Version: 6.00 Build 0)  -->
<svg version="1.1" id="Layer_1" xmlns="http://www.w3.org/2000/svg" xmlns:xlink="http://www.w3.org/1999/xlink" x="0px" y="0px"
	 viewBox="0 0 400 400" style="enable-background:new 0 0 400 400;" xml:space="preserve">
<style type="text/css">
	.st0{fill:none;}
	.st1{fill:#010101;}
</style>
<g id="Layer_2_1_">
	<g id="Layer_2-2">
		<rect class="st0" width="400" height="400"/>
	</g>
	<g id="Layer_3">
		<path class="st1" d="M299.7,274.8l2.8-60.3c0-11-9.5-20.6-20.7-20.6c-3.5,0-7,0.9-10,2.6c-1.6-10.2-10.3-17.8-20.6-17.9
			c-3.5,0-6.9,0.9-10,2.6c-1.6-10.2-10.3-17.7-20.6-17.9c-3.4,0-6.8,0.9-9.8,2.5v-27.1c-0.3-11.4-9.7-20.5-21.1-20.2
			c-11.1,0.2-20,9.2-20.2,20.2v104l-35.7-26c-9.6-7.1-23-6.2-31.5,2.2c-6.3,6.3-6.3,16.6,0,22.9l72,72
			c11.1,11.2,26.3,17.4,42.1,17.4h24C272,331.3,298.1,306.4,299.7,274.8L299.7,274.8z M240.4,320.6h-24c-12.9,0-25.3-5.1-34.4-14.2
			l-72-72c-2.1-2.1-2.1-5.5,0-7.6c4.7-4.7,12.1-5.2,17.4-1.2l44.3,32.3c2.4,1.8,5.8,1.2,7.5-1.2c0.7-0.9,1-2,1-3.2V138.8
			c0-5.5,4.4-9.9,9.9-9.9c5.5,0,9.9,4.4,9.9,9.9v44.9c0,0.1,0,0.2,0,0.4v31.2c0.1,3,2.7,5.3,5.6,5.2c2.8-0.1,5.1-2.4,5.2-5.2v-31.5
			c0.2-5.4,4.6-9.6,9.9-9.6c5.4,0.1,9.7,4.5,9.8,9.8v15c0,0.1,0,0.2,0,0.3v15.9c0,3,2.4,5.4,5.4,5.4c3,0,5.4-2.4,5.4-5.4v-16.1
			c0.1-5.4,4.6-9.7,9.9-9.6c5.4,0.1,9.7,4.5,9.8,9.8v16l0,0l0,0c0,0.1,0,0.1,0,0.1s0,0,0,0l0,0l0,0c0.2,3,2.7,5.3,5.7,5.1
			c2.8-0.2,5-2.5,5.1-5.3v-0.9c0.2-5.4,4.6-9.6,9.9-9.6c5.2,0,9.8,4.8,9.8,9.6l-2.8,60c-1.2,25.9-22.6,46.3-48.5,46.3L240.4,320.6z"
			/>
		<path class="st1" d="M261.1,215.3L261.1,215.3L261.1,215.3C261.1,215.3,261.1,215.3,261.1,215.3z"/>
		<path class="st1" d="M235.5,156c9.5-25.1-3.1-53.1-28.2-62.7s-53.1,3.1-62.7,28.2c-4.2,11.1-4.2,23.4,0,34.5
			c0.3,0.7,0.7,1.4,1.2,1.9c2.1,2.1,5.5,2.1,7.6,0c1.5-1.5,2-3.8,1.2-5.8c-7.4-19.5,2.4-41.3,21.9-48.7c19.5-7.4,41.3,2.4,48.7,21.9
			c3.3,8.7,3.3,18.2,0,26.9c-0.9,2.8,0.6,5.9,3.5,6.8C231.6,159.9,234.4,158.6,235.5,156z"/>
		<path class="st1" d="M250.8,174c19.5-33.5,8.1-76.5-25.5-96s-76.5-8.1-96,25.5c-12.7,21.8-12.7,48.7,0,70.5
			c0.2,0.4,0.5,0.8,0.9,1.1c2.1,2.1,5.5,2.1,7.6,0c1.7-1.7,2.1-4.4,0.9-6.5c-16.5-28.4-6.8-64.7,21.6-81.2s64.7-6.8,81.2,21.6
			c10.7,18.4,10.7,41.2,0,59.6c-1.5,2.6-0.6,5.8,1.9,7.3c0,0,0.1,0,0.1,0.1C246.1,177.4,249.3,176.5,250.8,174z"/>
	</g>
</g>
</svg>
