<?xml version="1.0" encoding="utf-8"?>
<!-- Generator: Adobe Illustrator 25.0.1, SVG Export Plug-In . SVG Version: 6.00 Build 0)  -->
<svg version="1.1" id="Layer_1" xmlns="http://www.w3.org/2000/svg" xmlns:xlink="http://www.w3.org/1999/xlink" x="0px" y="0px"
	 viewBox="0 0 512 512" style="enable-background:new 0 0 512 512;" xml:space="preserve">
<style type="text/css">
	.st0{fill:#C3CAD3;}
</style>
<g id="Interview-2">
	<path d="M146.1,370.3c32.2-23.3,39.5-68.3,16.2-100.5s-68.3-39.5-100.5-16.2s-39.5,68.3-16.2,100.5c4.5,6.2,10,11.7,16.2,16.2
		C30.2,378.6,8,407.2,8,440v32c0,4.4,3.6,8,8,8h176c4.4,0,8-3.6,8-8v-32C200,407.2,177.8,378.6,146.1,370.3z M48,312
		c0-30.9,25.1-56,56-56s56,25.1,56,56s-25.1,56-56,56C73.1,368,48,342.9,48,312z M184,464H24v-24c0-30.9,25.1-56,56-56h48
		c30.9,0,56,25.1,56,56V464z"/>
	<path d="M464,56H200c-22.1,0-40,17.9-40,40v128c0,22.1,17.9,40,40,40v56c0,4.4,3.6,8,8,8c1.7,0,3.3-0.5,4.7-1.5l85.9-62.5H464
		c22.1,0,40-17.9,40-40V96C504,73.9,486.1,56,464,56z M488,224c0,13.2-10.8,24-24,24H296c-1.7,0-3.3,0.5-4.7,1.5L216,304.3V256
		c0-4.4-3.6-8-8-8h-8c-13.2,0-24-10.8-24-24V96c0-13.2,10.8-24,24-24h264c13.2,0,24,10.8,24,24V224z"/>
	<path class="st0" d="M336,128c-17.7,0-32,14.3-32,32s14.3,32,32,32s32-14.3,32-32C368,142.3,353.7,128,336,128z M336,176
		c-8.8,0-16-7.2-16-16s7.2-16,16-16s16,7.2,16,16C352,168.8,344.8,176,336,176z"/>
	<path class="st0" d="M255,128c-17.7,0-32,14.3-32,32s14.3,32,32,32s32-14.3,32-32C287,142.3,272.7,128,255,128z M255,176
		c-8.8,0-16-7.2-16-16s7.2-16,16-16c8.8,0,16,7.2,16,16C271,168.8,263.8,176,255,176z"/>
	<path class="st0" d="M416,192c17.7,0,32-14.3,32-32s-14.3-32-32-32s-32,14.3-32,32C384,177.7,398.3,192,416,192z M416,144
		c8.8,0,16,7.2,16,16s-7.2,16-16,16s-16-7.2-16-16C400,151.2,407.2,144,416,144z"/>
	<path d="M432,216h-64c-4.4,0-8,3.6-8,8s3.6,8,8,8h64c4.4,0,8-3.6,8-8S436.4,216,432,216z"/>
	<path d="M464,216h-8c-4.4,0-8,3.6-8,8s3.6,8,8,8h8c4.4,0,8-3.6,8-8S468.4,216,464,216z"/>
</g>
</svg>
